<svg xmlns="http://www.w3.org/2000/svg" xmlns:xlink="http://www.w3.org/1999/xlink" width="500" zoomAndPan="magnify" viewBox="0 0 375 374.999991" height="500" preserveAspectRatio="xMidYMid meet" version="1.0"><defs><clipPath id="id1"><path d="M 113.71875 112.5 L 261 112.5 L 261 157 L 113.71875 157 Z M 113.71875 112.5 " clip-rule="nonzero"/></clipPath><clipPath id="id2"><path d="M 116 156 L 261.46875 156 L 261.46875 185 L 116 185 Z M 116 156 " clip-rule="nonzero"/></clipPath><clipPath id="id3"><path d="M 116 183 L 261.46875 183 L 261.46875 262.5 L 116 262.5 Z M 116 183 " clip-rule="nonzero"/></clipPath><clipPath id="id4"><path d="M 113.71875 127 L 169 127 L 169 154 L 113.71875 154 Z M 113.71875 127 " clip-rule="nonzero"/></clipPath></defs><g clip-path="url(#id1)"><path fill="#000000" d="M 257.085938 112.523438 L 113.996094 130.058594 L 113.71875 130.089844 L 116.996094 156.714844 L 260.367188 139.148438 Z M 257.085938 112.523438 " fill-opacity="1" fill-rule="nonzero"/></g><g clip-path="url(#id2)"><path fill="#000000" d="M 116.996094 156.746094 L 116.996094 184.316406 L 117.394531 184.316406 L 261.46875 184.347656 L 261.46875 156.714844 Z M 116.996094 156.746094 " fill-opacity="1" fill-rule="nonzero"/></g><g clip-path="url(#id3)"><path fill="#ffa945" d="M 116.996094 183.917969 L 261.40625 183.917969 L 261.40625 262.476562 L 116.996094 262.476562 Z M 116.996094 183.917969 " fill-opacity="1" fill-rule="nonzero"/></g><g clip-path="url(#id4)"><path fill="#ffa945" d="M 168.71875 150.347656 L 135.933594 127.367188 L 119.695312 129.355469 L 113.996094 130.058594 L 146.78125 153.042969 Z M 168.71875 150.347656 " fill-opacity="1" fill-rule="nonzero"/></g><path fill="#ffa945" d="M 211.523438 145.117188 L 178.769531 122.132812 L 159.527344 124.492188 L 156.800781 124.828125 L 189.585938 147.808594 Z M 211.523438 145.117188 " fill-opacity="1" fill-rule="nonzero"/><path fill="#ffa945" d="M 258.863281 139.332031 L 258.925781 139.269531 L 226.230469 116.320312 L 224.148438 116.535156 L 204.261719 119.011719 L 237.078125 141.996094 Z M 258.863281 139.332031 " fill-opacity="1" fill-rule="nonzero"/><path fill="#ffa945" d="M 168.996094 156.746094 L 146.933594 156.746094 L 147.148438 156.898438 L 117.394531 184.316406 L 139.210938 184.316406 L 169.085938 156.804688 Z M 168.996094 156.746094 " fill-opacity="1" fill-rule="nonzero"/><path fill="#ffa945" d="M 212.257812 156.714844 L 190.136719 156.714844 L 190.320312 156.867188 L 160.539062 184.347656 L 182.414062 184.347656 L 212.320312 156.777344 Z M 212.257812 156.714844 " fill-opacity="1" fill-rule="nonzero"/><path fill="#ffa945" d="M 237.96875 156.714844 L 238.027344 156.746094 L 208.09375 184.347656 L 229.96875 184.347656 L 259.9375 156.714844 Z M 237.96875 156.714844 " fill-opacity="1" fill-rule="nonzero"/><path fill="#000000" d="M 123.832031 203.535156 L 252.523438 203.535156 L 252.523438 205.035156 L 123.832031 205.035156 Z M 123.832031 203.535156 " fill-opacity="1" fill-rule="nonzero"/><path fill="#000000" d="M 123.832031 228.199219 L 123.832031 229.699219 L 187.410156 229.699219 L 187.410156 253.261719 L 188.941406 253.261719 L 188.941406 229.699219 L 252.492188 229.699219 L 252.492188 228.199219 Z M 123.832031 228.199219 " fill-opacity="1" fill-rule="nonzero"/><path fill="#000000" d="M 119.140625 142.300781 L 129.191406 142.300781 L 140.375 152.917969 L 140.375 163.84375 L 119.140625 163.84375 Z M 119.140625 142.300781 " fill-opacity="1" fill-rule="nonzero"/><path fill="#000000" d="M 124.625 159.285156 C 124.625 159.527344 124.582031 159.761719 124.488281 159.988281 C 124.394531 160.210938 124.261719 160.410156 124.089844 160.582031 C 123.914062 160.753906 123.71875 160.886719 123.492188 160.980469 C 123.265625 161.074219 123.03125 161.121094 122.789062 161.121094 C 122.542969 161.121094 122.308594 161.074219 122.085938 160.980469 C 121.859375 160.886719 121.660156 160.753906 121.488281 160.582031 C 121.316406 160.410156 121.183594 160.210938 121.089844 159.988281 C 120.996094 159.761719 120.949219 159.527344 120.949219 159.285156 C 120.949219 159.042969 120.996094 158.808594 121.089844 158.582031 C 121.183594 158.355469 121.316406 158.160156 121.488281 157.988281 C 121.660156 157.816406 121.859375 157.683594 122.085938 157.589844 C 122.308594 157.496094 122.542969 157.449219 122.789062 157.449219 C 123.03125 157.449219 123.265625 157.496094 123.492188 157.589844 C 123.71875 157.683594 123.914062 157.816406 124.089844 157.988281 C 124.261719 158.160156 124.394531 158.355469 124.488281 158.582031 C 124.582031 158.808594 124.625 159.042969 124.625 159.285156 Z M 124.625 159.285156 " fill-opacity="1" fill-rule="nonzero"/><path fill="#000000" d="M 124.625 145.972656 C 124.625 146.214844 124.582031 146.449219 124.488281 146.675781 C 124.394531 146.902344 124.261719 147.097656 124.089844 147.273438 C 123.914062 147.445312 123.71875 147.578125 123.492188 147.667969 C 123.265625 147.761719 123.03125 147.808594 122.789062 147.808594 C 122.542969 147.808594 122.308594 147.761719 122.085938 147.667969 C 121.859375 147.578125 121.660156 147.445312 121.488281 147.273438 C 121.316406 147.097656 121.183594 146.902344 121.089844 146.675781 C 120.996094 146.449219 120.949219 146.214844 120.949219 145.972656 C 120.949219 145.730469 120.996094 145.496094 121.089844 145.269531 C 121.183594 145.046875 121.316406 144.847656 121.488281 144.675781 C 121.660156 144.503906 121.859375 144.371094 122.085938 144.277344 C 122.308594 144.183594 122.542969 144.136719 122.789062 144.136719 C 123.03125 144.136719 123.265625 144.183594 123.492188 144.277344 C 123.71875 144.371094 123.914062 144.503906 124.089844 144.675781 C 124.261719 144.847656 124.394531 145.046875 124.488281 145.269531 C 124.582031 145.496094 124.625 145.730469 124.625 145.972656 Z M 124.625 145.972656 " fill-opacity="1" fill-rule="nonzero"/><path fill="#000000" d="M 138.292969 159.285156 C 138.292969 159.527344 138.246094 159.761719 138.152344 159.988281 C 138.058594 160.210938 137.925781 160.410156 137.753906 160.582031 C 137.582031 160.753906 137.382812 160.886719 137.15625 160.980469 C 136.933594 161.074219 136.699219 161.121094 136.453125 161.121094 C 136.210938 161.121094 135.976562 161.074219 135.75 160.980469 C 135.527344 160.886719 135.328125 160.753906 135.152344 160.582031 C 134.980469 160.410156 134.847656 160.210938 134.753906 159.988281 C 134.664062 159.761719 134.617188 159.527344 134.617188 159.285156 C 134.617188 159.042969 134.664062 158.808594 134.753906 158.582031 C 134.847656 158.355469 134.980469 158.160156 135.152344 157.988281 C 135.328125 157.816406 135.527344 157.683594 135.75 157.589844 C 135.976562 157.496094 136.210938 157.449219 136.453125 157.449219 C 136.699219 157.449219 136.933594 157.496094 137.15625 157.589844 C 137.382812 157.683594 137.582031 157.816406 137.753906 157.988281 C 137.925781 158.160156 138.058594 158.355469 138.152344 158.582031 C 138.246094 158.808594 138.292969 159.042969 138.292969 159.285156 Z M 138.292969 159.285156 " fill-opacity="1" fill-rule="nonzero"/></svg>