<svg xmlns="http://www.w3.org/2000/svg" xmlns:xlink="http://www.w3.org/1999/xlink" width="500" zoomAndPan="magnify" viewBox="0 0 375 374.999991" height="500" preserveAspectRatio="xMidYMid meet" version="1.0"><defs><clipPath id="id1"><path d="M 112.5 135 L 262.5 135 L 262.5 239.605469 L 112.5 239.605469 Z M 112.5 135 " clip-rule="nonzero"/></clipPath></defs><g clip-path="url(#id1)"><path fill="#ffa945" d="M 262.332031 218.457031 C 261.351562 206.199219 261.21875 196.6875 259.75 184.425781 C 258.769531 174.621094 262.5 159.835938 253.652344 150.101562 C 251.800781 148.066406 249.28125 147.046875 246.472656 146.621094 C 247.058594 145.886719 246.285156 144.523438 246.125 144 C 245.925781 143.351562 245.375 142.402344 243.875 142.25 C 242.375 142.101562 224.574219 142.925781 222.199219 143.125 C 219.824219 143.324219 219.625 145.824219 219.898438 147.351562 C 220.027344 148.0625 220.703125 148.46875 221.382812 148.699219 C 220.527344 148.777344 219.667969 148.855469 218.808594 148.925781 C 216.878906 146.984375 215.710938 145.683594 214.554688 142.910156 C 212.972656 139.117188 212.539062 136.4375 207.472656 135.816406 C 202.964844 135.261719 198.636719 134.792969 194.132812 135.09375 C 187.070312 135.597656 184.550781 136.605469 181.019531 142.90625 C 179.601562 145.414062 178.371094 147.445312 176.820312 148.820312 C 176.015625 149.535156 173.285156 150.421875 172.121094 150.433594 C 170.957031 150.445312 170.285156 150.449219 170.285156 150.449219 C 157.03125 150.234375 148.441406 149.609375 148.441406 149.609375 C 140.105469 142.257812 121.46875 142.75 113.132812 150.101562 C 113.132812 159.835938 112.144531 178.53125 112.636719 187.886719 C 113.496094 199.714844 113.890625 211.03125 113.792969 222.320312 C 114.132812 234.613281 115.964844 237.160156 128.621094 239.292969 C 136.921875 240.21875 148.441406 239.347656 154.324219 232.972656 C 154.324219 232.972656 183.253906 233.460938 196.496094 234.445312 C 212.1875 235.914062 226.046875 235.128906 241.738281 234.148438 C 255.46875 233.171875 263.804688 234.148438 262.332031 218.457031 " fill-opacity="1" fill-rule="nonzero"/></g><path fill="#ffbd59" d="M 225.195312 175.488281 C 219.316406 171.203125 208.785156 169.429688 201.6875 169.316406 C 188.519531 169.097656 176.417969 173.195312 168.765625 184.339844 C 159.320312 198.089844 162.789062 220.539062 176.519531 230.382812 C 180.207031 233.027344 185.125 234.6875 189.484375 235.640625 C 199.234375 237.761719 208.96875 236.421875 218.363281 233.347656 C 222.667969 231.941406 227.128906 230.300781 230.519531 227.136719 C 246.671875 212.082031 240.867188 186.910156 225.195312 175.488281 " fill-opacity="1" fill-rule="nonzero"/><path fill="#000000" d="M 149.8125 161.855469 C 152.890625 184.394531 150.1875 206.867188 151.820312 229.402344 C 151.867188 230.050781 152.777344 230.050781 152.828125 229.402344 C 154.523438 207.136719 154.285156 183.59375 151.171875 161.480469 C 151.042969 160.582031 149.691406 160.96875 149.8125 161.855469 " fill-opacity="1" fill-rule="nonzero"/><path fill="#000000" d="M 229.632812 226.390625 C 226.34375 229.453125 222.019531 231.042969 217.847656 232.410156 C 208.746094 235.386719 199.3125 236.683594 189.867188 234.625 C 185.640625 233.707031 180.878906 232.097656 177.304688 229.53125 C 163.996094 219.996094 160.636719 198.242188 169.789062 184.917969 C 177.207031 174.121094 188.929688 170.148438 201.691406 170.359375 C 208.570312 170.472656 218.773438 172.1875 224.472656 176.34375 C 239.652344 187.410156 245.28125 211.796875 229.632812 226.390625 Z M 218.300781 167.464844 C 211.257812 165.53125 203.652344 164.75 196.351562 165.605469 C 188.492188 166.523438 180.980469 169.332031 174.886719 174.617188 C 161.484375 186.238281 156.875 207.644531 167.019531 223.582031 C 169.75 227.875 173.203125 231.136719 177.101562 233.539062 C 185.921875 238.972656 197.054688 240 207.464844 238.464844 C 211.402344 237.882812 216.078125 236.8125 220.460938 235.183594 C 224.269531 233.769531 227.859375 231.933594 230.558594 229.628906 C 250.019531 213.015625 243.765625 174.457031 218.300781 167.464844 " fill-opacity="1" fill-rule="nonzero"/><path fill="#000000" d="M 203.382812 202.996094 C 203.128906 205.148438 199.527344 205.308594 198.207031 204.183594 C 196.796875 202.980469 197.25 200.1875 199.09375 199.679688 C 199.605469 199.542969 200.15625 199.484375 200.683594 199.546875 C 201.253906 199.613281 201.796875 199.816406 202.238281 200.199219 C 202.996094 200.859375 203.507812 201.972656 203.382812 202.996094 Z M 205.242188 192.796875 C 203.332031 192.269531 201.273438 192.0625 199.296875 192.292969 C 197.171875 192.539062 195.136719 193.300781 193.484375 194.734375 C 190.648438 197.191406 188.742188 201.355469 189.199219 205.175781 C 190.160156 213.230469 203.628906 213.832031 208.558594 209.625 C 213.824219 205.128906 212.132812 194.6875 205.242188 192.796875 " fill-opacity="1" fill-rule="nonzero"/><path fill="#000000" d="M 226.652344 221.859375 C 220.226562 229.03125 210.617188 230.535156 203.6875 230.535156 C 200.332031 230.535156 196.851562 230.191406 193.347656 229.511719 C 190.835938 229.027344 188.128906 228.097656 185.722656 226.890625 C 180.503906 224.265625 176.414062 219.957031 173.5625 214.070312 C 170.605469 207.976562 170.851562 203 172.273438 196.460938 C 172.941406 193.390625 173.824219 190.789062 174.972656 188.515625 C 179.261719 180.015625 187.554688 175.332031 198.320312 175.332031 C 205.207031 175.332031 212.730469 177.355469 218.960938 180.882812 C 226.328125 185.054688 231.527344 192.433594 232.871094 200.625 C 234.148438 208.417969 231.941406 215.960938 226.652344 221.859375 Z M 219.542969 179.859375 C 213.140625 176.234375 205.40625 174.15625 198.320312 174.15625 C 187.085938 174.15625 178.421875 179.066406 173.921875 187.984375 C 172.726562 190.351562 171.8125 193.039062 171.121094 196.210938 C 169.644531 203 169.398438 208.183594 172.503906 214.585938 C 175.46875 220.707031 179.738281 225.199219 185.191406 227.9375 C 187.691406 229.195312 190.507812 230.160156 193.125 230.664062 C 196.703125 231.355469 200.253906 231.699219 203.6875 231.699219 C 203.691406 231.699219 203.691406 231.699219 203.691406 231.699219 C 210.859375 231.699219 220.8125 230.132812 227.527344 222.640625 C 233.058594 216.46875 235.371094 208.585938 234.03125 200.4375 C 232.632812 191.894531 227.214844 184.199219 219.542969 179.859375 " fill-opacity="1" fill-rule="nonzero"/><path fill="#000000" d="M 220.722656 145.089844 C 221 145.039062 221.167969 145.046875 221.417969 145.191406 C 221.625 145.3125 221.695312 145.589844 221.574219 145.796875 C 221.429688 146.042969 221.28125 146.140625 221.011719 146.230469 C 220.832031 146.289062 220.601562 146.226562 220.476562 146.089844 C 220.472656 146.085938 220.46875 146.078125 220.460938 146.070312 C 220.1875 145.773438 220.257812 145.171875 220.722656 145.089844 Z M 221.53125 143.804688 C 221.59375 143.820312 221.65625 143.835938 221.71875 143.847656 C 222.1875 143.964844 222.1875 144.683594 221.71875 144.796875 C 221.65625 144.8125 221.59375 144.824219 221.53125 144.84375 C 220.667969 145.054688 220.667969 143.59375 221.53125 143.804688 Z M 221.570312 147.59375 C 221.355469 147.695312 221.242188 147.726562 220.996094 147.703125 C 220.28125 147.628906 220.441406 146.582031 221.125 146.746094 C 221.363281 146.800781 221.472656 146.855469 221.644531 147.027344 C 221.796875 147.179688 221.78125 147.492188 221.570312 147.59375 Z M 223.230469 147.140625 C 223.613281 147.101562 224.484375 147.082031 224.484375 147.675781 C 224.484375 148.269531 223.613281 148.25 223.230469 148.210938 C 222.542969 148.136719 222.542969 147.214844 223.230469 147.140625 Z M 223.097656 145.292969 C 223.15625 145.28125 223.210938 145.265625 223.269531 145.246094 C 223.433594 145.199219 223.613281 145.25 223.734375 145.371094 C 223.761719 145.398438 223.789062 145.421875 223.8125 145.449219 C 223.964844 145.597656 223.9375 145.808594 223.8125 145.957031 C 223.707031 146.085938 223.632812 146.128906 223.480469 146.195312 C 222.8125 146.484375 222.425781 145.488281 223.097656 145.292969 Z M 224.21875 143.839844 C 224.417969 143.878906 224.523438 143.929688 224.660156 144.074219 C 224.792969 144.21875 224.792969 144.425781 224.660156 144.570312 C 224.523438 144.71875 224.417969 144.765625 224.21875 144.804688 C 223.410156 144.964844 223.410156 143.679688 224.21875 143.839844 Z M 226.476562 145.136719 C 226.519531 145.144531 226.558594 145.152344 226.601562 145.160156 C 227.140625 145.261719 227.140625 146.144531 226.601562 146.246094 C 226.558594 146.253906 226.519531 146.265625 226.476562 146.273438 C 225.527344 146.453125 225.527344 144.953125 226.476562 145.136719 Z M 226.964844 143.949219 C 227.171875 143.980469 227.230469 144 227.394531 144.121094 C 227.59375 144.269531 227.59375 144.507812 227.394531 144.65625 C 227.230469 144.78125 227.171875 144.800781 226.964844 144.828125 C 226.230469 144.9375 226.230469 143.84375 226.964844 143.949219 Z M 229.027344 147.511719 C 229.332031 147.402344 229.585938 147.367188 229.867188 147.542969 C 230.117188 147.699219 230.105469 148.042969 229.867188 148.203125 C 229.640625 148.355469 229.410156 148.347656 229.144531 148.382812 C 228.621094 148.445312 228.589844 147.671875 229.027344 147.511719 Z M 229.410156 145.398438 C 229.707031 145.382812 229.9375 145.332031 230.222656 145.441406 C 230.472656 145.539062 230.546875 145.800781 230.371094 146.011719 C 230.113281 146.324219 229.800781 146.378906 229.410156 146.402344 C 228.765625 146.441406 228.765625 145.4375 229.410156 145.398438 Z M 229.738281 143.933594 C 229.792969 143.9375 229.847656 143.945312 229.902344 143.945312 C 230.558594 143.992188 230.558594 144.917969 229.902344 144.964844 C 229.847656 144.96875 229.792969 144.972656 229.738281 144.976562 C 229.066406 145.023438 229.066406 143.886719 229.738281 143.933594 Z M 232.367188 143.617188 C 232.589844 143.621094 232.722656 143.644531 232.902344 143.773438 C 233.164062 143.960938 233.164062 144.292969 232.902344 144.480469 C 232.722656 144.609375 232.589844 144.628906 232.367188 144.636719 C 231.707031 144.660156 231.707031 143.59375 232.367188 143.617188 Z M 233.515625 145.847656 C 233.296875 146.160156 233.132812 146.21875 232.761719 146.265625 C 232.058594 146.355469 232.019531 145.109375 232.761719 145.140625 C 232.996094 145.152344 233.152344 145.191406 233.367188 145.28125 C 233.5625 145.363281 233.632812 145.679688 233.515625 145.847656 Z M 233.929688 147.726562 C 233.628906 148.105469 233.0625 148.03125 232.628906 148.023438 C 231.929688 148.011719 231.929688 146.949219 232.628906 146.9375 C 233.0625 146.929688 233.628906 146.855469 233.929688 147.234375 C 234.058594 147.394531 234.058594 147.566406 233.929688 147.726562 Z M 235.652344 146.796875 C 235.949219 146.769531 236.167969 146.75 236.417969 146.921875 C 236.539062 147 236.628906 147.15625 236.574219 147.308594 C 236.414062 147.746094 236.09375 147.847656 235.652344 147.898438 C 234.953125 147.980469 234.941406 146.851562 235.652344 146.796875 Z M 235.652344 144.953125 C 235.886719 144.917969 236.042969 144.910156 236.277344 144.960938 C 236.511719 145.011719 236.601562 145.296875 236.492188 145.496094 C 236.34375 145.769531 236.222656 145.847656 235.917969 145.929688 C 235.273438 146.105469 235.023438 145.042969 235.652344 144.953125 Z M 235.964844 143.582031 C 236.183594 143.652344 236.34375 143.664062 236.535156 143.792969 C 236.726562 143.929688 236.734375 144.195312 236.535156 144.328125 C 236.265625 144.503906 236.042969 144.496094 235.738281 144.40625 C 235.207031 144.25 235.441406 143.410156 235.964844 143.582031 Z M 238.410156 146.5625 C 238.546875 146.488281 238.671875 146.4375 238.824219 146.394531 C 239.027344 146.335938 239.3125 146.425781 239.402344 146.628906 C 239.421875 146.667969 239.441406 146.710938 239.457031 146.75 C 239.535156 146.96875 239.402344 147.214844 239.21875 147.332031 C 239.132812 147.390625 239.042969 147.4375 238.945312 147.476562 C 238.335938 147.753906 237.800781 146.894531 238.410156 146.5625 Z M 238.679688 144.839844 C 238.976562 144.816406 239.199219 144.757812 239.488281 144.863281 C 239.726562 144.953125 239.800781 145.214844 239.632812 145.410156 C 239.371094 145.710938 239.058594 145.765625 238.679688 145.78125 C 238.066406 145.800781 238.082031 144.890625 238.679688 144.839844 Z M 238.757812 143.441406 C 238.929688 143.40625 239.054688 143.382812 239.222656 143.429688 C 239.367188 143.472656 239.441406 143.589844 239.453125 143.734375 C 239.453125 143.761719 239.457031 143.792969 239.460938 143.824219 C 239.476562 144.015625 239.316406 144.183594 239.148438 144.234375 C 239.09375 144.25 239.042969 144.269531 238.992188 144.285156 C 238.449219 144.453125 238.207031 143.550781 238.757812 143.441406 Z M 241.148438 142.90625 C 241.167969 142.898438 241.1875 142.890625 241.207031 142.882812 C 241.546875 142.738281 242.050781 142.894531 242.019531 143.347656 C 242.015625 143.367188 242.015625 143.382812 242.015625 143.40625 C 241.984375 143.828125 241.542969 144.132812 241.148438 143.902344 C 240.8125 143.703125 240.738281 143.082031 241.148438 142.90625 Z M 242.445312 144.414062 C 242.722656 144.578125 242.722656 144.992188 242.445312 145.152344 C 242.300781 145.234375 242.207031 145.269531 242.039062 145.292969 C 241.1875 145.433594 241.1875 144.136719 242.039062 144.273438 C 242.207031 144.300781 242.300781 144.332031 242.445312 144.414062 Z M 242.96875 146.792969 C 242.667969 146.960938 242.378906 147.054688 242.03125 147.054688 C 241.375 147.054688 241.410156 146.132812 242.03125 146.0625 C 242.269531 146.035156 242.511719 146.019531 242.753906 146.003906 C 243.183594 145.972656 243.320312 146.59375 242.96875 146.792969 Z M 243.34375 142.644531 C 243.390625 142.640625 243.433594 142.636719 243.476562 142.632812 C 244.046875 142.597656 244.046875 143.554688 243.476562 143.515625 C 243.433594 143.515625 243.390625 143.511719 243.34375 143.507812 C 242.789062 143.472656 242.789062 142.679688 243.34375 142.644531 Z M 244.652344 144.078125 C 244.949219 143.964844 245.566406 143.777344 245.691406 144.238281 C 245.828125 144.734375 245.320312 144.976562 244.929688 145.097656 C 244.269531 145.296875 244.023438 144.3125 244.652344 144.078125 Z M 246.242188 146.03125 C 246.070312 146.269531 245.882812 146.328125 245.667969 146.515625 C 245.183594 146.929688 244.484375 146.242188 244.964844 145.8125 C 245.28125 145.53125 245.582031 145.324219 246.011719 145.460938 C 246.230469 145.535156 246.394531 145.820312 246.242188 146.03125 Z M 226.984375 148.109375 C 226.761719 148.28125 226.199219 148.273438 226.199219 148.273438 C 225.898438 148.273438 225.898438 147.601562 226.199219 147.601562 C 226.5 147.601562 226.714844 147.597656 226.9375 147.765625 C 227.066406 147.863281 227.109375 148.011719 226.984375 148.109375 Z M 220.671875 148.761719 C 221.121094 149.011719 221.644531 149.171875 222.1875 149.261719 C 229.46875 150.496094 245.140625 147.980469 246.34375 147.359375 C 246.648438 147.203125 246.832031 146.972656 246.925781 146.699219 C 247.140625 146.101562 246.941406 145.320312 246.75 144.75 C 246.4375 143.835938 246.089844 142.140625 244.914062 141.976562 C 243.328125 141.753906 240.511719 141.90625 238.902344 141.898438 C 235.558594 141.878906 233.21875 142.054688 229.878906 142.210938 C 228.320312 142.28125 226.769531 142.441406 225.214844 142.539062 C 223.859375 142.621094 222.390625 142.460938 221.132812 143.066406 C 221.078125 143.089844 221.027344 143.117188 220.972656 143.148438 C 219.660156 143.859375 219.132812 145.46875 219.34375 146.902344 C 219.476562 147.792969 219.984375 148.382812 220.671875 148.761719 " fill-opacity="1" fill-rule="nonzero"/><path fill="#000000" d="M 120.5 160.605469 C 120.527344 160.035156 121.355469 160.035156 121.382812 160.605469 C 121.417969 161.296875 121.527344 162.148438 121.175781 162.773438 C 121.078125 162.941406 120.824219 162.941406 120.726562 162.773438 C 120.367188 162.152344 120.46875 161.296875 120.5 160.605469 Z M 122.117188 160.511719 C 122.160156 160.054688 122.78125 160.058594 122.828125 160.511719 C 122.910156 161.308594 123.210938 162.496094 122.734375 163.207031 C 122.605469 163.394531 122.359375 163.394531 122.230469 163.207031 C 121.75 162.503906 122.042969 161.308594 122.117188 160.511719 Z M 123.71875 161.777344 C 123.722656 161.164062 123.71875 160.5625 123.816406 159.957031 C 123.886719 159.519531 124.621094 159.523438 124.695312 159.957031 C 124.808594 160.640625 124.796875 161.332031 124.8125 162.023438 C 124.824219 162.605469 124.828125 163.125 124.59375 163.667969 C 124.484375 163.910156 124.058594 163.910156 123.949219 163.667969 C 123.671875 163.054688 123.710938 162.433594 123.71875 161.777344 Z M 125.921875 160.070312 C 125.953125 159.363281 126.960938 159.371094 127.007812 160.070312 C 127.050781 160.695312 127.09375 161.324219 127.117188 161.949219 C 127.136719 162.417969 127.117188 162.898438 126.839844 163.289062 C 126.691406 163.496094 126.4375 163.492188 126.285156 163.289062 C 125.949219 162.839844 125.953125 162.253906 125.933594 161.714844 C 125.910156 161.164062 125.894531 160.621094 125.921875 160.070312 Z M 128.96875 159.589844 C 129.082031 160.265625 129.167969 160.941406 129.21875 161.628906 C 129.265625 162.246094 129.324219 162.835938 129.015625 163.394531 C 128.875 163.640625 128.503906 163.632812 128.363281 163.394531 C 128.042969 162.847656 128.070312 162.238281 128.054688 161.628906 C 128.035156 160.988281 128.007812 160.355469 128.019531 159.71875 C 128.03125 159.191406 128.875 159.035156 128.96875 159.589844 Z M 131.164062 160.007812 C 131.40625 160.636719 131.535156 161.257812 131.617188 161.921875 C 131.683594 162.394531 131.78125 162.996094 131.40625 163.355469 C 131.296875 163.460938 131.113281 163.496094 130.976562 163.410156 C 130.550781 163.132812 130.515625 162.597656 130.472656 162.128906 C 130.414062 161.503906 130.359375 160.875 130.265625 160.257812 C 130.179688 159.664062 130.945312 159.441406 131.164062 160.007812 Z M 133.425781 159.960938 C 133.582031 160.558594 133.664062 161.152344 133.714844 161.769531 C 133.75 162.257812 133.824219 162.792969 133.40625 163.136719 C 133.257812 163.261719 133.074219 163.300781 132.898438 163.203125 C 132.367188 162.910156 132.375 162.308594 132.34375 161.769531 C 132.3125 161.21875 132.296875 160.667969 132.234375 160.125 C 132.152344 159.429688 133.257812 159.3125 133.425781 159.960938 Z M 134.570312 161.164062 C 134.574219 160.5625 134.59375 159.96875 134.703125 159.375 C 134.796875 158.859375 135.636719 158.867188 135.734375 159.375 C 135.863281 160.042969 135.878906 160.722656 135.882812 161.398438 C 135.886719 161.894531 135.894531 162.496094 135.496094 162.839844 C 135.332031 162.984375 135.132812 162.980469 134.96875 162.839844 C 134.511719 162.453125 134.570312 161.714844 134.570312 161.164062 Z M 136.707031 159.507812 C 136.753906 158.792969 137.753906 158.796875 137.808594 159.507812 C 137.886719 160.449219 138.027344 161.707031 137.566406 162.570312 C 137.445312 162.792969 137.097656 162.789062 136.976562 162.570312 C 136.503906 161.710938 136.640625 160.449219 136.707031 159.507812 Z M 138.960938 159.582031 C 139.015625 159.15625 139.710938 158.953125 139.792969 159.46875 C 139.929688 160.371094 140.199219 161.617188 139.761719 162.464844 C 139.648438 162.679688 139.316406 162.671875 139.203125 162.464844 C 138.769531 161.675781 138.847656 160.445312 138.960938 159.582031 Z M 141.6875 159.34375 C 141.902344 160.078125 142.527344 161.160156 141.910156 161.832031 C 141.792969 161.964844 141.589844 161.945312 141.46875 161.832031 C 141.167969 161.558594 141.097656 161.140625 140.984375 160.761719 C 140.875 160.386719 140.746094 160.011719 140.648438 159.632812 C 140.472656 158.957031 141.492188 158.679688 141.6875 159.34375 Z M 122.179688 164.359375 C 128.417969 165.382812 141.816406 163.167969 142.84375 162.636719 C 143.675781 162.203125 143.425781 161.105469 143.183594 160.398438 C 142.914062 159.617188 142.605469 158.164062 141.601562 158.03125 C 140.242188 157.847656 137.835938 157.988281 136.457031 157.988281 C 133.59375 157.988281 131.589844 158.144531 128.734375 158.289062 C 127.398438 158.359375 126.074219 158.5 124.742188 158.589844 C 123.585938 158.667969 122.324219 158.539062 121.25 159.058594 C 121.207031 159.078125 121.164062 159.101562 121.117188 159.125 C 119.996094 159.742188 119.550781 161.121094 119.738281 162.347656 C 119.929688 163.609375 121 164.164062 122.179688 164.359375 " fill-opacity="1" fill-rule="nonzero"/><path fill="#000000" d="M 122.894531 149.511719 C 125.433594 151.359375 128.226562 151.421875 131.21875 151.160156 C 133.882812 150.925781 136.9375 150.695312 139.355469 149.453125 C 140.925781 148.644531 140.15625 147.046875 138.660156 146.851562 C 138.328125 146.808594 138.25 147.242188 138.417969 147.441406 C 138.742188 147.828125 139.429688 148.132812 138.8125 148.519531 C 138.246094 148.871094 137.523438 149.019531 136.882812 149.183594 C 135.191406 149.617188 133.429688 149.816406 131.695312 149.992188 C 130.445312 150.113281 129.179688 150.222656 127.921875 150.199219 C 127.042969 150.1875 126.195312 149.941406 125.367188 149.664062 C 124.566406 149.394531 123.761719 148.929688 123.101562 148.410156 C 121.570312 147.203125 124.003906 146.21875 124.863281 145.929688 C 125.179688 145.824219 125.046875 145.382812 124.726562 145.4375 C 122.363281 145.84375 120.226562 147.566406 122.894531 149.511719 " fill-opacity="1" fill-rule="nonzero"/><path fill="#000000" d="M 147.238281 164.421875 C 141.179688 168.875 132.195312 167.210938 125.125 167.207031 C 121.027344 167.207031 114.8125 167.230469 113.175781 171.832031 C 113.066406 172.132812 113.566406 172.34375 113.691406 172.046875 C 116.195312 166.21875 127.871094 168.359375 132.878906 168.492188 C 137.457031 168.613281 144.519531 169.101562 147.832031 165.191406 C 148.167969 164.796875 147.714844 164.074219 147.238281 164.421875 " fill-opacity="1" fill-rule="nonzero"/><path fill="#000000" d="M 254.390625 163.859375 C 244.679688 165.109375 235.179688 166.011719 225.394531 166.457031 C 224.871094 166.480469 224.871094 167.25 225.394531 167.269531 C 235.011719 167.628906 245.183594 167.335938 254.519531 164.808594 C 255.03125 164.667969 254.945312 163.785156 254.390625 163.859375 " fill-opacity="1" fill-rule="nonzero"/><path fill="#000000" d="M 182.992188 163.859375 C 173.28125 165.109375 163.78125 166.011719 154 166.457031 C 153.472656 166.480469 153.472656 167.25 154 167.269531 C 163.613281 167.628906 173.785156 167.335938 183.121094 164.808594 C 183.632812 164.667969 183.546875 163.785156 182.992188 163.859375 " fill-opacity="1" fill-rule="nonzero"/><path fill="#000000" d="M 245.917969 153.8125 C 245.699219 153.890625 245.394531 153.878906 245.300781 153.746094 C 245.214844 153.625 245.257812 153.332031 245.394531 153.246094 C 245.605469 153.113281 246.003906 153.261719 246.125 153.460938 C 246.222656 153.628906 246.097656 153.75 245.917969 153.8125 Z M 245.109375 151.898438 C 244.734375 152.058594 243.269531 153.191406 244.492188 154.5625 C 244.859375 154.972656 245.449219 155.117188 245.976562 155.113281 C 246.398438 155.113281 246.925781 155.136719 247.304688 154.929688 C 248.050781 154.523438 248.015625 153.488281 247.777344 152.792969 C 247.71875 152.621094 247.601562 152.476562 247.449219 152.359375 C 247.121094 152.097656 246.644531 151.941406 246.304688 151.863281 C 245.949219 151.777344 245.453125 151.75 245.109375 151.898438 " fill-opacity="1" fill-rule="nonzero"/><path fill="#000000" d="M 177.589844 150.15625 C 180.835938 148.015625 183.148438 145.164062 187.125 144.109375 C 190.917969 143.105469 195.15625 143.5625 199.03125 143.5625 C 206.40625 143.5625 211.160156 144.042969 216.039062 149.957031 C 216.429688 150.425781 217.058594 149.828125 216.832031 149.347656 C 214.035156 143.394531 208.164062 142.421875 202.1875 142.28125 C 197.664062 142.175781 193.019531 142.019531 188.546875 142.757812 C 183.410156 143.601562 181.355469 146.949219 177.398438 149.835938 C 177.210938 149.972656 177.382812 150.292969 177.589844 150.15625 " fill-opacity="1" fill-rule="nonzero"/><path fill="#000000" d="M 208.851562 157.816406 C 200.59375 156.710938 192.515625 158.75 185.160156 162.386719 C 184.929688 162.496094 185.09375 162.898438 185.335938 162.800781 C 197.695312 157.832031 211.902344 156.929688 222.78125 165.296875 C 223.199219 165.617188 223.691406 165.019531 223.460938 164.617188 C 220.703125 159.792969 213.898438 158.488281 208.851562 157.816406 " fill-opacity="1" fill-rule="nonzero"/><path fill="#000000" d="M 252.003906 215.429688 C 250.742188 214.460938 247.988281 214.703125 246.660156 215.246094 C 246.15625 215.449219 246.074219 216.175781 246.660156 216.347656 C 247.828125 216.695312 248.96875 216.488281 250.175781 216.53125 C 252.214844 216.597656 251.972656 219.613281 252.09375 221.101562 C 252.21875 222.691406 253.242188 227.886719 251.675781 228.882812 C 250.707031 229.5 247.921875 230.136719 247.375 228.644531 C 246.960938 227.519531 246.992188 226.101562 246.859375 224.921875 C 246.566406 222.238281 246.292969 219.546875 245.949219 216.871094 C 245.863281 216.199219 244.828125 216.160156 244.871094 216.867188 C 245.132812 220.925781 245.21875 225.023438 245.945312 229.035156 C 246.472656 231.933594 251.347656 231.21875 252.945312 229.863281 C 253.800781 229.136719 253.808594 228.21875 253.859375 227.148438 C 253.976562 224.667969 253.757812 222.148438 253.546875 219.675781 C 253.40625 218.019531 253.402344 216.503906 252.003906 215.429688 " fill-opacity="1" fill-rule="nonzero"/></svg>