<svg xmlns="http://www.w3.org/2000/svg" xmlns:xlink="http://www.w3.org/1999/xlink" width="500" zoomAndPan="magnify" viewBox="0 0 375 374.999991" height="500" preserveAspectRatio="xMidYMid meet" version="1.0"><defs><clipPath id="id1"><path d="M 117 125.589844 L 262.5 125.589844 L 262.5 249 L 117 249 Z M 117 125.589844 " clip-rule="nonzero"/></clipPath><clipPath id="id2"><path d="M 186 191 L 262.5 191 L 262.5 229 L 186 229 Z M 186 191 " clip-rule="nonzero"/></clipPath></defs><g clip-path="url(#id1)"><path fill="#000000" d="M 262.5 202.488281 L 261.15625 201.257812 C 261.109375 201.277344 261.058594 201.300781 261.007812 201.320312 L 260.890625 201.210938 L 261.753906 200.867188 L 261.425781 200.367188 L 261.882812 199.4375 L 261.269531 198.503906 L 261.980469 197.492188 L 261.269531 196.488281 L 262.109375 195.234375 L 261.421875 193.984375 L 262.199219 192.894531 L 261.382812 192.378906 L 262.226562 191.265625 C 262.316406 191.226562 262.410156 191.183594 262.5 191.144531 C 243.195312 174.042969 229.398438 157.585938 212.75 140.539062 C 209.484375 136.808594 206.3125 132.96875 202.785156 129.476562 C 199.257812 125.980469 196.519531 125.582031 191.769531 126.039062 C 180.210938 127.148438 169.167969 131.773438 158.007812 134.730469 C 146.402344 137.808594 130.234375 143.699219 125.75 149.695312 C 125.808594 149.695312 125.867188 149.703125 125.921875 149.710938 C 125.902344 149.734375 125.882812 149.761719 125.867188 149.785156 L 125.824219 149.839844 L 125.753906 149.839844 C 125.535156 149.84375 125.316406 149.933594 125.117188 150.097656 C 119.964844 154.40625 119.910156 159.898438 124.964844 166.894531 L 125.042969 167.003906 L 124.9375 167.089844 C 124.027344 167.835938 123.175781 168.613281 122.40625 169.398438 C 122.347656 169.386719 122.289062 169.378906 122.226562 169.378906 C 121.949219 169.371094 121.65625 169.488281 121.414062 169.6875 C 112.507812 177.128906 120.484375 186.457031 126.488281 192.882812 C 130.910156 197.613281 134.894531 202.617188 139.03125 207.59375 C 143.644531 213.144531 148.679688 218.394531 153.480469 223.78125 C 160.132812 231.242188 167.070312 239.308594 174.9375 245.5625 C 175.207031 245.777344 175.507812 246.015625 175.832031 246.257812 C 179.363281 249.335938 184.191406 248.832031 184.191406 248.832031 C 184.167969 248.835938 184.144531 248.832031 184.117188 248.828125 C 183.980469 248.824219 183.863281 248.78125 183.757812 248.714844 C 183.921875 248.707031 184.046875 248.699219 184.113281 248.695312 L 184.113281 248.683594 C 185.960938 248.644531 187.941406 248.273438 189.996094 247.578125 C 202.285156 243.410156 254.75 223.601562 258.613281 222.140625 L 257.273438 220.914062 L 258.140625 220.570312 L 257.8125 220.070312 L 258.269531 219.140625 L 257.65625 218.207031 L 258.363281 217.195312 L 257.65625 216.191406 L 258.496094 214.941406 L 257.808594 213.691406 L 258.585938 212.597656 L 257.769531 212.085938 L 258.691406 210.867188 C 256.929688 209.308594 255.128906 207.675781 253.339844 206.011719 L 253.285156 205.964844 C 253.335938 205.945312 253.386719 205.925781 253.433594 205.90625 C 258.949219 203.828125 262.5 202.488281 262.5 202.488281 " fill-opacity="1" fill-rule="nonzero"/></g><path fill="#ffffff" d="M 191.722656 221.742188 C 191.554688 221.8125 191.617188 222.074219 191.800781 222.023438 C 202.933594 218.8125 213.785156 214.128906 224.554688 209.886719 C 235.394531 205.617188 246.3125 201.476562 257.050781 196.960938 C 257.308594 196.851562 257.210938 196.4375 256.933594 196.53125 C 245.949219 200.398438 235.21875 205.035156 224.402344 209.332031 C 213.574219 213.628906 202.511719 217.371094 191.722656 221.742188 " fill-opacity="1" fill-rule="nonzero"/><path fill="#ffffff" d="M 223.628906 213.570312 C 217.980469 215.742188 212.324219 217.882812 206.683594 220.066406 C 204.128906 221.050781 201.566406 222.011719 198.988281 222.9375 C 196.292969 223.910156 193.632812 225.203125 190.820312 225.78125 C 190.710938 225.804688 190.734375 225.988281 190.84375 225.976562 C 193.148438 225.707031 195.1875 224.621094 197.355469 223.878906 C 200.238281 222.902344 203.089844 221.839844 205.933594 220.761719 C 211.574219 218.632812 217.199219 216.464844 222.835938 214.332031 C 234.316406 209.988281 246.101562 206.203125 257.363281 201.316406 C 257.585938 201.21875 257.425781 200.855469 257.195312 200.925781 C 245.835938 204.554688 234.753906 209.289062 223.628906 213.570312 " fill-opacity="1" fill-rule="nonzero"/><path fill="#ffffff" d="M 197.667969 221.808594 C 207.046875 218.699219 215.953125 214.285156 225.25 210.917969 C 233.996094 207.753906 243.222656 205.101562 251.457031 200.710938 C 251.644531 200.609375 251.511719 200.273438 251.308594 200.359375 C 242.660156 203.996094 233.953125 207.304688 225.136719 210.496094 C 215.832031 213.867188 206.945312 218.335938 197.582031 221.5 C 197.386719 221.566406 197.46875 221.875 197.667969 221.808594 " fill-opacity="1" fill-rule="nonzero"/><path fill="#ffffff" d="M 200.0625 217.621094 C 202.152344 217.300781 204.050781 216.488281 205.960938 215.617188 C 208.769531 214.34375 211.617188 213.25 214.5 212.15625 C 220.101562 210.027344 225.738281 207.929688 231.246094 205.566406 C 231.5 205.457031 231.316406 205.027344 231.058594 205.121094 C 225.425781 207.09375 219.898438 209.378906 214.324219 211.519531 C 212.144531 212.355469 209.933594 213.121094 207.800781 214.066406 C 205.210938 215.207031 202.722656 216.574219 199.902344 217.046875 C 199.523438 217.109375 199.6875 217.679688 200.0625 217.621094 " fill-opacity="1" fill-rule="nonzero"/><path fill="#ffffff" d="M 170.941406 169.425781 C 170.5 169.390625 170.128906 169.425781 169.785156 169.089844 C 169.433594 168.753906 169.199219 168 169.953125 168.136719 C 170.210938 168.1875 170.234375 167.871094 169.976562 167.804688 C 169.292969 167.636719 168.710938 167.683594 168.761719 168.386719 C 168.804688 168.921875 169.332031 169.695312 170.003906 169.886719 C 170.359375 169.984375 172.464844 170 172.078125 170.570312 C 171.691406 171.132812 170.546875 170.746094 169.910156 170.816406 C 169.746094 170.835938 169.636719 170.988281 169.777344 171.132812 C 170.578125 171.960938 173.386719 171.429688 172.757812 170.222656 C 172.417969 169.574219 171.617188 169.480469 170.941406 169.425781 " fill-opacity="1" fill-rule="nonzero"/><path fill="#ffffff" d="M 176.289062 169.300781 C 176.03125 169.449219 175.742188 169.828125 175.367188 169.789062 C 174.988281 169.742188 174.652344 169.371094 174.425781 169.128906 C 174.378906 169.078125 174.34375 169.027344 174.300781 168.980469 C 174.695312 168.855469 175.058594 168.632812 175.210938 168.320312 C 175.3125 168.105469 174.976562 167.917969 174.773438 168.011719 C 174.46875 168.148438 174.183594 168.316406 173.894531 168.472656 C 173.648438 168.144531 173.417969 167.804688 173.167969 167.476562 C 173.921875 167.292969 174.703125 166.917969 175.164062 166.480469 C 175.265625 166.386719 175.121094 166.179688 174.953125 166.191406 C 174.53125 166.226562 174.167969 166.375 173.8125 166.53125 C 173.34375 166.734375 172.847656 166.917969 172.402344 167.148438 C 172.277344 167.214844 172.304688 167.363281 172.398438 167.46875 C 172.402344 167.476562 172.402344 167.484375 172.40625 167.492188 C 172.898438 168.398438 173.523438 169.382812 174.4375 170.070312 C 175.398438 170.796875 176.574219 170.464844 176.757812 169.566406 C 176.800781 169.359375 176.457031 169.203125 176.289062 169.300781 " fill-opacity="1" fill-rule="nonzero"/><path fill="#ffffff" d="M 189.871094 162.574219 C 190.367188 163.476562 190.992188 164.464844 191.90625 165.152344 C 192.863281 165.878906 194.042969 165.546875 194.226562 164.648438 C 194.269531 164.4375 193.925781 164.28125 193.757812 164.378906 C 193.5 164.527344 193.210938 164.910156 192.832031 164.867188 C 192.457031 164.824219 192.121094 164.453125 191.890625 164.207031 C 191.847656 164.160156 191.808594 164.109375 191.765625 164.058594 C 192.160156 163.9375 192.527344 163.710938 192.675781 163.398438 C 192.777344 163.1875 192.441406 163 192.242188 163.089844 C 191.9375 163.230469 191.652344 163.394531 191.359375 163.554688 C 191.117188 163.222656 190.882812 162.886719 190.636719 162.554688 C 191.390625 162.371094 192.171875 162 192.628906 161.5625 C 192.730469 161.464844 192.585938 161.257812 192.417969 161.273438 C 191.996094 161.304688 191.632812 161.457031 191.277344 161.609375 C 190.808594 161.816406 190.316406 162 189.867188 162.230469 C 189.742188 162.292969 189.769531 162.441406 189.863281 162.550781 C 189.867188 162.558594 189.867188 162.566406 189.871094 162.574219 " fill-opacity="1" fill-rule="nonzero"/><path fill="#ffffff" d="M 179.582031 168.1875 C 179.238281 168.242188 178.941406 168.367188 178.605469 168.429688 C 178.039062 167.539062 177.351562 166.671875 176.703125 165.820312 C 176.519531 165.582031 176.179688 165.769531 176.28125 165.996094 C 176.726562 166.980469 177.605469 167.867188 178.171875 168.820312 C 178.238281 168.929688 178.390625 169.03125 178.53125 169.019531 C 179.050781 168.980469 179.621094 168.898438 179.914062 168.546875 C 180.054688 168.375 179.8125 168.148438 179.582031 168.1875 " fill-opacity="1" fill-rule="nonzero"/><path fill="#ffffff" d="M 180.796875 166.761719 C 180.777344 166.734375 180.761719 166.707031 180.746094 166.683594 C 181.003906 166.617188 181.253906 166.519531 181.433594 166.378906 C 181.539062 166.300781 181.46875 166.078125 181.277344 166.101562 C 181.003906 166.128906 180.769531 166.238281 180.523438 166.324219 C 180.332031 166.015625 180.140625 165.714844 179.914062 165.425781 C 180.492188 165.351562 181.152344 165.160156 181.5 164.828125 C 181.617188 164.714844 181.453125 164.492188 181.265625 164.503906 C 180.953125 164.519531 180.675781 164.632812 180.402344 164.726562 C 180.101562 164.832031 179.789062 164.910156 179.484375 165.007812 C 179.402344 165.035156 179.371094 165.09375 179.363281 165.160156 C 179.339844 165.191406 179.328125 165.230469 179.34375 165.277344 C 179.65625 166.332031 180.46875 167.6875 181.433594 168.515625 C 181.628906 168.683594 181.855469 168.492188 181.769531 168.316406 C 181.515625 167.777344 181.128906 167.277344 180.796875 166.761719 " fill-opacity="1" fill-rule="nonzero"/><path fill="#ffffff" d="M 195.640625 163.902344 C 195.707031 164.011719 195.855469 164.113281 195.996094 164.101562 C 196.515625 164.058594 197.089844 163.976562 197.378906 163.625 C 197.519531 163.457031 197.28125 163.230469 197.046875 163.265625 C 196.703125 163.320312 196.410156 163.449219 196.070312 163.511719 C 195.507812 162.621094 194.820312 161.753906 194.171875 160.898438 C 193.988281 160.660156 193.644531 160.847656 193.75 161.074219 C 194.191406 162.0625 195.074219 162.949219 195.640625 163.902344 " fill-opacity="1" fill-rule="nonzero"/><path fill="#ffffff" d="M 198.351562 160.191406 C 198.621094 160.261719 198.761719 160.589844 198.820312 160.78125 C 198.90625 161.089844 198.878906 161.390625 198.75 161.652344 C 198.671875 161.816406 198.527344 161.914062 198.359375 161.988281 C 198.328125 161.941406 198.292969 161.890625 198.261719 161.839844 C 197.953125 161.359375 197.675781 160.863281 197.300781 160.410156 C 197.609375 160.257812 197.953125 160.085938 198.351562 160.191406 Z M 198.898438 163.59375 C 199.097656 163.761719 199.320312 163.570312 199.238281 163.394531 C 199.09375 163.089844 198.90625 162.796875 198.710938 162.507812 C 199.417969 162.320312 199.652344 161.351562 199.445312 160.722656 C 199.304688 160.292969 198.964844 159.855469 198.4375 159.699219 C 197.8125 159.511719 197.246094 159.8125 196.921875 160.183594 C 196.839844 160.199219 196.78125 160.261719 196.808594 160.355469 C 197.121094 161.414062 197.9375 162.769531 198.898438 163.59375 " fill-opacity="1" fill-rule="nonzero"/><path fill="#ffffff" d="M 183.789062 165.925781 C 184.324219 165.777344 184.929688 165.652344 185.285156 165.28125 C 185.414062 165.148438 185.199219 164.960938 185.019531 164.992188 C 184.492188 165.082031 184.007812 165.28125 183.507812 165.425781 C 183.160156 165.527344 183.4375 166.023438 183.789062 165.925781 " fill-opacity="1" fill-rule="nonzero"/><path fill="#ffffff" d="M 186.964844 165.335938 C 187.3125 165.792969 187.613281 166.28125 188.089844 166.660156 C 188.277344 166.808594 188.546875 166.683594 188.496094 166.496094 C 188.371094 166.023438 188.042969 165.574219 187.710938 165.148438 C 188.089844 165.007812 188.417969 164.796875 188.65625 164.519531 C 188.675781 164.539062 188.6875 164.558594 188.703125 164.578125 C 189.097656 165.0625 189.433594 165.679688 190.03125 166.003906 C 190.128906 166.054688 190.257812 166 190.257812 165.914062 C 190.246094 165.4375 189.855469 165.027344 189.523438 164.613281 C 189.0625 164.039062 188.578125 163.476562 188.089844 162.917969 C 187.894531 162.691406 187.519531 162.851562 187.65625 163.097656 C 187.863281 163.464844 188.113281 163.8125 188.375 164.15625 C 188.03125 164.335938 187.746094 164.578125 187.382812 164.738281 C 187.03125 164.316406 186.648438 163.902344 186.167969 163.585938 C 185.863281 163.386719 185.566406 163.640625 185.773438 163.902344 C 186.167969 164.386719 186.597656 164.84375 186.964844 165.335938 " fill-opacity="1" fill-rule="nonzero"/><path fill="#ffffff" d="M 203.351562 159.433594 C 203.398438 159.683594 203.25 159.9375 203.113281 160.121094 C 203.054688 160.195312 202.96875 160.253906 202.890625 160.3125 C 202.652344 159.992188 202.394531 159.675781 202.109375 159.378906 C 202.511719 159.214844 203.238281 158.824219 203.351562 159.433594 Z M 203.679688 160.332031 C 203.714844 160.277344 203.746094 160.21875 203.773438 160.15625 C 204.367188 160.152344 205.210938 160.3125 205 160.96875 C 204.855469 161.417969 204.359375 161.621094 203.921875 161.839844 C 203.792969 161.464844 203.453125 161.082031 203.214844 160.75 C 203.421875 160.675781 203.578125 160.480469 203.679688 160.332031 Z M 202.765625 161.070312 C 203.011719 161.449219 203.214844 161.886719 203.617188 162.164062 C 203.652344 162.246094 203.734375 162.316406 203.84375 162.308594 C 204.273438 162.265625 204.65625 161.976562 204.953125 161.753906 C 205.25 161.53125 205.636719 161.160156 205.570312 160.753906 C 205.453125 160.042969 204.582031 159.667969 203.902344 159.792969 C 203.933594 159.605469 203.925781 159.410156 203.84375 159.222656 C 203.425781 158.234375 202.257812 158.742188 201.789062 159.164062 C 201.628906 159.152344 201.488281 159.253906 201.597656 159.40625 C 201.992188 159.960938 202.398438 160.507812 202.765625 161.070312 " fill-opacity="1" fill-rule="nonzero"/><path fill="#ffffff" d="M 206.019531 158.191406 C 206.03125 158.191406 206.042969 158.199219 206.054688 158.195312 C 207.144531 157.917969 207.6875 159.75 207.523438 160.359375 C 207.347656 161.027344 206.605469 160.21875 206.402344 159.902344 C 206.136719 159.484375 205.617188 158.550781 206.019531 158.191406 Z M 207.835938 160.789062 C 208.515625 160.042969 207.039062 157 205.867188 157.9375 C 205.847656 157.949219 205.847656 157.96875 205.839844 157.988281 C 204.988281 158.191406 205.671875 159.59375 206.023438 160.121094 C 206.398438 160.679688 207.292969 161.394531 207.835938 160.789062 " fill-opacity="1" fill-rule="nonzero"/><path fill="#ffffff" d="M 208.625 157.460938 C 208.636719 157.460938 208.648438 157.464844 208.660156 157.460938 C 209.753906 157.1875 210.292969 159.015625 210.132812 159.625 C 209.953125 160.292969 209.210938 159.484375 209.007812 159.164062 C 208.742188 158.753906 208.226562 157.816406 208.625 157.460938 Z M 210.441406 160.058594 C 211.121094 159.308594 209.644531 156.269531 208.46875 157.203125 C 208.453125 157.21875 208.453125 157.234375 208.445312 157.253906 C 207.59375 157.457031 208.277344 158.859375 208.625 159.382812 C 209 159.945312 209.894531 160.660156 210.441406 160.058594 " fill-opacity="1" fill-rule="nonzero"/><path fill="#ffffff" d="M 211.328125 158.164062 C 211.582031 158.519531 211.792969 158.925781 212.144531 159.230469 C 212.253906 159.328125 212.507812 159.351562 212.492188 159.183594 C 212.46875 158.859375 212.289062 158.574219 212.078125 158.285156 C 212.347656 158.34375 212.605469 158.425781 212.871094 158.527344 C 213.191406 158.648438 213.496094 158.820312 213.835938 158.871094 C 214.003906 158.890625 214.132812 158.75 214 158.613281 C 213.554688 158.160156 212.703125 157.914062 212.0625 157.820312 C 212.175781 157.363281 212.339844 156.886719 212.261719 156.410156 C 212.242188 156.292969 212.023438 156.214844 211.957031 156.316406 C 211.695312 156.699219 211.667969 157.25 211.667969 157.753906 C 211.414062 157.429688 211.152344 157.105469 210.867188 156.800781 C 210.710938 156.636719 210.496094 156.757812 210.566406 156.925781 C 210.738281 157.363281 211.042969 157.757812 211.328125 158.164062 " fill-opacity="1" fill-rule="nonzero"/><path fill="#ffffff" d="M 253.75 221.023438 C 242.484375 225.90625 230.703125 229.695312 219.222656 234.035156 C 213.582031 236.167969 207.960938 238.335938 202.320312 240.46875 C 199.476562 241.542969 196.625 242.605469 193.742188 243.585938 C 191.574219 244.328125 189.535156 245.414062 187.234375 245.683594 C 187.121094 245.695312 187.097656 245.507812 187.207031 245.488281 C 190.019531 244.910156 192.679688 243.613281 195.375 242.644531 C 197.953125 241.71875 200.515625 240.753906 203.070312 239.769531 C 208.710938 237.589844 214.367188 235.445312 220.015625 233.273438 C 231.144531 228.996094 242.222656 224.261719 253.585938 220.632812 C 253.8125 220.558594 253.972656 220.925781 253.75 221.023438 Z M 247.84375 220.414062 C 239.609375 224.804688 230.382812 227.457031 221.636719 230.625 C 212.339844 233.988281 203.433594 238.402344 194.054688 241.515625 C 193.855469 241.578125 193.773438 241.269531 193.96875 241.207031 C 203.332031 238.039062 212.21875 233.574219 221.523438 230.203125 C 230.339844 227.007812 239.050781 223.699219 247.695312 220.066406 C 247.898438 219.980469 248.03125 220.3125 247.84375 220.414062 Z M 188.109375 241.449219 C 198.898438 237.074219 209.960938 233.335938 220.785156 229.035156 C 231.605469 224.738281 242.335938 220.101562 253.320312 216.238281 C 253.597656 216.140625 253.695312 216.558594 253.4375 216.664062 C 242.699219 221.179688 231.78125 225.320312 220.9375 229.59375 C 210.171875 233.835938 199.320312 238.515625 188.1875 241.730469 C 188.003906 241.78125 187.941406 241.515625 188.109375 241.449219 Z M 196.289062 236.753906 C 199.109375 236.28125 201.597656 234.910156 204.183594 233.769531 C 206.320312 232.828125 208.53125 232.058594 210.710938 231.222656 C 216.285156 229.085938 221.8125 226.796875 227.445312 224.824219 C 227.703125 224.734375 227.886719 225.164062 227.632812 225.269531 C 222.121094 227.632812 216.488281 229.730469 210.886719 231.859375 C 208.003906 232.953125 205.152344 234.046875 202.347656 235.324219 C 200.4375 236.191406 198.539062 237.003906 196.449219 237.328125 C 196.074219 237.382812 195.910156 236.816406 196.289062 236.753906 Z M 257.980469 212.046875 L 258.886719 210.847656 C 242.417969 218.300781 216.589844 225.773438 200.125 233.226562 C 195.773438 235.089844 184.898438 237.886719 183.65625 243.789062 C 183.648438 243.777344 183.640625 243.765625 183.632812 243.757812 C 183.5 244.210938 183.375 244.742188 183.265625 245.363281 C 183.117188 246.222656 183.089844 247.074219 183.214844 247.722656 C 192.125 247.035156 250 223.984375 257.542969 220.964844 C 258.074219 220.753906 258.355469 220.640625 258.355469 220.640625 L 257.980469 220.058594 L 258.4375 219.128906 L 257.832031 218.210938 L 258.542969 217.195312 L 257.832031 216.1875 L 258.664062 214.945312 L 257.980469 213.699219 L 258.792969 212.558594 L 257.980469 212.046875 " fill-opacity="1" fill-rule="nonzero"/><path fill="#ffa945" d="M 183.214844 247.722656 C 183.34375 248.371094 183.632812 248.808594 184.117188 248.828125 C 185.867188 248.792969 187.835938 248.460938 190.042969 247.710938 C 202.890625 243.359375 258.886719 222.195312 258.886719 222.195312 L 257.542969 220.964844 C 250 223.980469 192.125 247.035156 183.214844 247.722656 " fill-opacity="1" fill-rule="nonzero"/><path fill="#ffa945" d="M 193.660156 228.007812 C 191.457031 228.753906 189.488281 229.085938 187.742188 229.125 C 187.765625 229.125 187.785156 229.128906 187.804688 229.128906 C 187.804688 229.128906 182.972656 229.632812 179.445312 226.550781 C 179.121094 226.308594 178.820312 226.074219 178.550781 225.859375 C 170.683594 219.605469 163.746094 211.539062 157.09375 204.078125 C 152.289062 198.6875 147.257812 193.441406 142.644531 187.890625 C 138.507812 182.914062 134.523438 177.910156 130.101562 173.179688 C 128.363281 171.316406 126.457031 169.210938 124.84375 166.976562 C 123.914062 167.738281 123.035156 168.539062 122.226562 169.378906 C 122.464844 169.382812 122.691406 169.476562 122.863281 169.6875 C 136.238281 186.351562 184.792969 241.359375 184.792969 241.359375 C 184.792969 241.359375 184.167969 241.898438 183.632812 243.757812 C 183.640625 243.765625 183.648438 243.777344 183.65625 243.789062 C 184.898438 237.886719 195.773438 235.089844 200.125 233.226562 C 216.589844 225.777344 242.417969 218.300781 258.886719 210.851562 C 257.019531 209.195312 255.207031 207.546875 253.433594 205.90625 C 237.039062 212.078125 203.269531 224.75 193.660156 228.007812 " fill-opacity="1" fill-rule="nonzero"/><path fill="#ffa945" d="M 188.1875 241.730469 C 199.320312 238.515625 210.171875 233.835938 220.9375 229.59375 C 231.78125 225.320312 242.699219 221.179688 253.4375 216.664062 C 253.695312 216.558594 253.597656 216.140625 253.320312 216.238281 C 242.335938 220.101562 231.605469 224.738281 220.785156 229.035156 C 209.960938 233.335938 198.898438 237.074219 188.109375 241.449219 C 187.941406 241.515625 188.003906 241.78125 188.1875 241.730469 " fill-opacity="1" fill-rule="nonzero"/><path fill="#ffa945" d="M 187.234375 245.679688 C 189.535156 245.414062 191.574219 244.324219 193.742188 243.585938 C 196.625 242.605469 199.476562 241.542969 202.320312 240.46875 C 207.960938 238.335938 213.582031 236.167969 219.222656 234.035156 C 230.703125 229.695312 242.484375 225.90625 253.75 221.019531 C 253.972656 220.925781 253.8125 220.558594 253.585938 220.632812 C 242.222656 224.261719 231.144531 228.996094 220.015625 233.273438 C 214.367188 235.445312 208.710938 237.585938 203.070312 239.769531 C 200.515625 240.753906 197.953125 241.71875 195.375 242.644531 C 192.679688 243.613281 190.019531 244.910156 187.207031 245.488281 C 187.097656 245.507812 187.121094 245.695312 187.234375 245.679688 " fill-opacity="1" fill-rule="nonzero"/><path fill="#ffa945" d="M 247.695312 220.066406 C 239.050781 223.699219 230.339844 227.007812 221.523438 230.203125 C 212.21875 233.574219 203.332031 238.039062 193.96875 241.203125 C 193.773438 241.269531 193.855469 241.578125 194.054688 241.515625 C 203.433594 238.402344 212.339844 233.988281 221.636719 230.625 C 230.382812 227.457031 239.609375 224.804688 247.84375 220.414062 C 248.03125 220.3125 247.898438 219.980469 247.695312 220.066406 " fill-opacity="1" fill-rule="nonzero"/><path fill="#ffa945" d="M 202.347656 235.324219 C 205.152344 234.046875 208.003906 232.953125 210.886719 231.859375 C 216.488281 229.730469 222.121094 227.632812 227.632812 225.269531 C 227.886719 225.164062 227.703125 224.734375 227.445312 224.824219 C 221.8125 226.796875 216.285156 229.085938 210.710938 231.222656 C 208.53125 232.058594 206.320312 232.828125 204.183594 233.769531 C 201.597656 234.914062 199.109375 236.28125 196.289062 236.753906 C 195.910156 236.816406 196.074219 237.382812 196.449219 237.328125 C 198.539062 237.003906 200.4375 236.191406 202.347656 235.324219 " fill-opacity="1" fill-rule="nonzero"/><g clip-path="url(#id2)"><path fill="#ffa945" d="M 257.363281 201.316406 C 246.101562 206.203125 234.316406 209.988281 222.835938 214.332031 C 217.199219 216.464844 211.574219 218.632812 205.933594 220.761719 C 203.089844 221.839844 200.238281 222.902344 197.355469 223.882812 C 195.1875 224.621094 193.148438 225.707031 190.84375 225.976562 C 190.734375 225.988281 190.710938 225.804688 190.820312 225.78125 C 193.632812 225.203125 196.292969 223.910156 198.988281 222.9375 C 201.566406 222.011719 204.128906 221.050781 206.683594 220.066406 C 212.324219 217.882812 217.980469 215.742188 223.628906 213.570312 C 234.753906 209.289062 245.835938 204.554688 257.195312 200.925781 C 257.425781 200.855469 257.585938 201.21875 257.363281 201.316406 Z M 251.457031 200.710938 C 243.222656 205.101562 233.996094 207.753906 225.25 210.917969 C 215.957031 214.285156 207.046875 218.695312 197.667969 221.808594 C 197.46875 221.875 197.386719 221.566406 197.582031 221.5 C 206.945312 218.335938 215.832031 213.867188 225.136719 210.496094 C 233.953125 207.304688 242.664062 203.996094 251.308594 200.359375 C 251.511719 200.273438 251.644531 200.609375 251.457031 200.710938 Z M 191.722656 221.742188 C 202.511719 217.371094 213.574219 213.628906 224.398438 209.332031 C 235.21875 205.035156 245.949219 200.398438 256.933594 196.53125 C 257.210938 196.4375 257.308594 196.851562 257.050781 196.960938 C 246.3125 201.476562 235.394531 205.617188 224.554688 209.886719 C 213.785156 214.128906 202.933594 218.8125 191.800781 222.023438 C 191.617188 222.074219 191.554688 221.8125 191.722656 221.742188 Z M 199.902344 217.046875 C 202.722656 216.574219 205.210938 215.207031 207.796875 214.066406 C 209.933594 213.121094 212.144531 212.355469 214.324219 211.519531 C 219.898438 209.378906 225.425781 207.09375 231.058594 205.121094 C 231.316406 205.027344 231.5 205.457031 231.246094 205.566406 C 225.734375 207.929688 220.101562 210.027344 214.5 212.15625 C 211.617188 213.25 208.769531 214.34375 205.960938 215.617188 C 204.050781 216.488281 202.152344 217.300781 200.0625 217.621094 C 199.6875 217.679688 199.523438 217.109375 199.902344 217.046875 Z M 261.59375 192.339844 L 262.5 191.144531 C 246.03125 198.597656 220.207031 206.070312 203.738281 213.523438 C 199.386719 215.386719 188.511719 218.179688 187.269531 224.082031 C 187.261719 224.070312 187.253906 224.0625 187.246094 224.050781 C 187.113281 224.503906 186.988281 225.035156 186.878906 225.660156 C 186.726562 226.519531 186.699219 227.371094 186.828125 228.015625 C 195.738281 227.328125 253.613281 204.277344 261.15625 201.257812 C 261.6875 201.046875 261.96875 200.933594 261.96875 200.933594 L 261.59375 200.355469 L 262.050781 199.425781 L 261.445312 198.503906 L 262.15625 197.492188 L 261.445312 196.484375 L 262.277344 195.242188 L 261.59375 193.992188 L 262.40625 192.851562 L 261.59375 192.339844 " fill-opacity="1" fill-rule="nonzero"/></g><path fill="#ffa945" d="M 235.71875 185.527344 C 231.863281 189.152344 225.257812 191.621094 219.433594 193.796875 C 217.402344 194.554688 215.484375 195.269531 213.796875 195.992188 L 212.542969 196.53125 C 207.601562 198.671875 200.832031 201.597656 195.140625 201.597656 C 193.285156 201.597656 191.644531 201.28125 190.234375 200.640625 C 187.96875 199.820312 185.785156 197.5 183.859375 195.453125 C 182.984375 194.527344 182.15625 193.648438 181.390625 192.980469 C 177.855469 189.652344 174.703125 186.148438 171.65625 182.757812 C 170.179688 181.113281 168.652344 179.417969 167.132812 177.800781 C 162.3125 172.210938 154.273438 163.054688 143.238281 150.582031 L 142.636719 149.90625 C 143.886719 147.691406 169.734375 140.429688 193.714844 134.652344 C 198.15625 134.703125 203.398438 140.636719 206.535156 144.191406 C 206.96875 144.679688 207.367188 145.132812 207.714844 145.515625 C 210.742188 149.089844 213.933594 152.59375 217.019531 155.976562 C 220.890625 160.222656 224.894531 164.613281 228.523438 169.105469 C 231.125 172.359375 233.585938 175.777344 235.628906 178.984375 L 236.109375 179.800781 C 237.910156 182.839844 238.28125 183.472656 235.71875 185.527344 Z M 236.953125 179.304688 L 236.464844 178.476562 C 234.394531 175.222656 231.914062 171.773438 229.285156 168.492188 C 225.636719 163.976562 221.625 159.574219 217.742188 155.316406 C 214.664062 151.9375 211.476562 148.445312 208.449219 144.871094 C 208.09375 144.476562 207.699219 144.027344 207.269531 143.542969 C 203.796875 139.613281 198.550781 133.675781 193.660156 133.675781 L 193.542969 133.6875 C 185.082031 135.726562 142.808594 146.082031 141.675781 149.675781 C 141.585938 149.964844 141.648438 150.265625 141.851562 150.492188 L 142.507812 151.234375 C 153.539062 163.703125 161.574219 172.855469 166.40625 178.457031 C 167.933594 180.082031 169.453125 181.78125 170.929688 183.421875 C 173.992188 186.828125 177.15625 190.359375 180.734375 193.722656 C 181.476562 194.375 182.289062 195.253906 183.148438 196.167969 C 185.148438 198.292969 187.417969 200.742188 189.863281 201.628906 C 191.371094 202.3125 193.144531 202.746094 195.140625 202.746094 C 201.039062 202.746094 207.914062 199.6875 212.933594 197.515625 L 214.183594 196.890625 C 215.847656 196.175781 217.757812 195.464844 219.777344 194.710938 C 225.6875 192.503906 232.390625 190 236.355469 186.261719 C 239.558594 183.707031 238.796875 182.417969 236.953125 179.304688 " fill-opacity="1" fill-rule="nonzero"/><path fill="#ffa945" d="M 126.476562 149.984375 C 126.25 149.789062 126 149.695312 125.75 149.695312 C 125.5 149.699219 125.25 149.796875 125.027344 149.984375 C 118.703125 155.269531 120.890625 161.503906 124.84375 166.976562 C 126.457031 169.210938 128.363281 171.316406 130.101562 173.179688 C 134.523438 177.910156 138.507812 182.914062 142.644531 187.890625 C 147.257812 193.441406 152.289062 198.6875 157.09375 204.074219 C 163.746094 211.539062 170.683594 219.605469 178.550781 225.859375 C 178.820312 226.070312 179.121094 226.308594 179.445312 226.550781 C 182.972656 229.632812 187.804688 229.128906 187.804688 229.128906 C 187.785156 229.128906 187.765625 229.125 187.742188 229.125 C 187.25 229.109375 186.957031 228.671875 186.828125 228.015625 C 186.699219 227.371094 186.726562 226.519531 186.878906 225.660156 C 186.988281 225.035156 187.113281 224.503906 187.242188 224.050781 C 187.777344 222.191406 188.40625 221.652344 188.40625 221.652344 C 188.40625 221.652344 169.507812 197.875 159.683594 186.253906 C 149.207031 173.859375 138.714844 160.667969 126.476562 149.984375 " fill-opacity="1" fill-rule="nonzero"/></svg>