<svg xmlns="http://www.w3.org/2000/svg" xmlns:xlink="http://www.w3.org/1999/xlink" width="500" zoomAndPan="magnify" viewBox="0 0 375 374.999991" height="500" preserveAspectRatio="xMidYMid meet" version="1.0"><defs><clipPath id="id1"><path d="M 233 200 L 262.5 200 L 262.5 253 L 233 253 Z M 233 200 " clip-rule="nonzero"/></clipPath><clipPath id="id2"><path d="M 170 112.5 L 242 112.5 L 242 141 L 170 141 Z M 170 112.5 " clip-rule="nonzero"/></clipPath></defs><path fill="#000000" d="M 256.070312 227.46875 L 255.433594 232.394531 C 254.632812 236.78125 253.511719 240.746094 252.078125 244.285156 C 251.359375 246.054688 250.5625 247.71875 249.6875 249.273438 C 249.347656 250.1875 247.859375 252.28125 245.214844 255.5625 C 244.09375 256.800781 242.953125 257.859375 241.785156 258.738281 C 238.824219 260.625 237.019531 261.539062 236.371094 261.488281 C 233.890625 262.175781 231.320312 262.148438 228.648438 261.40625 C 226.121094 260.476562 223.875 258.964844 221.914062 256.875 C 220.933594 255.832031 220.027344 254.644531 219.1875 253.308594 C 218.679688 252.824219 217.582031 250.496094 215.894531 246.328125 C 213.15625 237.800781 212.476562 229.128906 213.851562 220.316406 C 214.503906 215.921875 215.503906 211.90625 216.855469 208.269531 C 217.53125 206.449219 218.292969 204.722656 219.144531 203.09375 C 219.476562 202.140625 220.9375 199.921875 223.527344 196.441406 C 227.777344 191.335938 232.597656 188.90625 237.984375 189.152344 C 240.660156 189.507812 243.074219 190.496094 245.234375 192.113281 C 246.3125 192.925781 247.328125 193.894531 248.277344 195.019531 C 250.535156 198.113281 251.816406 200.160156 252.113281 201.160156 C 252.871094 202.761719 253.523438 204.441406 254.074219 206.195312 C 254.476562 206.976562 255.070312 209.785156 255.855469 214.621094 C 256.335938 218.59375 256.410156 222.878906 256.070312 227.46875 " fill-opacity="1" fill-rule="nonzero"/><g clip-path="url(#id1)"><path fill="#ffa945" d="M 262.261719 226.667969 L 262.058594 230.199219 C 261.722656 233.359375 261.160156 236.230469 260.367188 238.816406 C 260.238281 239.554688 259.515625 241.332031 258.199219 244.152344 C 257.632812 245.230469 257.007812 246.238281 256.328125 247.175781 C 254.957031 249.042969 253.492188 250.410156 251.933594 251.269531 C 251.152344 251.703125 250.347656 252.007812 249.519531 252.1875 C 247.410156 252.417969 246.117188 252.402344 245.636719 252.148438 C 244.78125 251.878906 243.964844 251.503906 243.191406 251.023438 C 241.324219 249.636719 240.25 248.675781 239.976562 248.144531 C 238.667969 246.542969 237.523438 244.519531 236.539062 242.066406 C 234.574219 237.128906 233.714844 231.445312 233.964844 225.007812 C 234.125 221.679688 234.550781 218.65625 235.253906 215.933594 C 235.589844 214.570312 235.988281 213.277344 236.441406 212.054688 C 236.597656 211.355469 237.402344 209.683594 238.863281 207.042969 C 239.132812 206.394531 240.167969 205.097656 241.96875 203.160156 C 242.703125 202.476562 243.457031 201.917969 244.238281 201.488281 C 245.796875 200.625 247.453125 200.265625 249.203125 200.410156 C 251.011719 200.613281 252.648438 201.320312 254.113281 202.535156 C 254.847656 203.121094 255.542969 203.816406 256.195312 204.617188 C 257.757812 206.800781 258.648438 208.242188 258.863281 208.933594 C 259.941406 211.199219 260.773438 213.722656 261.355469 216.507812 C 262 219.414062 262.300781 222.800781 262.261719 226.667969 " fill-opacity="1" fill-rule="nonzero"/></g><path fill="#ffa945" d="M 177.863281 123.78125 L 174.933594 124.148438 C 172.378906 124.96875 169.703125 126.285156 166.902344 128.085938 L 162.613281 131.160156 C 159.691406 133.453125 156.648438 136.238281 153.480469 139.511719 C 147.144531 146.0625 140.320312 154.570312 133 165.039062 C 131.332031 167.40625 129.140625 171.554688 126.417969 177.476562 C 124.765625 185.800781 123.261719 191.132812 121.898438 193.476562 C 121.632812 194.410156 121.816406 195.816406 122.457031 197.703125 C 123.042969 198.613281 123.707031 199.144531 124.453125 199.292969 C 126.378906 198.363281 128.503906 196.492188 130.824219 193.679688 L 135.152344 187.457031 C 135.128906 183.835938 136.089844 180.425781 138.03125 177.222656 C 139.605469 174.980469 141.535156 172.664062 143.820312 170.277344 C 145.164062 168.226562 147.351562 165.226562 150.378906 161.28125 C 152.097656 159.09375 153.796875 157.074219 155.476562 155.222656 C 161.097656 149.25 164.804688 145.558594 166.589844 144.136719 L 175.28125 137.878906 C 181.121094 134.347656 184.011719 132.773438 183.953125 133.164062 L 186.734375 131.011719 L 178.207031 123.785156 Z M 177.863281 123.78125 " fill-opacity="1" fill-rule="nonzero"/><path fill="#ffa945" d="M 233.910156 120.792969 L 228.542969 133.617188 C 229.203125 134.933594 229.730469 136.011719 230.121094 136.851562 C 231.101562 138.199219 232.019531 139.679688 232.878906 141.289062 L 235.019531 145.867188 C 236.164062 148.667969 237.175781 151.769531 238.046875 155.175781 L 239.253906 160.511719 C 240.175781 165.414062 240.59375 168.230469 240.503906 168.960938 C 240.777344 172.90625 240.867188 176.632812 240.769531 180.152344 C 241 182.292969 241.417969 189.855469 242.027344 202.839844 C 242.160156 205.039062 242.394531 206.902344 242.730469 208.429688 C 244.109375 212.269531 245.839844 212.179688 247.921875 208.15625 C 249.542969 204.0625 250.757812 196.652344 251.570312 185.921875 C 251.949219 172.972656 251.546875 162.117188 250.367188 153.351562 C 247.058594 135.648438 241.574219 124.796875 233.910156 120.792969 Z M 233.910156 120.792969 " fill-opacity="1" fill-rule="nonzero"/><path fill="#ffa945" d="M 238.976562 128.890625 L 237.871094 150.128906 C 238.140625 151.078125 238.417969 152.445312 238.695312 154.226562 C 238.988281 156.445312 239.167969 158.511719 239.230469 160.414062 L 240.257812 166.300781 L 240.515625 168.796875 C 240.65625 170.503906 240.75 173.507812 240.800781 177.8125 C 240.738281 180.203125 240.636719 182.5 240.492188 184.703125 C 241.207031 188.082031 241.519531 190.78125 241.429688 192.804688 C 241.4375 195.117188 241.125 197.589844 240.492188 200.21875 C 239.960938 202.394531 239.164062 204.488281 238.097656 206.492188 C 237.996094 208.527344 237.710938 209.875 237.253906 210.539062 C 237.3125 214.371094 237.535156 217.089844 237.917969 218.695312 C 239.222656 221.289062 243.292969 219.023438 250.128906 211.902344 C 251.746094 210.09375 252.582031 208.796875 252.636719 208.015625 C 252.90625 207.246094 253.09375 206.15625 253.203125 204.746094 C 253.34375 202.226562 253.453125 200.765625 253.527344 200.363281 L 253.550781 199.878906 C 253.304688 199.574219 253.042969 198.515625 252.773438 196.707031 C 252.710938 195.777344 252.707031 194.777344 252.769531 193.707031 C 252.742188 193.148438 252.957031 191.496094 253.414062 188.746094 L 253.386719 187.660156 C 253.132812 178.355469 252.96875 173.886719 252.894531 174.253906 C 252.585938 168.714844 252.234375 164.472656 251.828125 161.535156 C 250.082031 153.9375 248.296875 147.730469 246.484375 142.910156 L 245.070312 139.34375 C 244.113281 137.09375 243.125 135.097656 242.109375 133.355469 C 241.09375 131.613281 240.050781 130.125 238.976562 128.890625 Z M 238.976562 128.890625 " fill-opacity="1" fill-rule="nonzero"/><path fill="#ffa945" d="M 141.707031 217.25 L 141.507812 220.78125 C 140.75 227.890625 138.839844 233.546875 135.773438 237.757812 C 132.691406 241.960938 129.128906 243.621094 125.082031 242.730469 C 121.230469 241.523438 118.199219 238.164062 115.984375 232.648438 C 113.777344 227.097656 112.964844 220.59375 113.558594 213.140625 C 114.316406 206.035156 116.226562 200.375 119.289062 196.167969 C 122.371094 191.960938 125.9375 190.304688 129.980469 191.195312 C 133.832031 192.398438 136.867188 195.757812 139.078125 201.273438 C 139.785156 203.058594 140.359375 204.996094 140.800781 207.089844 L 141.34375 210.316406 C 141.632812 212.535156 141.753906 214.847656 141.707031 217.25 " fill-opacity="1" fill-rule="nonzero"/><path fill="#000000" d="M 164.855469 220 L 164.222656 224.925781 C 162.414062 234.800781 159.007812 242.523438 154 248.09375 C 148.964844 253.660156 143.441406 255.605469 137.433594 253.9375 C 131.746094 251.84375 127.496094 246.816406 124.679688 238.859375 C 123.78125 236.289062 123.097656 233.515625 122.632812 230.535156 L 122.117188 225.960938 C 121.890625 222.824219 121.921875 219.574219 122.214844 216.210938 C 123.285156 205.90625 126.128906 197.507812 130.75 191.011719 C 135.367188 184.515625 140.710938 181.40625 146.773438 181.683594 C 152.789062 182.480469 157.5 186.484375 160.898438 193.691406 C 164.300781 200.898438 165.621094 209.667969 164.855469 220 " fill-opacity="1" fill-rule="nonzero"/><path fill="#ffde59" d="M 157.058594 219.644531 L 156.628906 222.660156 C 155.570312 228.710938 153.984375 233.464844 151.871094 236.917969 C 149.75 240.371094 147.582031 241.617188 145.367188 240.65625 C 143.285156 239.4375 141.863281 236.410156 141.097656 231.578125 C 140.339844 226.714844 140.457031 221.105469 141.453125 214.75 C 142.511719 208.699219 144.101562 203.945312 146.210938 200.492188 C 148.332031 197.039062 150.503906 195.792969 152.71875 196.753906 C 154.796875 197.972656 156.21875 201 156.984375 205.832031 C 157.226562 207.394531 157.382812 209.082031 157.445312 210.898438 L 157.464844 213.6875 C 157.433594 215.601562 157.296875 217.585938 157.058594 219.644531 " fill-opacity="1" fill-rule="nonzero"/><g clip-path="url(#id2)"><path fill="#000000" d="M 203.085938 112.5 L 202.636719 112.511719 L 195.925781 113.125 L 190.695312 114.601562 L 180.203125 119.207031 L 170.667969 125.339844 C 170.316406 128.464844 172.058594 133.070312 175.894531 139.152344 L 177.128906 138.496094 C 178.625 137.246094 180.261719 136.136719 182.039062 135.164062 L 184.804688 133.808594 C 186.71875 132.972656 188.773438 132.28125 190.96875 131.722656 C 193.160156 131.167969 195.496094 130.75 197.96875 130.472656 C 199.550781 130.179688 203.050781 130.054688 208.464844 130.097656 C 218.609375 130.441406 226.390625 134.066406 231.804688 140.984375 C 235.382812 138.667969 237.441406 137.195312 237.972656 136.558594 C 239.738281 134.75 240.835938 133.046875 241.261719 131.453125 C 241.425781 131.203125 241.507812 129.734375 241.515625 127.050781 L 237.527344 122.976562 C 235 120.8125 233.664062 119.707031 233.519531 119.671875 C 233.203125 119.5 233.074219 119.457031 233.132812 119.539062 L 228.683594 117.207031 L 223.332031 115.335938 C 219.699219 114.269531 216.976562 113.621094 215.15625 113.382812 C 210.765625 112.871094 206.742188 112.574219 203.085938 112.5 Z M 203.085938 112.5 " fill-opacity="1" fill-rule="nonzero"/></g><path fill="#ffde59" d="M 234.535156 125.296875 C 234.453125 125.296875 234.386719 125.359375 234.378906 125.441406 C 234.089844 128.539062 232.28125 132.136719 228.949219 136.234375 C 228.894531 136.304688 228.90625 136.402344 228.972656 136.457031 C 229.003906 136.484375 229.039062 136.496094 229.074219 136.496094 C 229.121094 136.496094 229.167969 136.472656 229.199219 136.4375 C 232.570312 132.285156 234.402344 128.632812 234.695312 125.472656 C 234.703125 125.382812 234.636719 125.304688 234.550781 125.296875 C 234.546875 125.296875 234.539062 125.296875 234.535156 125.296875 Z M 234.535156 125.296875 " fill-opacity="1" fill-rule="nonzero"/><path fill="#ffde59" d="M 220.199219 119.265625 C 220.109375 119.265625 220.039062 119.339844 220.042969 119.425781 C 220.0625 120.496094 219.933594 121.644531 219.652344 122.878906 C 219.367188 124.09375 218.878906 125.597656 218.191406 127.386719 C 218.160156 127.46875 218.199219 127.558594 218.28125 127.589844 C 218.300781 127.597656 218.320312 127.601562 218.339844 127.601562 C 218.402344 127.601562 218.460938 127.5625 218.488281 127.5 C 219.183594 125.695312 219.671875 124.179688 219.960938 122.949219 C 220.25 121.691406 220.382812 120.515625 220.359375 119.421875 C 220.359375 119.332031 220.285156 119.265625 220.199219 119.265625 Z M 220.199219 119.265625 " fill-opacity="1" fill-rule="nonzero"/><path fill="#ffde59" d="M 201.460938 118.34375 C 201.453125 118.34375 201.445312 118.34375 201.4375 118.34375 C 201.351562 118.359375 201.292969 118.4375 201.304688 118.523438 C 201.546875 120.273438 202.121094 122.746094 203.023438 125.933594 C 203.042969 126.003906 203.105469 126.046875 203.175781 126.046875 C 203.191406 126.046875 203.207031 126.046875 203.21875 126.042969 C 203.304688 126.019531 203.351562 125.929688 203.328125 125.84375 C 202.429688 122.671875 201.859375 120.21875 201.617188 118.480469 C 201.605469 118.402344 201.539062 118.34375 201.460938 118.34375 Z M 201.460938 118.34375 " fill-opacity="1" fill-rule="nonzero"/><path fill="#ffde59" d="M 185.046875 121.953125 C 184.964844 121.953125 184.894531 122.019531 184.890625 122.105469 C 184.84375 122.957031 185.230469 124.347656 186.046875 126.277344 C 186.75 127.9375 187.714844 129.695312 188.9375 131.546875 C 188.96875 131.59375 189.019531 131.617188 189.070312 131.617188 C 189.101562 131.617188 189.132812 131.609375 189.160156 131.589844 C 189.230469 131.542969 189.253906 131.445312 189.203125 131.371094 C 187.988281 129.535156 187.035156 127.796875 186.335938 126.152344 C 185.542969 124.269531 185.164062 122.925781 185.207031 122.121094 C 185.210938 122.035156 185.144531 121.960938 185.058594 121.953125 C 185.054688 121.953125 185.050781 121.953125 185.046875 121.953125 Z M 185.046875 121.953125 " fill-opacity="1" fill-rule="nonzero"/><path fill="#ffde59" d="M 174.355469 128.457031 C 174.347656 128.457031 174.335938 128.460938 174.324219 128.460938 C 174.238281 128.476562 174.183594 128.5625 174.199219 128.648438 C 174.617188 130.742188 176.117188 133.535156 178.707031 137.023438 C 178.738281 137.066406 178.785156 137.089844 178.835938 137.089844 C 178.867188 137.089844 178.902344 137.078125 178.929688 137.058594 C 179 137.003906 179.015625 136.90625 178.960938 136.835938 C 176.402344 133.386719 174.917969 130.636719 174.511719 128.585938 C 174.496094 128.511719 174.429688 128.457031 174.355469 128.457031 Z M 174.355469 128.457031 " fill-opacity="1" fill-rule="nonzero"/><path fill="#ffde59" d="M 212.398438 122.871094 C 212.324219 122.871094 212.257812 122.921875 212.242188 123 C 212.121094 123.597656 211.988281 124.667969 211.84375 126.207031 C 211.835938 126.292969 211.902344 126.371094 211.988281 126.378906 C 211.992188 126.378906 212 126.378906 212.003906 126.378906 C 212.085938 126.378906 212.152344 126.316406 212.160156 126.234375 C 212.304688 124.707031 212.4375 123.652344 212.554688 123.0625 C 212.574219 122.976562 212.515625 122.890625 212.429688 122.875 C 212.421875 122.871094 212.410156 122.871094 212.398438 122.871094 Z M 212.398438 122.871094 " fill-opacity="1" fill-rule="nonzero"/><path fill="#ffde59" d="M 226.183594 128.230469 C 226.117188 128.230469 226.054688 128.273438 226.03125 128.339844 C 225.671875 129.398438 225.398438 130.25 225.210938 130.886719 C 225.1875 130.972656 225.238281 131.058594 225.320312 131.082031 C 225.335938 131.089844 225.351562 131.089844 225.367188 131.089844 C 225.433594 131.089844 225.496094 131.046875 225.519531 130.976562 C 225.699219 130.339844 225.972656 129.496094 226.332031 128.441406 C 226.363281 128.359375 226.316406 128.269531 226.234375 128.238281 C 226.21875 128.234375 226.199219 128.230469 226.183594 128.230469 Z M 226.183594 128.230469 " fill-opacity="1" fill-rule="nonzero"/><path fill="#ffde59" d="M 189.742188 126.167969 C 189.71875 126.167969 189.699219 126.175781 189.675781 126.183594 C 189.597656 126.222656 189.5625 126.316406 189.597656 126.394531 C 189.671875 126.550781 189.746094 126.714844 189.824219 126.890625 L 190.761719 129.058594 C 190.789062 129.117188 190.847656 129.152344 190.910156 129.152344 C 190.929688 129.152344 190.953125 129.148438 190.972656 129.140625 C 191.050781 129.105469 191.089844 129.011719 191.054688 128.933594 L 190.113281 126.765625 L 190.113281 126.761719 C 190.035156 126.585938 189.960938 126.417969 189.886719 126.261719 C 189.859375 126.203125 189.804688 126.167969 189.742188 126.167969 Z M 189.742188 126.167969 " fill-opacity="1" fill-rule="nonzero"/><path fill="#ffde59" d="M 179.679688 132.550781 C 179.652344 132.550781 179.628906 132.558594 179.605469 132.570312 C 179.527344 132.609375 179.496094 132.707031 179.539062 132.785156 C 179.605469 132.914062 179.789062 133.230469 180.089844 133.734375 C 180.121094 133.78125 180.171875 133.808594 180.226562 133.808594 C 180.253906 133.808594 180.28125 133.804688 180.308594 133.789062 C 180.382812 133.742188 180.410156 133.644531 180.363281 133.570312 C 180.066406 133.070312 179.886719 132.757812 179.820312 132.636719 C 179.789062 132.582031 179.734375 132.550781 179.679688 132.550781 Z M 179.679688 132.550781 " fill-opacity="1" fill-rule="nonzero"/><path fill="#ffbd59" d="M 248.949219 206.105469 C 248.929688 206.105469 248.910156 206.109375 248.890625 206.117188 C 245.941406 207.273438 243.738281 209.628906 242.273438 213.1875 C 240.167969 218.347656 239.3125 223.40625 239.703125 228.359375 L 239.703125 228.367188 C 240.535156 235.640625 241.90625 240.953125 243.808594 244.300781 C 245.402344 247.410156 247.367188 248.964844 249.710938 248.964844 C 250.246094 248.964844 250.804688 248.882812 251.382812 248.71875 C 251.46875 248.695312 251.515625 248.605469 251.492188 248.523438 C 251.472656 248.453125 251.410156 248.40625 251.339844 248.40625 C 251.324219 248.40625 251.308594 248.40625 251.296875 248.414062 C 250.753906 248.566406 250.234375 248.640625 249.730469 248.640625 C 247.5 248.640625 245.621094 247.144531 244.089844 244.152344 L 244.085938 244.144531 C 242.203125 240.835938 240.847656 235.566406 240.019531 228.335938 C 239.632812 223.429688 240.480469 218.421875 242.566406 213.308594 C 243.996094 209.835938 246.144531 207.535156 249.007812 206.414062 C 249.089844 206.378906 249.128906 206.289062 249.097656 206.207031 C 249.070312 206.144531 249.011719 206.105469 248.949219 206.105469 Z M 248.949219 206.105469 " fill-opacity="1" fill-rule="nonzero"/><path fill="#ffbd59" d="M 128.890625 191.878906 C 128.882812 191.878906 128.875 191.878906 128.863281 191.882812 C 125.328125 192.484375 122.570312 194.199219 120.589844 197.019531 C 117.667969 201.015625 115.894531 205.722656 115.273438 211.136719 C 114.347656 216.078125 114.363281 221.039062 115.328125 226.027344 C 116.273438 231 118.242188 234.972656 121.242188 237.945312 C 121.273438 237.976562 121.3125 237.992188 121.351562 237.992188 C 121.394531 237.992188 121.433594 237.976562 121.464844 237.945312 C 121.527344 237.882812 121.527344 237.78125 121.464844 237.71875 C 118.515625 234.792969 116.574219 230.875 115.640625 225.96875 C 114.683594 221.015625 114.664062 216.089844 115.585938 211.1875 L 115.589844 211.175781 C 116.207031 205.8125 117.957031 201.15625 120.847656 197.203125 L 120.847656 197.199219 C 122.777344 194.453125 125.46875 192.785156 128.917969 192.195312 C 129.003906 192.179688 129.0625 192.097656 129.046875 192.011719 C 129.035156 191.933594 128.96875 191.878906 128.890625 191.878906 Z M 128.890625 191.878906 " fill-opacity="1" fill-rule="nonzero"/><path fill="#ffbd59" d="M 236.632812 141.179688 C 236.585938 141.179688 236.542969 141.199219 236.511719 141.234375 C 236.453125 141.300781 236.460938 141.402344 236.527344 141.460938 C 241.144531 145.441406 244.042969 152.347656 245.226562 162.179688 C 245.792969 169.746094 245.921875 176.113281 245.605469 181.289062 C 245.40625 184.511719 245.210938 186.707031 245.023438 187.875 L 242.800781 201.488281 C 242.785156 201.574219 242.84375 201.65625 242.929688 201.667969 C 242.941406 201.671875 242.949219 201.671875 242.957031 201.671875 C 243.035156 201.671875 243.101562 201.617188 243.113281 201.539062 L 245.335938 187.925781 C 245.527344 186.75 245.722656 184.542969 245.921875 181.308594 C 246.238281 176.117188 246.113281 169.730469 245.542969 162.152344 L 245.542969 162.144531 C 244.347656 152.230469 241.414062 145.253906 236.734375 141.21875 C 236.707031 141.191406 236.667969 141.179688 236.632812 141.179688 Z M 236.632812 141.179688 " fill-opacity="1" fill-rule="nonzero"/><path fill="#ffbd59" d="M 169.894531 131.667969 C 169.859375 131.667969 169.828125 131.679688 169.800781 131.699219 C 160.085938 138.6875 152.234375 146.273438 146.242188 154.460938 C 137.003906 166.699219 131.359375 176.863281 129.316406 184.953125 C 129.292969 185.039062 129.347656 185.125 129.429688 185.148438 C 129.445312 185.148438 129.457031 185.152344 129.46875 185.152344 C 129.542969 185.152344 129.605469 185.105469 129.625 185.03125 C 131.65625 176.980469 137.28125 166.855469 146.496094 154.652344 L 146.5 154.648438 C 152.472656 146.488281 160.300781 138.925781 169.984375 131.957031 C 170.058594 131.90625 170.074219 131.804688 170.023438 131.734375 C 169.992188 131.691406 169.941406 131.667969 169.894531 131.667969 Z M 169.894531 131.667969 " fill-opacity="1" fill-rule="nonzero"/><path fill="#ffde59" d="M 147.980469 183.519531 C 144.09375 183.519531 140.242188 185.957031 136.425781 190.839844 C 136.1875 191.144531 135.949219 191.457031 135.714844 191.78125 L 135.710938 191.785156 C 130.308594 199.300781 127.589844 210.527344 127.558594 225.46875 C 127.457031 234.992188 131.011719 242.433594 138.214844 247.796875 L 138.242188 247.8125 C 140.027344 248.824219 141.828125 249.328125 143.652344 249.328125 C 147.625 249.328125 151.691406 246.933594 155.851562 242.144531 C 155.9375 242.042969 155.925781 241.894531 155.828125 241.804688 C 155.78125 241.765625 155.726562 241.746094 155.671875 241.746094 C 155.601562 241.746094 155.535156 241.773438 155.488281 241.828125 C 151.429688 246.503906 147.480469 248.839844 143.640625 248.839844 C 141.902344 248.839844 140.191406 248.363281 138.5 247.40625 L 138.496094 247.40625 C 131.425781 242.140625 127.9375 234.828125 128.035156 225.472656 L 128.035156 225.46875 C 128.070312 210.632812 130.757812 199.496094 136.101562 192.066406 C 136.335938 191.746094 136.570312 191.4375 136.804688 191.136719 C 140.507812 186.394531 144.242188 184.023438 148 184.023438 C 150.347656 184.023438 152.707031 184.949219 155.078125 186.800781 C 155.121094 186.832031 155.171875 186.851562 155.222656 186.851562 C 155.296875 186.851562 155.367188 186.820312 155.414062 186.757812 C 155.496094 186.652344 155.476562 186.503906 155.371094 186.421875 C 152.894531 184.484375 150.429688 183.519531 147.980469 183.519531 Z M 147.980469 183.519531 " fill-opacity="1" fill-rule="nonzero"/><path fill="#ffde59" d="M 234.84375 191.003906 C 234.796875 191.003906 234.75 191.015625 234.707031 191.046875 C 229.085938 194.945312 225.023438 200.800781 222.523438 208.613281 C 219.878906 216.878906 218.84375 225.535156 219.417969 234.578125 C 219.570312 238.324219 220.320312 242.5 221.675781 247.105469 L 221.675781 247.113281 C 222.546875 249.78125 223.867188 252.234375 225.644531 254.46875 C 228.664062 258.464844 231.980469 260.460938 235.589844 260.460938 C 236.832031 260.460938 238.109375 260.222656 239.421875 259.75 C 239.546875 259.707031 239.609375 259.570312 239.566406 259.445312 C 239.53125 259.347656 239.4375 259.285156 239.339844 259.285156 C 239.3125 259.285156 239.285156 259.289062 239.257812 259.300781 C 238.011719 259.75 236.796875 259.972656 235.613281 259.972656 C 232.144531 259.972656 228.945312 258.042969 226.023438 254.175781 L 226.019531 254.171875 C 224.28125 251.980469 222.984375 249.582031 222.136719 246.96875 C 220.792969 242.398438 220.046875 238.261719 219.894531 234.554688 L 219.894531 234.546875 C 219.324219 225.566406 220.351562 216.96875 222.980469 208.757812 C 225.445312 201.050781 229.445312 195.277344 234.980469 191.4375 C 235.089844 191.363281 235.117188 191.214844 235.042969 191.105469 C 234.996094 191.039062 234.921875 191.003906 234.84375 191.003906 Z M 234.84375 191.003906 " fill-opacity="1" fill-rule="nonzero"/><path fill="#ffde59" d="M 148.152344 186.304688 C 145.640625 186.304688 143.226562 187.601562 140.90625 190.199219 C 138.011719 193.410156 135.695312 197.4375 133.953125 202.28125 C 133.90625 202.40625 133.972656 202.542969 134.097656 202.589844 C 134.125 202.597656 134.152344 202.601562 134.179688 202.601562 C 134.277344 202.601562 134.367188 202.542969 134.402344 202.445312 C 136.125 197.65625 138.410156 193.683594 141.265625 190.519531 C 143.488281 188.027344 145.785156 186.78125 148.15625 186.78125 C 148.277344 186.78125 148.394531 186.785156 148.515625 186.792969 C 148.519531 186.792969 148.523438 186.792969 148.527344 186.792969 C 148.652344 186.792969 148.757812 186.691406 148.765625 186.566406 C 148.773438 186.433594 148.671875 186.320312 148.539062 186.3125 C 148.410156 186.304688 148.28125 186.304688 148.152344 186.304688 Z M 148.152344 186.304688 " fill-opacity="1" fill-rule="nonzero"/><path fill="#ffde59" d="M 159.945312 227.566406 C 159.84375 227.566406 159.75 227.632812 159.714844 227.734375 C 158.554688 231.484375 157.160156 234.742188 155.527344 237.507812 C 153.636719 240.707031 151.90625 242.847656 150.332031 243.933594 C 150.226562 244.011719 150.199219 244.160156 150.273438 244.269531 C 150.320312 244.335938 150.394531 244.371094 150.46875 244.371094 C 150.515625 244.371094 150.5625 244.359375 150.605469 244.328125 C 152.238281 243.203125 154.015625 241.011719 155.9375 237.75 C 157.589844 234.957031 159.003906 231.664062 160.175781 227.875 C 160.214844 227.75 160.144531 227.617188 160.015625 227.578125 C 159.992188 227.570312 159.96875 227.566406 159.945312 227.566406 Z M 159.945312 227.566406 " fill-opacity="1" fill-rule="nonzero"/><path fill="#ffde59" d="M 225.195312 249.777344 C 225.148438 249.777344 225.097656 249.792969 225.058594 249.820312 C 224.949219 249.898438 224.925781 250.046875 225 250.15625 C 227.257812 253.324219 229.25 255.304688 230.988281 256.101562 C 232.613281 256.980469 234.121094 257.417969 235.515625 257.417969 C 236.246094 257.417969 236.945312 257.296875 237.609375 257.058594 C 237.734375 257.011719 237.800781 256.875 237.753906 256.75 C 237.71875 256.652344 237.628906 256.59375 237.527344 256.59375 C 237.5 256.59375 237.472656 256.597656 237.449219 256.605469 C 236.835938 256.828125 236.191406 256.9375 235.519531 256.9375 C 234.199219 256.9375 232.761719 256.515625 231.203125 255.675781 L 231.1875 255.667969 C 229.527344 254.90625 227.597656 252.976562 225.390625 249.878906 C 225.34375 249.8125 225.269531 249.777344 225.195312 249.777344 Z M 225.195312 249.777344 " fill-opacity="1" fill-rule="nonzero"/><path fill="#ffde59" d="M 224.96875 198.097656 C 224.890625 198.097656 224.8125 198.136719 224.765625 198.207031 C 222.777344 201.367188 221.496094 203.867188 220.921875 205.710938 C 219.796875 208.695312 218.65625 212.660156 217.496094 217.605469 C 217.464844 217.734375 217.546875 217.863281 217.675781 217.894531 C 217.691406 217.898438 217.710938 217.902344 217.730469 217.902344 C 217.835938 217.902344 217.9375 217.828125 217.960938 217.714844 C 219.121094 212.78125 220.257812 208.832031 221.375 205.867188 L 221.378906 205.851562 C 221.941406 204.046875 223.207031 201.585938 225.171875 198.464844 C 225.242188 198.351562 225.207031 198.203125 225.097656 198.132812 C 225.058594 198.109375 225.011719 198.097656 224.96875 198.097656 Z M 224.96875 198.097656 " fill-opacity="1" fill-rule="nonzero"/></svg>