<svg xmlns="http://www.w3.org/2000/svg" xmlns:xlink="http://www.w3.org/1999/xlink" width="500" zoomAndPan="magnify" viewBox="0 0 375 374.999991" height="500" preserveAspectRatio="xMidYMid meet" version="1.0"><path fill="#000000" d="M 224.984375 222.976562 L 240.628906 225.582031 C 230.753906 229.210938 224.984375 222.976562 224.984375 222.976562 Z M 258.878906 201.730469 C 258.902344 205.613281 258.957031 221.324219 258.339844 201.988281 L 220.203125 220.125 C 220.203125 220.125 218.152344 197.882812 238.882812 194.804688 C 238.882812 194.804688 244.6875 193.121094 250.0625 193.707031 C 250.0625 193.707031 250.0625 193.707031 250.058594 193.707031 L 250.058594 193.703125 C 249.113281 192.40625 247.648438 190.472656 245.699219 188.183594 C 238.316406 179.519531 224.011719 165.734375 205.035156 161.609375 C 205.035156 161.609375 185.117188 160.46875 161.421875 151.113281 L 159.898438 147.871094 L 141.234375 149.621094 L 141.488281 150.519531 C 141.503906 150.875 141.511719 151.230469 141.507812 151.570312 C 141.480469 164.105469 131.054688 166.9375 128.730469 174.039062 C 128.128906 175.878906 128.015625 177.734375 128.351562 179.542969 C 128.558594 180.660156 128.933594 181.757812 129.476562 182.820312 C 131.527344 186.875 135.910156 190.410156 142.058594 192.476562 C 148.054688 194.496094 150.402344 198.5625 151.316406 201.632812 C 151.878906 203.519531 151.898438 205.03125 151.886719 205.449219 C 151.886719 205.515625 151.886719 205.554688 151.886719 205.566406 C 154.628906 202.609375 161.0625 197.320312 172.242188 196.890625 C 177.195312 196.574219 198.765625 196.089844 204.960938 210.984375 C 205.019531 211.109375 205.070312 211.238281 205.125 211.371094 C 205.125 211.375 205.125 211.375 205.128906 211.378906 C 205.945312 213.441406 206.324219 215.863281 205.859375 218.648438 C 204.027344 229.597656 196.621094 223.667969 196.621094 223.667969 C 196.621094 223.667969 193.660156 236.148438 172.472656 231.5625 C 151.285156 226.972656 149.007812 211.589844 149.007812 211.589844 L 149.769531 209.183594 C 149.4375 209.304688 149.007812 208.992188 149.007812 208.992188 L 148.847656 208.652344 L 148.589844 208.105469 C 148.589844 208.105469 147.746094 211.980469 148.546875 207.976562 C 148.558594 207.90625 148.574219 207.835938 148.589844 207.765625 C 148.761719 206.910156 148.59375 205.945312 148.207031 204.949219 C 148.066406 204.59375 147.902344 204.234375 147.714844 203.875 C 147.710938 203.871094 147.710938 203.863281 147.707031 203.859375 C 147.707031 203.859375 147.707031 203.855469 147.707031 203.855469 C 147.191406 202.859375 146.507812 201.859375 145.785156 200.925781 C 142.71875 197.445312 137.96875 195.316406 137.96875 195.316406 C 128.773438 192.136719 125.769531 185.5625 125.769531 185.5625 C 120.414062 170.164062 128.84375 169.480469 133.628906 161.589844 C 134.148438 160.730469 134.605469 159.914062 135 159.148438 C 136.265625 156.699219 136.941406 154.714844 137.296875 153.207031 C 137.296875 153.207031 137.296875 153.207031 137.296875 153.203125 L 128.046875 157.617188 C 120.265625 161.609375 117.636719 167.785156 117.171875 173.550781 C 116.554688 181.296875 119.84375 188.300781 119.84375 188.300781 C 129.1875 208.152344 147.714844 207.085938 147.714844 207.085938 L 147.714844 212.113281 C 117.949219 209.804688 112.554688 187.730469 113.753906 171.191406 C 114.238281 164.535156 118.199219 159.738281 122.757812 156.390625 C 122.757812 156.390625 122.757812 156.390625 122.765625 156.386719 C 127.527344 152.890625 132.941406 150.96875 135.730469 150.136719 L 135.726562 150.136719 C 153.957031 138.808594 163.019531 147.578125 163.019531 147.578125 C 163.019531 147.578125 176.773438 153.800781 192.527344 155.054688 C 193.746094 155.375 195.003906 155.511719 196.269531 155.585938 C 196.566406 155.644531 196.859375 155.699219 197.152344 155.75 C 200.59375 156.328125 204.011719 157.046875 207.410156 157.847656 C 208.609375 158.128906 209.800781 158.421875 210.988281 158.730469 C 226.285156 163.945312 245.410156 174.527344 253.894531 187.566406 C 255.992188 190.785156 257.441406 194.160156 258.019531 197.636719 C 258.066406 197.917969 258.109375 198.199219 258.140625 198.484375 C 258.140625 198.488281 258.144531 198.492188 258.144531 198.496094 C 258.480469 199.203125 258.726562 200.007812 258.871094 200.917969 L 258.875 200.917969 C 258.875 200.917969 258.875 200.925781 258.875 200.9375 C 258.914062 201.179688 258.949219 201.425781 258.96875 201.6875 Z M 137.652344 149.957031 L 137.617188 149.960938 L 137.617188 151.34375 C 137.679688 150.699219 137.671875 150.238281 137.652344 149.957031 Z M 137.652344 149.957031 " fill-opacity="1" fill-rule="nonzero"/><path fill="#ffde59" d="M 212.039062 225.59375 L 205.035156 222.144531 L 201.851562 218.671875 L 171.859375 213.738281 L 157.890625 213.324219 C 158.121094 214.921875 157.96875 213.933594 157.890625 214.539062 C 157.816406 215.148438 156.445312 219.332031 156.445312 219.332031 C 153.761719 216.386719 150.753906 209.75 150.753906 209.75 L 150.058594 209.09375 L 149.539062 212.492188 L 146.878906 212.113281 L 147.714844 207.085938 L 150.296875 207.527344 L 150.289062 207.597656 C 154.265625 204.875 169.171875 195.746094 184.820312 200.082031 C 184.820312 200.082031 202.769531 202.835938 205.109375 216.273438 L 211.660156 219.839844 C 211.660156 219.839844 210.445312 224.707031 212.039062 225.59375 Z M 258.863281 202.085938 L 259.042969 202.003906 C 258.933594 201.878906 258.824219 201.753906 258.707031 201.636719 C 257.605469 198.773438 253.808594 195.230469 241.503906 196.289062 C 221.570312 198 221.269531 218.542969 221.269531 218.542969 L 222.230469 218.199219 C 222.214844 218.488281 222.214844 218.648438 222.214844 218.648438 L 223.164062 218.648438 L 230.757812 215.125 L 259.042969 204.929688 C 259.042969 204.929688 259.335938 203.660156 258.863281 202.085938 Z M 258.863281 202.085938 " fill-opacity="1" fill-rule="nonzero"/><path fill="#f4cf99" d="M 205.035156 216.699219 C 206.53125 228.113281 184.546875 220.472656 184.546875 220.472656 L 162.628906 219.332031 L 151.285156 210.355469 C 151.285156 210.355469 162.867188 198.339844 186.863281 203.132812 C 186.863281 203.132812 203.535156 205.285156 205.035156 216.699219 Z M 237.890625 200.167969 C 222.316406 204.5 223.164062 218.648438 223.164062 218.648438 L 230 217.277344 L 258.96875 201.6875 C 258.96875 201.6875 253.464844 195.832031 237.890625 200.167969 Z M 237.890625 200.167969 " fill-opacity="1" fill-rule="nonzero"/><path fill="#ffde59" d="M 160.730469 213.253906 L 192.328125 230.789062 C 159.554688 236.316406 151.285156 210.355469 151.285156 210.355469 Z M 251.984375 216.707031 C 250.84375 216.820312 248.90625 218.078125 246.859375 218.304688 C 244.808594 218.53125 231.367188 221.738281 231.367188 221.738281 L 227.492188 223.324219 C 227.492188 223.324219 242.71875 232.683594 256.578125 217.792969 C 256.578125 217.796875 253.121094 216.59375 251.984375 216.707031 Z M 251.984375 216.707031 " fill-opacity="1" fill-rule="nonzero"/><path fill="#f1ac44" d="M 252.375 221.738281 L 241.101562 210.445312 L 229.320312 219.332031 C 226.9375 204.617188 252.765625 201.652344 252.765625 201.652344 C 254.816406 201.375 256.921875 201.339844 258.96875 201.6875 C 258.96875 201.6875 262.488281 215.476562 252.375 221.738281 Z M 193.929688 208.707031 C 192.511719 208.28125 191.050781 207.984375 189.566406 207.796875 C 189.410156 207.773438 189.324219 207.765625 189.324219 207.765625 L 189.328125 207.769531 C 183.609375 207.085938 177.589844 207.972656 172.503906 209.242188 C 168.777344 210.0625 164.757812 211.382812 160.484375 213.371094 C 160.230469 213.488281 160.09375 213.550781 160.09375 213.550781 C 160.09375 213.550781 164.328125 231.851562 186.882812 231.433594 L 186.863281 231.445312 C 186.863281 231.445312 187.230469 231.4375 187.847656 231.40625 C 188.792969 231.367188 189.765625 231.296875 190.773438 231.191406 L 190.816406 231.128906 C 193.78125 230.742188 197.746094 229.890625 200.226562 228.007812 C 204.597656 224.691406 199.070312 224.691406 199.070312 224.691406 L 192.53125 228.308594 L 199.824219 216.335938 L 201.160156 216.429688 L 205.816406 219.839844 C 206.476562 213.226562 199.035156 210.078125 193.929688 208.707031 Z M 193.929688 208.707031 " fill-opacity="1" fill-rule="nonzero"/><path fill="#f4cf99" d="M 205.816406 219.839844 C 205.902344 225.96875 197.878906 231.050781 187.890625 231.1875 C 177.90625 231.328125 169.742188 226.472656 169.65625 220.34375 C 169.570312 214.214844 177.597656 209.132812 187.582031 208.996094 C 197.566406 208.855469 205.730469 213.710938 205.816406 219.839844 Z M 257.964844 210.570312 C 256.289062 205.488281 248.589844 203.464844 240.769531 206.054688 C 232.949219 208.644531 227.96875 214.863281 229.648438 219.949219 C 231.324219 225.03125 239.023438 227.054688 246.84375 224.464844 C 254.664062 221.875 259.644531 215.65625 257.964844 210.570312 Z M 257.964844 210.570312 " fill-opacity="1" fill-rule="nonzero"/><path fill="#ffde59" d="M 222.519531 215.777344 L 230.941406 217.667969 L 224.570312 220.089844 C 224.265625 219.789062 224.113281 220.242188 223.65625 220.089844 C 223.203125 219.941406 223.203125 219.9375 222.820312 219.332031 C 222.441406 218.722656 222.519531 218.4375 222.519531 218.4375 L 222.519531 218.324219 L 220.148438 218.742188 L 220.164062 217.433594 L 222.519531 216.972656 Z M 253.894531 187.566406 C 252.6875 187.402344 250.792969 187.226562 248.972656 187.378906 C 244.710938 180.832031 236.671875 175.109375 230.566406 171.40625 C 217.210938 162.320312 202.546875 160.359375 202.546875 160.359375 L 202.550781 160.359375 C 200.066406 159.835938 197.6875 159.433594 195.484375 159.15625 C 179.839844 157.171875 165.664062 150.582031 162.21875 148.890625 C 162.191406 148.875 152.003906 143.058594 141.179688 148.472656 C 141.105469 148.476562 141.019531 148.484375 140.921875 148.496094 C 140.921875 148.492188 140.917969 148.488281 140.917969 148.488281 L 140.898438 148.496094 C 140.222656 148.574219 138.914062 148.871094 136.597656 149.890625 C 134.222656 150.539062 128.085938 152.480469 122.761719 156.386719 C 122.757812 156.390625 122.757812 156.394531 122.757812 156.394531 C 115.953125 161.671875 117.171875 173.550781 117.171875 173.550781 C 117.636719 167.785156 120.265625 161.609375 128.046875 157.617188 L 137.039062 153.328125 C 136.605469 154.851562 135.988281 156.585938 135.355469 158.234375 C 134.949219 159.472656 134.667969 160.75 134.179688 161.960938 C 133.925781 162.582031 133.507812 163.53125 132.917969 164.136719 C 132.8125 164.371094 132.757812 164.5 132.757812 164.5 C 125.878906 170.652344 128.164062 178.910156 128.339844 179.507812 C 128.34375 179.507812 128.34375 179.507812 128.347656 179.507812 C 128.019531 177.710938 128.132812 175.867188 128.730469 174.039062 C 130.65625 168.160156 138.136719 165.207031 140.667969 157.246094 C 140.722656 157.066406 140.777344 156.882812 140.832031 156.695312 C 140.832031 156.695312 141.167969 155.636719 141.46875 154.242188 C 144.3125 154.839844 154.957031 156.640625 161.566406 151.914062 C 172.617188 161.179688 202.726562 164.484375 218.378906 169.707031 C 234.101562 174.957031 241.714844 194.164062 241.714844 194.164062 L 247.03125 193.589844 C 246.671875 191.695312 246.121094 189.886719 245.410156 188.160156 C 246.554688 189.289062 247.359375 190.1875 247.367188 190.195312 C 248.503906 191.605469 249.40625 192.808594 250.058594 193.707031 L 250.0625 193.707031 C 250.0625 193.707031 252.140625 193.980469 254.207031 194.757812 C 254.210938 194.765625 254.21875 194.765625 254.226562 194.769531 C 254.226562 194.769531 254.226562 194.769531 254.230469 194.769531 C 255.839844 195.378906 257.4375 196.300781 258.019531 197.636719 C 257.441406 194.160156 255.992188 190.785156 253.894531 187.566406 Z M 228.222656 225.242188 L 229.992188 222.976562 L 225.675781 223.605469 C 226.367188 224.234375 228.222656 225.242188 228.222656 225.242188 Z M 148.207031 204.949219 C 148.59375 205.945312 148.761719 206.90625 148.589844 207.761719 C 148.574219 207.835938 148.558594 207.90625 148.546875 207.976562 L 148.847656 208.652344 L 150.296875 207.527344 C 150.296875 207.527344 150.296875 207.527344 150.300781 207.523438 C 150.324219 207.4375 150.71875 206.144531 151.890625 205.449219 C 151.898438 205.03125 151.878906 203.519531 151.316406 201.628906 C 150.515625 202.214844 149.058594 203.414062 148.207031 204.949219 Z M 148.207031 204.949219 " fill-opacity="1" fill-rule="nonzero"/><path fill="#000000" d="M 231.738281 222.410156 C 231.585938 222.632812 231.476562 222.761719 231.476562 222.761719 L 212.039062 225.59375 C 210.0625 224.019531 211.660156 219.839844 211.660156 219.839844 L 230.261719 217.433594 C 230.28125 217.441406 230.304688 217.449219 230.328125 217.453125 C 230.976562 217.542969 231.386719 217.957031 231.65625 218.503906 C 232.113281 219.695312 231.996094 221.113281 231.738281 222.410156 Z M 129.347656 166.785156 L 130.371094 166.785156 C 130.101562 167.140625 129.753906 167.597656 129.753906 167.597656 C 129.753906 167.597656 128.445312 168.964844 128.21875 169.25 C 127.988281 169.535156 127.476562 170.90625 127.351562 171.328125 C 127.226562 171.75 126.851562 172.386719 126.453125 173.300781 C 126.054688 174.214844 126.394531 174.5 126.453125 174.898438 C 126.507812 175.296875 127.851562 174.898438 127.851562 174.898438 C 128.800781 169.59375 130.59375 167.089844 131.46875 166.140625 C 131.625 166.003906 131.792969 165.84375 131.976562 165.660156 C 133.386719 164.242188 135.460938 161.472656 135.726562 157.25 C 135.726562 157.25 133.953125 163.75 129.347656 166.785156 Z M 129.347656 166.785156 " fill-opacity="1" fill-rule="nonzero"/></svg>