<svg xmlns="http://www.w3.org/2000/svg" xmlns:xlink="http://www.w3.org/1999/xlink" width="500" zoomAndPan="magnify" viewBox="0 0 375 374.999991" height="500" preserveAspectRatio="xMidYMid meet" version="1.0"><defs><clipPath id="id1"><path d="M 116.316406 169 L 167 169 L 167 262.5 L 116.316406 262.5 Z M 116.316406 169 " clip-rule="nonzero"/></clipPath><clipPath id="id2"><path d="M 116.316406 164 L 155 164 L 155 262.5 L 116.316406 262.5 Z M 116.316406 164 " clip-rule="nonzero"/></clipPath><clipPath id="id3"><path d="M 122 112.5 L 187 112.5 L 187 197 L 122 197 Z M 122 112.5 " clip-rule="nonzero"/></clipPath><clipPath id="id4"><path d="M 116.316406 243 L 135 243 L 135 262.5 L 116.316406 262.5 Z M 116.316406 243 " clip-rule="nonzero"/></clipPath></defs><g clip-path="url(#id1)"><path stroke-linecap="butt" transform="matrix(0.359576, 0, 0, 0.359221, 116.426049, 115.224792)" fill="none" stroke-linejoin="miter" d="M 21.671913 387.398976 C 26.201987 390.628619 38.771042 383.690868 71.50273 294.511399 C 104.636367 195.295026 96.347526 196.404196 96.706021 193.29417 " stroke="#000000" stroke-width="7.581" stroke-opacity="1" stroke-miterlimit="4"/></g><g clip-path="url(#id2)"><path stroke-linecap="butt" transform="matrix(0.359576, 0, 0, 0.359221, 116.426049, 115.224792)" fill="none" stroke-linejoin="miter" d="M 9.330991 385.213258 C 3.768886 385.050145 -3.574832 376.48126 20.868015 279.689838 C 41.595549 212.443669 54.935912 183.985838 63.507203 179.038069 " stroke="#000000" stroke-width="7.581" stroke-opacity="1" stroke-miterlimit="4"/></g><path stroke-linecap="butt" transform="matrix(0.359576, 0, 0, 0.359221, 116.426049, 115.224792)" fill="none" stroke-linejoin="miter" d="M 61.095509 188.172413 C 50.438428 185.486481 55.218362 168.37046 65.61472 168.925045 " stroke="#000000" stroke-width="7.581" stroke-opacity="1" stroke-miterlimit="4"/><path stroke-linecap="butt" transform="matrix(0.359576, 0, 0, 0.359221, 116.426049, 115.224792)" fill-opacity="1" fill="#ffde59" fill-rule="evenodd" stroke-linejoin="miter" d="M 62.692442 183.181146 C 40.281067 218.261376 6.224034 327.362414 7.723195 380.265489 C 7.125704 382.559949 23.898928 387.475096 24.811461 385.778718 C 55.250953 342.803805 90.611604 235.573133 95.663126 193.598648 C 79.389622 182.920165 62.692442 183.170272 62.692442 183.170272 Z M 62.692442 183.181146 " stroke="#000000" stroke-width="0.758" stroke-opacity="1" stroke-miterlimit="4"/><path stroke-linecap="butt" transform="matrix(0.359576, 0, 0, 0.359221, 116.426049, 115.224792)" fill="none" stroke-linejoin="miter" d="M 95.728307 198.470298 C 102.724393 199.55772 110.426605 190.347256 101.757542 179.831887 " stroke="#000000" stroke-width="7.581" stroke-opacity="1" stroke-miterlimit="4"/><g clip-path="url(#id3)"><path stroke-linecap="butt" transform="matrix(0.359576, 0, 0, 0.359221, 116.426049, 115.224792)" fill="none" stroke-linejoin="miter" d="M 60.639243 170.621423 C 61.062919 139.901755 81.062599 89.293141 83.767607 81.22447 C 86.483479 73.1558 118.04191 -2.104669 138.736854 4.158881 C 159.420934 10.422431 154.499774 53.353847 134.684773 113.705762 C 114.869772 174.046802 103.506564 184.116329 103.506564 184.116329 " stroke="#000000" stroke-width="7.581" stroke-opacity="1" stroke-miterlimit="4"/></g><path stroke-linecap="butt" transform="matrix(0.359576, 0, 0, 0.359221, 116.426049, 115.224792)" fill-opacity="1" fill="#ffde59" fill-rule="evenodd" stroke-linejoin="miter" d="M 138.334905 8.030103 C 111.654179 0.287659 65.114999 124.264629 64.256784 170.490933 C 62.627261 176.906722 73.023618 176.189023 83.680699 178.940201 C 94.631095 181.778372 100.367016 188.389897 101.855314 182.506945 C 128.807626 137.639918 166.514791 17.099202 138.334905 8.030103 Z M 138.334905 8.030103 " stroke="#000000" stroke-width="0.758" stroke-opacity="1" stroke-miterlimit="4"/><path stroke-linecap="butt" transform="matrix(0.359576, 0, 0, 0.359221, 116.426049, 115.224792)" fill-opacity="1" fill="#f1ac44" fill-rule="evenodd" stroke-linejoin="miter" d="M 59.346488 177.841905 C 56.326438 187.900557 67.591875 184.551298 78.868174 187.715695 C 90.144474 190.890967 99.00908 198.448549 101.420774 191.260691 C 103.832469 184.072832 92.425807 175.416954 83.24616 173.568337 C 74.077376 171.71972 61.801636 169.436134 59.346488 177.841905 Z M 59.346488 177.841905 " stroke="#000000" stroke-width="3.79" stroke-opacity="1" stroke-miterlimit="4"/><path fill="#000000" d="M 122.425781 246.683594 C 127.460938 216.449219 134.65625 197.527344 137.5 190.539062 C 140.101562 183.238281 133.710938 209.886719 132.402344 213.777344 Z M 122.425781 246.683594 " fill-opacity="0.5412" fill-rule="evenodd"/><path fill="#000000" d="M 142.976562 175.398438 C 146.679688 153.246094 154.019531 136.292969 156.132812 133.496094 C 158.246094 130.695312 155.054688 143.660156 155.054688 143.660156 Z M 142.976562 175.398438 " fill-opacity="0.5412" fill-rule="evenodd"/><path fill="#000000" d="M 224.28125 209.867188 C 223.347656 209.792969 222.398438 209.824219 221.464844 209.816406 C 214.242188 209.6875 207.035156 209.691406 199.808594 209.867188 C 185.714844 210.261719 171.332031 210.585938 157.453125 213.304688 C 156.980469 213.414062 154.042969 213.769531 153.785156 214.433594 C 153.640625 214.816406 154.65625 214.054688 154.738281 213.65625 C 154.824219 213.207031 153.824219 212.34375 154.28125 212.371094 C 158.804688 212.625 163.675781 214.078125 168.191406 214.699219 C 189.898438 217.582031 211.976562 218.898438 233.519531 222.839844 C 258.789062 228.660156 221.808594 233.847656 216.828125 234.285156 C 200.871094 235.488281 184.085938 234.667969 168.34375 237.769531 C 168.09375 237.847656 168.367188 235.742188 170.453125 236.761719 C 174.5625 238.78125 178.820312 240.507812 183.007812 242.355469 C 186.371094 243.863281 199.648438 248 198.066406 253.410156 C 194.59375 257.769531 185.644531 257.285156 180.636719 257.546875 C 174.28125 257.820312 167.921875 257.839844 161.5625 257.871094 C 158.875 257.898438 156.179688 257.902344 153.507812 258.207031 C 151.339844 258.46875 149.183594 258.679688 147.003906 258.804688 C 144.679688 258.9375 142.355469 259.128906 140.039062 259.367188 C 138.011719 259.605469 135.996094 259.90625 133.960938 260.046875 C 132.34375 260.144531 130.734375 260.285156 129.113281 260.34375 C 127.644531 260.390625 126.171875 260.378906 124.699219 260.359375 C 123.464844 260.339844 122.234375 260.300781 121.003906 260.4375 L 120.074219 256.644531 C 121.660156 256.496094 123.238281 256.5 124.828125 256.523438 C 126.144531 256.539062 127.457031 256.550781 128.769531 256.515625 C 130.292969 256.460938 131.8125 256.335938 133.335938 256.253906 C 135.273438 256.132812 137.1875 255.828125 139.117188 255.617188 C 141.558594 255.382812 144 255.191406 146.445312 255.039062 C 148.476562 254.914062 150.480469 254.691406 152.5 254.453125 C 155.523438 254.140625 158.5625 254.175781 161.59375 254.203125 C 167.78125 254.273438 173.964844 254.335938 180.148438 254.039062 C 183.4375 253.839844 186.777344 253.640625 190.007812 252.953125 C 190.246094 252.902344 192.339844 252.207031 192.382812 252.40625 C 192.972656 253.511719 190.65625 250.554688 189.59375 249.890625 C 186.570312 248.003906 183.285156 246.539062 180.046875 245.0625 C 178.269531 244.277344 154.269531 236.375 167.066406 234.277344 C 183.335938 232.484375 199.839844 232.917969 216.164062 231.480469 C 219.148438 231.167969 245.519531 229.75 232.015625 225.816406 C 210.945312 221 188.796875 219.8125 167.339844 217.582031 C 163.300781 217.167969 135.1875 213.738281 156.039062 210.007812 C 170.398438 207.789062 185.050781 207.34375 199.550781 206.710938 C 206.855469 206.402344 214.15625 206.140625 221.464844 206.011719 C 222.398438 206 223.347656 206.03125 224.28125 205.957031 Z M 224.28125 209.867188 " fill-opacity="0.749" fill-rule="nonzero"/><path fill="#ffa945" d="M 119.542969 253.058594 C 118.148438 261.214844 120.277344 262.320312 124.648438 254.617188 C 122.679688 254.457031 120.289062 253.488281 119.542969 253.058594 Z M 119.542969 253.058594 " fill-opacity="1" fill-rule="evenodd"/><g clip-path="url(#id4)"><path stroke-linecap="butt" transform="matrix(0.359576, 0, 0, 0.359221, 116.426049, 115.224792)" fill="none" stroke-linejoin="miter" d="M 8.668319 383.701742 C 4.790054 406.407111 10.710654 409.484515 22.866897 388.040555 C 17.391699 387.594712 10.743245 384.897906 8.668319 383.701742 Z M 8.668319 383.701742 " stroke="#000000" stroke-width="4.624" stroke-opacity="1" stroke-miterlimit="4"/></g></svg>