<svg xmlns="http://www.w3.org/2000/svg" xmlns:xlink="http://www.w3.org/1999/xlink" width="500" zoomAndPan="magnify" viewBox="0 0 375 374.999991" height="500" preserveAspectRatio="xMidYMid meet" version="1.0"><defs><clipPath id="id1"><path d="M 128 120.46875 L 262.5 120.46875 L 262.5 254.71875 L 128 254.71875 Z M 128 120.46875 " clip-rule="nonzero"/></clipPath><clipPath id="id2"><path d="M 176 203 L 253 203 L 253 254.71875 L 176 254.71875 Z M 176 203 " clip-rule="nonzero"/></clipPath><clipPath id="id3"><path d="M 187 120.46875 L 259 120.46875 L 259 181 L 187 181 Z M 187 120.46875 " clip-rule="nonzero"/></clipPath></defs><g clip-path="url(#id1)"><path fill="#ffde59" d="M 262.15625 186.46875 C 262.179688 187.5625 262.171875 188.65625 262.140625 189.75 C 262.109375 190.839844 262.050781 191.933594 261.964844 193.023438 C 261.878906 194.113281 261.765625 195.203125 261.628906 196.285156 C 261.488281 197.371094 261.324219 198.453125 261.132812 199.527344 C 260.9375 200.605469 260.722656 201.675781 260.476562 202.742188 C 260.230469 203.808594 259.960938 204.867188 259.664062 205.917969 C 259.367188 206.972656 259.046875 208.015625 258.699219 209.054688 C 258.351562 210.089844 257.976562 211.117188 257.582031 212.136719 C 257.183594 213.15625 256.757812 214.164062 256.3125 215.160156 C 255.863281 216.15625 255.394531 217.144531 254.898438 218.117188 C 254.402344 219.09375 253.882812 220.054688 253.339844 221.003906 C 252.796875 221.953125 252.230469 222.886719 251.640625 223.808594 C 251.050781 224.730469 250.441406 225.636719 249.808594 226.527344 C 249.175781 227.417969 248.519531 228.292969 247.84375 229.152344 C 247.167969 230.007812 246.46875 230.851562 245.753906 231.675781 C 245.035156 232.5 244.296875 233.308594 243.542969 234.09375 C 242.785156 234.882812 242.007812 235.652344 241.214844 236.402344 C 240.417969 237.152344 239.605469 237.882812 238.777344 238.59375 C 237.945312 239.304688 237.097656 239.992188 236.234375 240.660156 C 235.371094 241.328125 234.488281 241.976562 233.59375 242.601562 C 232.695312 243.226562 231.785156 243.828125 230.859375 244.410156 C 229.933594 244.992188 228.996094 245.546875 228.042969 246.082031 C 227.089844 246.617188 226.125 247.128906 225.144531 247.613281 C 224.167969 248.101562 223.179688 248.5625 222.179688 249 C 221.175781 249.4375 220.167969 249.851562 219.144531 250.242188 C 218.125 250.628906 217.09375 250.992188 216.054688 251.332031 C 215.019531 251.667969 213.972656 251.980469 212.917969 252.265625 C 211.863281 252.550781 210.804688 252.8125 209.734375 253.046875 C 208.667969 253.28125 207.597656 253.488281 206.519531 253.671875 C 205.445312 253.851562 204.363281 254.007812 203.277344 254.136719 C 202.195312 254.261719 201.105469 254.363281 200.015625 254.441406 C 198.925781 254.515625 197.835938 254.5625 196.746094 254.582031 L 195.425781 254.582031 C 194.339844 254.582031 193.25 254.554688 192.164062 254.503906 C 191.078125 254.449219 189.996094 254.371094 188.914062 254.261719 C 187.832031 254.15625 186.753906 254.023438 185.675781 253.863281 C 184.601562 253.703125 183.53125 253.519531 182.464844 253.304688 C 181.398438 253.09375 180.335938 252.855469 179.28125 252.59375 C 178.226562 252.328125 177.179688 252.039062 176.136719 251.722656 C 175.097656 251.410156 174.066406 251.070312 173.042969 250.703125 C 172.015625 250.335938 171.003906 249.945312 169.996094 249.53125 C 168.992188 249.117188 168 248.675781 167.015625 248.210938 C 166.03125 247.746094 165.058594 247.261719 164.097656 246.75 C 163.140625 246.238281 162.191406 245.703125 161.257812 245.144531 C 160.324219 244.585938 159.40625 244.003906 158.5 243.402344 C 157.59375 242.800781 156.707031 242.175781 155.832031 241.527344 C 154.957031 240.882812 154.097656 240.214844 153.253906 239.523438 C 152.414062 238.835938 151.585938 238.128906 150.78125 237.398438 C 149.972656 236.667969 149.183594 235.921875 148.410156 235.152344 C 147.640625 234.386719 146.890625 233.601562 146.15625 232.796875 C 145.421875 231.992188 144.710938 231.167969 144.019531 230.328125 C 143.324219 229.492188 142.652344 228.636719 142.003906 227.761719 C 141.351562 226.890625 140.722656 226.003906 140.117188 225.101562 C 139.507812 224.195312 138.921875 223.28125 138.359375 222.347656 C 137.796875 221.417969 137.257812 220.472656 136.742188 219.511719 C 136.226562 218.554688 135.730469 217.585938 135.261719 216.601562 C 134.792969 215.621094 134.347656 214.628906 133.929688 213.625 C 133.507812 212.621094 133.109375 211.605469 132.738281 210.582031 C 132.367188 209.558594 132.023438 208.527344 131.703125 207.488281 C 131.382812 206.445312 131.085938 205.398438 130.816406 204.34375 C 130.546875 203.289062 130.300781 202.226562 130.085938 201.160156 C 129.867188 200.09375 129.675781 199.023438 129.507812 197.945312 C 129.34375 196.871094 129.203125 195.792969 129.089844 194.707031 C 128.980469 193.625 128.890625 192.539062 128.832031 191.453125 C 128.773438 190.367188 128.738281 189.277344 128.734375 188.1875 C 128.726562 187.101562 128.746094 186.011719 128.792969 184.925781 C 128.839844 183.835938 128.910156 182.75 129.011719 181.667969 C 129.109375 180.582031 129.234375 179.5 129.386719 178.421875 C 129.539062 177.34375 129.71875 176.269531 129.921875 175.203125 C 130.128906 174.132812 130.359375 173.070312 130.613281 172.011719 C 130.871094 170.953125 131.152344 169.902344 131.460938 168.855469 C 131.769531 167.8125 132.101562 166.777344 132.460938 165.75 C 132.820312 164.71875 133.203125 163.703125 133.609375 162.691406 C 134.019531 161.683594 134.449219 160.683594 134.90625 159.695312 C 135.363281 158.707031 135.84375 157.730469 136.347656 156.769531 C 136.855469 155.804688 137.382812 154.851562 137.933594 153.914062 C 138.484375 152.972656 139.058594 152.050781 139.652344 151.140625 C 140.25 150.230469 140.867188 149.332031 141.507812 148.453125 C 142.148438 147.574219 142.808594 146.707031 143.492188 145.859375 C 144.171875 145.011719 144.875 144.183594 145.597656 143.367188 C 146.320312 142.554688 147.0625 141.757812 147.824219 140.980469 C 148.585938 140.203125 149.363281 139.445312 150.164062 138.707031 C 150.960938 137.96875 151.777344 137.25 152.613281 136.550781 C 153.445312 135.851562 154.296875 135.171875 155.160156 134.515625 C 156.027344 133.859375 156.910156 133.222656 157.808594 132.609375 C 158.707031 131.992188 159.617188 131.402344 160.546875 130.832031 C 161.472656 130.261719 162.410156 129.714844 163.363281 129.191406 C 164.316406 128.667969 165.285156 128.167969 166.261719 127.691406 C 167.238281 127.214844 168.226562 126.761719 169.226562 126.335938 C 170.226562 125.90625 171.238281 125.503906 172.257812 125.125 C 173.277344 124.746094 174.304688 124.394531 175.339844 124.066406 C 176.378906 123.738281 177.421875 123.433594 178.472656 123.15625 C 179.523438 122.882812 180.582031 122.628906 181.644531 122.40625 C 182.710938 122.179688 183.777344 121.980469 184.851562 121.808594 C 185.925781 121.632812 187.003906 121.488281 188.082031 121.367188 C 189.164062 121.246094 190.246094 121.152344 191.332031 121.085938 C 192.417969 121.019531 193.503906 120.976562 194.589844 120.964844 C 195.679688 120.949219 196.765625 120.964844 197.851562 121.003906 C 198.9375 121.042969 200.023438 121.105469 201.105469 121.199219 C 202.191406 121.292969 203.269531 121.410156 204.347656 121.554688 C 205.425781 121.699219 206.5 121.871094 207.570312 122.070312 C 208.636719 122.269531 209.703125 122.492188 210.757812 122.742188 C 211.816406 122.992188 212.871094 123.265625 213.914062 123.566406 C 214.960938 123.871094 215.996094 124.195312 217.023438 124.546875 C 218.054688 124.902344 219.074219 125.277344 220.085938 125.679688 C 221.09375 126.082031 222.09375 126.507812 223.085938 126.960938 C 224.074219 127.410156 225.050781 127.886719 226.019531 128.382812 C 226.984375 128.882812 227.9375 129.40625 228.878906 129.949219 C 229.820312 130.496094 230.746094 131.0625 231.660156 131.65625 C 232.574219 132.246094 233.472656 132.859375 234.355469 133.492188 C 235.238281 134.128906 236.105469 134.785156 236.957031 135.460938 C 237.808594 136.140625 238.644531 136.835938 239.460938 137.554688 C 240.277344 138.273438 241.078125 139.011719 241.859375 139.769531 C 242.640625 140.527344 243.402344 141.300781 244.144531 142.097656 C 244.886719 142.890625 245.613281 143.703125 246.316406 144.535156 C 247.019531 145.363281 247.703125 146.210938 248.363281 147.074219 C 249.027344 147.9375 249.667969 148.816406 250.285156 149.710938 C 250.90625 150.605469 251.503906 151.515625 252.078125 152.441406 C 252.652344 153.363281 253.207031 154.300781 253.734375 155.253906 C 254.261719 156.203125 254.769531 157.167969 255.25 158.144531 C 255.734375 159.121094 256.191406 160.109375 256.625 161.105469 C 257.058594 162.105469 257.46875 163.113281 257.851562 164.132812 C 258.238281 165.148438 258.597656 166.175781 258.933594 167.210938 C 259.265625 168.25 259.574219 169.292969 259.859375 170.34375 C 260.144531 171.394531 260.402344 172.453125 260.632812 173.515625 C 260.863281 174.578125 261.070312 175.648438 261.25 176.722656 C 261.429688 177.796875 261.585938 178.875 261.710938 179.953125 C 261.839844 181.035156 261.9375 182.121094 262.015625 183.207031 C 262.089844 184.292969 262.136719 185.378906 262.15625 186.46875 Z M 262.15625 186.46875 " fill-opacity="1" fill-rule="nonzero"/></g><g clip-path="url(#id2)"><path fill="#f1ac44" d="M 180.921875 252.992188 L 180.871094 252.9375 C 180.175781 252.207031 179.523438 251.445312 178.910156 250.644531 C 178.527344 250.117188 178.179688 249.585938 177.847656 249.023438 C 177.6875 248.714844 177.535156 248.394531 177.390625 248.074219 C 177.132812 247.40625 176.90625 246.734375 176.710938 246.042969 C 176.585938 245.527344 176.488281 245 176.402344 244.472656 C 176.320312 243.945312 176.296875 243.289062 176.28125 242.695312 C 176.28125 242.339844 176.320312 241.992188 176.363281 241.636719 C 176.410156 241.390625 176.464844 241.148438 176.523438 240.90625 C 176.75 240.183594 177.015625 239.472656 177.320312 238.773438 L 177.363281 238.691406 L 177.363281 238.632812 C 177.390625 238.570312 177.421875 238.511719 177.457031 238.457031 C 177.6875 238.023438 177.9375 237.597656 178.203125 237.1875 C 178.414062 236.898438 178.632812 236.625 178.871094 236.347656 C 178.890625 236.320312 178.910156 236.296875 178.933594 236.277344 C 179.644531 235.609375 180.386719 234.984375 181.160156 234.398438 L 181.195312 234.398438 L 181.332031 234.296875 C 183.324219 232.816406 185.472656 231.539062 187.324219 229.890625 C 188.601562 228.832031 189.78125 227.671875 190.871094 226.417969 C 191.304688 225.890625 191.675781 225.3125 192.054688 224.742188 C 192.433594 224.175781 192.90625 223.523438 193.277344 222.871094 C 194.011719 221.585938 194.8125 220.355469 195.425781 219.003906 C 196.042969 217.652344 196.609375 216.464844 197.199219 215.226562 C 197.734375 214.253906 198.328125 213.320312 198.976562 212.421875 C 199.546875 211.695312 200.15625 211 200.808594 210.34375 C 201.234375 209.925781 201.679688 209.53125 202.144531 209.160156 C 202.375 209 202.613281 208.851562 202.855469 208.703125 C 203.335938 208.449219 203.820312 208.21875 204.304688 207.976562 C 204.789062 207.730469 205.222656 207.519531 205.695312 207.3125 L 206.0625 207.199219 C 206.308594 207.144531 206.558594 207.101562 206.804688 207.074219 L 206.757812 207.074219 L 206.859375 207.074219 C 207.371094 207.03125 207.882812 207.015625 208.398438 207.027344 C 208.636719 207.027344 208.878906 207.050781 209.125 207.097656 C 209.527344 207.175781 209.921875 207.277344 210.308594 207.390625 C 210.941406 207.609375 211.566406 207.84375 212.183594 208.125 C 212.796875 208.402344 213.253906 208.714844 213.792969 209 C 214.328125 209.285156 214.9375 209.550781 215.519531 209.816406 C 217.105469 210.652344 218.734375 211.398438 220.398438 212.0625 C 221.890625 212.605469 223.425781 212.800781 225.007812 212.65625 C 225.496094 212.59375 225.972656 212.488281 226.441406 212.335938 C 227.199219 212.089844 227.921875 211.777344 228.621094 211.398438 C 229.722656 210.675781 230.691406 209.804688 231.523438 208.785156 C 232.214844 208.058594 232.902344 207.328125 233.578125 206.582031 C 234.136719 205.992188 234.710938 205.363281 235.351562 204.804688 C 235.511719 204.671875 235.683594 204.535156 235.855469 204.410156 C 236.023438 204.285156 236.066406 204.277344 236.171875 204.226562 C 236.445312 204.09375 236.722656 203.976562 237.007812 203.863281 C 237.421875 203.722656 237.835938 203.605469 238.261719 203.503906 L 238.351562 203.503906 C 238.898438 203.390625 239.449219 203.300781 240.007812 203.242188 C 240.449219 203.214844 240.886719 203.199219 241.324219 203.214844 C 241.761719 203.226562 242.074219 203.289062 242.453125 203.347656 C 242.832031 203.410156 243.1875 203.515625 243.554688 203.621094 C 243.921875 203.726562 244.144531 203.851562 244.441406 203.984375 L 244.300781 203.910156 C 245.371094 204.398438 246.410156 204.9375 247.421875 205.535156 C 247.652344 205.699219 247.878906 205.878906 248.097656 206.054688 C 248.796875 206.691406 249.46875 207.351562 250.101562 208.050781 C 250.28125 208.269531 250.457031 208.492188 250.628906 208.722656 C 250.800781 208.953125 250.925781 209.207031 251.074219 209.460938 C 251.238281 209.824219 251.398438 210.183594 251.546875 210.550781 C 251.914062 211.652344 252.191406 212.789062 252.457031 213.921875 C 252.574219 214.484375 252.675781 215.046875 252.742188 215.621094 C 252.777344 216.046875 252.789062 216.476562 252.792969 216.902344 C 252.792969 217.855469 252.664062 218.796875 252.550781 219.738281 C 252.4375 220.679688 252.261719 221.570312 252.046875 222.480469 C 251.925781 222.929688 251.789062 223.382812 251.640625 223.820312 C 250.167969 226.132812 248.5625 228.347656 246.816406 230.464844 C 245.074219 232.578125 243.207031 234.578125 241.21875 236.464844 C 239.226562 238.347656 237.128906 240.105469 234.921875 241.730469 C 232.71875 243.355469 230.421875 244.839844 228.03125 246.183594 C 225.640625 247.527344 223.179688 248.714844 220.644531 249.753906 C 218.109375 250.792969 215.519531 251.671875 212.875 252.390625 C 210.234375 253.109375 207.554688 253.660156 204.84375 254.050781 C 202.132812 254.4375 199.40625 254.65625 196.667969 254.707031 L 195.347656 254.707031 C 190.476562 254.664062 185.667969 254.089844 180.921875 252.992188 Z M 180.921875 252.992188 " fill-opacity="1" fill-rule="nonzero"/></g><path fill="#f1ac44" d="M 173.144531 225.574219 C 172.949219 225.574219 172.761719 225.523438 172.554688 225.496094 L 172.464844 225.464844 L 172.238281 225.359375 L 171.886719 225.121094 L 171.589844 224.863281 C 171.589844 224.828125 171.523438 224.789062 171.496094 224.75 C 171.464844 224.707031 171.441406 224.667969 171.417969 224.617188 C 171.394531 224.570312 171.289062 224.371094 171.234375 224.238281 C 171.234375 224.210938 171.234375 224.167969 171.1875 224.132812 L 171.046875 223.617188 C 170.972656 223.210938 170.917969 222.804688 170.886719 222.390625 C 170.867188 221.796875 170.882812 221.207031 170.933594 220.613281 C 171 220.085938 171.097656 219.558594 171.222656 219.039062 C 171.457031 218.230469 171.738281 217.441406 172.066406 216.671875 C 172.066406 216.597656 172.132812 216.535156 172.164062 216.464844 L 172.164062 216.390625 C 172.441406 215.800781 172.753906 215.273438 173.0625 214.726562 C 173.371094 214.183594 173.734375 213.78125 174.101562 213.324219 C 174.695312 212.628906 175.316406 211.945312 175.949219 211.273438 L 176.414062 210.949219 C 177.074219 210.519531 177.75 210.125 178.449219 209.765625 C 179.042969 209.503906 179.59375 209.25 180.175781 209.042969 C 180.53125 208.929688 180.894531 208.828125 181.253906 208.746094 C 181.46875 208.703125 181.6875 208.675781 181.90625 208.65625 C 182.460938 208.65625 183.023438 208.65625 183.585938 208.65625 C 183.914062 208.65625 184.242188 208.714844 184.570312 208.769531 L 184.695312 208.804688 C 185.09375 208.953125 185.484375 209.128906 185.878906 209.3125 L 186.152344 209.480469 L 186.210938 209.519531 L 186.28125 209.652344 C 186.320312 209.726562 186.355469 209.804688 186.382812 209.882812 C 186.410156 209.960938 186.4375 210.042969 186.453125 210.125 C 186.578125 210.6875 186.714844 211.25 186.8125 211.820312 C 186.8125 211.839844 186.8125 211.863281 186.8125 211.882812 C 186.8125 212.066406 186.8125 212.257812 186.773438 212.441406 C 186.703125 212.96875 186.617188 213.496094 186.511719 214.015625 C 186.417969 214.394531 186.3125 214.769531 186.1875 215.136719 C 185.890625 215.898438 185.59375 216.652344 185.203125 217.386719 C 184.816406 218.121094 184.453125 218.703125 184.023438 219.339844 C 183.796875 219.65625 183.5625 219.933594 183.304688 220.257812 C 182.78125 220.808594 182.234375 221.335938 181.667969 221.851562 C 181.277344 222.171875 180.863281 222.476562 180.445312 222.765625 C 179.496094 223.355469 178.546875 224.007812 177.546875 224.542969 C 176.921875 224.824219 176.289062 225.070312 175.640625 225.289062 C 175.34375 225.382812 175.050781 225.464844 174.753906 225.542969 L 174.382812 225.589844 L 174.074219 225.589844 C 173.765625 225.597656 173.480469 225.585938 173.144531 225.574219 Z M 173.144531 225.574219 " fill-opacity="1" fill-rule="nonzero"/><path fill="#f1ac44" d="M 138.027344 212.015625 C 136.351562 211.8125 134.691406 211.503906 133.054688 211.089844 L 133.238281 211.144531 L 132.898438 211.054688 C 131.808594 208.097656 130.925781 205.082031 130.261719 202 C 129.59375 198.921875 129.144531 195.808594 128.917969 192.664062 C 128.6875 189.523438 128.683594 186.378906 128.898438 183.234375 C 129.113281 180.089844 129.546875 176.976562 130.203125 173.894531 C 130.855469 170.808594 131.722656 167.789062 132.804688 164.828125 C 133.886719 161.867188 135.167969 159 136.652344 156.21875 C 138.140625 153.441406 139.8125 150.78125 141.675781 148.238281 C 143.535156 145.695312 145.566406 143.300781 147.765625 141.042969 L 148.734375 141.109375 C 149.628906 141.164062 150.507812 141.222656 151.417969 141.335938 L 152.011719 141.464844 C 152.515625 141.628906 153.003906 141.820312 153.488281 142.058594 L 153.71875 142.179688 C 153.886719 142.289062 154.050781 142.402344 154.207031 142.523438 C 154.667969 142.933594 155.097656 143.367188 155.542969 143.792969 L 156.683594 144.875 C 156.898438 145.113281 157.117188 145.34375 157.316406 145.59375 C 157.519531 145.84375 157.636719 146.039062 157.785156 146.273438 C 157.933594 146.511719 158.003906 146.695312 158.109375 146.902344 C 158.339844 147.445312 158.554688 147.992188 158.746094 148.542969 C 158.871094 148.945312 158.984375 149.347656 159.074219 149.726562 C 159.179688 150.285156 159.25 150.847656 159.316406 151.410156 C 159.375 152.179688 159.40625 152.945312 159.398438 153.714844 C 159.398438 154.222656 159.339844 154.730469 159.28125 155.242188 C 159.160156 156.023438 159.015625 156.800781 158.832031 157.570312 C 158.648438 158.339844 158.386719 158.949219 158.132812 159.628906 C 157.996094 159.9375 157.859375 160.222656 157.707031 160.535156 C 157.441406 161.003906 157.15625 161.460938 156.84375 161.90625 C 156.382812 162.546875 155.898438 163.171875 155.425781 163.804688 C 154.988281 164.363281 154.582031 164.941406 154.207031 165.542969 C 153.804688 166.195312 153.46875 166.878906 153.195312 167.589844 C 152.910156 168.296875 152.726562 169.03125 152.644531 169.789062 C 152.585938 170.609375 152.628906 171.425781 152.78125 172.234375 C 153.164062 173.941406 154.015625 175.371094 155.335938 176.515625 C 155.777344 176.898438 156.257812 177.222656 156.714844 177.578125 C 156.933594 177.753906 157.140625 177.945312 157.339844 178.132812 L 157.457031 178.269531 L 157.636719 178.542969 L 157.707031 178.679688 C 157.738281 178.761719 157.765625 178.851562 157.789062 178.941406 C 157.8125 179.027344 157.84375 179.136719 157.859375 179.234375 L 157.859375 179.417969 C 157.859375 179.574219 157.859375 179.726562 157.859375 179.875 C 157.789062 180.410156 157.6875 180.941406 157.578125 181.46875 C 157.488281 181.84375 157.375 182.203125 157.257812 182.566406 C 156.992188 183.246094 156.703125 183.914062 156.386719 184.566406 C 155.796875 185.6875 155.074219 186.730469 154.519531 187.859375 C 153.867188 189.285156 153.636719 190.777344 153.828125 192.332031 C 153.976562 193.625 154.25 194.886719 154.65625 196.121094 C 154.984375 197.199219 155.417969 198.230469 155.796875 199.28125 C 155.890625 199.582031 155.96875 199.871094 156.039062 200.1875 C 156.109375 200.5 156.144531 200.875 156.179688 201.222656 C 156.179688 201.429688 156.179688 201.636719 156.179688 201.84375 C 156.179688 202.050781 156.144531 202.140625 156.121094 202.289062 L 156.015625 202.667969 C 155.902344 202.941406 155.785156 203.207031 155.65625 203.480469 C 155.449219 203.871094 155.222656 204.242188 154.984375 204.609375 C 154.75 204.976562 154.347656 205.476562 154 205.890625 C 153.648438 206.304688 153.316406 206.582031 152.957031 206.914062 C 151.941406 207.773438 150.875 208.554688 149.78125 209.320312 L 149.445312 209.539062 L 149.605469 209.433594 L 149.445312 209.539062 C 149.070312 209.765625 148.699219 209.976562 148.320312 210.179688 C 147.730469 210.4375 147.195312 210.671875 146.621094 210.890625 C 145.394531 211.273438 144.152344 211.59375 142.890625 211.84375 C 142.222656 211.945312 141.558594 212.019531 140.886719 212.0625 L 139.9375 212.0625 C 139.300781 212.089844 138.660156 212.066406 138.027344 212.015625 Z M 138.027344 212.015625 " fill-opacity="1" fill-rule="nonzero"/><g clip-path="url(#id3)"><path fill="#f1ac44" d="M 237.296875 180.894531 C 236.15625 180.894531 235.019531 180.8125 233.882812 180.777344 L 234.160156 180.777344 C 233.371094 180.75 232.582031 180.683594 231.796875 180.570312 C 231.050781 180.421875 230.320312 180.222656 229.601562 179.976562 C 228.878906 179.722656 228.171875 179.433594 227.464844 179.125 C 226.761719 178.816406 226.101562 178.53125 225.449219 178.210938 L 225.421875 178.210938 C 224.894531 177.910156 224.378906 177.621094 223.863281 177.265625 C 223.351562 176.910156 222.871094 176.671875 222.398438 176.316406 C 221.632812 175.699219 220.902344 175.042969 220.210938 174.351562 C 219.730469 173.875 219.269531 173.378906 218.796875 172.898438 C 218.320312 172.4375 217.871094 171.953125 217.453125 171.441406 C 217.125 171.011719 216.769531 170.597656 216.394531 170.210938 C 215.933594 169.738281 215.414062 169.34375 214.839844 169.023438 C 214.375 168.78125 213.902344 168.5625 213.414062 168.375 C 212.867188 168.160156 212.332031 167.941406 211.773438 167.78125 C 211.234375 167.597656 210.683594 167.457031 210.117188 167.367188 C 209.519531 167.277344 208.917969 167.25 208.3125 167.285156 C 207.8125 167.285156 207.296875 167.332031 206.792969 167.382812 C 206.292969 167.4375 205.878906 167.496094 205.414062 167.519531 C 205.113281 167.519531 204.824219 167.519531 204.515625 167.46875 C 204.210938 167.414062 203.84375 167.355469 203.503906 167.273438 C 203.257812 167.207031 203.015625 167.128906 202.777344 167.035156 C 202.648438 166.980469 202.519531 166.921875 202.394531 166.855469 C 202.152344 166.703125 201.921875 166.542969 201.691406 166.371094 L 201.765625 166.429688 L 201.671875 166.359375 L 201.636719 166.359375 L 201.554688 166.292969 L 201.589844 166.292969 L 201.554688 166.292969 L 201.453125 166.21875 L 201.628906 166.351562 C 201.503906 166.257812 201.382812 166.152344 201.269531 166.039062 C 201.191406 165.949219 201.117188 165.863281 201.039062 165.761719 C 200.960938 165.660156 200.933594 165.605469 200.886719 165.53125 C 200.839844 165.453125 200.761719 165.261719 200.703125 165.128906 C 200.644531 164.992188 200.554688 164.695312 200.488281 164.46875 C 200.425781 164.246094 200.398438 164.019531 200.363281 163.792969 C 200.320312 163.117188 200.320312 162.441406 200.363281 161.761719 C 200.398438 161.207031 200.460938 160.65625 200.519531 160.105469 C 200.59375 159.453125 200.65625 158.800781 200.726562 158.144531 C 200.90625 156.886719 201.019531 155.625 201.058594 154.351562 C 201.0625 153.777344 201.039062 153.203125 200.984375 152.628906 C 200.914062 151.957031 200.761719 151.304688 200.535156 150.667969 C 200.351562 150.085938 200.113281 149.523438 199.820312 148.988281 C 199.480469 148.402344 199.101562 147.839844 198.679688 147.3125 C 197.988281 146.441406 197.265625 145.574219 196.492188 144.777344 L 196.519531 144.777344 L 196.414062 144.667969 L 196.359375 144.609375 L 196.414062 144.667969 C 195.917969 144.191406 195.398438 143.746094 194.851562 143.324219 C 194.261719 142.863281 193.667969 142.414062 193.078125 141.957031 C 192.59375 141.546875 192.125 141.109375 191.683594 140.652344 C 191.179688 140.101562 190.707031 139.527344 190.203125 138.984375 C 189.742188 138.503906 189.308594 138.003906 188.902344 137.476562 C 188.707031 137.183594 188.515625 136.886719 188.347656 136.570312 C 188.101562 136.085938 187.878906 135.589844 187.683594 135.085938 C 187.625 134.914062 187.570312 134.742188 187.53125 134.570312 C 187.464844 134.234375 187.410156 133.902344 187.375 133.558594 C 187.359375 132.765625 187.390625 131.976562 187.464844 131.1875 C 187.519531 130.683594 187.601562 130.179688 187.714844 129.683594 C 187.820312 129.28125 187.945312 128.886719 188.097656 128.5 C 188.335938 127.96875 188.601562 127.453125 188.890625 126.953125 C 189.480469 126.015625 190.179688 125.175781 190.855469 124.28125 C 191.171875 123.886719 191.515625 123.511719 191.878906 123.15625 C 192.171875 122.890625 192.46875 122.636719 192.789062 122.398438 C 193.105469 122.160156 193.425781 121.964844 193.765625 121.769531 C 194.238281 121.546875 194.722656 121.351562 195.21875 121.179688 C 195.425781 121.132812 195.621094 121.058594 195.808594 120.957031 C 197.542969 120.96875 199.269531 121.046875 200.996094 121.1875 C 202.71875 121.332031 204.4375 121.542969 206.144531 121.820312 C 207.855469 122.101562 209.550781 122.445312 211.234375 122.855469 C 212.914062 123.265625 214.578125 123.738281 216.222656 124.277344 C 217.867188 124.816406 219.492188 125.421875 221.089844 126.085938 C 222.6875 126.753906 224.257812 127.480469 225.800781 128.269531 C 227.339844 129.058594 228.851562 129.902344 230.328125 130.808594 C 231.800781 131.714844 233.242188 132.679688 234.640625 133.695312 C 236.042969 134.714844 237.402344 135.785156 238.722656 136.910156 C 240.039062 138.03125 241.3125 139.207031 242.539062 140.429688 C 243.765625 141.652344 244.945312 142.921875 246.070312 144.238281 C 247.199219 145.550781 248.277344 146.90625 249.296875 148.308594 C 250.320312 149.707031 251.289062 151.140625 252.199219 152.617188 C 253.109375 154.089844 253.964844 155.597656 254.757812 157.136719 C 255.550781 158.679688 256.285156 160.246094 256.957031 161.84375 C 257.628906 163.441406 258.238281 165.0625 258.785156 166.707031 C 258.679688 167.035156 258.566406 167.347656 258.4375 167.667969 C 258.011719 168.609375 257.503906 169.515625 256.988281 170.417969 C 256.761719 170.785156 256.527344 171.144531 256.273438 171.496094 C 256.128906 171.660156 255.988281 171.820312 255.839844 171.980469 C 254.835938 172.964844 253.785156 173.894531 252.6875 174.769531 C 251.359375 175.78125 249.980469 176.710938 248.546875 177.566406 C 247.566406 178.121094 246.570312 178.648438 245.546875 179.117188 C 244.417969 179.542969 243.265625 179.898438 242.09375 180.191406 L 241.738281 180.285156 C 240.761719 180.503906 239.777344 180.675781 238.78125 180.792969 C 238.335938 180.847656 237.886719 180.871094 237.4375 180.871094 Z M 237.296875 180.894531 " fill-opacity="1" fill-rule="nonzero"/></g><path fill="#a87700" d="M 122.117188 180.742188 C 121.804688 178.476562 124.703125 178.289062 126.257812 177.902344 C 126.441406 177.785156 126.640625 177.710938 126.855469 177.671875 C 127.070312 177.636719 127.285156 177.640625 127.5 177.6875 C 127.710938 177.738281 127.90625 177.824219 128.085938 177.949219 C 128.265625 178.074219 128.410156 178.230469 128.527344 178.414062 C 129.410156 180.289062 127.257812 181.230469 125.730469 181.375 C 125.015625 181.632812 124.28125 181.804688 123.523438 181.894531 C 123.179688 181.910156 122.871094 181.808594 122.601562 181.585938 C 122.332031 181.367188 122.171875 181.085938 122.117188 180.742188 Z M 122.117188 180.742188 " fill-opacity="1" fill-rule="nonzero"/><path fill="#a87700" d="M 115.660156 188.175781 C 112.492188 187.363281 115.769531 183.105469 117.433594 182.25 C 119.507812 181.066406 120.980469 183.796875 119.035156 185.035156 C 117.585938 185.722656 117.757812 188.1875 115.929688 188.1875 Z M 115.660156 188.175781 " fill-opacity="1" fill-rule="nonzero"/><path fill="#a87700" d="M 117.457031 196.292969 C 116.226562 195.109375 114.296875 192.996094 115.457031 191.265625 C 115.585938 191.078125 115.742188 190.917969 115.929688 190.789062 C 116.117188 190.65625 116.320312 190.566406 116.542969 190.511719 C 116.761719 190.457031 116.988281 190.441406 117.210938 190.46875 C 117.4375 190.5 117.652344 190.566406 117.851562 190.671875 C 118.300781 190.964844 118.527344 191.378906 118.539062 191.910156 C 118.851562 192.605469 119.296875 193.199219 119.882812 193.6875 C 121.140625 194.835938 119.835938 196.648438 118.460938 196.648438 C 118.082031 196.660156 117.746094 196.539062 117.457031 196.292969 Z M 117.457031 196.292969 " fill-opacity="1" fill-rule="nonzero"/><path fill="#a87700" d="M 124.035156 196.609375 C 124.058594 196.378906 124.121094 196.160156 124.226562 195.953125 C 124.328125 195.746094 124.464844 195.566406 124.632812 195.40625 C 124.804688 195.25 124.996094 195.125 125.207031 195.035156 C 125.421875 194.949219 125.644531 194.898438 125.875 194.890625 C 126.089844 194.882812 126.296875 194.917969 126.5 195 C 126.699219 195.082031 126.875 195.199219 127.027344 195.355469 C 127.175781 195.511719 127.289062 195.691406 127.359375 195.894531 C 127.433594 196.101562 127.464844 196.308594 127.445312 196.527344 C 127.421875 196.757812 127.359375 196.976562 127.253906 197.183594 C 127.152344 197.390625 127.015625 197.574219 126.84375 197.730469 C 126.675781 197.890625 126.484375 198.015625 126.269531 198.101562 C 126.054688 198.191406 125.832031 198.242188 125.601562 198.25 C 125.382812 198.257812 125.175781 198.222656 124.976562 198.140625 C 124.773438 198.058594 124.597656 197.9375 124.449219 197.78125 C 124.300781 197.625 124.1875 197.445312 124.117188 197.238281 C 124.042969 197.035156 124.015625 196.824219 124.035156 196.609375 Z M 124.035156 196.609375 " fill-opacity="1" fill-rule="nonzero"/><path fill="#a87700" d="M 124.585938 197.960938 C 123.597656 197.59375 123.472656 196.3125 124.023438 195.542969 C 124.238281 195.253906 124.511719 195.03125 124.84375 194.882812 C 125.171875 194.734375 125.519531 194.671875 125.878906 194.703125 C 127.171875 194.660156 128.453125 194.511719 129.71875 194.25 C 132.085938 193.984375 132.042969 197.210938 129.917969 197.5625 C 128.578125 197.828125 127.222656 197.996094 125.855469 198.066406 C 125.429688 198.070312 125.003906 198.035156 124.585938 197.960938 Z M 124.585938 197.960938 " fill-opacity="1" fill-rule="nonzero"/><path fill="#a87700" d="M 134.308594 195.648438 C 133.621094 192.996094 137.265625 193.085938 138.933594 192.367188 C 140.300781 191.984375 142.648438 191.039062 142.925781 193.191406 C 142.925781 193.441406 142.882812 193.683594 142.789062 193.914062 C 142.699219 194.148438 142.570312 194.355469 142.402344 194.539062 C 142.230469 194.722656 142.035156 194.871094 141.808594 194.976562 C 141.585938 195.085938 141.347656 195.152344 141.097656 195.167969 C 139.484375 195.558594 137.921875 196.128906 136.324219 196.507812 C 136.132812 196.566406 135.933594 196.59375 135.734375 196.589844 C 135.421875 196.597656 135.136719 196.511719 134.875 196.339844 C 134.613281 196.167969 134.425781 195.9375 134.308594 195.648438 Z M 134.308594 195.648438 " fill-opacity="1" fill-rule="nonzero"/><path fill="#a87700" d="M 147.007812 192.792969 C 145.351562 190.09375 150.25 189.242188 151.929688 188.453125 C 154.257812 187.859375 154.714844 190.992188 152.609375 191.65625 C 151.4375 192.058594 150.289062 192.527344 149.171875 193.0625 C 148.882812 193.246094 148.5625 193.335938 148.21875 193.332031 C 147.730469 193.34375 147.328125 193.164062 147.007812 192.792969 Z M 147.007812 192.792969 " fill-opacity="1" fill-rule="nonzero"/><path fill="#a87700" d="M 157.339844 189.304688 C 157.210938 189.125 157.121094 188.921875 157.066406 188.707031 C 157.015625 188.488281 157.007812 188.269531 157.039062 188.046875 C 157.074219 187.828125 157.148438 187.621094 157.261719 187.425781 C 157.375 187.234375 157.523438 187.070312 157.699219 186.9375 C 159.234375 186.011719 161.0625 185.652344 162.722656 185.011719 C 165.054688 184.417969 165.507812 187.601562 163.410156 188.210938 C 162.332031 188.558594 160.894531 189.09375 159.972656 189.394531 C 159.496094 189.648438 158.988281 189.792969 158.453125 189.832031 C 157.992188 189.847656 157.621094 189.671875 157.339844 189.304688 Z M 157.339844 189.304688 " fill-opacity="1" fill-rule="nonzero"/><path fill="#a87700" d="M 169.554688 187.5 C 168.890625 184.886719 167.78125 182.308594 167.0625 179.6875 C 166.785156 178.695312 166.507812 177.40625 167.472656 176.726562 C 168.933594 175.730469 169.996094 177.453125 170.582031 178.585938 C 171.652344 180.363281 173.039062 181.835938 174.214844 183.5 C 175.039062 184.609375 174.109375 186.585938 172.660156 186.207031 C 172.734375 186.332031 172.789062 186.464844 172.832031 186.605469 C 172.875 186.742188 172.902344 186.886719 172.910156 187.03125 C 172.917969 187.175781 172.910156 187.320312 172.886719 187.460938 C 172.859375 187.605469 172.820312 187.742188 172.761719 187.875 C 172.703125 188.007812 172.632812 188.132812 172.542969 188.25 C 172.457031 188.367188 172.359375 188.472656 172.246094 188.5625 C 172.136719 188.65625 172.015625 188.734375 171.882812 188.800781 C 171.753906 188.863281 171.617188 188.910156 171.476562 188.945312 C 170.71875 189.074219 169.878906 188.691406 169.554688 187.5 Z M 169.554688 187.5 " fill-opacity="1" fill-rule="nonzero"/><path fill="#a87700" d="M 170.691406 190.257812 C 170.535156 190.164062 170.402344 190.046875 170.289062 189.910156 C 170.386719 190.066406 170.523438 190.179688 170.691406 190.257812 Z M 170.257812 189.945312 C 170.105469 189.757812 169.996094 189.546875 169.933594 189.3125 C 169.820312 188.890625 169.847656 188.480469 170.011719 188.078125 C 170.175781 187.675781 170.441406 187.363281 170.8125 187.136719 C 170.320312 186.410156 170.042969 185.609375 169.980469 184.734375 C 169.535156 182.304688 172.234375 181.550781 174.042969 180.996094 C 179.449219 179.308594 184.785156 177.238281 190.390625 176.316406 C 192.125 176.191406 193.351562 177.71875 193.804688 179.277344 C 193.886719 179.691406 193.910156 180.113281 193.871094 180.53125 C 193.835938 180.953125 193.738281 181.363281 193.585938 181.757812 C 193.433594 182.152344 193.226562 182.515625 192.96875 182.851562 C 192.710938 183.1875 192.414062 183.480469 192.070312 183.730469 C 189.113281 185.507812 185.613281 186.136719 182.332031 187.097656 C 178.746094 188.136719 175.269531 189.535156 171.683594 190.574219 C 171.40625 190.609375 171.140625 190.570312 170.886719 190.460938 C 170.632812 190.347656 170.421875 190.179688 170.257812 189.957031 Z M 170.257812 189.945312 " fill-opacity="1" fill-rule="nonzero"/><path fill="#a87700" d="M 170.140625 190.585938 C 169.035156 189.890625 169.074219 188.457031 168.566406 187.375 C 168.058594 185.449219 167.382812 183.582031 166.792969 181.675781 C 166.320312 179.898438 166.027344 178.09375 165.175781 176.453125 C 164.480469 174.949219 166.441406 173.039062 167.773438 174.308594 C 169.820312 176.363281 171.199219 178.917969 173.097656 181.089844 C 173.734375 181.765625 174.539062 182.386719 174.925781 183.253906 C 175.476562 184.488281 174.332031 186.300781 172.902344 185.8125 C 172.003906 185.445312 171.71875 184.460938 170.972656 183.898438 C 171.386719 185.425781 171.898438 186.917969 172.417969 188.410156 C 172.476562 188.65625 172.488281 188.902344 172.449219 189.152344 C 172.414062 189.398438 172.328125 189.632812 172.199219 189.847656 C 172.070312 190.0625 171.902344 190.246094 171.703125 190.394531 C 171.5 190.542969 171.277344 190.648438 171.03125 190.710938 C 170.722656 190.773438 170.421875 190.730469 170.140625 190.585938 Z M 170.140625 190.585938 " fill-opacity="1" fill-rule="nonzero"/><path fill="#a87700" d="M 181.21875 196.257812 C 179.941406 196.257812 179.484375 194.847656 179.066406 193.890625 C 178.105469 191.253906 176.839844 188.695312 176.109375 185.984375 C 176.074219 185.714844 176.097656 185.449219 176.175781 185.191406 C 176.257812 184.933594 176.390625 184.703125 176.574219 184.503906 C 176.757812 184.304688 176.976562 184.152344 177.226562 184.050781 C 177.476562 183.949219 177.734375 183.902344 178.007812 183.914062 C 179.125 184.039062 179.308594 185.238281 179.597656 186.105469 C 179.800781 185.84375 180.058594 185.660156 180.371094 185.554688 C 180.683594 185.445312 181 185.433594 181.320312 185.515625 C 182.464844 183.097656 185.132812 184.453125 184.378906 186.890625 C 184.121094 188.59375 183.875 190.292969 183.5625 191.984375 C 183.234375 193.429688 183.195312 195.855469 181.449219 196.207031 C 181.375 196.230469 181.296875 196.246094 181.21875 196.257812 Z M 181.21875 196.257812 " fill-opacity="1" fill-rule="nonzero"/><path fill="#000000" d="M 242.796875 137.058594 C 243.902344 139.5 243.980469 142.234375 244.039062 144.871094 C 243.980469 151.308594 241.300781 157.273438 239.042969 163.191406 C 238.027344 165.652344 236.875 168.046875 235.585938 170.375 C 235.042969 171.902344 233.683594 173.335938 232.273438 171.695312 C 232.132812 171.519531 232.03125 171.324219 231.96875 171.105469 C 231.25 170.980469 230.710938 170.601562 230.351562 169.964844 C 229.625 168.960938 228.808594 168.019531 228.152344 166.96875 C 226.183594 163.414062 224.332031 159.972656 222.679688 156.273438 C 219.433594 148.636719 218.0625 137.910156 225.714844 132.472656 C 231.714844 127.550781 239.726562 130.253906 242.796875 137.058594 Z M 231.214844 148.660156 C 234.847656 148.851562 238.144531 146.0625 237.605469 142.269531 C 237.824219 140.261719 236.066406 138.929688 234.445312 138.160156 C 234.078125 138.242188 233.726562 138.191406 233.398438 138.003906 C 233.371094 137.992188 233.34375 137.976562 233.320312 137.957031 C 232.8125 138.007812 232.304688 137.996094 231.796875 137.921875 C 230.023438 138.25 227.875 139.179688 227.367188 141.074219 C 226.496094 144.25 226.941406 148.933594 231.214844 148.660156 Z M 231.214844 148.660156 " fill-opacity="1" fill-rule="nonzero"/></svg>