<svg xmlns="http://www.w3.org/2000/svg" xmlns:xlink="http://www.w3.org/1999/xlink" width="500" zoomAndPan="magnify" viewBox="0 0 375 374.999991" height="500" preserveAspectRatio="xMidYMid meet" version="1.0"><defs><clipPath id="id1"><path d="M 124.839844 149.195312 L 256.332031 149.195312 L 256.332031 232.253906 L 124.839844 232.253906 Z M 124.839844 149.195312 " clip-rule="nonzero"/></clipPath><clipPath id="id2"><path d="M 131 142.226562 L 244 142.226562 L 244 199 L 131 199 Z M 131 142.226562 " clip-rule="nonzero"/></clipPath></defs><g clip-path="url(#id1)"><path fill="#382a3e" d="M 170.933594 180.699219 C 170.972656 180.035156 170.988281 179.359375 170.972656 178.679688 C 170.910156 176.3125 170.058594 173.675781 168.921875 171.175781 L 173.335938 171.09375 L 172.710938 171.5625 L 175.933594 176.292969 L 183.523438 176.054688 L 181.890625 170.933594 L 192.640625 170.730469 L 192.289062 174.257812 L 199.941406 174.832031 L 201.773438 170.5625 L 206.5625 170.472656 C 205.734375 172.855469 205.335938 175.34375 205.398438 177.871094 C 205.441406 179.472656 205.683594 181.058594 206.121094 182.613281 Z M 256.105469 175.378906 C 255.78125 162.773438 245.402344 153.265625 231.957031 153.265625 C 231.628906 153.265625 231.300781 153.273438 230.972656 153.285156 C 228.015625 153.386719 225.0625 154 222.265625 155.058594 L 223.476562 152.390625 C 201.824219 145.980469 150.519531 151.953125 150.519531 151.953125 L 154.183594 158.832031 C 151.191406 158.226562 147.945312 157.714844 145.476562 157.714844 C 145.285156 157.714844 145.101562 157.714844 144.917969 157.722656 C 131.308594 158.199219 125.242188 191.121094 124.988281 192.523438 L 124.941406 192.785156 L 125.109375 192.992188 C 125.179688 193.078125 131.109375 200.199219 140.597656 202.546875 L 127.171875 230.976562 C 127.171875 230.976562 130.023438 232.839844 137.515625 232.0625 C 150.175781 230.742188 158.226562 212.628906 158.226562 212.628906 L 217.894531 214.710938 C 217.894531 214.710938 226.390625 227.167969 236.789062 229.648438 C 243.507812 231.25 239.28125 214.765625 234.746094 201.121094 C 240.667969 200.566406 246.042969 197.71875 250.007812 193.011719 C 254.046875 188.210938 256.269531 181.785156 256.105469 175.378906 " fill-opacity="1" fill-rule="nonzero"/></g><path fill="#ffa945" d="M 233.382812 200.632812 C 230.980469 200.714844 228.558594 200.441406 226.207031 199.863281 C 224.230469 203.195312 220.828125 205.566406 216.625 205.714844 C 209.746094 205.953125 202.980469 200.96875 202.8125 194.347656 C 202.71875 190.589844 204.566406 187.042969 207.441406 184.636719 C 206.554688 182.492188 206.039062 180.214844 205.976562 177.855469 C 205.964844 177.269531 205.976562 176.691406 206.007812 176.113281 C 206.640625 187.167969 216.699219 195.730469 228.65625 196.96875 C 229.019531 197.007812 229.382812 197.035156 229.746094 197.054688 C 229.753906 197.058594 229.765625 197.058594 229.773438 197.058594 C 229.792969 197.058594 229.8125 197.0625 229.828125 197.0625 C 229.832031 197.0625 229.832031 197.0625 229.832031 197.0625 C 230.449219 197.097656 231.058594 197.101562 231.664062 197.089844 C 231.664062 197.09375 231.660156 197.09375 231.660156 197.09375 C 231.667969 197.09375 231.675781 197.09375 231.683594 197.09375 C 231.675781 197.09375 231.667969 197.09375 231.660156 197.09375 C 231.847656 197.089844 232.03125 197.085938 232.214844 197.082031 C 232.214844 197.082031 232.214844 197.082031 232.21875 197.082031 C 232.21875 197.082031 232.21875 197.082031 232.214844 197.082031 C 232.265625 197.082031 232.316406 197.082031 232.367188 197.078125 C 232.367188 197.078125 232.371094 197.074219 232.371094 197.074219 C 232.371094 197.074219 232.371094 197.074219 232.375 197.074219 C 232.371094 197.074219 232.371094 197.074219 232.371094 197.074219 C 233.132812 197.039062 233.886719 196.96875 234.625 196.863281 C 234.625 196.867188 234.625 196.867188 234.625 196.867188 C 234.621094 196.867188 234.617188 196.867188 234.617188 196.867188 C 234.609375 196.871094 234.601562 196.871094 234.59375 196.875 C 234.613281 196.871094 234.628906 196.867188 234.648438 196.867188 C 234.710938 196.855469 234.769531 196.847656 234.832031 196.835938 C 234.890625 196.828125 234.949219 196.820312 235.003906 196.808594 C 235.007812 196.808594 235.007812 196.808594 235.007812 196.808594 C 235.480469 196.734375 235.945312 196.644531 236.40625 196.542969 C 236.40625 196.542969 236.40625 196.542969 236.40625 196.546875 C 236.464844 196.53125 236.527344 196.519531 236.585938 196.503906 C 236.589844 196.503906 236.589844 196.503906 236.589844 196.503906 C 236.597656 196.503906 236.609375 196.5 236.621094 196.5 C 236.632812 196.496094 236.644531 196.492188 236.65625 196.492188 C 236.65625 196.492188 236.65625 196.492188 236.65625 196.488281 C 238.058594 196.164062 239.40625 195.71875 240.695312 195.160156 C 240.726562 195.128906 240.761719 195.097656 240.796875 195.0625 C 240.792969 195.070312 240.785156 195.074219 240.78125 195.082031 C 240.753906 195.105469 240.722656 195.136719 240.695312 195.160156 C 240.695312 195.160156 240.695312 195.164062 240.695312 195.164062 C 240.761719 195.132812 240.828125 195.105469 240.894531 195.078125 C 241.789062 194.679688 242.648438 194.226562 243.480469 193.726562 C 243.496094 193.679688 243.515625 193.628906 243.53125 193.578125 C 243.515625 193.628906 243.496094 193.679688 243.480469 193.726562 C 243.476562 193.726562 243.476562 193.726562 243.476562 193.730469 C 243.5625 193.675781 243.648438 193.625 243.734375 193.570312 C 243.746094 193.566406 243.753906 193.558594 243.761719 193.550781 C 243.761719 193.550781 243.765625 193.550781 243.765625 193.550781 C 243.828125 193.511719 243.890625 193.472656 243.953125 193.433594 C 244.035156 193.382812 244.113281 193.328125 244.195312 193.273438 C 244.355469 193.167969 244.515625 193.0625 244.671875 192.953125 C 244.675781 192.953125 244.675781 192.949219 244.679688 192.949219 C 246.125 191.945312 247.449219 190.785156 248.628906 189.480469 C 248.625 189.488281 248.621094 189.496094 248.621094 189.503906 C 248.621094 189.503906 248.621094 189.503906 248.621094 189.5 C 248.679688 189.433594 248.738281 189.367188 248.796875 189.300781 C 248.847656 189.242188 248.898438 189.183594 248.949219 189.125 C 249.089844 188.964844 249.230469 188.800781 249.367188 188.636719 C 249.414062 188.578125 249.460938 188.519531 249.511719 188.460938 C 249.5 188.472656 249.488281 188.484375 249.476562 188.5 C 249.488281 188.484375 249.5 188.46875 249.511719 188.453125 C 249.519531 188.449219 249.523438 188.441406 249.53125 188.433594 C 249.523438 188.441406 249.519531 188.449219 249.511719 188.460938 C 249.542969 188.417969 249.578125 188.375 249.613281 188.332031 C 249.820312 188.070312 250.023438 187.808594 250.21875 187.535156 C 250.21875 187.535156 250.222656 187.535156 250.222656 187.535156 C 250.222656 187.535156 250.222656 187.53125 250.222656 187.53125 C 250.398438 187.289062 250.570312 187.046875 250.738281 186.796875 C 250.742188 186.792969 250.746094 186.789062 250.746094 186.785156 C 251.28125 185.992188 251.761719 185.160156 252.195312 184.300781 C 252.195312 184.296875 252.195312 184.296875 252.195312 184.296875 C 252.210938 184.277344 252.222656 184.253906 252.238281 184.234375 C 252.285156 184.136719 252.328125 184.039062 252.375 183.941406 C 252.417969 183.855469 252.457031 183.765625 252.496094 183.679688 C 252.53125 183.605469 252.570312 183.527344 252.605469 183.449219 C 252.636719 183.378906 252.671875 183.308594 252.703125 183.238281 C 252.71875 183.203125 252.738281 183.167969 252.753906 183.132812 C 252.75 183.140625 252.746094 183.144531 252.742188 183.148438 L 252.738281 183.148438 L 252.742188 183.148438 C 252.964844 182.640625 253.171875 182.117188 253.359375 181.589844 C 253.367188 181.570312 253.371094 181.554688 253.378906 181.539062 C 253.472656 181.261719 253.566406 180.988281 253.65625 180.710938 C 253.601562 180.878906 253.542969 181.046875 253.484375 181.21875 C 253.484375 181.214844 253.484375 181.214844 253.488281 181.214844 C 253.5625 180.988281 253.636719 180.761719 253.707031 180.53125 C 253.789062 180.277344 253.863281 180.019531 253.933594 179.761719 C 254.226562 178.679688 254.449219 177.566406 254.589844 176.421875 C 254.972656 173.347656 254.671875 170.300781 253.808594 167.421875 C 254.847656 169.855469 255.453125 172.53125 255.527344 175.394531 C 255.851562 188.191406 246.683594 200.167969 233.382812 200.632812 Z M 252.660156 183.253906 Z M 252.1875 184.3125 C 252.1875 184.308594 252.191406 184.304688 252.195312 184.300781 C 252.09375 184.453125 251.988281 184.617188 251.878906 184.789062 C 251.984375 184.621094 252.089844 184.464844 252.1875 184.3125 Z M 229.738281 197.054688 C 229.738281 197.054688 229.738281 197.054688 229.734375 197.054688 C 229.734375 197.054688 229.738281 197.054688 229.738281 197.054688 Z M 199.574219 174.222656 L 192.925781 173.722656 L 193.457031 168.351562 L 198.691406 168.15625 L 201.207031 170.40625 Z M 176.230469 175.703125 L 173.503906 171.695312 L 175.9375 169.882812 L 180.207031 167.574219 L 182.738281 175.5 Z M 166.664062 206.0625 C 162.292969 206.214844 157.96875 204.253906 155.351562 201.105469 C 152.914062 202.039062 150.265625 202.59375 147.464844 202.691406 C 134.167969 203.15625 125.558594 192.625 125.558594 192.625 C 130.617188 197.023438 137.605469 199.613281 144.65625 199.367188 C 157.957031 198.902344 167.125 186.929688 166.796875 174.128906 C 166.675781 169.367188 165.085938 165.101562 162.457031 161.648438 C 163.695312 163.277344 170.226562 172.175781 170.394531 178.695312 C 170.425781 180 170.347656 181.285156 170.171875 182.542969 C 174.730469 184.0625 177.988281 188 178.117188 193.007812 C 178.285156 199.625 173.542969 205.820312 166.664062 206.0625 Z M 162.253906 161.386719 C 162.253906 161.386719 162.324219 161.472656 162.449219 161.640625 C 162.382812 161.554688 162.316406 161.46875 162.25 161.382812 C 162.25 161.382812 162.253906 161.386719 162.253906 161.386719 Z M 258 201.273438 C 256.863281 194.328125 256.246094 190.472656 255.089844 184.96875 C 255.46875 183.765625 262.277344 158.746094 243.804688 150.035156 C 241.335938 148.871094 238.078125 145.316406 234.632812 144.832031 C 229.027344 144.039062 222.207031 148.589844 217.660156 151.628906 C 216.015625 152.730469 214.710938 153.988281 213.945312 155.324219 C 196.40625 152.507812 178.628906 153.035156 160.695312 155.824219 C 160.160156 155.335938 159.609375 154.871094 159.03125 154.429688 C 154.75 151.136719 149.667969 146.859375 143.671875 146.902344 C 139.191406 146.9375 134.816406 150.191406 131.359375 151.855469 C 122.359375 156.183594 117.125 165.308594 117.125 175.386719 C 117.125 177.121094 117.332031 178.832031 117.726562 180.496094 C 116.402344 187.636719 115.710938 195.476562 114 205.175781 C 112.695312 212.566406 113.972656 224.757812 120.5 228.441406 L 122.3125 229.46875 C 129.03125 232.96875 138.496094 231.882812 142.378906 225.371094 C 144.652344 221.558594 147.113281 214.867188 150.453125 209.554688 C 152.667969 206.027344 157.136719 204.542969 160.941406 206.222656 C 162.855469 207.066406 164.953125 207.539062 167.097656 207.539062 C 173.140625 207.539062 178.246094 203.050781 179.828125 196.9375 C 186.15625 196.742188 198.5 197.195312 198.5 197.195312 C 200.617188 202.496094 206.933594 207.71875 213.214844 207.71875 C 213.878906 207.71875 214.535156 207.664062 215.175781 207.558594 C 217.859375 207.125 220.535156 208.398438 222.042969 210.660156 C 226.109375 216.761719 229.675781 224.316406 229.675781 224.316406 C 233.625 230.089844 241.253906 232 247.445312 228.765625 L 248.507812 228.210938 C 256.492188 224.039062 259.460938 210.175781 258 201.273438 " fill-opacity="1" fill-rule="nonzero"/><path fill="#000000" d="M 145.125 180.019531 L 145.699219 185.261719 L 139.144531 185.988281 L 139.074219 180.375 L 142.558594 177.976562 Z M 134.632812 171.429688 L 137.082031 174.753906 L 134.929688 177.246094 L 129.476562 177.867188 L 128.800781 171.5625 Z M 197.492188 166.953125 L 200.003906 169.199219 L 198.371094 173.015625 L 192.875 173.769531 L 192.253906 167.148438 Z M 180.1875 167.550781 L 180.863281 173.855469 L 175.03125 173.988281 L 172.582031 170.664062 L 174.734375 168.167969 Z M 149.035156 176.894531 L 146.585938 173.570312 L 148.738281 171.078125 L 154.191406 170.457031 L 154.867188 176.761719 Z M 141.113281 170.492188 L 138.546875 168.445312 L 137.972656 163.207031 L 144.527344 162.476562 L 144.597656 168.09375 Z M 235.046875 180.796875 C 234.171875 182.71875 231.980469 183.644531 229.992188 182.824219 C 228.007812 182 226.820312 179.886719 227.699219 177.960938 C 228.578125 176.039062 230.988281 174.832031 232.976562 175.65625 C 234.964844 176.476562 235.925781 178.871094 235.046875 180.796875 Z M 243.027344 171.6875 C 242.148438 173.609375 239.960938 174.539062 237.972656 173.714844 C 235.984375 172.894531 234.800781 170.777344 235.675781 168.855469 C 236.554688 166.933594 238.964844 165.726562 240.953125 166.546875 C 242.941406 167.371094 243.902344 169.765625 243.027344 171.6875 Z M 227.339844 159.367188 C 228.21875 157.445312 230.628906 156.238281 232.617188 157.058594 C 234.605469 157.882812 235.566406 160.277344 234.691406 162.199219 C 233.8125 164.121094 231.621094 165.050781 229.636719 164.226562 C 227.648438 163.40625 226.464844 161.289062 227.339844 159.367188 Z M 227.183594 172.242188 C 226.308594 174.164062 224.117188 175.09375 222.128906 174.269531 C 220.144531 173.449219 218.957031 171.332031 219.835938 169.410156 C 220.710938 167.484375 223.125 166.28125 225.113281 167.101562 C 227.101562 167.925781 228.0625 170.316406 227.183594 172.242188 Z M 249.949219 183.566406 C 249.878906 183.613281 249.898438 183.523438 249.996094 183.367188 C 250.089844 183.210938 250.144531 183.171875 250.121094 183.28125 C 250.097656 183.386719 250.019531 183.515625 249.949219 183.566406 Z M 250.386719 187.121094 C 250.386719 187.128906 250.386719 187.132812 250.386719 187.140625 C 250.382812 187.140625 250.378906 187.144531 250.375 187.148438 C 250.316406 187.15625 250.324219 187.085938 250.394531 186.988281 C 250.46875 186.890625 250.503906 186.878906 250.503906 186.949219 C 250.449219 186.964844 250.398438 187.039062 250.386719 187.121094 Z M 249.492188 184.953125 C 249.5 185.042969 249.542969 185.113281 249.597656 185.152344 C 249.554688 185.214844 249.515625 185.277344 249.46875 185.339844 C 249.351562 185.25 249.285156 185.007812 249.375 184.871094 C 249.460938 184.738281 249.476562 184.75 249.492188 184.953125 Z M 249.898438 184.714844 C 249.855469 184.777344 249.8125 184.839844 249.773438 184.902344 C 249.753906 184.929688 249.734375 184.957031 249.714844 184.984375 C 249.667969 184.964844 249.660156 184.910156 249.699219 184.851562 C 249.742188 184.78125 249.824219 184.726562 249.898438 184.714844 Z M 248.726562 186.046875 C 248.695312 186.152344 248.597656 186.300781 248.511719 186.371094 C 248.421875 186.445312 248.445312 186.359375 248.566406 186.179688 C 248.683594 186.003906 248.757812 185.941406 248.726562 186.046875 Z M 252.496094 183.679688 C 252.582031 183.503906 252.660156 183.328125 252.742188 183.148438 C 252.746094 183.144531 252.75 183.140625 252.753906 183.132812 C 252.671875 183.320312 252.582031 183.5 252.496094 183.679688 Z M 232.214844 197.082031 C 232.269531 197.078125 232.320312 197.078125 232.371094 197.074219 C 232.371094 197.074219 232.367188 197.078125 232.367188 197.078125 C 232.316406 197.082031 232.265625 197.082031 232.214844 197.082031 Z M 243.476562 193.730469 C 243.476562 193.726562 243.476562 193.726562 243.480469 193.726562 C 243.574219 193.667969 243.667969 193.609375 243.765625 193.550781 C 243.765625 193.550781 243.761719 193.550781 243.761719 193.550781 C 243.667969 193.613281 243.574219 193.671875 243.476562 193.730469 Z M 240.695312 195.164062 C 240.695312 195.164062 240.695312 195.160156 240.695312 195.160156 C 240.714844 195.152344 240.734375 195.144531 240.753906 195.136719 C 240.734375 195.144531 240.714844 195.15625 240.695312 195.164062 Z M 234.625 196.863281 C 234.695312 196.855469 234.761719 196.847656 234.828125 196.835938 C 234.75 196.847656 234.675781 196.863281 234.59375 196.875 C 234.605469 196.871094 234.617188 196.867188 234.625 196.863281 Z M 229.746094 197.054688 C 229.777344 197.058594 229.804688 197.058594 229.832031 197.0625 C 229.832031 197.0625 229.832031 197.0625 229.828125 197.0625 C 229.800781 197.0625 229.773438 197.058594 229.746094 197.054688 Z M 236.589844 196.503906 C 236.609375 196.5 236.636719 196.496094 236.65625 196.488281 C 236.65625 196.488281 236.65625 196.488281 236.65625 196.492188 C 236.632812 196.496094 236.609375 196.5 236.589844 196.503906 Z M 243.953125 193.433594 C 243.890625 193.472656 243.828125 193.511719 243.765625 193.550781 C 243.789062 193.472656 243.859375 193.402344 243.921875 193.398438 C 243.949219 193.398438 243.957031 193.410156 243.953125 193.433594 Z M 243.953125 193.433594 C 244.199219 193.277344 244.4375 193.113281 244.679688 192.949219 C 244.675781 192.949219 244.675781 192.953125 244.671875 192.953125 C 244.4375 193.117188 244.195312 193.277344 243.953125 193.433594 Z M 251.84375 184.84375 C 251.964844 184.652344 252.082031 184.46875 252.195312 184.300781 C 251.761719 185.160156 251.28125 185.992188 250.746094 186.785156 C 250.84375 186.386719 251.0625 186.054688 251.84375 184.84375 Z M 252.195312 184.300781 C 252.257812 184.179688 252.316406 184.0625 252.375 183.941406 C 252.328125 184.039062 252.285156 184.136719 252.238281 184.234375 C 252.222656 184.253906 252.210938 184.277344 252.195312 184.300781 Z M 248.621094 189.503906 C 248.621094 189.496094 248.625 189.488281 248.628906 189.480469 C 248.667969 189.4375 248.710938 189.394531 248.75 189.351562 C 248.707031 189.402344 248.664062 189.453125 248.621094 189.503906 Z M 252.375 183.941406 C 252.417969 183.855469 252.457031 183.765625 252.496094 183.679688 C 252.457031 183.765625 252.417969 183.855469 252.375 183.941406 Z M 249.511719 188.460938 C 249.410156 188.582031 249.304688 188.703125 249.203125 188.824219 C 249.304688 188.703125 249.410156 188.582031 249.511719 188.460938 Z M 250.226562 187.53125 C 249.996094 187.847656 249.753906 188.15625 249.511719 188.460938 C 249.753906 188.15625 249.996094 187.847656 250.226562 187.53125 Z M 248.75 189.351562 C 248.902344 189.179688 249.054688 189.003906 249.203125 188.824219 C 249.054688 189.003906 248.902344 189.179688 248.75 189.351562 Z M 253.761719 167.789062 C 253.714844 167.808594 253.695312 167.738281 253.726562 167.625 C 253.757812 167.503906 253.792969 167.484375 253.816406 167.585938 C 253.835938 167.675781 253.8125 167.765625 253.761719 167.789062 Z M 253.722656 167.140625 C 253.730469 167.160156 253.734375 167.175781 253.742188 167.195312 C 253.726562 167.257812 253.710938 167.320312 253.691406 167.398438 C 253.703125 167.300781 253.714844 167.214844 253.722656 167.140625 Z M 253.601562 168.539062 C 253.550781 168.558594 253.535156 168.484375 253.566406 168.375 C 253.597656 168.253906 253.636719 168.238281 253.65625 168.335938 C 253.675781 168.425781 253.652344 168.515625 253.601562 168.539062 Z M 253.421875 173.890625 C 253.398438 173.898438 253.386719 173.886719 253.378906 173.863281 C 253.34375 173.957031 253.300781 174.066406 253.25 174.199219 C 253.0625 174.652344 252.808594 175.082031 252.699219 175.15625 C 252.464844 175.3125 252.480469 175.3125 253.015625 174.265625 C 253.402344 173.515625 253.566406 173.296875 253.460938 173.632812 C 253.480469 173.625 253.492188 173.644531 253.5 173.695312 C 253.511719 173.785156 253.476562 173.871094 253.421875 173.890625 Z M 253.222656 174.519531 C 253.152344 174.605469 253.15625 174.515625 253.226562 174.316406 C 253.296875 174.117188 253.347656 174.042969 253.34375 174.15625 C 253.34375 174.269531 253.285156 174.433594 253.222656 174.519531 Z M 252.257812 176.816406 C 251.984375 177.371094 251.6875 177.832031 251.617188 177.851562 C 251.542969 177.875 251.703125 177.398438 251.960938 176.789062 C 252.316406 175.941406 252.453125 175.6875 252.578125 175.738281 C 252.707031 175.789062 252.648438 176.019531 252.257812 176.816406 Z M 251.472656 175.144531 C 251.453125 175.203125 251.390625 175.199219 251.332031 175.136719 C 251.277344 175.078125 251.242188 175.007812 251.25 174.980469 C 251.257812 174.957031 251.324219 174.960938 251.390625 174.988281 C 251.460938 175.015625 251.496094 175.085938 251.472656 175.144531 Z M 251.28125 178.328125 C 251.1875 178.449219 251.085938 178.539062 251.0625 178.527344 C 251.035156 178.515625 251.066406 178.394531 251.125 178.257812 C 251.1875 178.121094 251.285156 178.03125 251.34375 178.058594 C 251.402344 178.082031 251.375 178.203125 251.28125 178.328125 Z M 250.890625 176.789062 C 250.867188 176.847656 250.789062 176.867188 250.722656 176.839844 C 250.65625 176.8125 250.609375 176.769531 250.617188 176.742188 C 250.628906 176.71875 250.703125 176.695312 250.785156 176.691406 C 250.867188 176.6875 250.914062 176.730469 250.890625 176.789062 Z M 253.101562 170.40625 C 253.195312 170.058594 253.25 169.9375 253.230469 170.136719 C 253.210938 170.335938 253.132812 170.621094 253.0625 170.769531 C 252.988281 170.917969 253.011719 170.753906 253.101562 170.40625 Z M 250.316406 177.78125 C 250.253906 177.914062 250.183594 178.015625 250.160156 178.003906 C 250.132812 177.992188 250.136719 177.859375 250.164062 177.710938 C 250.191406 177.5625 250.261719 177.460938 250.320312 177.484375 C 250.378906 177.511719 250.375 177.644531 250.316406 177.78125 Z M 248.835938 173.410156 C 248.804688 173.507812 248.71875 173.5625 248.652344 173.535156 C 248.5 173.472656 248.503906 173.460938 248.722656 173.335938 C 248.871094 173.253906 248.886719 173.265625 248.835938 173.410156 Z M 246.464844 185.003906 C 246.390625 185.105469 246.347656 185.113281 246.359375 185.019531 C 246.371094 184.9375 246.425781 184.859375 246.484375 184.851562 C 246.542969 184.84375 246.535156 184.910156 246.464844 185.003906 Z M 236.84375 176.796875 L 237.039062 184.441406 L 226.171875 185.957031 L 225.878906 177.289062 L 217.890625 177.648438 L 217.570312 165.003906 L 225.460938 164.726562 L 225.175781 156.332031 L 236.3125 155.941406 L 236.527344 164.339844 L 243.710938 164.089844 L 245.066406 176.429688 Z M 244.160156 186.847656 C 244 187.0625 243.910156 187.136719 243.964844 187.011719 C 244.019531 186.890625 244.152344 186.714844 244.257812 186.621094 C 244.363281 186.53125 244.324219 186.632812 244.160156 186.847656 Z M 244.179688 187.304688 C 244.097656 187.402344 244.054688 187.410156 244.070312 187.316406 C 244.085938 187.234375 244.144531 187.164062 244.203125 187.15625 C 244.265625 187.152344 244.253906 187.21875 244.179688 187.304688 Z M 243.832031 188.992188 C 243.675781 189.179688 243.597656 189.230469 243.660156 189.109375 C 243.71875 188.984375 243.84375 188.832031 243.9375 188.769531 C 244.03125 188.703125 243.984375 188.804688 243.832031 188.992188 Z M 243.164062 187.324219 C 243.082031 187.421875 243.039062 187.425781 243.058594 187.335938 C 243.070312 187.253906 243.132812 187.183594 243.191406 187.179688 C 243.253906 187.171875 243.238281 187.238281 243.164062 187.324219 Z M 243.054688 189.925781 C 242.894531 190.109375 242.816406 190.160156 242.878906 190.039062 C 242.941406 189.917969 243.070312 189.765625 243.167969 189.703125 C 243.265625 189.640625 243.214844 189.742188 243.054688 189.925781 Z M 242.671875 187.707031 C 242.542969 187.867188 242.46875 187.921875 242.503906 187.824219 C 242.539062 187.722656 242.644531 187.589844 242.738281 187.527344 C 242.832031 187.464844 242.800781 187.542969 242.671875 187.707031 Z M 242.488281 190.613281 C 242.398438 190.707031 242.351562 190.710938 242.375 190.621094 C 242.398438 190.539062 242.464844 190.472656 242.527344 190.46875 C 242.585938 190.464844 242.570312 190.53125 242.488281 190.613281 Z M 242.042969 191.113281 C 241.953125 191.203125 241.910156 191.207031 241.933594 191.117188 C 241.953125 191.039062 242.023438 190.96875 242.082031 190.964844 C 242.144531 190.960938 242.128906 191.027344 242.042969 191.113281 Z M 241.816406 189.875 C 241.835938 189.796875 241.917969 189.707031 241.996094 189.667969 C 242.074219 189.632812 242.0625 189.695312 241.960938 189.808594 C 241.863281 189.921875 241.796875 189.953125 241.816406 189.875 Z M 240.140625 188.410156 C 240.15625 188.335938 240.234375 188.246094 240.3125 188.207031 C 240.394531 188.171875 240.378906 188.234375 240.285156 188.34375 C 240.1875 188.457031 240.121094 188.484375 240.140625 188.410156 Z M 240.128906 190.183594 C 240.234375 190.023438 240.433594 189.808594 240.566406 189.703125 C 240.699219 189.597656 240.613281 189.730469 240.371094 189.996094 C 240.132812 190.261719 240.019531 190.34375 240.128906 190.183594 Z M 239.421875 190.945312 C 239.46875 190.851562 239.585938 190.726562 239.6875 190.667969 C 239.785156 190.609375 239.75 190.6875 239.605469 190.839844 C 239.460938 190.996094 239.378906 191.039062 239.421875 190.945312 Z M 239.734375 192.015625 C 239.050781 192.820312 238.78125 193.050781 238.683594 192.980469 C 238.472656 192.832031 238.707031 192.550781 239.746094 191.5 C 240.292969 190.949219 240.804688 190.304688 240.898438 190.082031 C 241.113281 189.582031 241.210938 189.457031 241.210938 189.707031 C 241.210938 189.851562 241.289062 189.820312 241.511719 189.582031 C 241.878906 189.199219 240.984375 190.546875 239.734375 192.015625 Z M 238.546875 191.847656 C 238.570312 191.777344 238.65625 191.6875 238.742188 191.65625 C 238.824219 191.621094 238.804688 191.683594 238.699219 191.789062 C 238.59375 191.898438 238.523438 191.925781 238.546875 191.847656 Z M 238.335938 191.503906 C 238.382812 191.410156 238.503906 191.289062 238.605469 191.234375 C 238.707031 191.175781 238.667969 191.253906 238.519531 191.402344 C 238.375 191.554688 238.292969 191.597656 238.335938 191.503906 Z M 238.1875 190.167969 C 238.253906 190.050781 238.386719 189.914062 238.484375 189.855469 C 238.585938 189.800781 238.53125 189.894531 238.367188 190.066406 C 238.203125 190.234375 238.121094 190.28125 238.1875 190.167969 Z M 237.980469 192.476562 C 237.785156 192.667969 237.683594 192.730469 237.757812 192.617188 C 237.828125 192.503906 237.992188 192.347656 238.113281 192.269531 C 238.234375 192.195312 238.175781 192.289062 237.980469 192.476562 Z M 237.910156 195.363281 C 237.765625 195.484375 237.695312 195.511719 237.753906 195.414062 C 237.808594 195.324219 237.925781 195.222656 238.011719 195.191406 C 238.097656 195.164062 238.050781 195.238281 237.910156 195.363281 Z M 237.5 191.753906 C 237.496094 191.945312 237.371094 192.210938 237.214844 192.347656 C 237.0625 192.480469 236.980469 192.515625 237.027344 192.421875 C 237.078125 192.332031 237.054688 192.210938 236.976562 192.152344 C 236.746094 191.988281 236.953125 191.382812 237.378906 190.917969 C 237.59375 190.679688 237.824219 190.488281 237.890625 190.484375 C 237.957031 190.484375 237.898438 190.609375 237.765625 190.757812 C 237.613281 190.925781 237.59375 190.984375 237.722656 190.910156 C 238.152344 190.664062 238.265625 190.789062 237.886719 191.097656 C 237.609375 191.328125 237.5 191.503906 237.5 191.753906 Z M 237.078125 190.140625 C 237.253906 190.105469 237.261719 190.132812 237.128906 190.273438 C 237.035156 190.367188 236.914062 190.410156 236.851562 190.371094 C 236.71875 190.273438 236.796875 190.195312 237.078125 190.140625 Z M 236.644531 190.726562 C 236.574219 190.917969 236.46875 191.105469 236.414062 191.144531 C 236.363281 191.1875 236.359375 191.140625 236.410156 191.039062 C 236.484375 190.898438 236.464844 190.871094 236.3125 190.898438 C 236 190.960938 236.058594 190.8125 236.429688 190.585938 C 236.566406 190.503906 236.636719 190.460938 236.773438 190.378906 C 236.722656 190.515625 236.695312 190.585938 236.644531 190.726562 Z M 234.953125 192.203125 C 234.859375 192.199219 234.582031 192.347656 234.335938 192.527344 C 234.089844 192.707031 234.140625 192.65625 234.445312 192.410156 C 234.75 192.164062 235.035156 191.929688 235.082031 191.894531 C 235.132812 191.859375 235.335938 191.65625 235.527344 191.445312 C 235.761719 191.1875 235.933594 191.082031 236.042969 191.121094 C 236.246094 191.199219 235.230469 192.207031 234.953125 192.203125 Z M 234.675781 194.03125 C 234.730469 193.941406 234.84375 193.84375 234.929688 193.816406 C 235.015625 193.789062 234.96875 193.863281 234.828125 193.980469 C 234.6875 194.097656 234.617188 194.121094 234.675781 194.03125 Z M 235.582031 194.183594 C 235.542969 194.207031 235.351562 194.316406 235.15625 194.425781 C 234.960938 194.535156 234.722656 194.589844 234.625 194.546875 C 234.484375 194.488281 234.507812 194.460938 234.738281 194.414062 C 234.894531 194.378906 235.132812 194.277344 235.261719 194.183594 C 235.390625 194.089844 235.535156 194.042969 235.578125 194.078125 C 235.625 194.109375 235.625 194.160156 235.582031 194.183594 Z M 234.308594 195.582031 C 234.191406 195.679688 234.117188 195.703125 234.148438 195.628906 C 234.179688 195.558594 234.28125 195.480469 234.367188 195.453125 C 234.457031 195.425781 234.429688 195.484375 234.308594 195.582031 Z M 233.371094 196.179688 C 233.261719 196.257812 233.21875 196.253906 233.257812 196.171875 C 233.292969 196.097656 233.375 196.042969 233.433594 196.046875 C 233.5 196.050781 233.46875 196.109375 233.371094 196.179688 Z M 232.820312 195.015625 C 232.75 195.074219 232.648438 195.085938 232.59375 195.042969 C 232.539062 195 232.578125 194.9375 232.683594 194.90625 C 232.789062 194.875 232.890625 194.863281 232.910156 194.882812 C 232.933594 194.898438 232.890625 194.960938 232.820312 195.015625 Z M 232.746094 196.664062 C 232.632812 196.738281 232.589844 196.734375 232.628906 196.652344 C 232.667969 196.582031 232.746094 196.523438 232.808594 196.53125 C 232.875 196.535156 232.84375 196.59375 232.746094 196.664062 Z M 231.839844 195.769531 C 231.730469 195.84375 231.6875 195.839844 231.726562 195.757812 C 231.761719 195.6875 231.839844 195.632812 231.902344 195.636719 C 231.964844 195.640625 231.9375 195.703125 231.839844 195.769531 Z M 248.976562 184.398438 C 249.046875 184.347656 249.042969 184.414062 248.960938 184.546875 C 248.882812 184.675781 248.820312 184.710938 248.832031 184.628906 C 248.835938 184.546875 248.902344 184.441406 248.976562 184.398438 Z M 242.914062 193.121094 C 242.984375 193.003906 243.140625 192.835938 243.265625 192.75 C 243.386719 192.664062 243.328125 192.761719 243.136719 192.96875 C 242.941406 193.175781 242.839844 193.242188 242.914062 193.121094 Z M 244.308594 191.503906 C 244.8125 190.917969 244.953125 190.6875 244.777344 190.761719 C 244.585938 190.84375 244.597656 190.820312 244.816406 190.652344 C 244.972656 190.535156 245.382812 190.171875 245.71875 189.835938 C 246.199219 189.359375 246.070312 189.597656 245 190.890625 C 244.253906 191.796875 243.59375 192.476562 243.585938 192.429688 C 243.574219 192.378906 243.90625 191.964844 244.308594 191.503906 Z M 246.355469 189.039062 C 246.394531 188.988281 246.457031 189 246.5 189.070312 C 246.539062 189.136719 246.554688 189.210938 246.539062 189.230469 C 246.523438 189.253906 246.457031 189.242188 246.394531 189.203125 C 246.332031 189.164062 246.3125 189.09375 246.355469 189.039062 Z M 247.046875 190.148438 C 247.066406 190.066406 247.128906 189.988281 247.191406 189.984375 C 247.25 189.976562 247.238281 190.046875 247.15625 190.136719 C 247.070312 190.238281 247.027344 190.242188 247.046875 190.148438 Z M 247.355469 189.75 C 247.394531 189.648438 247.503906 189.503906 247.597656 189.4375 C 247.695312 189.367188 247.664062 189.453125 247.53125 189.625 C 247.398438 189.796875 247.320312 189.855469 247.355469 189.75 Z M 249.9375 185.855469 C 249.984375 185.722656 250.09375 185.550781 250.179688 185.476562 C 250.265625 185.398438 250.230469 185.511719 250.097656 185.71875 C 249.960938 185.925781 249.890625 185.988281 249.9375 185.855469 Z M 252.6875 180.980469 C 252.722656 180.84375 252.808594 180.664062 252.886719 180.582031 C 252.964844 180.5 252.9375 180.613281 252.828125 180.832031 C 252.71875 181.054688 252.65625 181.121094 252.6875 180.980469 Z M 253.371094 179.578125 C 253.425781 179.5625 253.429688 179.636719 253.375 179.742188 C 253.3125 179.855469 253.273438 179.867188 253.273438 179.769531 C 253.269531 179.679688 253.316406 179.59375 253.371094 179.578125 Z M 253.871094 178.757812 C 253.9375 178.703125 253.941406 178.773438 253.878906 178.914062 C 253.816406 179.054688 253.765625 179.101562 253.761719 179.015625 C 253.757812 178.929688 253.808594 178.816406 253.871094 178.757812 Z M 232.855469 150 C 219.644531 148.628906 207.710938 159.824219 206.128906 172.554688 C 205.707031 175.96875 206.179688 179.203125 207.351562 182.140625 C 203.015625 184.308594 199.9375 188.78125 200.058594 193.601562 C 200.226562 200.21875 206.992188 205.207031 213.871094 204.964844 C 219.191406 204.78125 223.234375 201.03125 224.710938 196.28125 C 225.996094 196.597656 227.3125 196.828125 228.65625 196.96875 C 229.019531 197.007812 229.382812 197.035156 229.746094 197.054688 C 229.742188 197.054688 229.734375 197.054688 229.726562 197.054688 C 229.769531 196.992188 229.863281 196.925781 229.949219 196.90625 C 230.039062 196.886719 230.007812 196.941406 229.882812 197.03125 C 229.863281 197.042969 229.847656 197.050781 229.832031 197.0625 C 230.636719 197.105469 231.433594 197.113281 232.214844 197.082031 C 232.03125 197.085938 231.847656 197.089844 231.660156 197.09375 C 231.699219 197.070312 231.742188 197.046875 231.777344 197.027344 C 231.992188 196.921875 232.257812 196.871094 232.367188 196.917969 C 232.492188 196.972656 232.492188 197.015625 232.371094 197.074219 C 233.132812 197.039062 233.886719 196.96875 234.625 196.863281 C 234.640625 196.859375 234.65625 196.855469 234.675781 196.851562 C 234.960938 196.777344 235.050781 196.757812 235.003906 196.808594 C 234.945312 196.820312 234.886719 196.828125 234.828125 196.835938 C 235.421875 196.75 236.011719 196.636719 236.589844 196.503906 C 236.527344 196.519531 236.464844 196.53125 236.40625 196.546875 C 236.4375 196.519531 236.46875 196.492188 236.5 196.46875 C 237.605469 195.574219 237.644531 195.617188 236.65625 196.488281 C 238.058594 196.164062 239.40625 195.71875 240.695312 195.160156 C 240.808594 195.050781 240.929688 194.933594 241.070312 194.796875 C 241.828125 194.054688 242.359375 193.5625 242.390625 193.628906 C 242.421875 193.691406 242.429688 193.742188 242.410156 193.742188 C 242.386719 193.742188 241.804688 194.277344 241.085938 194.910156 C 241.015625 194.96875 240.953125 195.023438 240.894531 195.078125 C 241.789062 194.679688 242.648438 194.226562 243.480469 193.726562 C 243.511719 193.644531 243.539062 193.566406 243.570312 193.472656 C 243.707031 193.039062 243.855469 192.816406 244.203125 192.53125 C 245.1875 191.722656 245.707031 191.117188 245.808594 190.757812 C 245.863281 190.550781 246.007812 190.332031 246.125 190.269531 C 246.324219 190.164062 246.339844 190.179688 246.316406 190.46875 C 246.296875 190.703125 246.242188 190.777344 246.101562 190.765625 C 245.964844 190.753906 245.941406 190.796875 246.007812 190.929688 C 246.078125 191.066406 245.878906 191.425781 245.164062 192.324219 C 244.988281 192.550781 244.820312 192.761719 244.679688 192.949219 C 246.125 191.945312 247.449219 190.785156 248.628906 189.480469 C 248.738281 189.253906 248.949219 188.90625 249.300781 188.351562 C 249.753906 187.644531 250.085938 187 250.0625 186.933594 C 250.039062 186.867188 249.890625 187.015625 249.722656 187.257812 C 249.523438 187.554688 249.394531 187.65625 249.339844 187.566406 C 249.21875 187.375 250.945312 184.898438 251.167969 184.945312 C 251.277344 184.96875 251.261719 185.113281 251.125 185.359375 C 251.039062 185.507812 250.996094 185.585938 250.910156 185.734375 C 251.054688 185.582031 251.128906 185.503906 251.273438 185.351562 C 251.472656 185.140625 251.902344 184.519531 252.222656 183.96875 C 252.476562 183.527344 252.628906 183.277344 252.742188 183.148438 C 253.085938 182.359375 253.394531 181.546875 253.65625 180.710938 C 253.5625 181.003906 253.464844 181.296875 253.359375 181.589844 C 253.34375 181.578125 253.324219 181.578125 253.296875 181.585938 C 253.261719 181.597656 252.859375 182.265625 252.378906 183.058594 C 251.894531 183.847656 251.429688 184.492188 251.367188 184.5 C 251.308594 184.511719 251.699219 183.863281 252.203125 183.046875 C 252.632812 182.351562 253.277344 181.121094 253.933594 179.761719 C 254.226562 178.679688 254.449219 177.566406 254.589844 176.421875 C 254.585938 176.433594 254.585938 176.441406 254.585938 176.453125 C 254.347656 177.050781 254.011719 177.792969 253.574219 178.625 C 252.972656 179.773438 252.585938 180.539062 252.484375 180.9375 C 252.414062 181.214844 252.351562 181.414062 252.308594 181.53125 C 252.355469 181.46875 252.402344 181.417969 252.441406 181.390625 C 252.671875 181.222656 252.636719 181.3125 252.109375 182.035156 C 251.960938 182.238281 251.886719 182.339844 251.738281 182.539062 C 251.839844 182.339844 251.890625 182.242188 251.988281 182.042969 C 252.058594 181.902344 252.144531 181.757812 252.226562 181.640625 C 252.21875 181.613281 252.21875 181.550781 252.230469 181.441406 C 252.257812 181.152344 252.257812 181.152344 252.09375 181.4375 C 252.003906 181.597656 251.792969 181.886719 251.628906 182.078125 C 251.367188 182.386719 251.382812 182.328125 251.707031 181.558594 C 251.851562 181.210938 251.925781 181.035156 252.0625 180.6875 C 251.84375 181.121094 251.730469 181.339844 251.5 181.769531 C 251.128906 182.457031 250.992188 182.769531 251.144531 182.644531 C 251.285156 182.523438 251.160156 182.84375 250.773438 183.511719 C 251.144531 183.058594 251.417969 182.816406 251.542969 182.878906 C 251.589844 182.902344 251.605469 182.953125 251.574219 182.988281 C 251.542969 183.023438 251.070312 183.703125 250.496094 184.476562 C 249.921875 185.246094 248.988281 186.371094 248.4375 186.976562 C 248.382812 187.035156 248.328125 187.09375 248.277344 187.15625 C 248.210938 187.257812 248.164062 187.339844 248.152344 187.382812 C 248.121094 187.488281 248.148438 187.578125 248.214844 187.578125 C 248.28125 187.585938 248.214844 187.746094 248.058594 187.941406 C 247.90625 188.136719 247.75 188.28125 247.714844 188.261719 C 247.679688 188.238281 247.464844 188.507812 247.230469 188.851562 C 246.960938 189.246094 246.816406 189.386719 246.84375 189.238281 C 246.867188 189.109375 247.222656 188.507812 247.613281 187.894531 C 247.613281 187.890625 247.613281 187.886719 247.617188 187.886719 C 247.378906 188.152344 247.1875 188.378906 247.101562 188.492188 C 246.925781 188.726562 246.734375 188.886719 246.675781 188.851562 C 246.617188 188.816406 246.6875 188.667969 246.832031 188.523438 C 247.191406 188.160156 247.609375 187.691406 248.035156 187.1875 C 248.191406 186.910156 248.285156 186.710938 248.277344 186.683594 C 248.261719 186.636719 248.144531 186.753906 248.011719 186.9375 C 247.882812 187.128906 247.742188 187.230469 247.707031 187.171875 C 247.667969 187.113281 247.523438 187.152344 247.378906 187.261719 C 247.140625 187.445312 247.125 187.445312 247.164062 187.234375 C 247.195312 187.058594 247.128906 187.089844 246.878906 187.363281 C 246.621094 187.648438 246.59375 187.726562 246.757812 187.765625 C 246.929688 187.804688 246.746094 188.207031 244.867188 190.347656 C 241.832031 193.800781 241.015625 194.328125 241.035156 194.441406 C 241.058594 194.597656 240.828125 194.78125 240.769531 194.652344 C 240.742188 194.59375 240.675781 194.589844 240.625 194.644531 C 240.324219 194.957031 240.023438 195.144531 239.933594 195.082031 C 239.808594 194.988281 243.589844 191.234375 244.179688 190.804688 C 244.53125 190.554688 245.394531 189.570312 246.484375 187.949219 C 246.527344 187.886719 246.492188 187.824219 246.40625 187.816406 C 246.261719 187.808594 246.367188 187.679688 247.242188 186.328125 C 247.390625 186.101562 247.636719 185.8125 247.792969 185.691406 C 247.949219 185.570312 248.128906 185.386719 248.191406 185.28125 C 248.292969 185.113281 248.304688 185.117188 248.316406 185.3125 C 248.320312 185.433594 248.199219 185.707031 248.042969 185.917969 C 247.640625 186.464844 247.472656 186.765625 247.601562 186.746094 C 247.769531 186.722656 249.566406 183.796875 249.632812 183.414062 C 249.6875 183.097656 249.683594 183.097656 249.539062 183.320312 C 249.304688 183.683594 249.285156 183.226562 249.511719 182.820312 C 249.632812 182.609375 249.636719 182.5 249.53125 182.523438 C 249.4375 182.542969 248.917969 183.335938 248.308594 184.289062 C 247.285156 185.894531 245.300781 188.300781 244.816406 188.726562 C 244.695312 188.828125 244.492188 189.039062 244.363281 189.1875 C 244.203125 189.371094 244.109375 189.441406 244.070312 189.421875 C 243.691406 189.839844 243.09375 190.492188 242.410156 191.210938 C 239.015625 194.75 238.394531 194.984375 238.285156 194.984375 C 238.226562 194.984375 238.703125 194.503906 239.324219 193.902344 C 239.941406 193.304688 240.679688 192.535156 240.976562 192.207031 C 241.277344 191.878906 241.550781 191.632812 241.597656 191.664062 C 241.640625 191.691406 241.925781 191.453125 242.226562 191.121094 C 242.953125 190.3125 243.867188 189.289062 244.480469 188.632812 C 244.59375 188.445312 244.652344 188.28125 244.621094 188.230469 C 244.570312 188.140625 244.648438 188.027344 244.863281 187.882812 C 245.136719 187.699219 247.003906 185.257812 247.480469 184.398438 C 247.542969 184.285156 247.574219 184.226562 247.636719 184.113281 C 247.511719 184.167969 247.449219 184.199219 247.324219 184.253906 C 246.925781 184.429688 247.027344 184.277344 247.472656 184.027344 C 247.65625 183.921875 247.855469 183.695312 247.917969 183.519531 C 247.976562 183.347656 248.378906 182.789062 248.796875 182.265625 C 249.21875 181.742188 249.625 181.101562 249.710938 180.855469 C 249.851562 180.460938 249.894531 180.421875 250.042969 180.5625 C 250.140625 180.652344 250.292969 180.761719 250.386719 180.804688 C 250.480469 180.847656 250.507812 180.960938 250.449219 181.046875 C 250.148438 181.507812 250.105469 181.761719 250.320312 181.867188 C 250.511719 181.964844 250.613281 181.882812 250.992188 181.289062 C 251.113281 181.105469 251.226562 180.894531 251.320312 180.707031 C 250.933594 181.257812 250.621094 181.550781 250.484375 181.480469 C 250.433594 181.457031 250.417969 181.410156 250.449219 181.375 C 250.476562 181.339844 250.933594 180.667969 251.425781 179.863281 C 251.722656 179.382812 252.101562 178.753906 252.445312 178.179688 C 252.96875 177.132812 253.53125 176.074219 253.621094 176.046875 C 253.628906 176.042969 253.628906 176.0625 253.625 176.09375 C 253.777344 175.785156 253.898438 175.527344 253.945312 175.398438 C 254.042969 175.125 254.171875 174.925781 254.238281 174.949219 C 254.300781 174.976562 254.277344 175.140625 254.1875 175.316406 C 253.886719 175.886719 253.503906 176.625 253.113281 177.386719 C 252.910156 177.855469 252.816406 178.148438 252.890625 178.144531 C 252.96875 178.136719 252.953125 178.289062 252.859375 178.480469 C 252.765625 178.671875 252.65625 178.792969 252.617188 178.746094 C 252.566406 178.683594 252.375 178.898438 252.222656 179.140625 C 252.175781 179.222656 252.132812 179.3125 252.09375 179.390625 C 252.066406 179.441406 252.042969 179.488281 252.015625 179.535156 C 252.003906 179.574219 252 179.609375 252.003906 179.632812 C 252.035156 179.777344 252.304688 179.667969 252.796875 179.300781 C 252.984375 179.160156 254.347656 176.15625 254.53125 175.402344 C 254.585938 175.175781 254.5625 175.1875 254.375 175.460938 C 254.285156 175.59375 254.242188 175.65625 254.152344 175.789062 C 254.210938 175.605469 254.242188 175.515625 254.296875 175.332031 C 254.378906 175.082031 254.382812 174.882812 254.3125 174.890625 C 254.257812 174.894531 254.242188 174.777344 254.265625 174.582031 C 254.253906 174.5625 254.246094 174.539062 254.25 174.53125 C 254.25 174.523438 254.261719 174.519531 254.273438 174.515625 C 254.320312 174.15625 254.457031 173.585938 254.640625 173.003906 C 254.660156 172.941406 254.691406 172.855469 254.722656 172.753906 C 254.734375 172.910156 254.734375 173.070312 254.738281 173.230469 C 254.6875 173.429688 254.660156 173.609375 254.671875 173.722656 C 254.675781 173.761719 254.683594 173.785156 254.695312 173.796875 C 254.707031 173.746094 254.722656 173.683594 254.742188 173.613281 C 254.746094 173.695312 254.75 173.773438 254.746094 173.855469 C 254.746094 174.707031 254.695312 175.5625 254.589844 176.421875 C 256.167969 163.691406 246.066406 151.371094 232.855469 150 Z M 250.363281 183.902344 C 250.378906 183.945312 250.296875 183.960938 250.175781 183.941406 C 249.929688 183.898438 249.925781 183.824219 250.171875 183.828125 C 250.261719 183.828125 250.347656 183.863281 250.363281 183.902344 Z M 250.703125 183.394531 C 250.566406 183.652344 250.441406 183.769531 250.390625 183.695312 C 250.292969 183.558594 250.363281 183.441406 250.695312 183.164062 C 250.890625 183 250.894531 183.035156 250.703125 183.394531 Z M 153.171875 154.921875 C 153.507812 154.921875 153.859375 154.933594 154.066406 154.949219 C 154.867188 155.320312 155.636719 155.738281 156.378906 156.191406 C 155.523438 156.136719 154.171875 156.09375 152.632812 156.128906 C 151.925781 156.148438 151.550781 156.148438 151.792969 156.125 C 153.039062 155.996094 151.660156 155.472656 149.667969 155.390625 C 149.179688 155.371094 150.269531 155.332031 152.09375 155.375 C 154.011719 155.417969 154.84375 155.449219 154.078125 155.371094 C 152.515625 155.214844 151.882812 154.921875 153.171875 154.921875 Z M 143.203125 152.871094 C 143.316406 152.824219 143.503906 152.808594 143.621094 152.835938 C 143.738281 152.863281 143.648438 152.898438 143.417969 152.917969 C 143.1875 152.9375 143.089844 152.917969 143.203125 152.871094 Z M 141.007812 152.808594 C 141.289062 152.835938 141.671875 152.839844 141.855469 152.820312 C 142.152344 152.78125 142.160156 152.792969 141.917969 152.933594 C 141.769531 153.015625 141.324219 153.113281 140.925781 153.144531 C 139.90625 153.234375 139.390625 153.347656 139.523438 153.425781 C 139.695312 153.523438 144.855469 152.925781 145.410156 152.757812 C 145.496094 152.730469 145.5625 152.710938 145.617188 152.695312 C 144.519531 152.597656 143.402344 152.558594 142.261719 152.601562 C 140.726562 152.652344 139.21875 152.855469 137.753906 153.191406 C 138.140625 153.113281 138.761719 153.011719 139.738281 152.867188 C 140.152344 152.804688 140.722656 152.777344 141.007812 152.808594 Z M 137.085938 153.578125 C 136.289062 153.734375 135.570312 153.878906 134.929688 154.007812 C 135.710938 153.730469 136.503906 153.492188 137.3125 153.292969 C 137.144531 153.347656 137.136719 153.386719 137.179688 153.425781 C 137.25 153.488281 137.207031 153.554688 137.085938 153.578125 Z M 134.894531 187.9375 L 134.695312 180.074219 L 126.085938 180.441406 L 125.800781 169.34375 L 134.414062 169.042969 L 134.230469 161.882812 L 146.894531 160.398438 L 147.1875 168.59375 L 155.671875 168.34375 L 156.464844 179.144531 L 147.578125 179.523438 L 147.859375 187.484375 Z M 125.171875 163.609375 C 125.421875 163.492188 125.820312 163.359375 126.046875 163.3125 C 126.28125 163.269531 126.070312 163.359375 125.589844 163.523438 C 125.105469 163.6875 124.917969 163.726562 125.171875 163.609375 Z M 130.003906 160.910156 C 130.691406 160.753906 131.394531 160.667969 131.566406 160.703125 C 131.933594 160.777344 131.917969 160.765625 130.257812 161.042969 C 128.644531 161.3125 128.511719 161.25 130.003906 160.910156 Z M 129.023438 158.871094 C 129.164062 158.800781 129.410156 158.734375 129.570312 158.722656 C 129.726562 158.714844 129.613281 158.773438 129.3125 158.855469 C 129.011719 158.9375 128.882812 158.945312 129.023438 158.871094 Z M 135.019531 161.265625 C 134.984375 161.273438 134.902344 161.230469 134.835938 161.171875 C 134.769531 161.113281 134.785156 161.050781 134.875 161.03125 C 134.960938 161.011719 135.042969 161.054688 135.058594 161.125 C 135.074219 161.195312 135.054688 161.257812 135.019531 161.265625 Z M 133.894531 159.972656 C 134.765625 159.828125 135.542969 159.761719 135.621094 159.804688 C 135.703125 159.847656 135.003906 160.023438 134.078125 160.214844 C 132.796875 160.484375 132.386719 160.546875 132.355469 160.417969 C 132.324219 160.285156 132.644531 160.179688 133.894531 159.972656 Z M 135.0625 155.726562 C 135.171875 155.667969 135.3125 155.644531 135.375 155.675781 C 135.4375 155.710938 135.347656 155.757812 135.175781 155.785156 C 134.984375 155.8125 134.941406 155.792969 135.0625 155.726562 Z M 135.691406 154.375 C 135.785156 154.359375 135.828125 154.410156 135.785156 154.488281 C 135.742188 154.570312 135.675781 154.640625 135.636719 154.648438 C 135.597656 154.65625 135.554688 154.605469 135.539062 154.535156 C 135.527344 154.464844 135.59375 154.390625 135.691406 154.375 Z M 136.347656 155.488281 C 136.507812 155.492188 136.386719 155.542969 136.074219 155.597656 C 135.761719 155.652344 135.628906 155.652344 135.78125 155.589844 C 135.929688 155.527344 136.183594 155.484375 136.347656 155.488281 Z M 136.875 160.824219 C 136.878906 160.851562 136.71875 160.933594 136.519531 161.003906 C 136.320312 161.078125 136.144531 161.085938 136.132812 161.027344 C 136.121094 160.96875 136.28125 160.882812 136.488281 160.84375 C 136.695312 160.808594 136.871094 160.796875 136.875 160.824219 Z M 136.441406 159.761719 C 136.65625 159.757812 136.839844 159.777344 136.84375 159.804688 C 136.847656 159.832031 136.679688 159.882812 136.472656 159.921875 C 136.261719 159.960938 136.082031 159.945312 136.066406 159.882812 C 136.054688 159.824219 136.222656 159.769531 136.441406 159.761719 Z M 137.960938 159.664062 C 138.109375 159.636719 138.238281 159.675781 138.25 159.746094 C 138.277344 159.902344 138.257812 159.90625 137.945312 159.796875 C 137.730469 159.722656 137.734375 159.703125 137.960938 159.664062 Z M 138.394531 156.5625 C 138.488281 156.546875 138.527344 156.601562 138.484375 156.679688 C 138.441406 156.757812 138.375 156.828125 138.335938 156.832031 C 138.296875 156.839844 138.257812 156.785156 138.246094 156.714844 C 138.234375 156.644531 138.300781 156.574219 138.394531 156.5625 Z M 141.992188 158.753906 C 142.097656 158.703125 142.269531 158.683594 142.382812 158.710938 C 142.492188 158.734375 142.40625 158.773438 142.191406 158.796875 C 141.980469 158.820312 141.890625 158.800781 141.992188 158.753906 Z M 144.480469 158.507812 C 144.589844 158.460938 144.726562 158.457031 144.78125 158.496094 C 144.835938 158.535156 144.746094 158.570312 144.582031 158.578125 C 144.402344 158.585938 144.359375 158.558594 144.480469 158.507812 Z M 143.671875 155.957031 C 144.070312 155.917969 144.832031 155.898438 145.363281 155.914062 C 145.753906 155.929688 145.945312 155.933594 146.335938 155.953125 C 145.949219 155.972656 145.757812 155.984375 145.371094 156.011719 C 144.84375 156.046875 144.082031 156.066406 143.679688 156.054688 C 143.390625 156.042969 143.242188 156.039062 142.949219 156.03125 C 143.238281 156 143.382812 155.984375 143.671875 155.957031 Z M 147.898438 158.558594 C 148.175781 158.519531 148.597656 158.507812 148.828125 158.53125 C 149.0625 158.554688 148.835938 158.582031 148.324219 158.597656 C 147.8125 158.613281 147.621094 158.597656 147.898438 158.558594 Z M 151.84375 158.636719 C 152.164062 158.609375 152.6875 158.621094 153.007812 158.65625 C 153.324219 158.691406 153.0625 158.707031 152.425781 158.695312 C 151.785156 158.683594 151.527344 158.660156 151.84375 158.636719 Z M 152.804688 156.769531 C 152.585938 156.765625 152.496094 156.734375 152.609375 156.699219 C 152.71875 156.667969 152.898438 156.671875 153.003906 156.710938 C 153.113281 156.75 153.023438 156.777344 152.804688 156.769531 Z M 122.824219 164.554688 C 122.652344 164.613281 122.605469 164.597656 122.707031 164.515625 C 122.796875 164.441406 122.925781 164.394531 122.988281 164.417969 C 123.054688 164.441406 122.980469 164.5 122.824219 164.554688 Z M 121.816406 164.949219 C 121.644531 165.007812 121.597656 164.996094 121.699219 164.910156 C 121.785156 164.835938 121.914062 164.789062 121.976562 164.808594 C 122.042969 164.832031 121.96875 164.894531 121.816406 164.949219 Z M 142.519531 154.5 C 142.71875 154.449219 143.015625 154.421875 143.175781 154.441406 C 143.335938 154.457031 143.171875 154.5 142.8125 154.53125 C 142.449219 154.566406 142.320312 154.554688 142.519531 154.5 Z M 150.726562 154.074219 C 150.933594 154.042969 151.226562 154.042969 151.382812 154.078125 C 151.539062 154.109375 151.375 154.132812 151.011719 154.132812 C 150.652344 154.132812 150.523438 154.105469 150.726562 154.074219 Z M 166.296875 179.921875 C 166.671875 178.035156 166.847656 176.089844 166.796875 174.128906 C 166.601562 166.503906 162.652344 160.15625 156.675781 156.371094 C 156.136719 156.378906 155.332031 156.367188 154.523438 156.347656 C 152.835938 156.3125 152.140625 156.382812 151.753906 156.542969 C 151.65625 156.582031 151.539062 156.621094 151.410156 156.652344 C 151.578125 156.707031 151.480469 156.730469 151.089844 156.730469 C 150.453125 156.863281 149.730469 156.914062 149.683594 156.785156 C 149.652344 156.796875 149.632812 156.804688 149.632812 156.816406 C 149.632812 156.867188 150.054688 156.90625 150.570312 156.902344 C 151.082031 156.898438 151.625 156.941406 151.765625 156.988281 C 151.957031 157.050781 152.015625 157.011719 151.980469 156.839844 C 151.957031 156.714844 152.042969 156.582031 152.175781 156.554688 C 152.378906 156.511719 152.378906 156.523438 152.1875 156.628906 C 152.003906 156.730469 152.066406 156.808594 152.492188 157.035156 C 152.78125 157.1875 152.914062 157.304688 152.785156 157.292969 C 152.65625 157.277344 151.949219 157.210938 151.210938 157.15625 C 150.472656 157.101562 149.199219 157.066406 148.378906 157.085938 C 146.664062 157.128906 146.5625 156.953125 148.253906 156.859375 C 149.511719 156.789062 149.621094 156.792969 149.320312 156.6875 C 149.214844 156.691406 149.085938 156.703125 148.929688 156.722656 C 148.363281 156.792969 148.238281 156.796875 148.347656 156.679688 C 147.921875 156.683594 147.34375 156.65625 147.164062 156.601562 C 146.96875 156.546875 147.21875 156.519531 147.796875 156.539062 C 148.054688 156.546875 148.296875 156.5625 148.480469 156.578125 C 148.679688 156.460938 149.15625 156.285156 149.632812 156.164062 C 150.183594 156.019531 150.632812 155.859375 150.636719 155.800781 C 150.636719 155.746094 150.292969 155.699219 149.871094 155.703125 C 148.535156 155.71875 146.929688 155.632812 146.925781 155.5 C 146.921875 155.425781 147.160156 155.390625 147.492188 155.421875 C 147.804688 155.449219 148.027344 155.425781 147.980469 155.371094 C 147.933594 155.316406 146.679688 155.28125 145.1875 155.34375 C 142.730469 155.453125 142.394531 155.535156 141.6875 155.851562 C 141.089844 156.117188 140.714844 156.207031 140.097656 156.222656 C 138.347656 156.265625 137.226562 156.445312 136.738281 156.679688 C 136.464844 156.816406 136.101562 156.910156 135.925781 156.890625 C 135.636719 156.855469 135.636719 156.832031 135.972656 156.605469 C 136.25 156.421875 136.378906 156.394531 136.488281 156.492188 C 136.597656 156.585938 136.667969 156.5625 136.75 156.410156 C 136.835938 156.257812 137.410156 156.078125 139.027344 155.785156 C 140.21875 155.574219 141.246094 155.375 141.304688 155.316406 C 141.367188 155.253906 141.070312 155.242188 140.648438 155.296875 C 140.140625 155.359375 139.914062 155.34375 139.976562 155.238281 C 140.105469 155.015625 144.472656 154.671875 144.574219 154.875 C 144.625 154.972656 144.433594 155.046875 144.027344 155.089844 C 143.78125 155.121094 143.65625 155.132812 143.40625 155.164062 C 143.703125 155.175781 143.851562 155.1875 144.144531 155.203125 C 144.550781 155.226562 145.628906 155.199219 146.542969 155.15625 C 147.90625 155.089844 148.207031 155.125 148.210938 155.289062 C 148.214844 155.394531 148.292969 155.480469 148.386719 155.476562 C 148.480469 155.472656 148.519531 155.421875 148.46875 155.359375 C 148.417969 155.300781 148.777344 155.210938 149.265625 155.167969 C 150.082031 155.09375 150.472656 154.988281 150.304688 154.871094 C 150.265625 154.84375 149.144531 154.792969 147.808594 154.800781 C 146.472656 154.804688 145.332031 154.8125 145.273438 154.769531 C 145.21875 154.730469 146.316406 154.652344 147.707031 154.648438 C 149.710938 154.640625 151.722656 154.6875 153.730469 154.789062 C 152.921875 154.425781 152.089844 154.109375 151.234375 153.832031 C 151.003906 153.839844 150.808594 153.855469 150.660156 153.878906 C 150.234375 153.9375 149.921875 153.976562 149.738281 153.988281 C 149.863281 154.003906 149.964844 154.019531 150.027344 154.042969 C 150.398438 154.164062 150.257812 154.15625 148.957031 154.0625 C 148.597656 154.035156 148.414062 154.023438 148.050781 154 C 148.378906 153.984375 148.542969 153.976562 148.875 153.964844 C 149.101562 153.953125 149.347656 153.957031 149.554688 153.972656 C 149.578125 153.953125 149.664062 153.925781 149.828125 153.878906 C 150.230469 153.773438 150.230469 153.769531 149.742188 153.761719 C 149.472656 153.757812 148.949219 153.71875 148.585938 153.679688 C 148.003906 153.609375 148.089844 153.578125 149.328125 153.492188 C 149.5625 153.472656 149.75 153.460938 149.929688 153.449219 C 149.871094 153.433594 149.8125 153.417969 149.757812 153.402344 C 149.503906 153.40625 149.246094 153.410156 148.914062 153.414062 C 147.75 153.4375 147.242188 153.5 147.507812 153.558594 C 147.761719 153.613281 147.261719 153.664062 146.140625 153.726562 C 146.976562 153.769531 147.472656 153.878906 147.476562 154.011719 C 147.476562 154.066406 147.421875 154.105469 147.355469 154.097656 C 147.285156 154.089844 146.082031 154.054688 144.671875 154.066406 C 143.261719 154.078125 141.132812 154.132812 139.941406 154.175781 C 139.84375 154.183594 139.746094 154.183594 139.648438 154.191406 C 139.441406 154.21875 139.285156 154.25 139.214844 154.273438 C 139.0625 154.328125 138.980469 154.414062 139.03125 154.460938 C 139.082031 154.511719 138.828125 154.585938 138.46875 154.628906 C 138.109375 154.671875 137.808594 154.675781 137.800781 154.636719 C 137.792969 154.597656 137.292969 154.660156 136.6875 154.78125 C 135.996094 154.921875 135.707031 154.949219 135.902344 154.847656 C 136.066406 154.757812 137.066406 154.496094 138.132812 154.289062 C 137.621094 154.332031 137.199219 154.378906 136.992188 154.414062 C 136.566406 154.484375 136.210938 154.492188 136.199219 154.425781 C 136.1875 154.359375 136.421875 154.285156 136.71875 154.261719 C 137.4375 154.207031 138.3125 154.140625 139.242188 154.070312 C 139.773438 153.964844 140.140625 153.882812 140.167969 153.855469 C 140.214844 153.808594 139.972656 153.808594 139.632812 153.851562 C 139.292969 153.898438 139.050781 153.878906 139.09375 153.808594 C 139.136719 153.738281 138.957031 153.667969 138.699219 153.652344 C 138.277344 153.628906 138.261719 153.613281 138.550781 153.480469 C 138.792969 153.371094 138.699219 153.347656 138.152344 153.386719 C 137.578125 153.429688 137.457031 153.476562 137.554688 153.613281 C 137.648438 153.746094 137.117188 153.773438 133.957031 154.375 C 133.628906 154.507812 133.304688 154.648438 132.984375 154.789062 C 133.339844 154.753906 133.789062 154.703125 134.203125 154.652344 C 135.183594 154.53125 134.78125 154.601562 132.359375 155.160156 C 132.261719 155.183594 132.164062 155.203125 132.070312 155.226562 C 131.480469 155.519531 130.902344 155.835938 130.335938 156.171875 C 131.84375 155.941406 132.820312 155.738281 133.265625 155.503906 C 133.542969 155.355469 133.917969 155.25 134.09375 155.265625 C 134.390625 155.296875 134.386719 155.316406 134.050781 155.550781 C 133.773438 155.742188 133.644531 155.773438 133.527344 155.683594 C 133.414062 155.59375 133.34375 155.617188 133.265625 155.773438 C 133.183594 155.933594 132.605469 156.109375 131.003906 156.558594 C 129.824219 156.886719 128.824219 157.242188 128.773438 157.3125 C 128.722656 157.382812 129.019531 157.34375 129.433594 157.234375 C 129.933594 157.101562 130.164062 157.09375 130.113281 157.203125 C 130.058594 157.328125 128.824219 157.703125 127.664062 157.996094 C 126.90625 158.585938 126.179688 159.21875 125.492188 159.882812 C 125.589844 160.007812 125.542969 160.054688 125.394531 159.972656 C 125.277344 160.09375 125.15625 160.210938 125.039062 160.332031 C 125.117188 160.308594 125.191406 160.289062 125.25 160.289062 C 125.363281 160.289062 125.25 160.355469 124.996094 160.4375 C 124.964844 160.449219 124.9375 160.457031 124.90625 160.464844 C 123.496094 161.917969 122.257812 163.53125 121.230469 165.257812 C 121.332031 165.21875 121.441406 165.179688 121.570312 165.132812 C 121.429688 165.195312 121.3125 165.25 121.203125 165.300781 C 119.050781 168.941406 117.839844 173.097656 117.953125 177.394531 C 118.277344 190.195312 131.355469 199.832031 144.65625 199.367188 C 147.871094 199.253906 150.847656 198.46875 153.507812 197.160156 C 155.757812 201.433594 160.914062 204.269531 166.140625 204.089844 C 173.019531 203.847656 177.761719 197.65625 177.59375 191.035156 C 177.4375 184.867188 172.527344 180.320312 166.296875 179.921875 " fill-opacity="1" fill-rule="nonzero"/><g clip-path="url(#id2)"><path fill="#ffbd59" d="M 213.976562 186.042969 C 210.683594 184.683594 206.691406 186.679688 205.238281 189.863281 C 203.785156 193.046875 205.746094 196.550781 209.039062 197.914062 C 212.328125 199.273438 215.953125 197.738281 217.40625 194.554688 C 218.859375 191.367188 217.265625 187.402344 213.976562 186.042969 Z M 165.238281 185.347656 C 161.667969 185.601562 159.066406 189.105469 159.285156 192.539062 C 159.503906 195.972656 162.90625 198.1875 166.476562 197.9375 C 170.042969 197.6875 172.539062 194.746094 172.320312 191.3125 C 172.101562 187.878906 168.808594 185.097656 165.238281 185.347656 Z M 241.488281 142.40625 L 220.96875 142.878906 L 217.664062 151.632812 C 222.210938 148.59375 229.367188 146.71875 234.972656 147.511719 C 238.417969 148 241.332031 148.875 243.800781 150.039062 Z M 155.335938 142.226562 L 159.03125 154.429688 C 154.746094 151.136719 149.304688 149.160156 143.304688 149.203125 C 138.824219 149.234375 134.816406 150.191406 131.359375 151.855469 L 134.816406 142.699219 L 155.335938 142.226562 " fill-opacity="1" fill-rule="nonzero"/></g><path fill="#ffde59" d="M 114.671875 201.136719 C 114.660156 201.226562 114.644531 201.3125 114.632812 201.402344 C 114.800781 202.285156 114.925781 202.832031 115.164062 203.773438 C 114.941406 202.742188 114.839844 202.195312 114.671875 201.136719 Z M 113.84375 206.191406 C 113.835938 206.261719 113.824219 206.328125 113.816406 206.398438 C 113.824219 206.421875 113.835938 206.449219 113.847656 206.46875 C 113.921875 206.609375 113.921875 206.488281 113.84375 206.199219 C 113.84375 206.195312 113.84375 206.195312 113.84375 206.191406 Z M 115.878906 202.925781 C 115.980469 203.207031 115.945312 202.980469 115.8125 202.410156 C 115.683594 201.84375 115.609375 201.605469 115.640625 201.890625 C 115.671875 202.179688 115.777344 202.644531 115.878906 202.925781 Z M 116.710938 205.539062 C 116.664062 205.367188 116.605469 205.300781 116.585938 205.394531 C 116.566406 205.488281 116.605469 205.628906 116.675781 205.710938 C 116.753906 205.796875 116.765625 205.730469 116.710938 205.539062 Z M 117.082031 206.636719 C 117.027344 206.46875 116.972656 206.40625 116.953125 206.5 C 116.933594 206.589844 116.976562 206.730469 117.046875 206.804688 C 117.128906 206.886719 117.140625 206.824219 117.082031 206.636719 Z M 118.28125 209.28125 C 118.359375 209.289062 118.140625 208.773438 117.820312 208.101562 C 117.585938 207.617188 117.472656 207.367188 117.257812 206.859375 C 117.417969 207.355469 117.503906 207.601562 117.683594 208.085938 C 117.925781 208.75 118.207031 209.277344 118.28125 209.28125 Z M 113.964844 214.472656 C 113.953125 214.566406 114.007812 214.703125 114.09375 214.777344 C 114.183594 214.855469 114.191406 214.789062 114.113281 214.605469 C 114.042969 214.441406 113.976562 214.378906 113.964844 214.472656 Z M 121.574219 218.375 C 121.574219 218.371094 121.570312 218.371094 121.570312 218.371094 C 121.460938 218.335938 121.460938 218.394531 121.570312 218.519531 C 121.660156 218.628906 121.734375 218.652344 121.746094 218.597656 C 121.90625 218.785156 122.058594 218.894531 122.113281 218.8125 C 122.238281 218.632812 122.046875 218.292969 121.429688 217.296875 C 120.976562 216.570312 117.820312 211.515625 117.792969 211.722656 C 117.78125 211.792969 118.441406 213.257812 119.414062 214.78125 C 120.621094 216.675781 121.285156 217.453125 121.253906 217.621094 C 121.222656 217.773438 121.382812 218.097656 121.574219 218.375 Z M 116.152344 214.710938 C 116.179688 214.753906 116.210938 214.8125 116.25 214.878906 C 116.277344 214.933594 116.304688 214.980469 116.324219 215.023438 C 116.375 215.066406 116.433594 215.101562 116.496094 215.125 C 116.675781 215.1875 116.683594 215.144531 116.550781 214.898438 C 116.457031 214.730469 116.3125 214.609375 116.226562 214.636719 C 116.183594 214.648438 116.160156 214.675781 116.152344 214.710938 Z M 116.105469 215.199219 C 115.695312 214.578125 115.628906 214.363281 115.765625 214.285156 C 115.976562 214.171875 116.507812 214.492188 116.691406 214.835938 C 116.761719 214.964844 116.820312 215.277344 116.820312 215.53125 C 116.820312 215.675781 116.8125 215.78125 116.796875 215.855469 C 116.820312 215.894531 116.847656 215.933594 116.875 215.984375 C 117.078125 216.316406 117.140625 216.476562 117.015625 216.339844 C 116.929688 216.253906 116.828125 216.097656 116.746094 215.945312 C 116.660156 215.992188 116.476562 215.765625 116.105469 215.199219 Z M 114.542969 219.160156 C 114.550781 219.140625 114.542969 219.101562 114.511719 219.042969 C 114.523438 219.082031 114.535156 219.121094 114.542969 219.160156 Z M 114.382812 215.230469 C 114.320312 215.382812 114.355469 215.789062 114.476562 216.121094 C 114.730469 216.84375 115.746094 218.242188 115.859375 218.09375 C 115.964844 217.957031 115.160156 216.167969 114.964844 216.082031 C 114.878906 216.046875 114.871094 215.933594 114.945312 215.832031 C 115.050781 215.691406 115.042969 215.667969 114.910156 215.738281 C 114.800781 215.796875 114.691406 215.664062 114.617188 215.390625 C 114.527344 215.050781 114.476562 215.015625 114.382812 215.230469 Z M 118.527344 216.828125 C 118.609375 216.945312 118.746094 217.011719 118.832031 216.976562 C 119.03125 216.898438 118.914062 216.738281 118.613281 216.671875 C 118.414062 216.625 118.402344 216.648438 118.527344 216.828125 Z M 116.40625 212.773438 C 116.023438 212 115.90625 211.601562 116.039062 211.683594 C 116.152344 211.75 116.554688 212.519531 116.972656 213.351562 C 117.140625 213.679688 117.289062 213.96875 117.425781 214.234375 C 117.378906 214.070312 117.371094 213.921875 117.414062 213.816406 C 117.53125 213.53125 117.621094 213.660156 117.894531 214.398438 C 118.066406 214.859375 117.925781 215.007812 117.699219 214.742188 C 118.632812 216.464844 118.890625 216.574219 119.175781 216.8125 C 119.484375 217.070312 119.507812 217.144531 119.332031 217.382812 C 119.066406 217.746094 119.347656 218.105469 119.816406 217.992188 C 119.980469 217.953125 120.113281 217.960938 120.210938 218.007812 C 119.71875 217.417969 119.386719 216.871094 119.433594 216.808594 C 119.511719 216.699219 121.066406 218.667969 121.222656 219.046875 C 121.257812 219.125 120.867188 218.765625 120.371094 218.195312 C 120.40625 218.300781 120.40625 218.441406 120.363281 218.617188 C 120.292969 218.917969 120.195312 218.992188 119.902344 218.96875 C 119.546875 218.941406 119.546875 218.96875 120.035156 219.53125 C 120.316406 219.859375 120.503906 220.175781 120.445312 220.257812 C 120.382812 220.351562 119.992188 220.03125 119.425781 219.328125 C 118.933594 218.714844 118.636719 218.195312 118.734375 218.21875 C 118.964844 218.269531 119.0625 217.84375 118.878906 217.601562 C 118.804688 217.5 118.539062 217.402344 118.296875 217.378906 C 117.996094 217.351562 117.878906 217.265625 117.9375 217.121094 C 117.988281 217.003906 118.121094 216.933594 118.238281 216.960938 C 118.398438 217 118.40625 216.953125 118.285156 216.75 C 117.964844 216.226562 117.261719 215.214844 117.085938 215.058594 C 116.984375 214.972656 116.925781 214.683594 116.957031 214.421875 C 116.996094 214.042969 116.871094 213.722656 116.40625 212.773438 Z M 115.359375 204.238281 C 115.320312 204.054688 115.265625 203.980469 115.242188 204.074219 C 115.21875 204.167969 115.253906 204.320312 115.320312 204.410156 C 115.390625 204.507812 115.40625 204.441406 115.359375 204.238281 Z M 118.644531 211.6875 C 118.589844 211.675781 118.644531 211.789062 118.800781 212.089844 C 118.84375 212.171875 118.890625 212.246094 118.933594 212.304688 C 119.097656 212.640625 119.289062 213.015625 119.507812 213.433594 C 119.566406 213.546875 119.625 213.660156 119.6875 213.773438 C 119.660156 213.804688 119.609375 213.769531 119.539062 213.660156 C 119.441406 213.511719 119.289062 213.414062 119.203125 213.441406 C 119.097656 213.480469 119.824219 214.59375 120.59375 215.496094 C 120.65625 215.621094 120.707031 215.734375 120.738281 215.808594 C 120.886719 216.167969 121.480469 217.054688 122.097656 217.722656 C 122.714844 218.390625 123.085938 218.804688 122.886719 218.695312 C 122.65625 218.574219 122.816406 218.804688 123.328125 219.273438 C 123.785156 219.6875 124.507812 220.335938 124.9375 220.71875 C 125.25 221 125.410156 221.136719 125.730469 221.398438 C 125.613281 221.164062 125.558594 221.050781 125.445312 220.8125 C 125.289062 220.484375 124.921875 219.96875 124.628906 219.660156 C 124.550781 219.578125 124.445312 219.457031 124.324219 219.320312 C 124.238281 219.195312 124.085938 219 123.859375 218.722656 C 123.675781 218.492188 123.507812 218.292969 123.367188 218.125 C 123.320312 218.0625 123.273438 218 123.226562 217.9375 C 122.757812 217.285156 121.914062 216.183594 121.359375 215.46875 C 120.414062 214.261719 119.226562 211.558594 119.898438 212.570312 C 120.289062 213.160156 120.246094 212.898438 119.816406 211.664062 C 119.363281 210.363281 119.132812 209.777344 119.003906 209.929688 C 118.949219 209.996094 118.976562 210.183594 119.066406 210.351562 C 119.152344 210.515625 119.3125 210.984375 119.433594 211.390625 C 119.515625 211.683594 119.5625 211.828125 119.652344 212.117188 C 119.488281 211.785156 119.40625 211.617188 119.25 211.277344 C 119.011719 210.757812 118.699219 210.273438 118.445312 210.046875 C 117.960938 209.613281 117.847656 209.949219 118.644531 211.6875 Z M 122.011719 215.910156 C 122.121094 216.132812 122.207031 216.207031 122.214844 216.082031 C 122.222656 215.964844 122.003906 215.480469 121.742188 214.984375 C 121.480469 214.488281 121.269531 214.046875 121.265625 214.019531 C 121.257812 213.992188 121.230469 214.046875 121.207031 214.148438 C 121.183594 214.25 121.308594 214.601562 121.492188 214.929688 C 121.675781 215.257812 121.910156 215.695312 122.011719 215.910156 Z M 117.648438 216.3125 C 117.75 216.371094 117.753906 216.308594 117.660156 216.152344 C 117.578125 216.007812 117.503906 215.964844 117.496094 216.050781 C 117.488281 216.140625 117.558594 216.257812 117.648438 216.3125 Z M 117.191406 216.792969 C 117.222656 216.917969 117.335938 217.097656 117.445312 217.1875 C 117.554688 217.277344 117.53125 217.175781 117.390625 216.960938 C 117.253906 216.742188 117.164062 216.667969 117.191406 216.792969 Z M 114.605469 211.765625 C 114.636719 212.15625 114.695312 212.535156 114.726562 212.609375 C 114.835938 212.855469 114.988281 212.515625 114.921875 212.183594 C 114.886719 212.003906 114.785156 211.675781 114.703125 211.457031 C 114.570312 211.101562 114.554688 211.132812 114.605469 211.765625 Z M 115.390625 212.042969 C 115.519531 211.894531 115.492188 211.773438 115.300781 211.519531 C 114.613281 210.613281 114.558594 210.582031 114.890625 211.417969 C 115.140625 212.058594 115.261719 212.195312 115.390625 212.042969 Z M 113.660156 213.722656 C 113.679688 213.714844 113.675781 213.671875 113.652344 213.597656 C 113.65625 213.636719 113.65625 213.679688 113.660156 213.722656 Z M 119.988281 220.585938 C 119.996094 220.59375 120.003906 220.601562 120.015625 220.613281 C 120.554688 221.191406 120.792969 221.335938 120.75 221.128906 C 120.675781 220.773438 119.683594 219.664062 119.410156 219.605469 C 119.402344 219.59375 119.394531 219.585938 119.386719 219.578125 C 118.867188 218.96875 118.664062 218.773438 118.695312 218.992188 C 118.742188 219.371094 119.707031 220.507812 119.988281 220.585938 Z M 117.878906 210.03125 C 117.789062 209.835938 117.726562 209.785156 117.738281 209.917969 C 117.753906 210.050781 117.832031 210.214844 117.90625 210.273438 C 117.984375 210.335938 117.96875 210.226562 117.878906 210.03125 Z M 115.460938 210.972656 C 115.546875 211.019531 115.292969 210.34375 114.929688 209.425781 C 113.933594 206.882812 113.808594 206.59375 114.574219 208.882812 C 114.953125 210.015625 115.378906 210.925781 115.460938 210.972656 Z M 133.972656 230.160156 C 134.171875 230.300781 134.273438 230.371094 134.480469 230.507812 C 134.53125 230.542969 134.597656 230.578125 134.667969 230.613281 C 134.910156 230.539062 135.152344 230.460938 135.394531 230.375 C 135.296875 230.363281 135.207031 230.355469 135.125 230.34375 C 134.660156 230.28125 134.429688 230.242188 133.972656 230.160156 Z M 129.707031 230.445312 C 130.582031 230.707031 131.027344 230.820312 131.941406 231.003906 C 132.125 231.039062 132.308594 231.074219 132.480469 231.109375 C 132.632812 231.082031 132.785156 231.054688 132.933594 231.027344 C 132.683594 230.992188 132.40625 230.953125 132.109375 230.910156 C 131.128906 230.769531 130.648438 230.675781 129.707031 230.445312 Z M 130.019531 228.125 C 130.253906 228.191406 130.382812 228.191406 130.308594 228.121094 C 130.234375 228.050781 130.042969 227.996094 129.882812 227.996094 C 129.726562 227.996094 129.785156 228.054688 130.019531 228.125 Z M 130.40625 224.6875 C 130.628906 224.824219 130.855469 224.957031 130.90625 224.984375 C 130.957031 225.011719 131.023438 224.980469 131.058594 224.914062 C 131.09375 224.847656 130.972656 224.730469 130.792969 224.652344 C 130.613281 224.574219 130.382812 224.386719 130.28125 224.238281 C 130.136719 224.023438 130.089844 224.015625 130.050781 224.199219 C 130.023438 224.324219 130.179688 224.546875 130.40625 224.6875 Z M 133.566406 223.082031 C 133.65625 223.363281 135.527344 223.664062 135.566406 223.414062 C 135.582031 223.273438 135.355469 223.1875 134.886719 223.136719 C 134.503906 223.09375 134.132812 223.027344 134.0625 223.003906 C 133.988281 222.980469 133.542969 222.851562 133.078125 222.699219 C 132.613281 222.546875 132.519531 222.527344 132.867188 222.664062 C 133.21875 222.800781 133.535156 222.980469 133.566406 223.082031 Z M 136.808594 224.777344 C 137.09375 224.789062 137.300781 224.746094 137.269531 224.6875 C 137.242188 224.625 136.851562 224.566406 136.410156 224.539062 C 135.539062 224.484375 134.5625 224.710938 134.40625 225.046875 C 134.351562 225.167969 134.179688 225.277344 134.023438 225.292969 C 133.867188 225.308594 133.953125 225.367188 134.210938 225.421875 C 134.472656 225.476562 134.917969 225.40625 135.207031 225.269531 C 135.585938 225.089844 135.890625 225.0625 136.351562 225.152344 C 136.976562 225.273438 137.117188 225.070312 136.5625 224.855469 C 136.398438 224.792969 136.496094 224.765625 136.808594 224.777344 Z M 136.453125 225.929688 C 136.324219 225.878906 136.089844 225.859375 135.929688 225.882812 C 135.765625 225.910156 135.871094 225.957031 136.160156 225.980469 C 136.445312 226.003906 136.578125 225.980469 136.453125 225.929688 Z M 138.121094 228.855469 C 137.972656 228.90625 137.996094 228.945312 138.179688 228.949219 C 138.351562 228.949219 138.460938 228.910156 138.425781 228.859375 C 138.394531 228.808594 138.253906 228.804688 138.121094 228.855469 Z M 134.027344 226.140625 C 133.828125 226.148438 133.960938 226.207031 134.324219 226.257812 C 134.6875 226.3125 134.851562 226.300781 134.683594 226.238281 C 134.519531 226.175781 134.222656 226.128906 134.027344 226.140625 Z M 135.496094 226.339844 C 135.375 226.375 135.445312 226.417969 135.648438 226.441406 C 135.855469 226.460938 135.957031 226.429688 135.871094 226.375 C 135.789062 226.324219 135.617188 226.308594 135.496094 226.339844 Z M 140.082031 227.75 C 140.128906 227.710938 140.175781 227.671875 140.222656 227.632812 C 140.144531 227.636719 140.0625 227.652344 139.992188 227.679688 C 139.882812 227.726562 139.925781 227.753906 140.082031 227.75 Z M 138.484375 224.730469 C 138.355469 224.6875 138.085938 224.679688 137.882812 224.710938 C 137.679688 224.742188 137.785156 224.777344 138.113281 224.792969 C 138.445312 224.804688 138.613281 224.773438 138.484375 224.730469 Z M 136.394531 223.695312 C 136.625 223.644531 136.738281 223.617188 136.964844 223.558594 C 136.785156 223.492188 136.695312 223.460938 136.515625 223.390625 C 136.027344 223.207031 135.785156 223.253906 136 223.507812 C 136.105469 223.632812 136.070312 223.675781 135.832031 223.707031 C 135.664062 223.730469 135.59375 223.765625 135.675781 223.789062 C 135.757812 223.808594 136.082031 223.773438 136.394531 223.695312 Z M 137.273438 223.808594 C 137.539062 223.828125 137.570312 223.800781 137.445312 223.664062 C 137.25 223.445312 137.097656 223.429688 137.011719 223.628906 C 136.972656 223.714844 137.089844 223.796875 137.273438 223.808594 Z M 140.304688 227.164062 C 139.824219 227.179688 139.742188 227.136719 139.964844 227.011719 C 140.351562 226.792969 140.109375 226.824219 139.234375 227.066406 C 138.84375 227.171875 137.617188 227.265625 136.539062 227.191406 C 134.488281 227.058594 133.996094 226.988281 133.855469 227.300781 C 133.792969 227.441406 134.238281 227.5625 135.75 227.585938 C 138.519531 227.625 141.074219 227.136719 140.304688 227.164062 Z M 137.480469 226.542969 C 137.777344 226.550781 137.914062 226.519531 137.78125 226.476562 C 137.644531 226.433594 137.402344 226.425781 137.238281 226.460938 C 137.074219 226.496094 137.183594 226.53125 137.480469 226.542969 Z M 139.125 226.53125 C 139.644531 226.519531 139.890625 226.476562 139.664062 226.449219 C 139.441406 226.421875 139.015625 226.4375 138.71875 226.472656 C 138.421875 226.511719 138.601562 226.542969 139.125 226.53125 Z M 141.855469 224.914062 C 141.761719 224.882812 141.582031 224.898438 141.457031 224.953125 C 141.332031 225.003906 141.410156 225.03125 141.628906 225.011719 C 141.847656 224.992188 141.949219 224.949219 141.855469 224.914062 Z M 137.121094 229.007812 C 137.148438 228.945312 136.640625 228.898438 136.007812 228.882812 C 135.371094 228.867188 133.882812 228.761719 132.730469 228.574219 C 131.582031 228.390625 130.695312 228.207031 130.714844 228.265625 C 130.757812 228.375 131.074219 229.34375 137.710938 229.351562 C 137.847656 229.277344 137.984375 229.199219 138.121094 229.117188 C 137.535156 229.125 137.097656 229.070312 137.121094 229.007812 Z M 122.292969 187.625 C 122.335938 187.390625 122.363281 187.042969 122.355469 186.851562 C 122.339844 186.503906 122.339844 186.503906 122.253906 186.933594 C 122.207031 187.167969 122.179688 187.515625 122.191406 187.707031 C 122.210938 188.050781 122.210938 188.050781 122.292969 187.625 Z M 130.9375 224.074219 C 131.15625 224.152344 131.277344 224.152344 131.207031 224.082031 C 131.140625 224.007812 130.960938 223.949219 130.8125 223.941406 C 130.664062 223.941406 130.71875 224 130.9375 224.074219 Z M 126.808594 230.746094 C 126.667969 230.753906 126.683594 230.800781 126.847656 230.871094 C 126.996094 230.929688 127.101562 230.921875 127.078125 230.855469 C 127.058594 230.785156 126.9375 230.738281 126.808594 230.746094 Z M 125.816406 230.363281 C 125.675781 230.367188 125.691406 230.417969 125.851562 230.492188 C 125.996094 230.558594 126.097656 230.554688 126.078125 230.484375 C 126.058594 230.414062 125.941406 230.359375 125.816406 230.363281 Z M 123.253906 229.40625 C 123.15625 229.441406 123.613281 229.726562 124.289062 230.003906 C 124.777344 230.203125 125.027344 230.296875 125.53125 230.472656 C 125.097656 230.265625 124.886719 230.160156 124.464844 229.933594 C 123.886719 229.625 123.351562 229.371094 123.253906 229.40625 Z M 126.46875 223.269531 C 126.59375 223.351562 126.6875 223.351562 126.675781 223.28125 C 126.664062 223.207031 126.5625 223.140625 126.449219 223.136719 C 126.324219 223.128906 126.332031 223.183594 126.46875 223.269531 Z M 127.464844 221.8125 C 127.585938 221.890625 127.679688 221.894531 127.667969 221.820312 C 127.65625 221.746094 127.558594 221.683594 127.445312 221.679688 C 127.324219 221.675781 127.332031 221.726562 127.464844 221.8125 Z M 123.035156 227.289062 C 123.027344 227.226562 121.792969 226.390625 120.4375 225.195312 C 118.753906 223.707031 118.117188 222.757812 118.148438 222.589844 C 118.171875 222.433594 118.019531 222.097656 117.828125 221.796875 C 117.910156 221.824219 117.90625 221.765625 117.804688 221.636719 C 117.726562 221.53125 117.660156 221.488281 117.636719 221.523438 C 117.472656 221.316406 117.320312 221.1875 117.261719 221.265625 C 117.136719 221.441406 117.285156 221.871094 117.972656 222.914062 C 118.476562 223.679688 123.066406 227.464844 123.035156 227.289062 Z M 124.148438 224.203125 C 124.105469 224.179688 124.054688 224.148438 124 224.109375 C 123.953125 224.078125 123.914062 224.050781 123.878906 224.023438 C 123.8125 224.011719 123.742188 224.007812 123.664062 224.011719 C 123.449219 224.03125 123.445312 224.070312 123.65625 224.21875 C 123.796875 224.316406 123.988281 224.351562 124.078125 224.292969 C 124.125 224.265625 124.144531 224.234375 124.148438 224.203125 Z M 124.6875 224.359375 C 124.476562 224.546875 123.789062 224.53125 123.507812 224.324219 C 123.398438 224.246094 123.269531 224.011719 123.21875 223.800781 C 123.1875 223.675781 123.171875 223.582031 123.179688 223.519531 C 123.144531 223.496094 123.109375 223.46875 123.066406 223.441406 C 122.785156 223.226562 122.6875 223.105469 122.851562 223.179688 C 122.964844 223.230469 123.109375 223.332031 123.230469 223.433594 C 123.324219 223.386719 123.570312 223.507812 124.089844 223.792969 C 124.683594 224.121094 124.824219 224.234375 124.6875 224.359375 Z M 125.222656 220.136719 C 125.375 220.25 125.457031 220.261719 125.40625 220.164062 C 125.355469 220.066406 125.234375 219.976562 125.132812 219.960938 C 125.03125 219.945312 125.070312 220.027344 125.222656 220.136719 Z M 126.007812 222.964844 C 126.042969 222.816406 125.902344 222.539062 125.699219 222.34375 C 125.257812 221.917969 123.933594 221.160156 123.832031 221.320312 C 123.738281 221.46875 124.933594 222.625 125.167969 222.601562 C 125.265625 222.59375 125.300781 222.675781 125.242188 222.789062 C 125.15625 222.941406 125.171875 222.957031 125.304688 222.839844 C 125.410156 222.746094 125.5625 222.792969 125.707031 222.960938 C 125.890625 223.171875 125.957031 223.171875 126.007812 222.964844 Z M 121.121094 223.132812 C 121.019531 223.042969 120.863281 223.003906 120.773438 223.050781 C 120.566406 223.160156 120.710938 223.292969 121.046875 223.296875 C 121.269531 223.300781 121.28125 223.277344 121.121094 223.132812 Z M 125.121094 226.4375 C 124.96875 226.453125 124.242188 226.113281 123.542969 225.636719 C 123.285156 225.460938 123.058594 225.300781 122.847656 225.152344 C 122.910156 225.25 122.941406 225.351562 122.917969 225.441406 C 122.847656 225.71875 122.703125 225.664062 122.234375 225.125 C 121.992188 224.84375 122.042969 224.679688 122.25 224.71875 C 120.890625 223.714844 120.746094 223.4375 120.417969 223.261719 C 120.058594 223.066406 120.027344 222.988281 120.191406 222.742188 C 120.445312 222.363281 120.121094 222.054688 119.632812 222.195312 C 119.460938 222.242188 119.324219 222.238281 119.222656 222.195312 C 119.765625 222.765625 120.183594 223.234375 120.140625 223.300781 C 120.066406 223.414062 118.316406 221.519531 118.160156 221.117188 C 118.125 221.03125 118.507812 221.449219 119.046875 222.011719 C 119.003906 221.90625 119 221.765625 119.039062 221.59375 C 119.105469 221.289062 119.199219 221.214844 119.503906 221.234375 C 119.867188 221.253906 119.855469 221.238281 119.359375 220.667969 C 119.070312 220.339844 118.894531 220.003906 118.953125 219.921875 C 119.019531 219.828125 119.378906 220.195312 119.980469 220.863281 C 120.503906 221.445312 120.863281 221.878906 120.757812 221.871094 C 120.511719 221.855469 120.441406 222.273438 120.65625 222.476562 C 120.75 222.5625 121.039062 222.613281 121.308594 222.585938 C 121.632812 222.554688 121.769531 222.601562 121.722656 222.746094 C 121.6875 222.863281 121.550781 222.957031 121.421875 222.957031 C 121.242188 222.953125 121.234375 223 121.394531 223.160156 C 121.8125 223.5625 122.78125 224.222656 123.015625 224.289062 C 123.144531 224.324219 123.273438 224.539062 123.300781 224.765625 C 123.339844 225.09375 123.546875 225.328125 124.359375 225.820312 C 125.027344 226.222656 125.304688 226.421875 125.121094 226.4375 Z M 129.167969 230.292969 C 129.023438 230.3125 129.042969 230.359375 129.210938 230.414062 C 129.359375 230.460938 129.464844 230.449219 129.445312 230.382812 C 129.421875 230.316406 129.296875 230.277344 129.167969 230.292969 Z M 129.992188 225.804688 C 129.972656 225.738281 129.859375 225.691406 129.738281 225.703125 C 129.605469 225.714844 129.617188 225.765625 129.773438 225.824219 C 129.910156 225.882812 130.011719 225.871094 129.992188 225.804688 Z M 121.917969 227.660156 C 122.144531 227.707031 122.09375 227.65625 121.738281 227.394531 C 121.625 227.3125 121.515625 227.253906 121.425781 227.21875 C 121.171875 226.988281 120.894531 226.734375 120.585938 226.441406 C 120.496094 226.355469 120.402344 226.265625 120.3125 226.175781 C 120.335938 226.144531 120.402344 226.164062 120.503906 226.246094 C 120.648438 226.355469 120.839844 226.40625 120.933594 226.355469 C 121.050781 226.285156 119.964844 225.410156 118.96875 224.621094 C 118.90625 224.539062 118.855469 224.460938 118.820312 224.402344 C 118.625 224.058594 117.910156 223.195312 117.269531 222.425781 C 116.628906 221.65625 116.300781 221.105469 116.496094 221.261719 C 116.714844 221.441406 116.554688 221.175781 116.09375 220.53125 C 115.6875 219.960938 115.101562 218.984375 114.789062 218.363281 C 114.5625 217.910156 114.453125 217.679688 114.238281 217.210938 C 114.285156 217.542969 114.3125 217.707031 114.363281 218.035156 C 114.4375 218.484375 114.679688 219.238281 114.910156 219.699219 C 114.960938 219.800781 115.03125 219.9375 115.105469 220.089844 C 115.148438 220.222656 115.292969 220.53125 115.542969 221.007812 C 115.777344 221.449219 115.984375 221.808594 116.140625 222.054688 C 116.59375 222.863281 117.5 224.085938 118.175781 224.773438 C 119.332031 225.953125 121.34375 228.050781 120.316406 227.316406 C 119.722656 226.890625 119.800781 227.152344 120.636719 228.097656 C 121.0625 228.582031 121.402344 228.90625 121.652344 229.09375 L 121.992188 229.285156 C 122.066406 229.304688 122.113281 229.292969 122.140625 229.25 C 122.183594 229.175781 122.089844 229.035156 121.929688 228.9375 C 121.769531 228.835938 121.425781 228.515625 121.171875 228.210938 C 120.988281 227.988281 120.898438 227.878906 120.71875 227.652344 C 120.996094 227.894531 121.136719 228.011719 121.421875 228.242188 C 121.859375 228.589844 122.398438 228.847656 122.785156 228.902344 C 123.539062 229.015625 123.371094 228.960938 121.917969 227.660156 Z M 117.425781 224.328125 C 117.296875 224.089844 117.199219 224.011719 117.199219 224.140625 C 117.195312 224.261719 117.460938 224.78125 117.804688 225.273438 C 118.144531 225.769531 118.449219 226.179688 118.460938 226.207031 C 118.476562 226.234375 118.496094 226.171875 118.507812 226.074219 C 118.519531 225.972656 118.328125 225.640625 118.085938 225.320312 C 117.84375 225 117.550781 224.550781 117.425781 224.328125 Z M 122.167969 223.539062 C 122.285156 223.640625 122.375 223.65625 122.367188 223.578125 C 122.359375 223.5 122.265625 223.414062 122.15625 223.394531 C 122.039062 223.367188 122.042969 223.425781 122.167969 223.539062 Z M 122.582031 222.847656 C 122.53125 222.746094 122.382812 222.621094 122.25 222.566406 C 122.117188 222.515625 122.15625 222.601562 122.339844 222.753906 C 122.523438 222.90625 122.632812 222.949219 122.582031 222.847656 Z M 126.265625 225.433594 C 126.367188 225.535156 126.589844 225.695312 126.765625 225.789062 C 127.046875 225.9375 127.046875 225.910156 126.773438 225.523438 C 126.601562 225.28125 126.417969 225.058594 126.355469 225.023438 C 126.152344 224.917969 126.078125 225.246094 126.265625 225.433594 Z M 126.5625 225.933594 C 126.042969 225.667969 125.867188 225.628906 125.765625 225.8125 C 125.667969 225.988281 125.734375 226.066406 126.046875 226.121094 C 127.160156 226.320312 127.242188 226.277344 126.5625 225.933594 Z M 128.808594 222.515625 C 128.910156 222.5625 129.007812 222.574219 129.027344 222.542969 C 129.046875 222.507812 128.996094 222.402344 128.921875 222.308594 C 128.847656 222.210938 128.75 222.199219 128.703125 222.28125 C 128.660156 222.359375 128.707031 222.46875 128.808594 222.515625 Z M 127.328125 223.734375 C 127.457031 223.804688 127.550781 223.804688 127.539062 223.734375 C 127.523438 223.664062 127.421875 223.601562 127.308594 223.601562 C 127.179688 223.597656 127.1875 223.652344 127.328125 223.734375 Z M 123.363281 228.464844 C 123.25 228.457031 123.300781 228.535156 123.480469 228.632812 C 123.660156 228.734375 123.753906 228.738281 123.6875 228.648438 C 123.621094 228.554688 123.476562 228.472656 123.363281 228.464844 Z M 128.464844 224.445312 C 128.644531 224.523438 128.734375 224.519531 128.667969 224.4375 C 128.601562 224.355469 128.457031 224.292969 128.347656 224.296875 C 128.234375 224.300781 128.289062 224.367188 128.464844 224.445312 Z M 127.261719 227.238281 C 126.460938 226.929688 125.929688 226.613281 126.046875 226.59375 C 126.164062 226.570312 126.984375 226.925781 127.910156 227.300781 C 129.789062 228.0625 129.480469 228.085938 127.261719 227.238281 " fill-opacity="1" fill-rule="nonzero"/></svg>