<svg xmlns="http://www.w3.org/2000/svg" xmlns:xlink="http://www.w3.org/1999/xlink" width="500" zoomAndPan="magnify" viewBox="0 0 375 374.999991" height="500" preserveAspectRatio="xMidYMid meet" version="1.0"><path fill="#ffc501" d="M 363.128906 337.972656 C 245.320312 337.972656 127.511719 337.972656 9.707031 337.972656 C 11.988281 341.953125 14.277344 345.941406 16.5625 349.921875 C 74.375 243.144531 132.195312 136.363281 190.007812 29.582031 C 185.4375 29.582031 180.867188 29.582031 176.296875 29.582031 C 236.289062 136.363281 296.277344 243.148438 356.273438 349.921875 C 361.289062 358.851562 375.007812 350.847656 369.984375 341.910156 C 309.992188 235.128906 250.003906 128.347656 190.007812 21.570312 C 187.144531 16.464844 179.128906 16.335938 176.296875 21.570312 C 118.484375 128.347656 60.664062 235.128906 2.847656 341.910156 C 0.0078125 347.152344 3.539062 353.859375 9.707031 353.859375 C 127.511719 353.859375 245.320312 353.859375 363.128906 353.859375 C 373.371094 353.859375 373.371094 337.972656 363.128906 337.972656 Z M 363.128906 337.972656 " fill-opacity="1" fill-rule="nonzero"/><path fill="#ffc501" d="M 192.898438 292.164062 C 192.414062 301.613281 178.972656 301.683594 178.496094 292.164062 C 178.035156 282.921875 192.425781 283.007812 192.898438 292.164062 C 193.421875 302.359375 209.308594 302.410156 208.78125 292.164062 C 208.101562 279.039062 198.679688 269.851562 185.59375 269.191406 C 172.621094 268.542969 163.234375 280.160156 162.617188 292.164062 C 161.945312 305.242188 173.445312 314.742188 185.59375 315.363281 C 198.710938 316.035156 208.160156 304.300781 208.78125 292.164062 C 209.300781 281.921875 193.421875 281.976562 192.898438 292.164062 Z M 192.898438 292.164062 " fill-opacity="1" fill-rule="nonzero"/><path fill="#ffc501" d="M 200.203125 234.402344 C 190.394531 234.402344 180.582031 234.402344 170.769531 234.402344 C 173.417969 237.050781 176.066406 239.699219 178.710938 242.34375 C 177.582031 211.722656 176.449219 181.105469 175.320312 150.488281 C 172.675781 153.132812 170.027344 155.78125 167.382812 158.429688 C 179.519531 158.429688 191.65625 158.429688 203.792969 158.429688 C 201.148438 155.78125 198.5 153.132812 195.851562 150.488281 C 194.652344 181.105469 193.460938 211.722656 192.261719 242.34375 C 191.859375 252.59375 207.742188 252.554688 208.140625 242.34375 C 209.339844 211.722656 210.535156 181.105469 211.734375 150.488281 C 211.90625 146.160156 208 142.542969 203.796875 142.542969 C 191.65625 142.542969 179.519531 142.542969 167.382812 142.542969 C 163.175781 142.542969 159.28125 146.160156 159.441406 150.488281 C 160.570312 181.105469 161.703125 211.722656 162.835938 242.34375 C 162.992188 246.667969 166.324219 250.285156 170.773438 250.285156 C 180.582031 250.285156 190.394531 250.285156 200.203125 250.285156 C 210.441406 250.289062 210.441406 234.402344 200.203125 234.402344 Z M 200.203125 234.402344 " fill-opacity="1" fill-rule="nonzero"/></svg>