<svg xmlns="http://www.w3.org/2000/svg" xmlns:xlink="http://www.w3.org/1999/xlink" width="500" zoomAndPan="magnify" viewBox="0 0 375 374.999991" height="500" preserveAspectRatio="xMidYMid meet" version="1.0"><defs><g/><clipPath id="id1"><path d="M 0.148438 120.203125 L 310 120.203125 L 310 305.625 L 0.148438 305.625 Z M 0.148438 120.203125 " clip-rule="nonzero"/></clipPath><clipPath id="id2"><path d="M 79.644531 69.4375 L 83.710938 69.4375 L 83.710938 69.636719 L 79.644531 69.636719 Z M 76.597656 69.636719 L 83.710938 69.636719 L 83.710938 69.84375 L 76.597656 69.84375 Z M 73.339844 69.84375 L 83.710938 69.84375 L 83.710938 70.042969 L 73.339844 70.042969 Z M 70.289062 70.042969 L 83.710938 70.042969 L 83.710938 70.25 L 70.289062 70.25 Z M 67.238281 70.25 L 83.710938 70.25 L 83.710938 70.457031 L 67.238281 70.457031 Z M 64.191406 70.457031 L 83.710938 70.457031 L 83.710938 70.652344 L 64.191406 70.652344 Z M 61.140625 70.652344 L 83.710938 70.652344 L 83.710938 70.859375 L 61.140625 70.859375 Z M 58.089844 70.859375 L 83.503906 70.859375 L 83.503906 71.058594 L 58.089844 71.058594 Z M 55.042969 71.058594 L 83.503906 71.058594 L 83.503906 71.265625 L 55.042969 71.265625 Z M 51.992188 71.265625 L 83.503906 71.265625 L 83.503906 71.472656 L 51.992188 71.472656 Z M 48.941406 71.472656 L 83.503906 71.472656 L 83.503906 71.671875 L 48.941406 71.671875 Z M 45.6875 71.671875 L 83.503906 71.671875 L 83.503906 71.875 L 45.6875 71.875 Z M 42.636719 71.875 L 83.503906 71.875 L 83.503906 72.074219 L 42.636719 72.074219 Z M 39.585938 72.074219 L 83.503906 72.074219 L 83.503906 72.28125 L 39.585938 72.28125 Z M 36.535156 72.28125 L 83.503906 72.28125 L 83.503906 72.488281 L 36.535156 72.488281 Z M 33.488281 72.488281 L 83.503906 72.488281 L 83.503906 72.6875 L 33.488281 72.6875 Z M 30.4375 72.6875 L 83.503906 72.6875 L 83.503906 72.894531 L 30.4375 72.894531 Z M 27.386719 72.894531 L 83.296875 72.894531 L 83.296875 73.09375 L 27.386719 73.09375 Z M 24.339844 73.09375 L 83.296875 73.09375 L 83.296875 73.296875 L 24.339844 73.296875 Z M 21.289062 73.296875 L 83.296875 73.296875 L 83.296875 73.503906 L 21.289062 73.503906 Z M 18.039062 73.503906 L 83.296875 73.503906 L 83.296875 73.703125 L 18.039062 73.703125 Z M 14.992188 73.703125 L 83.296875 73.703125 L 83.296875 73.910156 L 14.992188 73.910156 Z M 14.378906 73.910156 L 83.296875 73.910156 L 83.296875 74.925781 L 14.378906 74.925781 Z M 14.585938 74.925781 L 83.296875 74.925781 L 83.296875 75.125 L 14.585938 75.125 Z M 14.585938 75.125 L 83.101562 75.125 L 83.101562 75.941406 L 14.585938 75.941406 Z M 14.785156 75.941406 L 83.101562 75.941406 L 83.101562 77.15625 L 14.785156 77.15625 Z M 14.992188 77.15625 L 82.894531 77.15625 L 82.894531 78.382812 L 14.992188 78.382812 Z M 15.1875 78.382812 L 82.894531 78.382812 L 82.894531 79.398438 L 15.1875 79.398438 Z M 15.394531 79.398438 L 82.695312 79.398438 L 82.695312 80.621094 L 15.394531 80.621094 Z M 15.601562 80.621094 L 82.695312 80.621094 L 82.695312 81.429688 L 15.601562 81.429688 Z M 15.601562 81.429688 L 82.488281 81.429688 L 82.488281 81.636719 L 15.601562 81.636719 Z M 15.800781 81.636719 L 82.488281 81.636719 L 82.488281 82.851562 L 15.800781 82.851562 Z M 16.007812 82.851562 L 82.488281 82.851562 L 82.488281 83.464844 L 16.007812 83.464844 Z M 16.007812 83.464844 L 82.28125 83.464844 L 82.28125 83.867188 L 16.007812 83.867188 Z M 16.207031 83.867188 L 82.28125 83.867188 L 82.28125 85.09375 L 16.207031 85.09375 Z M 16.410156 85.09375 L 82.28125 85.09375 L 82.28125 85.703125 L 16.410156 85.703125 Z M 16.410156 85.703125 L 82.082031 85.703125 L 82.082031 86.109375 L 16.410156 86.109375 Z M 16.617188 86.109375 L 82.082031 86.109375 L 82.082031 87.324219 L 16.617188 87.324219 Z M 16.816406 87.324219 L 82.082031 87.324219 L 82.082031 87.738281 L 16.816406 87.738281 Z M 16.816406 87.738281 L 81.878906 87.738281 L 81.878906 88.546875 L 16.816406 88.546875 Z M 17.023438 88.546875 L 81.878906 88.546875 L 81.878906 89.5625 L 17.023438 89.5625 Z M 17.222656 89.5625 L 81.878906 89.5625 L 81.878906 89.96875 L 17.222656 89.96875 Z M 17.222656 89.96875 L 81.679688 89.96875 L 81.679688 90.785156 L 17.222656 90.785156 Z M 17.429688 90.785156 L 81.679688 90.785156 L 81.679688 91.804688 L 17.429688 91.804688 Z M 17.636719 91.804688 L 81.679688 91.804688 L 81.679688 92 L 17.636719 92 Z M 17.636719 92 L 81.472656 92 L 81.472656 93.019531 L 17.636719 93.019531 Z M 17.832031 93.019531 L 81.472656 93.019531 L 81.472656 94.035156 L 17.832031 94.035156 Z M 18.039062 94.035156 L 81.472656 94.035156 L 81.472656 94.242188 L 18.039062 94.242188 Z M 18.039062 94.242188 L 81.265625 94.242188 L 81.265625 95.257812 L 18.039062 95.257812 Z M 18.238281 95.257812 L 81.265625 95.257812 L 81.265625 96.273438 L 18.238281 96.273438 Z M 18.445312 96.273438 L 81.066406 96.273438 L 81.066406 97.488281 L 18.445312 97.488281 Z M 18.652344 97.488281 L 81.066406 97.488281 L 81.066406 98.308594 L 18.652344 98.308594 Z M 18.652344 98.308594 L 80.859375 98.308594 L 80.859375 98.710938 L 18.652344 98.710938 Z M 18.851562 98.710938 L 80.859375 98.710938 L 80.859375 99.730469 L 18.851562 99.730469 Z M 19.054688 99.730469 L 80.859375 99.730469 L 80.859375 100.539062 L 19.054688 100.539062 Z M 19.054688 100.539062 L 80.660156 100.539062 L 80.660156 100.953125 L 19.054688 100.953125 Z M 19.253906 100.953125 L 80.660156 100.953125 L 80.660156 101.96875 L 19.253906 101.96875 Z M 19.460938 101.96875 L 80.660156 101.96875 L 80.660156 102.570312 L 19.460938 102.570312 Z M 19.460938 102.570312 L 80.457031 102.570312 L 80.457031 103.183594 L 19.460938 103.183594 Z M 19.667969 103.183594 L 80.457031 103.183594 L 80.457031 104.199219 L 19.667969 104.199219 Z M 19.867188 104.199219 L 80.457031 104.199219 L 80.457031 104.8125 L 19.867188 104.8125 Z M 19.867188 104.8125 L 80.25 104.8125 L 80.25 105.421875 L 19.867188 105.421875 Z M 20.074219 105.421875 L 80.25 105.421875 L 80.25 106.441406 L 20.074219 106.441406 Z M 20.273438 106.441406 L 80.25 106.441406 L 80.25 106.84375 L 20.273438 106.84375 Z M 20.273438 106.84375 L 80.050781 106.84375 L 80.050781 107.65625 L 20.273438 107.65625 Z M 20.476562 107.65625 L 80.050781 107.65625 L 80.050781 108.878906 L 20.476562 108.878906 Z M 20.683594 108.878906 L 80.050781 108.878906 L 80.050781 109.085938 L 20.683594 109.085938 Z M 20.683594 109.085938 L 79.84375 109.085938 L 79.84375 109.894531 L 20.683594 109.894531 Z M 20.882812 109.894531 L 79.84375 109.894531 L 79.84375 111.117188 L 20.882812 111.117188 Z M 21.089844 111.117188 L 79.644531 111.117188 L 79.644531 112.132812 L 21.089844 112.132812 Z M 21.289062 112.132812 L 79.644531 112.132812 L 79.644531 113.347656 L 21.289062 113.347656 Z M 21.496094 113.347656 L 79.4375 113.347656 L 79.4375 114.367188 L 21.496094 114.367188 Z M 21.703125 114.367188 L 79.4375 114.367188 L 79.4375 115.382812 L 21.703125 115.382812 Z M 21.703125 115.382812 L 79.234375 115.382812 L 79.234375 115.589844 L 21.703125 115.589844 Z M 21.898438 115.589844 L 79.234375 115.589844 L 79.234375 116.605469 L 21.898438 116.605469 Z M 22.105469 116.605469 L 79.234375 116.605469 L 79.234375 117.414062 L 22.105469 117.414062 Z M 22.105469 117.414062 L 79.035156 117.414062 L 79.035156 117.820312 L 22.105469 117.820312 Z M 22.304688 117.820312 L 79.035156 117.820312 L 79.035156 118.835938 L 22.304688 118.835938 Z M 22.511719 118.835938 L 79.035156 118.835938 L 79.035156 119.65625 L 22.511719 119.65625 Z M 22.511719 119.65625 L 78.828125 119.65625 L 78.828125 120.058594 L 22.511719 120.058594 Z M 22.71875 120.058594 L 78.828125 120.058594 L 78.828125 121.285156 L 22.71875 121.285156 Z M 22.917969 121.285156 L 78.828125 121.285156 L 78.828125 121.6875 L 22.917969 121.6875 Z M 22.917969 121.6875 L 78.628906 121.6875 L 78.628906 122.300781 L 22.917969 122.300781 Z M 23.121094 122.300781 L 78.628906 122.300781 L 78.628906 123.515625 L 23.121094 123.515625 Z M 23.320312 123.515625 L 78.628906 123.515625 L 78.628906 123.921875 L 23.320312 123.921875 Z M 23.320312 123.921875 L 78.421875 123.921875 L 78.421875 124.53125 L 23.320312 124.53125 Z M 23.527344 124.53125 L 78.421875 124.53125 L 78.421875 125.753906 L 23.527344 125.753906 Z M 23.734375 125.753906 L 78.421875 125.753906 L 78.421875 125.953125 L 23.734375 125.953125 Z M 23.734375 125.953125 L 78.214844 125.953125 L 78.214844 126.769531 L 23.734375 126.769531 Z M 23.933594 126.769531 L 78.214844 126.769531 L 78.214844 127.988281 L 23.933594 127.988281 Z M 24.140625 127.988281 L 78.214844 127.988281 L 78.214844 128.191406 L 24.140625 128.191406 Z M 24.140625 128.191406 L 78.015625 128.191406 L 78.015625 129.003906 L 24.140625 129.003906 Z M 24.339844 129.003906 L 78.015625 129.003906 L 78.015625 130.226562 L 24.339844 130.226562 Z M 24.542969 130.226562 L 77.8125 130.226562 L 77.8125 131.449219 L 24.542969 131.449219 Z M 24.75 131.449219 L 77.8125 131.449219 L 77.8125 132.257812 L 24.75 132.257812 Z M 24.75 132.257812 L 77.613281 132.257812 L 77.613281 132.464844 L 24.75 132.464844 Z M 24.949219 132.464844 L 77.613281 132.464844 L 77.613281 133.679688 L 24.949219 133.679688 Z M 25.15625 133.679688 L 77.613281 133.679688 L 77.613281 134.5 L 25.15625 134.5 Z M 25.15625 134.5 L 77.40625 134.5 L 77.40625 134.699219 L 25.15625 134.699219 Z M 25.355469 134.699219 L 77.40625 134.699219 L 77.40625 135.921875 L 25.355469 135.921875 Z M 25.5625 135.921875 L 77.40625 135.921875 L 77.40625 136.53125 L 25.5625 136.53125 Z M 25.5625 136.53125 L 77.199219 136.53125 L 77.199219 136.9375 L 25.5625 136.9375 Z M 25.765625 136.9375 L 77.199219 136.9375 L 77.199219 138.152344 L 25.765625 138.152344 Z M 25.964844 138.152344 L 77.199219 138.152344 L 77.199219 138.761719 L 25.964844 138.761719 Z M 25.964844 138.761719 L 77 138.761719 L 77 139.167969 L 25.964844 139.167969 Z M 26.171875 139.167969 L 77 139.167969 L 77 140.390625 L 26.171875 140.390625 Z M 26.371094 140.390625 L 77 140.390625 L 77 140.796875 L 26.371094 140.796875 Z M 26.371094 140.796875 L 76.792969 140.796875 L 76.792969 141.613281 L 26.371094 141.613281 Z M 26.578125 141.613281 L 76.792969 141.613281 L 76.792969 142.632812 L 26.578125 142.632812 Z M 26.785156 142.632812 L 76.792969 142.632812 L 76.792969 143.035156 L 26.785156 143.035156 Z M 26.785156 143.035156 L 76.597656 143.035156 L 76.597656 143.847656 L 26.785156 143.847656 Z M 26.984375 143.847656 L 76.597656 143.847656 L 76.597656 144.863281 L 26.984375 144.863281 Z M 27.1875 144.863281 L 76.597656 144.863281 L 76.597656 145.070312 L 27.1875 145.070312 Z M 27.1875 145.070312 L 76.390625 145.070312 L 76.390625 146.085938 L 27.1875 146.085938 Z M 27.386719 146.085938 L 76.390625 146.085938 L 76.390625 147.101562 L 27.386719 147.101562 Z M 27.59375 147.101562 L 76.183594 147.101562 L 76.183594 148.316406 L 27.59375 148.316406 Z M 27.800781 148.316406 L 76.183594 148.316406 L 76.183594 149.335938 L 27.800781 149.335938 Z M 28 149.335938 L 75.984375 149.335938 L 75.984375 150.558594 L 28 150.558594 Z M 28.207031 150.558594 L 75.984375 150.558594 L 75.984375 151.367188 L 28.207031 151.367188 Z M 28.207031 151.367188 L 75.777344 151.367188 L 75.777344 151.574219 L 28.207031 151.574219 Z M 28.402344 151.574219 L 75.777344 151.574219 L 75.777344 152.796875 L 28.402344 152.796875 Z M 28.609375 152.796875 L 75.777344 152.796875 L 75.777344 153.605469 L 28.609375 153.605469 Z M 28.609375 153.605469 L 75.578125 153.605469 L 75.578125 154.011719 L 28.609375 154.011719 Z M 28.816406 154.011719 L 75.578125 154.011719 L 75.578125 155.027344 L 28.816406 155.027344 Z M 29.015625 155.027344 L 75.578125 155.027344 L 75.578125 155.640625 L 29.015625 155.640625 Z M 29.015625 155.640625 L 75.371094 155.640625 L 75.371094 156.25 L 29.015625 156.25 Z M 29.222656 156.25 L 75.371094 156.25 L 75.371094 157.269531 L 29.222656 157.269531 Z M 29.421875 157.269531 L 75.371094 157.269531 L 75.371094 157.878906 L 29.421875 157.878906 Z M 29.421875 157.878906 L 75.167969 157.878906 L 75.167969 158.484375 L 29.421875 158.484375 Z M 29.628906 158.484375 L 75.167969 158.484375 L 75.167969 159.5 L 29.628906 159.5 Z M 29.832031 159.5 L 75.167969 159.5 L 75.167969 159.914062 L 29.832031 159.914062 Z M 29.832031 159.914062 L 74.96875 159.914062 L 74.96875 160.722656 L 29.832031 160.722656 Z M 30.03125 160.722656 L 74.96875 160.722656 L 74.96875 161.738281 L 30.03125 161.738281 Z M 30.238281 161.738281 L 74.96875 161.738281 L 74.96875 162.144531 L 30.238281 162.144531 Z M 30.238281 162.144531 L 74.761719 162.144531 L 74.761719 162.960938 L 30.238281 162.960938 Z M 30.4375 162.960938 L 74.761719 162.960938 L 74.761719 164.179688 L 30.4375 164.179688 Z M 30.644531 164.179688 L 74.5625 164.179688 L 74.5625 165.195312 L 30.644531 165.195312 Z M 30.851562 165.195312 L 74.5625 165.195312 L 74.5625 166.210938 L 30.851562 166.210938 Z M 30.851562 166.210938 L 74.355469 166.210938 L 74.355469 166.417969 L 30.851562 166.417969 Z M 31.050781 166.417969 L 74.355469 166.417969 L 74.355469 167.433594 L 31.050781 167.433594 Z M 31.253906 167.433594 L 74.355469 167.433594 L 74.355469 168.449219 L 31.253906 168.449219 Z M 31.253906 168.449219 L 74.148438 168.449219 L 74.148438 168.648438 L 31.253906 168.648438 Z M 31.453125 168.648438 L 74.148438 168.648438 L 74.148438 169.664062 L 31.453125 169.664062 Z M 31.660156 169.664062 L 74.148438 169.664062 L 74.148438 170.484375 L 31.660156 170.484375 Z M 31.660156 170.484375 L 73.949219 170.484375 L 73.949219 170.886719 L 31.660156 170.886719 Z M 31.867188 170.886719 L 73.949219 170.886719 L 73.949219 171.90625 L 31.867188 171.90625 Z M 32.066406 171.90625 L 73.949219 171.90625 L 73.949219 172.714844 L 32.066406 172.714844 Z M 32.066406 172.714844 L 73.746094 172.714844 L 73.746094 173.128906 L 32.066406 173.128906 Z M 32.273438 173.128906 L 73.746094 173.128906 L 73.746094 174.34375 L 32.273438 174.34375 Z M 32.46875 174.34375 L 73.746094 174.34375 L 73.746094 174.75 L 32.46875 174.75 Z M 32.46875 174.75 L 73.546875 174.75 L 73.546875 175.359375 L 32.46875 175.359375 Z M 32.675781 175.359375 L 73.546875 175.359375 L 73.546875 176.582031 L 32.675781 176.582031 Z M 32.882812 176.582031 L 73.546875 176.582031 L 73.546875 176.988281 L 32.882812 176.988281 Z M 32.882812 176.988281 L 73.339844 176.988281 L 73.339844 177.597656 L 32.882812 177.597656 Z M 33.082031 177.597656 L 73.339844 177.597656 L 73.339844 178.816406 L 33.082031 178.816406 Z M 33.289062 178.816406 L 73.339844 178.816406 L 73.339844 179.019531 L 33.289062 179.019531 Z M 33.289062 179.019531 L 73.132812 179.019531 L 73.132812 179.832031 L 33.289062 179.832031 Z M 33.488281 179.832031 L 73.132812 179.832031 L 73.132812 181.054688 L 33.488281 181.054688 Z M 33.695312 181.054688 L 72.933594 181.054688 L 72.933594 182.070312 L 33.695312 182.070312 Z M 33.898438 182.070312 L 72.933594 182.070312 L 72.933594 183.292969 L 33.898438 183.292969 Z M 34.097656 183.292969 L 72.726562 183.292969 L 72.726562 184.308594 L 34.097656 184.308594 Z M 34.304688 184.308594 L 72.726562 184.308594 L 72.726562 185.328125 L 34.304688 185.328125 Z M 34.304688 185.328125 L 72.53125 185.328125 L 72.53125 185.527344 L 34.304688 185.527344 Z M 34.503906 185.527344 L 72.53125 185.527344 L 72.53125 186.75 L 34.503906 186.75 Z M 34.710938 186.75 L 72.53125 186.75 L 72.53125 187.558594 L 34.710938 187.558594 Z M 34.710938 187.558594 L 72.324219 187.558594 L 72.324219 187.765625 L 34.710938 187.765625 Z M 34.917969 187.765625 L 72.324219 187.765625 L 72.324219 188.980469 L 34.917969 188.980469 Z M 35.113281 188.980469 L 72.324219 188.980469 L 72.324219 189.59375 L 35.113281 189.59375 Z M 35.113281 189.59375 L 72.117188 189.59375 L 72.117188 189.996094 L 35.113281 189.996094 Z M 35.320312 189.996094 L 72.117188 189.996094 L 72.117188 191.21875 L 35.320312 191.21875 Z M 35.519531 191.21875 L 72.117188 191.21875 L 72.117188 191.832031 L 35.519531 191.832031 Z M 35.519531 191.832031 L 71.917969 191.832031 L 71.917969 192.238281 L 35.519531 192.238281 Z M 35.726562 192.238281 L 71.917969 192.238281 L 71.917969 193.460938 L 35.726562 193.460938 Z M 35.933594 193.460938 L 71.917969 193.460938 L 71.917969 193.863281 L 35.933594 193.863281 Z M 35.933594 193.863281 L 71.710938 193.863281 L 71.710938 194.476562 L 35.933594 194.476562 Z M 36.132812 194.476562 L 71.710938 194.476562 L 71.710938 195.691406 L 36.132812 195.691406 Z M 36.339844 195.691406 L 71.710938 195.691406 L 71.710938 195.898438 L 36.339844 195.898438 Z M 36.339844 195.898438 L 71.511719 195.898438 L 71.511719 196.914062 L 36.339844 196.914062 Z M 36.535156 196.914062 L 71.511719 196.914062 L 71.511719 197.929688 L 36.535156 197.929688 Z M 36.742188 197.929688 L 71.511719 197.929688 L 71.511719 198.128906 L 36.742188 198.128906 Z M 36.742188 198.128906 L 71.304688 198.128906 L 71.304688 199.144531 L 36.742188 199.144531 Z M 36.949219 199.144531 L 71.304688 199.144531 L 71.304688 200.164062 L 36.949219 200.164062 Z M 37.148438 200.164062 L 71.101562 200.164062 L 71.101562 201.386719 L 37.148438 201.386719 Z M 37.355469 201.386719 L 71.101562 201.386719 L 71.101562 202.402344 L 37.355469 202.402344 Z M 37.554688 202.402344 L 70.902344 202.402344 L 70.902344 203.625 L 37.554688 203.625 Z M 37.761719 203.625 L 70.902344 203.625 L 70.902344 204.433594 L 37.761719 204.433594 Z M 37.761719 204.433594 L 70.695312 204.433594 L 70.695312 204.640625 L 37.761719 204.640625 Z M 37.964844 204.640625 L 70.695312 204.640625 L 70.695312 205.855469 L 37.964844 205.855469 Z M 38.164062 205.855469 L 70.695312 205.855469 L 70.695312 206.675781 L 38.164062 206.675781 Z M 38.164062 206.675781 L 70.496094 206.675781 L 70.496094 207.078125 L 38.164062 207.078125 Z M 38.371094 207.078125 L 70.496094 207.078125 L 70.496094 208.097656 L 38.371094 208.097656 Z M 38.570312 208.097656 L 70.496094 208.097656 L 70.496094 208.707031 L 38.570312 208.707031 Z M 38.570312 208.707031 L 70.289062 208.707031 L 70.289062 209.3125 L 38.570312 209.3125 Z M 38.777344 209.3125 L 70.289062 209.3125 L 70.289062 210.328125 L 38.777344 210.328125 Z M 38.984375 210.328125 L 70.289062 210.328125 L 70.289062 210.941406 L 38.984375 210.941406 Z M 38.984375 210.941406 L 70.082031 210.941406 L 70.082031 211.550781 L 38.984375 211.550781 Z M 39.179688 211.550781 L 70.082031 211.550781 L 70.082031 212.566406 L 39.179688 212.566406 Z M 39.386719 212.566406 L 70.082031 212.566406 L 70.082031 212.972656 L 39.386719 212.972656 Z M 39.386719 212.972656 L 69.886719 212.972656 L 69.886719 213.789062 L 39.386719 213.789062 Z M 39.585938 213.789062 L 69.886719 213.789062 L 69.886719 214.808594 L 39.585938 214.808594 Z M 39.792969 214.808594 L 69.886719 214.808594 L 69.886719 215.007812 L 39.792969 215.007812 Z M 39.792969 215.007812 L 69.679688 215.007812 L 69.679688 216.023438 L 39.792969 216.023438 Z M 40 216.023438 L 69.679688 216.023438 L 69.679688 217.039062 L 40 217.039062 Z M 40.199219 217.039062 L 69.679688 217.039062 L 69.679688 217.246094 L 40.199219 217.246094 Z M 40.199219 217.246094 L 69.480469 217.246094 L 69.480469 218.261719 L 40.199219 218.261719 Z M 40.40625 218.261719 L 69.480469 218.261719 L 69.480469 219.277344 L 40.40625 219.277344 Z M 40.40625 219.277344 L 69.273438 219.277344 L 69.273438 219.476562 L 40.40625 219.476562 Z M 40.601562 219.476562 L 69.273438 219.476562 L 69.273438 220.492188 L 40.601562 220.492188 Z M 40.808594 220.492188 L 69.273438 220.492188 L 69.273438 221.511719 L 40.808594 221.511719 Z M 40.808594 221.511719 L 69.066406 221.511719 L 69.066406 221.71875 L 40.808594 221.71875 Z M 41.015625 221.71875 L 69.066406 221.71875 L 69.066406 222.734375 L 41.015625 222.734375 Z M 41.214844 222.734375 L 69.066406 222.734375 L 69.066406 223.542969 L 41.214844 223.542969 Z M 41.214844 223.542969 L 68.867188 223.542969 L 68.867188 223.957031 L 41.214844 223.957031 Z M 41.421875 223.957031 L 68.867188 223.957031 L 68.867188 224.972656 L 41.421875 224.972656 Z M 41.621094 224.972656 L 68.867188 224.972656 L 68.867188 225.785156 L 41.621094 225.785156 Z M 41.621094 225.785156 L 68.660156 225.785156 L 68.660156 226.1875 L 41.621094 226.1875 Z M 41.824219 226.1875 L 68.660156 226.1875 L 68.660156 227.203125 L 41.824219 227.203125 Z M 42.03125 227.203125 L 68.660156 227.203125 L 68.660156 227.816406 L 42.03125 227.816406 Z M 42.03125 227.816406 L 68.464844 227.816406 L 68.464844 228.429688 L 42.03125 228.429688 Z M 42.230469 228.429688 L 68.464844 228.429688 L 68.464844 229.644531 L 42.230469 229.644531 Z M 42.4375 229.644531 L 68.464844 229.644531 L 68.464844 229.847656 L 42.4375 229.847656 Z M 42.4375 229.847656 L 68.257812 229.847656 L 68.257812 230.660156 L 42.4375 230.660156 Z M 42.636719 230.660156 L 68.257812 230.660156 L 68.257812 231.882812 L 42.636719 231.882812 Z M 42.84375 231.882812 L 68.257812 231.882812 L 68.257812 232.089844 L 42.84375 232.089844 Z M 42.84375 232.089844 L 68.050781 232.089844 L 68.050781 232.898438 L 42.84375 232.898438 Z M 43.050781 232.898438 L 68.050781 232.898438 L 68.050781 234.121094 L 43.050781 234.121094 Z M 43.246094 234.121094 L 67.851562 234.121094 L 67.851562 235.140625 L 43.246094 235.140625 Z M 43.453125 235.140625 L 67.851562 235.140625 L 67.851562 236.355469 L 43.453125 236.355469 Z M 43.652344 236.355469 L 67.644531 236.355469 L 67.644531 237.371094 L 43.652344 237.371094 Z M 43.859375 237.371094 L 67.644531 237.371094 L 67.644531 238.386719 L 43.859375 238.386719 Z M 43.859375 238.386719 L 67.445312 238.386719 L 67.445312 238.59375 L 43.859375 238.59375 Z M 44.066406 238.59375 L 67.445312 238.59375 L 67.445312 239.808594 L 44.066406 239.808594 Z M 44.265625 239.808594 L 67.445312 239.808594 L 67.445312 240.625 L 44.265625 240.625 Z M 44.265625 240.625 L 67.238281 240.625 L 67.238281 240.824219 L 44.265625 240.824219 Z M 44.472656 240.824219 L 67.238281 240.824219 L 67.238281 241.238281 L 44.472656 241.238281 Z M 44.875 241.238281 L 67.238281 241.238281 L 67.238281 241.4375 L 44.875 241.4375 Z M 44.875 241.238281 " clip-rule="nonzero"/></clipPath><clipPath id="id3"><path d="M 83.632812 69.375 L 14.425781 73.957031 L 44.558594 241.238281 L 67.160156 241.285156 Z M 83.632812 69.375 " clip-rule="nonzero"/></clipPath><clipPath id="id4"><path d="M 46.179688 34.945312 L -71.203125 162.453125 L 51.886719 275.769531 L 169.261719 148.269531 Z M 46.179688 34.945312 " clip-rule="nonzero"/></clipPath><linearGradient x1="0.112114" gradientTransform="matrix(265.013634, 243.974364, -243.974364, 265.013634, -35.401809, 63.937068)" y1="0" x2="0.576578" gradientUnits="userSpaceOnUse" y2="0" id="id5"><stop stop-opacity="1" stop-color="rgb(99.198914%, 79.598999%, 16.893005%)" offset="0"/><stop stop-opacity="1" stop-color="rgb(99.198914%, 79.598999%, 16.697693%)" offset="0.015625"/><stop stop-opacity="1" stop-color="rgb(99.198914%, 79.496765%, 16.500854%)" offset="0.0234375"/><stop stop-opacity="1" stop-color="rgb(99.198914%, 79.290771%, 16.493225%)" offset="0.03125"/><stop stop-opacity="1" stop-color="rgb(99.198914%, 78.993225%, 16.293335%)" offset="0.0625"/><stop stop-opacity="1" stop-color="rgb(99.198914%, 78.69873%, 15.99884%)" offset="0.0703125"/><stop stop-opacity="1" stop-color="rgb(99.198914%, 78.495789%, 15.79895%)" offset="0.078125"/><stop stop-opacity="1" stop-color="rgb(99.198914%, 78.196716%, 15.699768%)" offset="0.09375"/><stop stop-opacity="1" stop-color="rgb(99.198914%, 77.897644%, 15.596008%)" offset="0.101562"/><stop stop-opacity="1" stop-color="rgb(99.198914%, 77.696228%, 15.390015%)" offset="0.109375"/><stop stop-opacity="1" stop-color="rgb(99.198914%, 77.597046%, 15.092468%)" offset="0.125"/><stop stop-opacity="1" stop-color="rgb(99.198914%, 77.450562%, 14.898682%)" offset="0.140625"/><stop stop-opacity="1" stop-color="rgb(99.098206%, 77.201843%, 14.797974%)" offset="0.148438"/><stop stop-opacity="1" stop-color="rgb(98.898315%, 76.99585%, 14.598083%)" offset="0.15625"/><stop stop-opacity="1" stop-color="rgb(98.799133%, 76.696777%, 14.498901%)" offset="0.171875"/><stop stop-opacity="1" stop-color="rgb(98.799133%, 76.499939%, 14.305115%)" offset="0.1875"/><stop stop-opacity="1" stop-color="rgb(98.799133%, 76.400757%, 14.105225%)" offset="0.195313"/><stop stop-opacity="1" stop-color="rgb(98.799133%, 76.199341%, 14.097595%)" offset="0.203125"/><stop stop-opacity="1" stop-color="rgb(98.799133%, 75.900269%, 13.900757%)" offset="0.21875"/><stop stop-opacity="1" stop-color="rgb(98.799133%, 75.601196%, 13.702393%)" offset="0.226563"/><stop stop-opacity="1" stop-color="rgb(98.799133%, 75.398254%, 13.694763%)" offset="0.234375"/><stop stop-opacity="1" stop-color="rgb(98.799133%, 75.299072%, 13.494873%)" offset="0.25"/><stop stop-opacity="1" stop-color="rgb(98.799133%, 75.10376%, 13.299561%)" offset="0.265625"/><stop stop-opacity="1" stop-color="rgb(98.799133%, 74.806213%, 13.200378%)" offset="0.273438"/><stop stop-opacity="1" stop-color="rgb(98.799133%, 74.598694%, 13.000488%)" offset="0.28125"/><stop stop-opacity="1" stop-color="rgb(98.799133%, 74.299622%, 12.89978%)" offset="0.296875"/><stop stop-opacity="1" stop-color="rgb(98.799133%, 74.101257%, 12.70752%)" offset="0.3125"/><stop stop-opacity="1" stop-color="rgb(98.703003%, 74.003601%, 12.434387%)" offset="0.320312"/><stop stop-opacity="1" stop-color="rgb(98.503113%, 73.803711%, 12.277222%)" offset="0.328125"/><stop stop-opacity="1" stop-color="rgb(98.399353%, 73.504639%, 12.199402%)" offset="0.34375"/><stop stop-opacity="1" stop-color="rgb(98.399353%, 73.303223%, 12.10022%)" offset="0.351562"/><stop stop-opacity="1" stop-color="rgb(98.399353%, 73.295593%, 11.90033%)" offset="0.359375"/><stop stop-opacity="1" stop-color="rgb(98.399353%, 73.098755%, 11.799622%)" offset="0.375"/><stop stop-opacity="1" stop-color="rgb(98.399353%, 72.70813%, 11.605835%)" offset="0.390625"/><stop stop-opacity="1" stop-color="rgb(98.399353%, 72.506714%, 11.405945%)" offset="0.40625"/><stop stop-opacity="1" stop-color="rgb(98.399353%, 72.3526%, 11.203003%)" offset="0.421875"/><stop stop-opacity="1" stop-color="rgb(98.399353%, 72.012329%, 11.003113%)" offset="0.4375"/><stop stop-opacity="1" stop-color="rgb(98.399353%, 71.714783%, 10.903931%)" offset="0.445312"/><stop stop-opacity="1" stop-color="rgb(98.399353%, 71.507263%, 10.707092%)" offset="0.453125"/><stop stop-opacity="1" stop-color="rgb(98.399353%, 71.400452%, 10.600281%)" offset="0.46875"/><stop stop-opacity="1" stop-color="rgb(98.399353%, 71.30127%, 10.501099%)" offset="0.476562"/><stop stop-opacity="1" stop-color="rgb(98.397827%, 71.101379%, 10.301208%)" offset="0.484375"/><stop stop-opacity="1" stop-color="rgb(98.202515%, 70.802307%, 10.198975%)" offset="0.5"/><stop stop-opacity="1" stop-color="rgb(98.002625%, 70.602417%, 10.00824%)" offset="0.515625"/><stop stop-opacity="1" stop-color="rgb(97.999573%, 70.504761%, 9.80835%)" offset="0.523437"/><stop stop-opacity="1" stop-color="rgb(97.999573%, 70.306396%, 9.799194%)" offset="0.53125"/><stop stop-opacity="1" stop-color="rgb(97.999573%, 70.011902%, 9.609985%)" offset="0.5625"/><stop stop-opacity="1" stop-color="rgb(97.999573%, 69.717407%, 9.410095%)" offset="0.570312"/><stop stop-opacity="1" stop-color="rgb(97.999573%, 69.511414%, 9.399414%)" offset="0.578125"/><stop stop-opacity="1" stop-color="rgb(97.999573%, 69.403076%, 9.207153%)" offset="0.59375"/><stop stop-opacity="1" stop-color="rgb(97.999573%, 69.303894%, 9.007263%)" offset="0.601563"/><stop stop-opacity="1" stop-color="rgb(97.999573%, 69.10553%, 8.999634%)" offset="0.609375"/><stop stop-opacity="1" stop-color="rgb(97.999573%, 68.806458%, 8.804321%)" offset="0.625"/><stop stop-opacity="1" stop-color="rgb(97.999573%, 68.605042%, 8.604431%)" offset="0.640625"/><stop stop-opacity="1" stop-color="rgb(97.999573%, 68.505859%, 8.506775%)" offset="0.648437"/><stop stop-opacity="1" stop-color="rgb(97.999573%, 68.310547%, 8.309937%)" offset="0.65625"/><stop stop-opacity="1" stop-color="rgb(97.999573%, 68.011475%, 8.201599%)" offset="0.671875"/><stop stop-opacity="1" stop-color="rgb(97.999573%, 67.807007%, 8.010864%)" offset="0.6875"/><stop stop-opacity="1" stop-color="rgb(97.80426%, 67.652893%, 7.810974%)" offset="0.703125"/><stop stop-opacity="1" stop-color="rgb(97.60437%, 67.503357%, 7.798767%)" offset="0.71875"/><stop stop-opacity="1" stop-color="rgb(97.599792%, 67.405701%, 7.728577%)" offset="0.726562"/><stop stop-opacity="1" stop-color="rgb(97.599792%, 67.208862%, 7.582092%)" offset="0.734375"/><stop stop-opacity="1" stop-color="rgb(97.599792%, 66.90979%, 7.501221%)" offset="0.75"/><stop stop-opacity="1" stop-color="rgb(97.599792%, 66.706848%, 7.312012%)" offset="0.765625"/><stop stop-opacity="1" stop-color="rgb(97.599792%, 66.503906%, 7.112122%)" offset="0.78125"/><stop stop-opacity="1" stop-color="rgb(97.599792%, 66.304016%, 6.90918%)" offset="0.796875"/><stop stop-opacity="1" stop-color="rgb(97.599792%, 66.113281%, 6.70929%)" offset="0.8125"/><stop stop-opacity="1" stop-color="rgb(97.599792%, 65.913391%, 6.698608%)" offset="0.828125"/><stop stop-opacity="1" stop-color="rgb(97.599792%, 65.711975%, 6.510925%)" offset="0.84375"/><stop stop-opacity="1" stop-color="rgb(97.599792%, 65.420532%, 6.311035%)" offset="0.851562"/><stop stop-opacity="1" stop-color="rgb(97.599792%, 65.213013%, 6.298828%)" offset="0.859375"/><stop stop-opacity="1" stop-color="rgb(97.599792%, 65.103149%, 6.108093%)" offset="0.875"/><stop stop-opacity="1" stop-color="rgb(97.599792%, 64.912415%, 5.908203%)" offset="0.890625"/><stop stop-opacity="1" stop-color="rgb(97.599792%, 64.712524%, 5.899048%)" offset="0.90625"/><stop stop-opacity="1" stop-color="rgb(97.457886%, 64.511108%, 5.709839%)" offset="0.921875"/><stop stop-opacity="1" stop-color="rgb(97.30835%, 64.311218%, 5.509949%)" offset="0.9375"/><stop stop-opacity="1" stop-color="rgb(97.299194%, 64.108276%, 5.308533%)" offset="0.953125"/><stop stop-opacity="1" stop-color="rgb(97.299194%, 63.908386%, 5.108643%)" offset="0.96875"/><stop stop-opacity="1" stop-color="rgb(97.299194%, 63.705444%, 5.099487%)" offset="0.984375"/><stop stop-opacity="1" stop-color="rgb(97.299194%, 63.505554%, 4.910278%)" offset="1"/></linearGradient><clipPath id="id6"><path d="M 39 260.488281 L 75 260.488281 L 75 299 L 39 299 Z M 39 260.488281 " clip-rule="nonzero"/></clipPath><clipPath id="id7"><path d="M 74.632812 280.375 C 74.070312 290.644531 65.84375 298.554688 56.265625 298.03125 C 46.679688 297.507812 39.371094 288.746094 39.9375 278.46875 C 40.5 268.191406 48.726562 260.28125 58.304688 260.808594 C 67.882812 261.339844 75.199219 270.089844 74.632812 280.375 Z M 74.632812 280.375 " clip-rule="nonzero"/></clipPath><clipPath id="id8"><path d="M 74.632812 280.375 C 74.070312 290.644531 65.84375 298.554688 56.265625 298.03125 C 46.679688 297.507812 39.371094 288.746094 39.9375 278.46875 C 40.5 268.191406 48.726562 260.28125 58.304688 260.808594 C 67.882812 261.339844 75.199219 270.089844 74.632812 280.375 " clip-rule="nonzero"/></clipPath><clipPath id="id9"><path d="M 55.804688 242.429688 L 20.304688 280.996094 L 58.765625 316.410156 L 94.265625 277.84375 Z M 55.804688 242.429688 " clip-rule="nonzero"/></clipPath><linearGradient x1="0.5076" gradientTransform="matrix(195.149435, 179.650376, -179.650376, 195.149435, -60.877542, 170.593366)" y1="0" x2="0.704167" gradientUnits="userSpaceOnUse" y2="0" id="id10"><stop stop-opacity="1" stop-color="rgb(97.599792%, 65.480042%, 6.280518%)" offset="0"/><stop stop-opacity="1" stop-color="rgb(97.599792%, 65.380859%, 6.181335%)" offset="0.03125"/><stop stop-opacity="1" stop-color="rgb(97.599792%, 65.182495%, 5.990601%)" offset="0.0625"/><stop stop-opacity="1" stop-color="rgb(97.599792%, 64.982605%, 5.899048%)" offset="0.09375"/><stop stop-opacity="1" stop-color="rgb(97.592163%, 64.781189%, 5.889893%)" offset="0.125"/><stop stop-opacity="1" stop-color="rgb(97.511292%, 64.582825%, 5.783081%)" offset="0.15625"/><stop stop-opacity="1" stop-color="rgb(97.367859%, 64.38446%, 5.584717%)" offset="0.1875"/><stop stop-opacity="1" stop-color="rgb(97.299194%, 64.18457%, 5.384827%)" offset="0.21875"/><stop stop-opacity="1" stop-color="rgb(97.299194%, 63.983154%, 5.19104%)" offset="0.25"/><stop stop-opacity="1" stop-color="rgb(97.299194%, 63.691711%, 5.093384%)" offset="0.3125"/><stop stop-opacity="1" stop-color="rgb(97.299194%, 63.499451%, 4.986572%)" offset="0.34375"/><stop stop-opacity="1" stop-color="rgb(97.299194%, 63.491821%, 4.785156%)" offset="0.375"/><stop stop-opacity="1" stop-color="rgb(97.299194%, 63.386536%, 4.585266%)" offset="0.40625"/><stop stop-opacity="1" stop-color="rgb(97.299194%, 63.188171%, 4.393005%)" offset="0.4375"/><stop stop-opacity="1" stop-color="rgb(97.299194%, 62.988281%, 4.299927%)" offset="0.46875"/><stop stop-opacity="1" stop-color="rgb(97.299194%, 62.788391%, 4.292297%)" offset="0.5"/><stop stop-opacity="1" stop-color="rgb(97.299194%, 62.539673%, 4.092407%)" offset="0.5625"/><stop stop-opacity="1" stop-color="rgb(97.299194%, 62.289429%, 3.898621%)" offset="0.59375"/><stop stop-opacity="1" stop-color="rgb(97.299194%, 62.089539%, 3.892517%)" offset="0.625"/><stop stop-opacity="1" stop-color="rgb(97.296143%, 61.793518%, 3.692627%)" offset="0.6875"/><stop stop-opacity="1" stop-color="rgb(97.192383%, 61.599731%, 3.49884%)" offset="0.71875"/><stop stop-opacity="1" stop-color="rgb(96.995544%, 61.595154%, 3.494263%)" offset="0.75"/><stop stop-opacity="1" stop-color="rgb(96.899414%, 61.491394%, 3.390503%)" offset="0.78125"/><stop stop-opacity="1" stop-color="rgb(96.899414%, 61.29303%, 3.193665%)" offset="0.8125"/><stop stop-opacity="1" stop-color="rgb(96.899414%, 61.09314%, 2.993774%)" offset="0.84375"/><stop stop-opacity="1" stop-color="rgb(96.899414%, 60.891724%, 2.79541%)" offset="0.875"/><stop stop-opacity="1" stop-color="rgb(96.899414%, 60.693359%, 2.69928%)" offset="0.90625"/><stop stop-opacity="1" stop-color="rgb(96.899414%, 60.496521%, 2.697754%)" offset="0.9375"/><stop stop-opacity="1" stop-color="rgb(96.899414%, 60.398865%, 2.546692%)" offset="1"/></linearGradient><clipPath id="id11"><path d="M 81 136.46875 L 374.773438 136.46875 L 374.773438 240 L 81 240 Z M 81 136.46875 " clip-rule="nonzero"/></clipPath><clipPath id="id12"><path d="M 81.386719 235.519531 L 339.140625 240 L 374.773438 136.746094 L 94.386719 137.628906 Z M 81.386719 235.519531 " clip-rule="nonzero"/></clipPath><clipPath id="id13"><path d="M 81.386719 235.519531 L 339.140625 240 L 374.773438 136.746094 L 94.386719 137.628906 L 81.386719 235.519531 " clip-rule="nonzero"/></clipPath><clipPath id="id14"><path d="M 135.890625 22.636719 L 41.222656 220.820312 L 320.261719 354.109375 L 414.929688 155.925781 Z M 135.890625 22.636719 " clip-rule="nonzero"/></clipPath><linearGradient x1="0.170213" gradientTransform="matrix(766.439742, 366.115011, -366.115011, 766.439742, -41.092559, 57.721529)" y1="0" x2="0.534287" gradientUnits="userSpaceOnUse" y2="0" id="id15"><stop stop-opacity="1" stop-color="rgb(99.198914%, 77.2995%, 14.898682%)" offset="0"/><stop stop-opacity="1" stop-color="rgb(99.195862%, 77.296448%, 14.898682%)" offset="0.015625"/><stop stop-opacity="1" stop-color="rgb(99.08905%, 77.189636%, 14.898682%)" offset="0.0234375"/><stop stop-opacity="1" stop-color="rgb(98.892212%, 76.992798%, 14.888%)" offset="0.03125"/><stop stop-opacity="1" stop-color="rgb(98.799133%, 76.893616%, 14.68811%)" offset="0.046875"/><stop stop-opacity="1" stop-color="rgb(98.799133%, 76.693726%, 14.497375%)" offset="0.0625"/><stop stop-opacity="1" stop-color="rgb(98.799133%, 76.499939%, 14.39209%)" offset="0.0703125"/><stop stop-opacity="1" stop-color="rgb(98.799133%, 76.490784%, 14.193726%)" offset="0.078125"/><stop stop-opacity="1" stop-color="rgb(98.799133%, 76.383972%, 14.099121%)" offset="0.0859375"/><stop stop-opacity="1" stop-color="rgb(98.799133%, 76.187134%, 14.094543%)" offset="0.09375"/><stop stop-opacity="1" stop-color="rgb(98.799133%, 75.894165%, 13.894653%)" offset="0.109375"/><stop stop-opacity="1" stop-color="rgb(98.799133%, 75.691223%, 13.699341%)" offset="0.125"/><stop stop-opacity="1" stop-color="rgb(98.799133%, 75.491333%, 13.696289%)" offset="0.140625"/><stop stop-opacity="1" stop-color="rgb(98.799133%, 75.299072%, 13.587952%)" offset="0.148438"/><stop stop-opacity="1" stop-color="rgb(98.799133%, 75.288391%, 13.391113%)" offset="0.15625"/><stop stop-opacity="1" stop-color="rgb(98.799133%, 75.088501%, 13.293457%)" offset="0.171875"/><stop stop-opacity="1" stop-color="rgb(98.799133%, 74.897766%, 13.093567%)" offset="0.1875"/><stop stop-opacity="1" stop-color="rgb(98.799133%, 74.790955%, 12.89978%)" offset="0.195312"/><stop stop-opacity="1" stop-color="rgb(98.799133%, 74.583435%, 12.889099%)" offset="0.203125"/><stop stop-opacity="1" stop-color="rgb(98.799133%, 74.290466%, 12.689209%)" offset="0.21875"/><stop stop-opacity="1" stop-color="rgb(98.786926%, 74.085999%, 12.5%)" offset="0.234375"/><stop stop-opacity="1" stop-color="rgb(98.587036%, 73.886108%, 12.493896%)" offset="0.25"/><stop stop-opacity="1" stop-color="rgb(98.399353%, 73.695374%, 12.342834%)" offset="0.265625"/><stop stop-opacity="1" stop-color="rgb(98.399353%, 73.587036%, 12.199402%)" offset="0.273438"/><stop stop-opacity="1" stop-color="rgb(98.399353%, 73.390198%, 12.187195%)" offset="0.28125"/><stop stop-opacity="1" stop-color="rgb(98.399353%, 73.292542%, 11.987305%)" offset="0.296875"/><stop stop-opacity="1" stop-color="rgb(98.399353%, 73.092651%, 11.799622%)" offset="0.3125"/><stop stop-opacity="1" stop-color="rgb(98.399353%, 72.889709%, 11.78894%)" offset="0.328125"/><stop stop-opacity="1" stop-color="rgb(98.399353%, 72.685242%, 11.58905%)" offset="0.34375"/><stop stop-opacity="1" stop-color="rgb(98.399353%, 72.344971%, 11.386108%)" offset="0.359375"/><stop stop-opacity="1" stop-color="rgb(98.399353%, 72.190857%, 11.186218%)" offset="0.375"/><stop stop-opacity="1" stop-color="rgb(98.399353%, 71.990967%, 10.998535%)" offset="0.390625"/><stop stop-opacity="1" stop-color="rgb(98.399353%, 71.786499%, 10.986328%)" offset="0.40625"/><stop stop-opacity="1" stop-color="rgb(98.399353%, 71.585083%, 10.786438%)" offset="0.4375"/><stop stop-opacity="1" stop-color="rgb(98.399353%, 71.290588%, 10.598755%)" offset="0.445312"/><stop stop-opacity="1" stop-color="rgb(98.399353%, 71.092224%, 10.588074%)" offset="0.453125"/><stop stop-opacity="1" stop-color="rgb(98.39325%, 70.993042%, 10.388184%)" offset="0.46875"/><stop stop-opacity="1" stop-color="rgb(98.193359%, 70.793152%, 10.185242%)" offset="0.484375"/><stop stop-opacity="1" stop-color="rgb(97.999573%, 70.59021%, 9.985352%)" offset="0.5"/><stop stop-opacity="1" stop-color="rgb(97.999573%, 70.39032%, 9.799194%)" offset="0.515625"/><stop stop-opacity="1" stop-color="rgb(97.999573%, 70.187378%, 9.786987%)" offset="0.53125"/><stop stop-opacity="1" stop-color="rgb(97.999573%, 69.984436%, 9.587097%)" offset="0.5625"/><stop stop-opacity="1" stop-color="rgb(97.999573%, 69.689941%, 9.399414%)" offset="0.570312"/><stop stop-opacity="1" stop-color="rgb(97.999573%, 69.491577%, 9.388733%)" offset="0.578125"/><stop stop-opacity="1" stop-color="rgb(97.999573%, 69.395447%, 9.188843%)" offset="0.59375"/><stop stop-opacity="1" stop-color="rgb(97.999573%, 69.291687%, 8.999634%)" offset="0.609375"/><stop stop-opacity="1" stop-color="rgb(97.999573%, 69.090271%, 8.995056%)" offset="0.625"/><stop stop-opacity="1" stop-color="rgb(97.999573%, 68.888855%, 8.889771%)" offset="0.640625"/><stop stop-opacity="1" stop-color="rgb(97.999573%, 68.687439%, 8.688354%)" offset="0.65625"/><stop stop-opacity="1" stop-color="rgb(97.999573%, 68.391418%, 8.392334%)" offset="0.6875"/><stop stop-opacity="1" stop-color="rgb(97.999573%, 68.095398%, 8.094788%)" offset="0.703125"/><stop stop-opacity="1" stop-color="rgb(97.996521%, 67.893982%, 7.896423%)" offset="0.71875"/><stop stop-opacity="1" stop-color="rgb(97.892761%, 67.718506%, 7.798767%)" offset="0.734375"/><stop stop-opacity="1" stop-color="rgb(97.695923%, 67.565918%, 7.795715%)" offset="0.75"/><stop stop-opacity="1" stop-color="rgb(97.599792%, 67.388916%, 7.71637%)" offset="0.765625"/><stop stop-opacity="1" stop-color="rgb(97.599792%, 67.1875%, 7.563782%)" offset="0.78125"/><stop stop-opacity="1" stop-color="rgb(97.599792%, 66.891479%, 7.293701%)" offset="0.8125"/><stop stop-opacity="1" stop-color="rgb(97.599792%, 66.595459%, 7.099915%)" offset="0.828125"/><stop stop-opacity="1" stop-color="rgb(97.599792%, 66.394043%, 7.095337%)" offset="0.84375"/><stop stop-opacity="1" stop-color="rgb(97.599792%, 66.191101%, 6.991577%)" offset="0.859375"/><stop stop-opacity="1" stop-color="rgb(97.599792%, 65.989685%, 6.790161%)" offset="0.875"/><stop stop-opacity="1" stop-color="rgb(97.599792%, 65.693665%, 6.494141%)" offset="0.90625"/><stop stop-opacity="1" stop-color="rgb(97.599792%, 65.496826%, 6.297302%)" offset="0.9375"/><stop stop-opacity="1" stop-color="rgb(97.599792%, 65.394592%, 6.195068%)" offset="0.953125"/><stop stop-opacity="1" stop-color="rgb(97.599792%, 65.193176%, 5.996704%)" offset="0.96875"/><stop stop-opacity="1" stop-color="rgb(97.599792%, 64.99176%, 5.899048%)" offset="0.984375"/><stop stop-opacity="1" stop-color="rgb(97.599792%, 64.794922%, 5.899048%)" offset="1"/></linearGradient></defs><g clip-path="url(#id1)"><path fill="#161616" d="M 309.613281 120.441406 L 267.367188 256.042969 L 150.789062 254.421875 L 115.128906 305.6875 L 104.867188 253.785156 L 23.519531 252.667969 L 0.148438 122.792969 L 309.613281 120.441406 " fill-opacity="1" fill-rule="nonzero"/></g><g clip-path="url(#id2)"><g clip-path="url(#id3)"><g clip-path="url(#id4)"><path fill="url(#id5)" d="M 46.171875 34.953125 L -71.203125 162.453125 L 51.886719 275.769531 L 169.261719 148.269531 Z M 46.171875 34.953125 " fill-rule="nonzero"/></g></g></g><g clip-path="url(#id6)"><g clip-path="url(#id7)"><g clip-path="url(#id8)"><g clip-path="url(#id9)"><path fill="url(#id10)" d="M 55.804688 242.636719 L 20.402344 281.09375 L 58.765625 316.40625 L 94.164062 277.949219 Z M 55.804688 242.636719 " fill-rule="nonzero"/></g></g></g></g><path fill="#161616" d="M 35.703125 285.984375 C 35.042969 283.457031 34.789062 280.835938 34.933594 278.191406 C 35.28125 271.816406 37.933594 265.9375 42.390625 261.65625 C 46.859375 257.359375 52.617188 255.167969 58.597656 255.5 C 68.660156 256.050781 77.136719 263.792969 79.199219 274.324219 L 77.777344 274.601562 C 75.839844 264.722656 67.921875 257.464844 58.519531 256.949219 C 52.945312 256.636719 47.574219 258.6875 43.398438 262.699219 C 39.207031 266.730469 36.710938 272.257812 36.386719 278.269531 C 36.242188 280.765625 36.488281 283.242188 37.109375 285.617188 L 35.703125 285.984375 " fill-opacity="1" fill-rule="nonzero"/><path fill="#161616" d="M 50.878906 302.421875 C 46.34375 301.023438 42.269531 298.023438 39.410156 293.980469 L 40.59375 293.148438 C 43.269531 296.917969 47.074219 299.730469 51.308594 301.039062 L 50.878906 302.421875 " fill-opacity="1" fill-rule="nonzero"/><path fill="#161616" d="M 57.113281 303.375 C 56.734375 303.375 56.351562 303.359375 55.96875 303.34375 C 54.238281 303.25 52.523438 302.9375 50.878906 302.421875 L 51.308594 301.039062 C 52.839844 301.515625 54.4375 301.804688 56.050781 301.890625 C 65.929688 302.429688 74.960938 295.363281 77.507812 285.085938 L 78.914062 285.433594 C 76.292969 295.988281 67.230469 303.375 57.113281 303.375 " fill-opacity="1" fill-rule="nonzero"/><path fill="#161616" d="M 78.914062 285.433594 L 77.507812 285.085938 C 77.875 283.617188 78.105469 282.089844 78.183594 280.566406 L 79.628906 280.644531 C 79.542969 282.265625 79.304688 283.878906 78.914062 285.433594 " fill-opacity="1" fill-rule="nonzero"/><g clip-path="url(#id11)"><g clip-path="url(#id12)"><g clip-path="url(#id13)"><g clip-path="url(#id14)"><path fill="url(#id15)" d="M 135.894531 22.636719 L 41.226562 220.816406 L 320.265625 354.109375 L 414.933594 155.929688 Z M 135.894531 22.636719 " fill-rule="nonzero"/></g></g></g></g><path fill="#ffc501" d="M 313.003906 159.285156 L 310.382812 158.515625 L 324.144531 111.445312 L 119.363281 112.660156 L 119.347656 109.925781 L 327.800781 108.6875 L 313.003906 159.285156 " fill-opacity="1" fill-rule="nonzero"/><path fill="#ffffff" d="M 334.914062 151.082031 C 332.109375 151.082031 329.753906 153.289062 329.59375 156.125 C 329.433594 159.0625 331.691406 161.582031 334.628906 161.746094 C 337.566406 161.898438 340.085938 159.644531 340.25 156.710938 C 340.410156 153.773438 338.148438 151.25 335.214844 151.089844 C 335.113281 151.082031 335.019531 151.082031 334.914062 151.082031 Z M 334.921875 162.660156 C 334.8125 162.660156 334.691406 162.660156 334.582031 162.652344 C 331.140625 162.460938 328.496094 159.515625 328.679688 156.078125 C 328.871094 152.636719 331.832031 149.976562 335.265625 150.175781 C 338.703125 150.367188 341.347656 153.320312 341.15625 156.761719 C 340.972656 160.078125 338.21875 162.660156 334.921875 162.660156 " fill-opacity="1" fill-rule="nonzero"/><path fill="#ffffff" d="M 107.625 213.917969 C 106.304688 213.917969 105.058594 214.394531 104.074219 215.285156 C 103.011719 216.230469 102.382812 217.539062 102.304688 218.960938 C 102.144531 221.898438 104.402344 224.425781 107.339844 224.585938 C 108.761719 224.664062 110.132812 224.179688 111.191406 223.234375 C 112.253906 222.28125 112.882812 220.96875 112.960938 219.550781 C 113.042969 218.128906 112.558594 216.753906 111.605469 215.695312 C 110.652344 214.632812 109.347656 214.003906 107.925781 213.925781 C 107.824219 213.925781 107.71875 213.917969 107.625 213.917969 Z M 107.640625 225.503906 C 107.523438 225.503906 107.410156 225.496094 107.292969 225.496094 C 103.851562 225.308594 101.207031 222.351562 101.390625 218.914062 C 101.484375 217.246094 102.222656 215.710938 103.464844 214.601562 C 104.710938 213.488281 106.304688 212.925781 107.972656 213.019531 C 109.640625 213.109375 111.175781 213.847656 112.285156 215.085938 C 113.398438 216.332031 113.960938 217.929688 113.867188 219.597656 C 113.78125 221.265625 113.042969 222.796875 111.800781 223.910156 C 110.644531 224.941406 109.179688 225.503906 107.640625 225.503906 " fill-opacity="1" fill-rule="nonzero"/><path fill="#ffffff" d="M 26.371094 86.457031 L 70.335938 84.371094 L 61.457031 246.242188 L 48.410156 245.527344 L 26.371094 86.457031 " fill-opacity="1" fill-rule="nonzero"/><g fill="#000000" fill-opacity="1"><g transform="translate(138.071431, 202.454744)"><g><path d="M 13.375 -34.5 C 15.4375 -34.5 16.554688 -34.035156 16.734375 -33.109375 L 19.78125 -19.328125 L 22.875 -0.984375 C 22.9375 -0.679688 22.96875 -0.40625 22.96875 -0.15625 C 22.96875 0.09375 22.890625 0.300781 22.734375 0.46875 C 22.585938 0.632812 22.082031 0.71875 21.21875 0.71875 C 18.550781 0.71875 17.128906 0.148438 16.953125 -0.984375 L 15.390625 -10.234375 L 9.109375 -10.234375 L 7.71875 -0.9375 C 7.625 -0.3125 7.507812 0.101562 7.375 0.3125 C 7.238281 0.519531 7.050781 0.640625 6.8125 0.671875 C 6.570312 0.703125 6.1875 0.71875 5.65625 0.71875 L 4.390625 0.71875 C 3.347656 0.71875 2.691406 0.65625 2.421875 0.53125 C 1.765625 0.289062 1.390625 0.0234375 1.296875 -0.265625 C 1.265625 -0.421875 1.25 -0.554688 1.25 -0.671875 C 1.25 -0.796875 1.5625 -2.769531 2.1875 -6.59375 C 2.820312 -10.425781 3.59375 -14.988281 4.5 -20.28125 C 5.414062 -25.570312 6.015625 -29.039062 6.296875 -30.6875 C 6.585938 -32.332031 6.75 -33.257812 6.78125 -33.46875 C 6.894531 -34.15625 9.09375 -34.5 13.375 -34.5 Z M 12.015625 -28.625 L 9.953125 -15.65625 L 14.40625 -15.65625 Z M 12.015625 -28.625 "/></g></g></g><g fill="#000000" fill-opacity="1"><g transform="translate(162.253234, 202.454744)"><g><path d="M 4.171875 -18.65625 L 0.578125 -18.65625 C 0.222656 -18.65625 0.0234375 -18.738281 -0.015625 -18.90625 C -0.0664062 -19.070312 -0.09375 -19.257812 -0.09375 -19.46875 C -0.09375 -20.75 0.128906 -21.4375 0.578125 -21.53125 L 4.171875 -22.25 L 6.6875 -27.3125 C 7.039062 -27.769531 7.726562 -28 8.75 -28 C 9.019531 -28 9.273438 -27.457031 9.515625 -26.375 C 9.753906 -25.300781 10.003906 -23.925781 10.265625 -22.25 L 14.578125 -22.25 C 15.054688 -22.25 15.296875 -21.648438 15.296875 -20.453125 C 15.296875 -19.253906 15.054688 -18.65625 14.578125 -18.65625 L 10.234375 -18.65625 L 10.234375 -4.390625 L 10.953125 0.671875 L 10.953125 0.71875 C 10.972656 0.894531 10.972656 1.015625 10.953125 1.078125 C 10.796875 1.316406 10.046875 1.4375 8.703125 1.4375 C 7.359375 1.4375 6.550781 1.164062 6.28125 0.625 L 4.171875 -3.640625 Z M 4.171875 -18.65625 "/></g></g></g><g fill="#000000" fill-opacity="1"><g transform="translate(177.372472, 202.454744)"><g><path d="M 4.171875 -18.65625 L 0.578125 -18.65625 C 0.222656 -18.65625 0.0234375 -18.738281 -0.015625 -18.90625 C -0.0664062 -19.070312 -0.09375 -19.257812 -0.09375 -19.46875 C -0.09375 -20.75 0.128906 -21.4375 0.578125 -21.53125 L 4.171875 -22.25 L 6.6875 -27.3125 C 7.039062 -27.769531 7.726562 -28 8.75 -28 C 9.019531 -28 9.273438 -27.457031 9.515625 -26.375 C 9.753906 -25.300781 10.003906 -23.925781 10.265625 -22.25 L 14.578125 -22.25 C 15.054688 -22.25 15.296875 -21.648438 15.296875 -20.453125 C 15.296875 -19.253906 15.054688 -18.65625 14.578125 -18.65625 L 10.234375 -18.65625 L 10.234375 -4.390625 L 10.953125 0.671875 L 10.953125 0.71875 C 10.972656 0.894531 10.972656 1.015625 10.953125 1.078125 C 10.796875 1.316406 10.046875 1.4375 8.703125 1.4375 C 7.359375 1.4375 6.550781 1.164062 6.28125 0.625 L 4.171875 -3.640625 Z M 4.171875 -18.65625 "/></g></g></g><g fill="#000000" fill-opacity="1"><g transform="translate(192.49171, 202.454744)"><g><path d="M 10.1875 0.71875 C 6.988281 0.71875 4.765625 -0.144531 3.515625 -1.875 C 2.273438 -3.613281 1.65625 -6.726562 1.65625 -11.21875 C 1.65625 -14.445312 1.9375 -16.90625 2.5 -18.59375 C 3.070312 -20.28125 3.929688 -21.429688 5.078125 -22.046875 C 6.234375 -22.660156 7.929688 -22.96875 10.171875 -22.96875 C 12.421875 -22.96875 14.117188 -22.648438 15.265625 -22.015625 C 16.421875 -21.390625 17.265625 -20.222656 17.796875 -18.515625 C 18.335938 -16.816406 18.609375 -14.398438 18.609375 -11.265625 C 18.609375 -11.078125 18.609375 -10.894531 18.609375 -10.71875 C 18.609375 -10.539062 18.257812 -10.375 17.5625 -10.21875 C 16.863281 -10.070312 16.019531 -10 15.03125 -10 L 8.125 -10 C 8.175781 -6.5 8.425781 -4.507812 8.875 -4.03125 C 9.144531 -3.789062 9.582031 -3.671875 10.1875 -3.671875 C 14.101562 -3.671875 16.78125 -3.867188 18.21875 -4.265625 C 18.269531 -4.296875 18.3125 -4.3125 18.34375 -4.3125 C 18.550781 -4.363281 18.722656 -4.238281 18.859375 -3.9375 C 18.992188 -3.644531 19.0625 -2.941406 19.0625 -1.828125 C 19.0625 -0.722656 18.820312 -0.113281 18.34375 0 C 17.125 0.476562 14.40625 0.71875 10.1875 0.71875 Z M 8.125 -17.09375 L 8.125 -13.59375 L 12.65625 -13.59375 C 12.53125 -17.0625 12.1875 -18.796875 11.625 -18.796875 C 10.601562 -18.796875 9.765625 -18.644531 9.109375 -18.34375 C 8.453125 -18.050781 8.125 -17.632812 8.125 -17.09375 Z M 8.125 -17.09375 "/></g></g></g><g fill="#000000" fill-opacity="1"><g transform="translate(212.860054, 202.454744)"><g><path d="M 13.546875 -22.96875 C 15.753906 -22.96875 17.375 -22.28125 18.40625 -20.90625 C 19.445312 -19.53125 19.96875 -17.109375 19.96875 -13.640625 L 19.96875 0 C 19.96875 0.175781 19.953125 0.296875 19.921875 0.359375 C 19.765625 0.597656 19.1875 0.71875 18.1875 0.71875 C 17.1875 0.71875 16.160156 0.640625 15.109375 0.484375 C 14.066406 0.335938 13.546875 0.175781 13.546875 0 L 13.5 -13.640625 C 13.5 -16.984375 13.257812 -18.65625 12.78125 -18.65625 C 11.707031 -18.65625 10.273438 -18.117188 8.484375 -17.046875 L 8.484375 0 C 8.484375 0.175781 8.46875 0.296875 8.4375 0.359375 C 8.28125 0.597656 7.703125 0.71875 6.703125 0.71875 C 5.703125 0.71875 4.671875 0.640625 3.609375 0.484375 C 2.546875 0.335938 2.015625 0.175781 2.015625 0 L 2.015625 -22.25 C 2.015625 -22.726562 2.613281 -22.96875 3.8125 -22.96875 C 5.695312 -22.96875 6.773438 -22.726562 7.046875 -22.25 C 7.046875 -22.1875 7.0625 -22.15625 7.09375 -22.15625 L 7.9375 -20.453125 C 10.445312 -22.128906 12.316406 -22.96875 13.546875 -22.96875 Z M 13.546875 -22.96875 "/></g></g></g><g fill="#000000" fill-opacity="1"><g transform="translate(234.753789, 202.454744)"><g><path d="M 4.171875 -18.65625 L 0.578125 -18.65625 C 0.222656 -18.65625 0.0234375 -18.738281 -0.015625 -18.90625 C -0.0664062 -19.070312 -0.09375 -19.257812 -0.09375 -19.46875 C -0.09375 -20.75 0.128906 -21.4375 0.578125 -21.53125 L 4.171875 -22.25 L 6.6875 -27.3125 C 7.039062 -27.769531 7.726562 -28 8.75 -28 C 9.019531 -28 9.273438 -27.457031 9.515625 -26.375 C 9.753906 -25.300781 10.003906 -23.925781 10.265625 -22.25 L 14.578125 -22.25 C 15.054688 -22.25 15.296875 -21.648438 15.296875 -20.453125 C 15.296875 -19.253906 15.054688 -18.65625 14.578125 -18.65625 L 10.234375 -18.65625 L 10.234375 -4.390625 L 10.953125 0.671875 L 10.953125 0.71875 C 10.972656 0.894531 10.972656 1.015625 10.953125 1.078125 C 10.796875 1.316406 10.046875 1.4375 8.703125 1.4375 C 7.359375 1.4375 6.550781 1.164062 6.28125 0.625 L 4.171875 -3.640625 Z M 4.171875 -18.65625 "/></g></g></g><g fill="#000000" fill-opacity="1"><g transform="translate(249.873027, 202.454744)"><g><path d="M 2.109375 0 L 2.109375 -22.25 C 2.109375 -22.726562 2.644531 -22.96875 3.71875 -22.96875 C 4.800781 -22.96875 5.816406 -22.890625 6.765625 -22.734375 C 7.722656 -22.585938 8.203125 -22.425781 8.203125 -22.25 L 8.203125 0 C 8.203125 0.175781 8.191406 0.296875 8.171875 0.359375 C 8.015625 0.597656 7.441406 0.71875 6.453125 0.71875 C 5.472656 0.71875 4.503906 0.640625 3.546875 0.484375 C 2.585938 0.335938 2.109375 0.175781 2.109375 0 Z M 4.890625 -28 C 2.734375 -28 1.65625 -29.070312 1.65625 -31.21875 C 1.65625 -33.375 2.734375 -34.453125 4.890625 -34.453125 C 7.046875 -34.453125 8.125 -33.375 8.125 -31.21875 C 8.125 -29.070312 7.046875 -28 4.890625 -28 Z M 4.890625 -28 "/></g></g></g><g fill="#000000" fill-opacity="1"><g transform="translate(260.057199, 202.454744)"><g><path d="M 1.65625 -11.21875 C 1.65625 -14.476562 1.9375 -16.941406 2.5 -18.609375 C 3.070312 -20.285156 3.972656 -21.429688 5.203125 -22.046875 C 6.429688 -22.660156 8.238281 -22.96875 10.625 -22.96875 C 13.019531 -22.96875 14.832031 -22.660156 16.0625 -22.046875 C 17.289062 -21.429688 18.1875 -20.285156 18.75 -18.609375 C 19.320312 -16.941406 19.609375 -14.476562 19.609375 -11.21875 C 19.609375 -6.726562 18.960938 -3.613281 17.671875 -1.875 C 16.390625 -0.144531 14.039062 0.71875 10.625 0.71875 C 7.21875 0.71875 4.867188 -0.144531 3.578125 -1.875 C 2.296875 -3.613281 1.65625 -6.726562 1.65625 -11.21875 Z M 7.765625 -11.21875 C 7.765625 -6.1875 8.242188 -3.671875 9.203125 -3.671875 C 10.515625 -3.671875 11.484375 -3.882812 12.109375 -4.3125 C 12.441406 -4.550781 12.664062 -4.984375 12.78125 -5.609375 C 13.019531 -6.859375 13.140625 -8.726562 13.140625 -11.21875 C 13.140625 -16.175781 12.660156 -18.65625 11.703125 -18.65625 C 9.910156 -18.65625 8.804688 -18.242188 8.390625 -17.421875 C 7.972656 -16.597656 7.765625 -14.53125 7.765625 -11.21875 Z M 7.765625 -11.21875 "/></g></g></g><g fill="#000000" fill-opacity="1"><g transform="translate(281.322821, 202.454744)"><g><path d="M 13.546875 -22.96875 C 15.753906 -22.96875 17.375 -22.28125 18.40625 -20.90625 C 19.445312 -19.53125 19.96875 -17.109375 19.96875 -13.640625 L 19.96875 0 C 19.96875 0.175781 19.953125 0.296875 19.921875 0.359375 C 19.765625 0.597656 19.1875 0.71875 18.1875 0.71875 C 17.1875 0.71875 16.160156 0.640625 15.109375 0.484375 C 14.066406 0.335938 13.546875 0.175781 13.546875 0 L 13.5 -13.640625 C 13.5 -16.984375 13.257812 -18.65625 12.78125 -18.65625 C 11.707031 -18.65625 10.273438 -18.117188 8.484375 -17.046875 L 8.484375 0 C 8.484375 0.175781 8.46875 0.296875 8.4375 0.359375 C 8.28125 0.597656 7.703125 0.71875 6.703125 0.71875 C 5.703125 0.71875 4.671875 0.640625 3.609375 0.484375 C 2.546875 0.335938 2.015625 0.175781 2.015625 0 L 2.015625 -22.25 C 2.015625 -22.726562 2.613281 -22.96875 3.8125 -22.96875 C 5.695312 -22.96875 6.773438 -22.726562 7.046875 -22.25 C 7.046875 -22.1875 7.0625 -22.15625 7.09375 -22.15625 L 7.9375 -20.453125 C 10.445312 -22.128906 12.316406 -22.96875 13.546875 -22.96875 Z M 13.546875 -22.96875 "/></g></g></g><g fill="#000000" fill-opacity="1"><g transform="translate(303.216556, 202.454744)"><g><path d="M 10.1875 -32.4375 L 7.265625 -8.875 L 2.828125 -9.375 L 2.109375 -10.09375 L 2.828125 -23.859375 L 4.265625 -33.734375 L 9.46875 -33.15625 Z M 4.25 0.71875 C 2.101562 0.71875 1.03125 -0.351562 1.03125 -2.5 C 1.03125 -4.65625 2.101562 -5.734375 4.25 -5.734375 C 6.40625 -5.734375 7.484375 -4.65625 7.484375 -2.5 C 7.484375 -0.351562 6.40625 0.71875 4.25 0.71875 Z M 4.25 0.71875 "/></g></g></g></svg>