<svg xmlns="http://www.w3.org/2000/svg" xmlns:xlink="http://www.w3.org/1999/xlink" width="1080" zoomAndPan="magnify" viewBox="0 0 810 809.999993" height="1080" preserveAspectRatio="xMidYMid meet" version="1.0"><defs><clipPath id="id1"><path d="M 203.523438 266.695312 L 606.273438 266.695312 L 606.273438 543.445312 L 203.523438 543.445312 Z M 203.523438 266.695312 " clip-rule="nonzero"/></clipPath></defs><g clip-path="url(#id1)"><path stroke-linecap="butt" transform="matrix(0.451016, 0, 0, 0.451468, 227.994909, 269.801812)" fill-opacity="1" fill="#000000" fill-rule="nonzero" stroke-linejoin="miter" d="M 98.313724 266.558572 L 150.175837 253.597388 L 58.343174 145.555795 L 186.90717 172.568356 L 186.90717 149.873306 L 234.44744 170.405275 L 233.364814 80.73257 L 300.349046 140.156744 L 334.923788 10.50164 L 378.142216 149.873306 L 404.073272 78.569488 L 426.756451 141.229632 L 471.057504 -6.777054 L 489.41884 130.431529 L 536.95911 99.101457 L 540.198327 153.117928 L 607.182559 92.620865 L 607.182559 168.242193 L 749.794709 89.376243 L 665.523106 206.052858 L 717.385219 203.898428 L 695.776005 262.232409 L 838.388155 287.081889 L 686.049694 331.381798 L 735.746555 382.162298 L 666.597071 405.930238 C 666.597071 405.930238 728.185496 521.525311 723.863653 521.525311 C 719.54181 521.525311 632.022329 479.397137 632.022329 479.397137 L 654.714169 605.807618 L 566.120723 479.397137 L 556.394411 532.332066 L 511.019393 485.877729 L 500.219117 578.786404 L 453.761472 495.602943 L 429.987007 528.014556 L 401.899359 488.032158 L 339.23697 570.14273 L 328.436693 496.675831 L 247.404307 523.688393 L 252.808776 463.19133 C 252.808776 463.19133 151.241141 556.100006 152.323766 549.619413 C 153.406392 543.138821 179.337449 416.72834 179.337449 416.72834 L 98.305063 437.26031 C 98.305063 437.26031 160.967452 367.02938 155.562983 364.866299 C 150.167176 362.71187 -54.033399 342.179901 -54.033399 342.179901 C -54.033399 342.179901 145.836672 296.807104 141.514829 294.644022 C 137.192986 292.480941 95.057185 268.713002 98.296402 266.558572 Z M 98.313724 266.558572 " stroke="#000000" stroke-width="1" stroke-opacity="1" stroke-miterlimit="4"/></g><path stroke-linecap="butt" transform="matrix(0.451016, 0, 0, 0.451468, 227.994909, 269.801812)" fill-opacity="1" fill="#fc9100" fill-rule="nonzero" stroke-linejoin="miter" d="M 237.218962 200.844157 C 218.753694 200.757634 195.213076 204.971317 165.843599 215.25028 L 222.564537 431.869911 C 278.28946 404.883306 317.549807 330.663655 251.189167 295.708258 C 301.890705 281.786666 317.246672 201.172946 237.218962 200.826853 Z M 205.814149 241.155344 L 246.875986 241.155344 C 252.644217 247.436932 254.454367 255.87295 245.438258 267.216149 C 241.246331 272.485416 238.7433 271.447137 233.373475 274.648497 C 208.862824 289.305537 198.868021 245.914123 205.814149 241.155344 Z M 239.00313 336.997157 C 267.012828 335.941574 267.818302 378.493712 235.841862 378.087053 L 223.092859 341.401191 C 229.112259 338.511314 234.421457 337.170204 239.00313 336.997157 Z M 239.00313 336.997157 " stroke="#ffffff" stroke-width="1" stroke-opacity="1" stroke-miterlimit="4"/><path stroke-linecap="butt" transform="matrix(0.451016, 0, 0, 0.451468, 227.994909, 269.801812)" fill-opacity="1" fill="#fc9100" fill-rule="nonzero" stroke-linejoin="miter" d="M 332.221554 221.185776 C 315.029454 292.204066 305.129922 368.699279 293.316308 443.749554 L 312.24927 452.375923 C 320.433922 456.113728 323.240089 438.151499 326.280103 431.316162 C 328.23749 425.129749 332.845146 424.273168 337.626022 423.754029 L 347.343673 425.372014 C 353.363073 427.059217 357.884119 426.730429 360.846184 439.440696 L 366.250652 460.500457 L 394.346961 461.028249 C 394.702062 455.949333 395.490214 450.896375 394.970553 445.938592 C 387.279579 372.1256 363.635028 301.989847 350.063229 229.2757 Z M 341.592764 343.278746 C 344.961896 343.200875 348.34835 346.981941 348.971942 355.158389 C 349.136501 357.373385 354.566953 383.650498 356.00468 385.934713 C 359.217914 391.048237 355.909409 396.75012 352.748142 396.75012 L 339.254292 396.75012 C 328.402049 396.75012 331.93574 390.598316 332.221554 386.471157 L 334.378145 354.621945 C 334.871822 347.319382 338.232293 343.365269 341.592764 343.278746 Z M 341.592764 343.278746 " stroke="#ffffff" stroke-width="1" stroke-opacity="1" stroke-miterlimit="4"/><path stroke-linecap="butt" transform="matrix(0.451016, 0, 0, 0.451468, 227.994909, 269.801812)" fill-opacity="1" fill="#fc9100" fill-rule="nonzero" stroke-linejoin="miter" d="M 375.976964 183.366459 L 433.243545 408.093319 L 455.389742 411.329289 C 454.6882 407.721269 465.341239 411.138938 460.317855 397.269259 C 457.667587 362.616694 443.931229 318.723445 433.243545 277.365327 L 490.501466 398.359452 C 490.501466 398.359452 512.786239 407.678007 517.515149 404.848697 C 524.582531 400.609057 531.294812 189.968184 530.480677 189.847051 C 522.789702 188.030063 518.346605 184.681613 507.416414 184.283606 L 499.145152 192.546577 L 496.988561 322.738124 L 420.278017 182.284918 C 405.147237 180.805371 389.739305 177.967408 375.976964 183.366459 Z M 375.976964 183.366459 " stroke="#ffffff" stroke-width="1" stroke-opacity="1" stroke-miterlimit="4"/><path stroke-linecap="butt" transform="matrix(0.451016, 0, 0, 0.451468, 227.994909, 269.801812)" fill-opacity="1" fill="#fc9100" fill-rule="nonzero" stroke-linejoin="miter" d="M 627.587893 295.647692 C 637.10634 292.489593 650.245089 295.37947 655.857422 285.714822 C 666.267953 257.551501 588.968461 167.316395 551.959976 276.552009 C 514.942829 385.787623 597.369638 505.440638 635.607986 398.783416 C 641.904539 381.219195 645.923246 343.771929 645.923246 343.771929 L 603.518953 343.391226 L 601.232447 359.821993 C 606.775492 362.313863 609.824167 362.833002 613.453129 372.039077 C 614.310569 432.432312 561.608338 402.711572 571.672429 315.124078 C 577.154846 267.475719 619.22136 230.42646 627.587893 295.647692 Z M 627.587893 295.647692 " stroke="#ffffff" stroke-width="1" stroke-opacity="1" stroke-miterlimit="4"/></svg>