<svg xmlns="http://www.w3.org/2000/svg" xmlns:xlink="http://www.w3.org/1999/xlink" width="1080" zoomAndPan="magnify" viewBox="0 0 810 809.999993" height="1080" preserveAspectRatio="xMidYMid meet" version="1.0"><defs><clipPath id="id1"><path d="M 162 247.679688 L 649 247.679688 L 649 562 L 162 562 Z M 162 247.679688 " clip-rule="nonzero"/></clipPath></defs><g clip-path="url(#id1)"><path fill="#141313" d="M 463.382812 367.296875 L 459.652344 370.078125 L 459.203125 370.414062 L 458.945312 370.59375 L 457.652344 371.433594 C 455.476562 372.785156 453.335938 374.175781 451.121094 375.488281 C 446.746094 378.179688 442.210938 380.714844 437.621094 383.203125 C 428.335938 388.070312 418.667969 392.632812 407.777344 395.910156 C 407.09375 396.117188 406.433594 396.339844 405.738281 396.527344 L 403.628906 397.070312 L 401.519531 397.609375 L 400.460938 397.875 L 399.363281 398.09375 L 394.957031 398.945312 L 390.347656 399.539062 L 389.191406 399.675781 L 387.984375 399.746094 L 385.566406 399.867188 C 384.753906 399.894531 383.972656 399.96875 383.128906 399.945312 L 380.601562 399.863281 L 378.070312 399.753906 L 377.746094 399.738281 L 377.34375 399.691406 L 376.535156 399.59375 L 374.917969 399.378906 C 373.855469 399.199219 372.816406 398.976562 371.769531 398.746094 C 370.761719 398.480469 369.746094 398.199219 368.753906 397.894531 C 364.828125 396.621094 361.335938 394.882812 358.246094 392.96875 C 355.148438 391.046875 352.441406 388.949219 350 386.789062 C 345.128906 382.453125 341.179688 377.90625 337.734375 373.308594 C 330.863281 364.09375 325.679688 354.695312 321.078125 345.234375 L 319.390625 341.679688 L 318.574219 339.902344 C 318.382812 339.476562 318.433594 339.605469 318.421875 339.582031 L 318.40625 339.578125 C 318.367188 339.5625 318.335938 339.554688 318.308594 339.554688 C 318.253906 339.554688 318.222656 339.582031 318.207031 339.613281 C 318.167969 339.675781 318.183594 339.765625 318.179688 339.621094 C 318.175781 339.519531 318.15625 339.296875 318.015625 339.21875 C 317.945312 339.179688 317.84375 339.175781 317.691406 339.242188 C 317.652344 339.261719 317.613281 339.277344 317.566406 339.3125 L 317.480469 339.386719 L 317.4375 339.425781 L 317.417969 339.445312 L 317.246094 339.804688 C 316.1875 342.089844 315.105469 344.367188 313.988281 346.636719 C 310.71875 353.253906 307.316406 359.867188 303.488281 366.417969 C 299.671875 372.972656 295.496094 379.496094 290.417969 385.941406 C 287.84375 389.160156 285.019531 392.367188 281.644531 395.488281 C 278.269531 398.585938 274.320312 401.699219 269.003906 404.164062 C 268.324219 404.460938 267.691406 404.769531 266.964844 405.035156 L 264.679688 405.78125 C 264.292969 405.902344 263.921875 406.039062 263.527344 406.144531 L 262.328125 406.425781 C 261.523438 406.601562 260.71875 406.777344 259.90625 406.914062 C 258.277344 407.113281 256.644531 407.402344 254.996094 407.273438 C 254.175781 407.238281 253.347656 407.277344 252.535156 407.175781 L 250.09375 406.820312 C 249.273438 406.738281 248.484375 406.507812 247.6875 406.300781 C 246.898438 406.078125 246.097656 405.878906 245.324219 405.597656 C 244.558594 405.308594 243.792969 405 243.035156 404.679688 C 242.65625 404.515625 242.277344 404.359375 241.90625 404.183594 L 240.816406 403.605469 C 240.089844 403.214844 239.371094 402.804688 238.664062 402.386719 C 237.960938 401.964844 237.398438 401.484375 236.757812 401.035156 L 234.90625 399.667969 L 233.40625 398.34375 C 229.46875 394.773438 226.671875 391.058594 224.246094 387.410156 C 223.109375 385.59375 221.960938 383.761719 221.015625 381.953125 C 219.980469 380.132812 219.136719 378.335938 218.25 376.527344 C 215.113281 369.648438 212.304688 362.910156 209.820312 356.027344 C 207.273438 349.179688 205.054688 342.289062 202.96875 335.378906 L 201.472656 330.183594 L 201.113281 328.925781 C 201.144531 329.039062 201.121094 328.953125 201.128906 328.976562 L 201.128906 328.96875 L 201.125 328.953125 L 201.121094 328.925781 L 201.109375 328.867188 L 201.089844 328.75 L 201.007812 328.273438 L 200.660156 326.09375 C 200.515625 325.128906 200.265625 323.941406 199.972656 322.53125 C 199.820312 321.820312 199.660156 321.054688 199.492188 320.246094 C 199.410156 319.832031 199.324219 319.402344 199.234375 318.964844 L 199.203125 318.796875 C 199.191406 318.75 199.183594 318.644531 199.164062 318.730469 L 199.078125 318.984375 C 199.015625 319.179688 198.957031 319.253906 198.886719 319.664062 L 198.695312 320.070312 C 198.632812 320.222656 198.5625 320.429688 198.492188 320.613281 C 198.351562 321 198.203125 321.394531 198.058594 321.792969 C 197.734375 322.632812 197.398438 323.496094 197.058594 324.386719 C 195.488281 328.21875 193.84375 332.242188 192.160156 336.359375 C 185.117188 353.347656 177.257812 370.925781 168.027344 386.898438 C 166.519531 389.417969 165.128906 392.316406 163.332031 391.492188 C 161.398438 390.597656 162.144531 387.378906 163.542969 384.222656 C 167.707031 374.476562 171.117188 364.453125 174.753906 354.519531 C 176.859375 348.789062 178.855469 343.015625 180.816406 337.234375 C 181.785156 334.339844 182.78125 331.453125 183.714844 328.546875 L 185.175781 324.066406 L 186.78125 318.972656 C 191.132812 305.394531 195.472656 290.425781 200.171875 273.746094 C 200.289062 273.625 200.40625 273.53125 200.519531 273.390625 L 200.847656 272.9375 C 201.066406 272.628906 201.296875 272.359375 201.503906 272.019531 C 201.621094 271.625 201.695312 272.277344 201.789062 272.570312 L 202.058594 273.636719 L 202.617188 275.792969 L 204.980469 284.613281 L 207.507812 293.703125 C 208.378906 296.777344 209.253906 299.882812 210.203125 302.925781 C 212.058594 309.0625 214.035156 315.277344 216.203125 321.523438 L 219.066406 329.390625 C 219.960938 331.851562 220.933594 334.28125 221.863281 336.726562 C 225.679688 346.457031 229.871094 356.023438 234.628906 365.191406 L 235.507812 366.917969 C 235.804688 367.484375 236.117188 368.015625 236.417969 368.5625 C 237.023438 369.65625 237.625 370.75 238.289062 371.773438 L 239.261719 373.339844 C 239.585938 373.855469 239.945312 374.335938 240.285156 374.832031 C 240.632812 375.324219 240.964844 375.828125 241.320312 376.308594 L 242.410156 377.691406 C 243.113281 378.652344 243.917969 379.421875 244.664062 380.289062 C 245.050781 380.6875 245.457031 381.042969 245.847656 381.421875 L 246.4375 381.984375 L 247.046875 382.460938 C 248.707031 383.832031 250.039062 384.582031 251.613281 385.085938 C 253.25 385.613281 255.019531 385.6875 256.65625 385.269531 C 257.058594 385.121094 257.464844 385.074219 257.867188 384.894531 L 258.472656 384.644531 C 258.671875 384.570312 258.875 384.492188 259.09375 384.359375 C 259.941406 383.9375 260.8125 383.402344 261.679688 382.792969 C 263.417969 381.570312 265.136719 379.972656 266.773438 378.195312 C 268.40625 376.414062 269.996094 374.492188 271.480469 372.40625 C 277.472656 364.09375 282.371094 354.410156 286.820312 344.5625 C 289.03125 339.613281 291.113281 334.578125 293.097656 329.492188 L 295.289062 323.71875 C 296.023438 321.730469 296.769531 319.75 297.484375 317.71875 C 298.941406 313.691406 300.34375 309.53125 301.730469 305.269531 C 304.515625 296.796875 307.125 287.292969 309.890625 277.554688 C 312.628906 267.8125 315.433594 257.660156 318.132812 247.679688 L 318.691406 248.445312 C 318.871094 248.527344 319.035156 249.238281 319.207031 249.789062 L 320.261719 253.273438 L 322.480469 260.523438 L 327.21875 275.695312 L 332.191406 291.261719 C 333.023438 293.882812 333.859375 296.484375 334.726562 299.007812 C 335.605469 301.507812 336.472656 304.019531 337.390625 306.457031 C 339.21875 311.339844 341.136719 316.113281 343.183594 320.839844 C 343.699219 322.015625 344.203125 323.207031 344.746094 324.375 L 345.550781 326.136719 C 345.804688 326.703125 346.140625 327.410156 346.261719 327.648438 C 346.933594 329.027344 347.617188 330.394531 348.3125 331.753906 C 351.097656 337.179688 354.085938 342.429688 357.332031 347.320312 C 361.050781 352.882812 365.097656 358.089844 369.324219 362.027344 C 370.375 363.007812 371.433594 363.910156 372.476562 364.679688 C 373.519531 365.484375 374.550781 366.121094 375.53125 366.667969 C 377.507812 367.738281 379.222656 368.253906 380.582031 368.308594 L 380.839844 368.332031 C 380.925781 368.34375 381.140625 368.332031 381.28125 368.335938 L 382.234375 368.339844 C 382.882812 368.324219 383.476562 368.40625 384.160156 368.339844 C 385.523438 368.203125 386.824219 368.214844 388.265625 367.941406 L 390.382812 367.640625 L 392.566406 367.171875 C 394.007812 366.921875 395.511719 366.449219 396.992188 366.066406 C 402.960938 364.382812 409.097656 361.917969 415.167969 359.039062 C 421.246094 356.15625 427.28125 352.851562 433.234375 349.285156 C 436.21875 347.496094 439.152344 345.667969 442.125 343.734375 C 444.878906 341.984375 447.707031 340.113281 450.484375 338.183594 L 454.679688 335.304688 C 456.078125 334.34375 457.476562 333.3125 458.882812 332.320312 L 463.09375 329.300781 L 467.347656 326.089844 L 469.476562 324.484375 L 470.542969 323.675781 L 471.632812 322.808594 L 475.992188 319.332031 L 478.1875 317.574219 L 480.453125 315.664062 L 484.992188 311.84375 L 494.296875 303.964844 L 531.566406 272.261719 L 510.75 329.179688 C 509.085938 333.824219 507.277344 338.640625 505.917969 342.972656 L 503.71875 349.652344 C 502.996094 351.871094 502.210938 354.152344 501.578125 356.285156 L 497.558594 369.328125 C 496.882812 371.511719 496.339844 373.632812 495.726562 375.796875 L 494.128906 381.984375 C 493.695312 383.660156 493.300781 385.332031 492.929688 387.003906 L 491.78125 392.015625 C 491.40625 393.683594 491.101562 395.34375 490.75 397.007812 C 490.425781 398.664062 490.027344 400.335938 489.753906 401.976562 L 488.890625 406.910156 C 488.753906 407.730469 488.582031 408.5625 488.476562 409.367188 L 488.152344 411.789062 L 487.5 416.621094 L 487.109375 421.292969 C 487.058594 422.058594 486.9375 422.875 486.9375 423.597656 L 486.910156 425.777344 L 486.863281 427.957031 L 486.839844 429.050781 L 486.882812 430.234375 C 486.972656 433.40625 487.214844 436.496094 487.566406 439.488281 C 488.25 445.464844 489.523438 451.050781 491.40625 455.414062 C 491.652344 455.941406 491.890625 456.472656 492.121094 457.003906 C 492.386719 457.476562 492.652344 457.941406 492.902344 458.417969 C 493.136719 458.929688 493.449219 459.277344 493.714844 459.703125 L 494.113281 460.328125 C 494.246094 460.539062 494.410156 460.679688 494.550781 460.859375 C 494.847656 461.1875 495.09375 461.605469 495.398438 461.894531 C 495.707031 462.179688 496 462.472656 496.28125 462.789062 C 496.578125 463.070312 496.917969 463.265625 497.210938 463.539062 C 497.492188 463.835938 497.851562 464.003906 498.1875 464.210938 C 498.691406 464.640625 499.878906 465.113281 500.847656 465.621094 C 501.335938 465.882812 501.972656 466.054688 502.523438 466.289062 L 503.382812 466.625 L 503.8125 466.796875 L 504.285156 466.933594 C 505.566406 467.289062 506.765625 467.738281 508.171875 468.007812 L 510.210938 468.484375 L 512.367188 468.851562 C 518.148438 469.828125 524.496094 470.195312 530.988281 470.15625 C 537.488281 470.113281 544.171875 469.71875 550.898438 469.039062 C 556.613281 468.464844 563.460938 467.679688 571.078125 466.546875 C 572.886719 466.222656 574.714844 465.898438 576.566406 465.566406 C 578.523438 465.21875 580.464844 464.820312 582.433594 464.445312 C 586.304688 463.6875 590.25 462.917969 594.265625 462.132812 C 596.242188 461.765625 598.269531 461.230469 600.277344 460.785156 C 601.285156 460.550781 602.292969 460.316406 603.304688 460.082031 C 604.335938 459.8125 605.375 459.542969 606.414062 459.273438 C 610.523438 458.191406 614.695312 457.09375 618.914062 455.980469 C 626.722656 453.933594 634.714844 451.839844 642.808594 449.71875 C 644.585938 449.253906 646.371094 448.789062 648.160156 448.324219 C 648.363281 448.277344 648.617188 448.191406 648.765625 448.179688 L 648.191406 448.804688 L 647.046875 450.058594 L 644.757812 452.558594 C 641.742188 455.851562 638.707031 459.152344 635.671875 462.464844 C 632.691406 465.695312 629.707031 468.933594 626.726562 472.171875 L 622.324219 476.933594 L 620.144531 479.289062 C 619.417969 480.070312 618.722656 480.835938 617.878906 481.667969 C 611.59375 487.992188 605.347656 494.28125 599.191406 500.472656 C 597.714844 501.960938 596.238281 503.441406 594.769531 504.914062 C 594.046875 505.640625 593.324219 506.367188 592.601562 507.089844 L 591.59375 508.09375 L 590.957031 508.695312 C 589.257812 510.296875 587.578125 511.882812 585.917969 513.449219 C 582.601562 516.582031 579.367188 519.632812 576.25 522.574219 C 570.019531 528.460938 564.261719 533.90625 559.226562 538.664062 C 549.15625 548.171875 541.996094 554.929688 539.699219 556.867188 C 537.246094 558.929688 533.46875 562.675781 532.472656 560.394531 C 531.5625 558.320312 534.65625 554.183594 537.089844 551.207031 C 545.855469 540.46875 554.746094 529.777344 563.703125 519.148438 L 578.5625 501.546875 L 581.042969 498.617188 C 581.292969 498.316406 581.347656 498.269531 581.46875 498.132812 L 581.800781 497.773438 L 582.457031 497.0625 L 587.445312 491.722656 L 588.035156 491.09375 C 588.230469 490.886719 588.351562 490.699219 588.511719 490.503906 L 589.390625 489.355469 L 591.0625 487.160156 L 592.625 485.09375 L 592.996094 484.59375 L 593.179688 484.347656 C 593.21875 484.28125 593.398438 484.121094 593.164062 484.234375 L 591.480469 484.839844 C 589.261719 485.625 587.140625 486.328125 585.113281 486.960938 C 583.085938 487.597656 581.152344 488.171875 579.292969 488.683594 L 576.558594 489.433594 L 569.6875 490.992188 C 564.542969 492.101562 559.355469 493.101562 554.121094 493.980469 C 548.871094 494.816406 543.582031 495.546875 538.214844 496.0625 C 532.835938 496.539062 527.402344 496.851562 521.859375 496.835938 C 516.3125 496.785156 510.664062 496.449219 504.886719 495.5625 C 499.121094 494.675781 493.148438 493.140625 487.195312 490.429688 L 486.082031 489.9375 C 485.707031 489.761719 485.304688 489.519531 484.917969 489.308594 L 482.582031 487.980469 C 481.789062 487.554688 481.070312 487.023438 480.347656 486.496094 L 478.191406 484.894531 C 476.820312 483.765625 475.539062 482.535156 474.265625 481.3125 L 472.539062 479.359375 C 471.980469 478.699219 471.359375 478.058594 470.890625 477.363281 C 466.730469 471.910156 463.96875 466.003906 461.992188 460.210938 C 460.023438 454.394531 458.808594 448.621094 458.003906 442.941406 C 457.613281 440.167969 457.328125 437.414062 457.113281 434.679688 C 456.980469 433.304688 456.933594 431.953125 456.84375 430.589844 C 456.789062 429.921875 456.785156 429.203125 456.78125 428.484375 L 456.765625 426.335938 L 456.75 422.03125 C 456.777344 420.613281 456.898438 419.273438 456.96875 417.886719 L 457.222656 413.765625 C 457.300781 412.382812 457.496094 411.085938 457.628906 409.738281 C 458.757812 399.035156 460.570312 388.738281 462.796875 378.632812 C 463.058594 377.355469 463.335938 376.09375 463.636719 374.84375 L 463.847656 373.941406 L 463.886719 373.746094 L 463.96875 373.355469 C 464.011719 372.878906 464.082031 372.4375 464.160156 372.007812 C 464.304688 371.148438 464.453125 370.367188 464.601562 369.636719 C 464.90625 368.171875 465.222656 366.914062 465.695312 365.546875 C 465.699219 365.53125 465.714844 365.503906 465.707031 365.507812 L 465.667969 365.539062 L 465.59375 365.605469 L 465.441406 365.738281 L 465.140625 365.988281 L 464.546875 366.460938 C 464.15625 366.761719 463.773438 367.039062 463.382812 367.296875 Z M 463.382812 367.296875 " fill-opacity="1" fill-rule="nonzero"/></g></svg>