<svg xmlns="http://www.w3.org/2000/svg" xmlns:xlink="http://www.w3.org/1999/xlink" width="1080" zoomAndPan="magnify" viewBox="0 0 810 809.999993" height="1080" preserveAspectRatio="xMidYMid meet" version="1.0"><defs><clipPath id="id1"><path d="M 317 319.269531 L 493 319.269531 L 493 491.019531 L 317 491.019531 Z M 317 319.269531 " clip-rule="nonzero"/></clipPath></defs><path fill="#261300" d="M 324.386719 326.609375 L 485.351562 326.609375 L 485.351562 483.683594 L 324.386719 483.683594 Z M 324.386719 326.609375 " fill-opacity="1" fill-rule="nonzero"/><g clip-path="url(#id1)"><path fill="#ff7c00" d="M 317.070312 319.269531 L 317.070312 491.019531 L 492.667969 491.019531 L 492.667969 319.269531 Z M 324.386719 326.609375 L 485.351562 326.609375 L 485.351562 483.683594 L 324.386719 483.683594 Z M 378.015625 416.519531 L 372.234375 438.539062 C 372.089844 439.125 371.871094 439.273438 371.136719 439.273438 L 360.382812 439.273438 C 359.648438 439.273438 359.503906 439.054688 359.648438 438.171875 L 380.429688 365.214844 C 380.792969 363.894531 381.011719 362.71875 381.160156 359.125 C 381.160156 358.609375 381.378906 358.390625 381.746094 358.390625 L 397.109375 358.390625 C 397.625 358.390625 397.84375 358.535156 397.988281 359.125 L 421.253906 438.320312 C 421.398438 438.90625 421.253906 439.273438 420.671875 439.273438 L 408.523438 439.273438 C 407.941406 439.273438 407.570312 439.128906 407.425781 438.613281 L 401.355469 416.519531 Z M 398.355469 404.628906 L 389.648438 370.132812 L 389.503906 370.132812 C 387.96875 378.722656 384.089844 393.253906 381.019531 404.628906 Z M 431.28125 363.820312 C 431.28125 359.121094 434.574219 356.332031 438.742188 356.332031 C 443.207031 356.332031 446.207031 359.34375 446.207031 363.820312 C 446.207031 368.664062 443.058594 371.308594 438.597656 371.308594 C 434.351562 371.308594 431.28125 368.664062 431.28125 363.820312 Z M 432.160156 380.480469 C 432.160156 379.894531 432.378906 379.601562 433.035156 379.601562 L 444.523438 379.601562 C 445.109375 379.601562 445.402344 379.820312 445.402344 380.480469 L 445.402344 438.390625 C 445.402344 438.976562 445.257812 439.273438 444.523438 439.273438 L 433.183594 439.273438 C 432.453125 439.273438 432.234375 438.90625 432.234375 438.316406 L 432.234375 380.484375 Z M 432.160156 380.480469 " fill-opacity="1" fill-rule="nonzero"/></g></svg>