<svg xmlns="http://www.w3.org/2000/svg" xmlns:xlink="http://www.w3.org/1999/xlink" width="1080" zoomAndPan="magnify" viewBox="0 0 810 809.999993" height="1080" preserveAspectRatio="xMidYMid meet" version="1.0"><defs><clipPath id="id1"><path d="M 340 299.050781 L 466 299.050781 L 466 426 L 340 426 Z M 340 299.050781 " clip-rule="nonzero"/></clipPath><clipPath id="id2"><path d="M 360.53125 298.90625 L 445.390625 298.90625 C 446.054688 298.90625 446.714844 298.941406 447.375 299.003906 C 448.035156 299.070312 448.691406 299.167969 449.339844 299.296875 C 449.992188 299.425781 450.632812 299.589844 451.269531 299.78125 C 451.902344 299.972656 452.527344 300.199219 453.140625 300.453125 C 453.75 300.707031 454.351562 300.992188 454.933594 301.304688 C 455.519531 301.617188 456.089844 301.957031 456.640625 302.328125 C 457.191406 302.695312 457.722656 303.09375 458.234375 303.515625 C 458.75 303.9375 459.238281 304.382812 459.707031 304.851562 C 460.175781 305.320312 460.621094 305.8125 461.042969 306.328125 C 461.464844 306.839844 461.859375 307.375 462.226562 307.925781 C 462.59375 308.480469 462.9375 309.050781 463.25 309.636719 C 463.5625 310.222656 463.84375 310.820312 464.097656 311.433594 C 464.351562 312.050781 464.574219 312.675781 464.769531 313.3125 C 464.960938 313.945312 465.121094 314.589844 465.25 315.242188 C 465.378906 315.894531 465.476562 316.550781 465.542969 317.210938 C 465.605469 317.875 465.640625 318.539062 465.640625 319.203125 L 465.640625 404.765625 C 465.640625 405.429688 465.605469 406.09375 465.542969 406.753906 C 465.476562 407.417969 465.378906 408.074219 465.25 408.726562 C 465.121094 409.378906 464.960938 410.023438 464.769531 410.65625 C 464.574219 411.292969 464.351562 411.917969 464.097656 412.53125 C 463.84375 413.148438 463.5625 413.746094 463.25 414.332031 C 462.9375 414.917969 462.59375 415.488281 462.226562 416.042969 C 461.859375 416.59375 461.464844 417.128906 461.042969 417.640625 C 460.621094 418.15625 460.175781 418.648438 459.707031 419.117188 C 459.238281 419.585938 458.75 420.03125 458.234375 420.453125 C 457.722656 420.875 457.191406 421.273438 456.640625 421.640625 C 456.089844 422.011719 455.519531 422.351562 454.933594 422.664062 C 454.351562 422.976562 453.75 423.261719 453.140625 423.515625 C 452.527344 423.769531 451.902344 423.992188 451.269531 424.1875 C 450.632812 424.378906 449.992188 424.542969 449.339844 424.671875 C 448.691406 424.800781 448.035156 424.898438 447.375 424.964844 C 446.714844 425.027344 446.054688 425.0625 445.390625 425.0625 L 360.53125 425.0625 C 359.867188 425.0625 359.207031 425.027344 358.546875 424.964844 C 357.886719 424.898438 357.230469 424.800781 356.582031 424.671875 C 355.929688 424.542969 355.289062 424.378906 354.652344 424.1875 C 354.019531 423.996094 353.394531 423.769531 352.78125 423.515625 C 352.167969 423.261719 351.570312 422.976562 350.984375 422.664062 C 350.398438 422.351562 349.832031 422.011719 349.28125 421.640625 C 348.730469 421.273438 348.195312 420.875 347.683594 420.453125 C 347.171875 420.03125 346.679688 419.585938 346.210938 419.117188 C 345.742188 418.648438 345.296875 418.15625 344.878906 417.640625 C 344.457031 417.128906 344.0625 416.59375 343.695312 416.042969 C 343.324219 415.488281 342.984375 414.917969 342.671875 414.332031 C 342.359375 413.746094 342.074219 413.148438 341.820312 412.53125 C 341.570312 411.917969 341.34375 411.292969 341.152344 410.65625 C 340.960938 410.023438 340.800781 409.378906 340.667969 408.726562 C 340.539062 408.074219 340.441406 407.417969 340.378906 406.753906 C 340.3125 406.09375 340.28125 405.429688 340.28125 404.765625 L 340.28125 319.203125 C 340.28125 318.539062 340.3125 317.875 340.378906 317.210938 C 340.441406 316.550781 340.539062 315.894531 340.667969 315.242188 C 340.800781 314.589844 340.960938 313.945312 341.152344 313.3125 C 341.34375 312.675781 341.570312 312.050781 341.820312 311.433594 C 342.074219 310.820312 342.359375 310.222656 342.671875 309.636719 C 342.984375 309.050781 343.324219 308.480469 343.695312 307.925781 C 344.0625 307.375 344.457031 306.839844 344.878906 306.328125 C 345.296875 305.8125 345.742188 305.320312 346.210938 304.851562 C 346.679688 304.382812 347.171875 303.9375 347.683594 303.515625 C 348.195312 303.09375 348.730469 302.695312 349.28125 302.328125 C 349.832031 301.957031 350.398438 301.617188 350.984375 301.304688 C 351.570312 300.992188 352.167969 300.707031 352.78125 300.453125 C 353.394531 300.199219 354.019531 299.972656 354.652344 299.78125 C 355.289062 299.589844 355.929688 299.425781 356.582031 299.296875 C 357.230469 299.167969 357.886719 299.070312 358.546875 299.003906 C 359.207031 298.941406 359.867188 298.90625 360.53125 298.90625 Z M 360.53125 298.90625 " clip-rule="nonzero"/></clipPath><linearGradient x1="255.659417" gradientTransform="matrix(0.979213, 0, 0, 0.981358, 90.346332, -118.493639)" y1="554.292211" x2="382.753291" gradientUnits="userSpaceOnUse" y2="424.977901" id="id3"><stop stop-opacity="1" stop-color="rgb(94.499207%, 39.599609%, 16.099548%)" offset="0"/><stop stop-opacity="1" stop-color="rgb(94.499207%, 39.599609%, 16.099548%)" offset="0.03125"/><stop stop-opacity="1" stop-color="rgb(94.499207%, 39.599609%, 16.099548%)" offset="0.046875"/><stop stop-opacity="1" stop-color="rgb(94.499207%, 39.599609%, 16.099548%)" offset="0.0546875"/><stop stop-opacity="1" stop-color="rgb(94.499207%, 39.808655%, 16.029358%)" offset="0.0585937"/><stop stop-opacity="1" stop-color="rgb(94.499207%, 40.019226%, 15.959167%)" offset="0.0625"/><stop stop-opacity="1" stop-color="rgb(94.499207%, 40.231323%, 15.887451%)" offset="0.0664062"/><stop stop-opacity="1" stop-color="rgb(94.499207%, 40.44342%, 15.817261%)" offset="0.0703125"/><stop stop-opacity="1" stop-color="rgb(94.499207%, 40.655518%, 15.745544%)" offset="0.0742187"/><stop stop-opacity="1" stop-color="rgb(94.499207%, 40.867615%, 15.675354%)" offset="0.078125"/><stop stop-opacity="1" stop-color="rgb(94.499207%, 41.079712%, 15.603638%)" offset="0.0820312"/><stop stop-opacity="1" stop-color="rgb(94.499207%, 41.293335%, 15.533447%)" offset="0.0859375"/><stop stop-opacity="1" stop-color="rgb(94.499207%, 41.505432%, 15.461731%)" offset="0.0898437"/><stop stop-opacity="1" stop-color="rgb(94.499207%, 41.717529%, 15.391541%)" offset="0.09375"/><stop stop-opacity="1" stop-color="rgb(94.499207%, 41.929626%, 15.319824%)" offset="0.0976562"/><stop stop-opacity="1" stop-color="rgb(94.499207%, 42.141724%, 15.249634%)" offset="0.101562"/><stop stop-opacity="1" stop-color="rgb(94.499207%, 42.353821%, 15.177917%)" offset="0.105469"/><stop stop-opacity="1" stop-color="rgb(94.499207%, 42.565918%, 15.107727%)" offset="0.109375"/><stop stop-opacity="1" stop-color="rgb(94.499207%, 42.778015%, 15.036011%)" offset="0.113281"/><stop stop-opacity="1" stop-color="rgb(94.499207%, 42.990112%, 14.96582%)" offset="0.117187"/><stop stop-opacity="1" stop-color="rgb(94.499207%, 43.202209%, 14.89563%)" offset="0.121094"/><stop stop-opacity="1" stop-color="rgb(94.499207%, 43.414307%, 14.825439%)" offset="0.125"/><stop stop-opacity="1" stop-color="rgb(94.499207%, 43.626404%, 14.753723%)" offset="0.128906"/><stop stop-opacity="1" stop-color="rgb(94.499207%, 43.838501%, 14.683533%)" offset="0.132812"/><stop stop-opacity="1" stop-color="rgb(94.499207%, 44.050598%, 14.611816%)" offset="0.136719"/><stop stop-opacity="1" stop-color="rgb(94.499207%, 44.264221%, 14.541626%)" offset="0.140625"/><stop stop-opacity="1" stop-color="rgb(94.499207%, 44.476318%, 14.46991%)" offset="0.144531"/><stop stop-opacity="1" stop-color="rgb(94.499207%, 44.688416%, 14.399719%)" offset="0.148437"/><stop stop-opacity="1" stop-color="rgb(94.499207%, 44.900513%, 14.328003%)" offset="0.152344"/><stop stop-opacity="1" stop-color="rgb(94.499207%, 45.11261%, 14.257812%)" offset="0.15625"/><stop stop-opacity="1" stop-color="rgb(94.499207%, 45.324707%, 14.186096%)" offset="0.160156"/><stop stop-opacity="1" stop-color="rgb(94.499207%, 45.536804%, 14.115906%)" offset="0.164062"/><stop stop-opacity="1" stop-color="rgb(94.499207%, 45.748901%, 14.044189%)" offset="0.167969"/><stop stop-opacity="1" stop-color="rgb(94.499207%, 45.960999%, 13.973999%)" offset="0.171875"/><stop stop-opacity="1" stop-color="rgb(94.499207%, 46.173096%, 13.902283%)" offset="0.175781"/><stop stop-opacity="1" stop-color="rgb(94.499207%, 46.385193%, 13.832092%)" offset="0.179687"/><stop stop-opacity="1" stop-color="rgb(94.499207%, 46.59729%, 13.760376%)" offset="0.183594"/><stop stop-opacity="1" stop-color="rgb(94.499207%, 46.810913%, 13.690186%)" offset="0.1875"/><stop stop-opacity="1" stop-color="rgb(94.499207%, 47.02301%, 13.618469%)" offset="0.191406"/><stop stop-opacity="1" stop-color="rgb(94.499207%, 47.235107%, 13.548279%)" offset="0.195312"/><stop stop-opacity="1" stop-color="rgb(94.499207%, 47.447205%, 13.476562%)" offset="0.199219"/><stop stop-opacity="1" stop-color="rgb(94.499207%, 47.659302%, 13.406372%)" offset="0.203125"/><stop stop-opacity="1" stop-color="rgb(94.499207%, 47.871399%, 13.336182%)" offset="0.207031"/><stop stop-opacity="1" stop-color="rgb(94.499207%, 48.083496%, 13.265991%)" offset="0.210937"/><stop stop-opacity="1" stop-color="rgb(94.499207%, 48.295593%, 13.194275%)" offset="0.214844"/><stop stop-opacity="1" stop-color="rgb(94.499207%, 48.50769%, 13.124084%)" offset="0.21875"/><stop stop-opacity="1" stop-color="rgb(94.499207%, 48.719788%, 13.052368%)" offset="0.222656"/><stop stop-opacity="1" stop-color="rgb(94.499207%, 48.931885%, 12.982178%)" offset="0.226562"/><stop stop-opacity="1" stop-color="rgb(94.499207%, 49.143982%, 12.910461%)" offset="0.230469"/><stop stop-opacity="1" stop-color="rgb(94.499207%, 49.356079%, 12.840271%)" offset="0.234375"/><stop stop-opacity="1" stop-color="rgb(94.499207%, 49.568176%, 12.768555%)" offset="0.238281"/><stop stop-opacity="1" stop-color="rgb(94.499207%, 49.781799%, 12.698364%)" offset="0.242187"/><stop stop-opacity="1" stop-color="rgb(94.499207%, 49.993896%, 12.626648%)" offset="0.246094"/><stop stop-opacity="1" stop-color="rgb(94.499207%, 50.205994%, 12.556458%)" offset="0.25"/><stop stop-opacity="1" stop-color="rgb(94.499207%, 50.418091%, 12.484741%)" offset="0.253906"/><stop stop-opacity="1" stop-color="rgb(94.499207%, 50.630188%, 12.414551%)" offset="0.257812"/><stop stop-opacity="1" stop-color="rgb(94.499207%, 50.842285%, 12.342834%)" offset="0.261719"/><stop stop-opacity="1" stop-color="rgb(94.499207%, 51.054382%, 12.272644%)" offset="0.265625"/><stop stop-opacity="1" stop-color="rgb(94.499207%, 51.266479%, 12.200928%)" offset="0.269531"/><stop stop-opacity="1" stop-color="rgb(94.499207%, 51.478577%, 12.130737%)" offset="0.273438"/><stop stop-opacity="1" stop-color="rgb(94.499207%, 51.690674%, 12.059021%)" offset="0.277344"/><stop stop-opacity="1" stop-color="rgb(94.499207%, 51.902771%, 11.988831%)" offset="0.28125"/><stop stop-opacity="1" stop-color="rgb(94.499207%, 52.114868%, 11.917114%)" offset="0.285156"/><stop stop-opacity="1" stop-color="rgb(94.499207%, 52.328491%, 11.846924%)" offset="0.289062"/><stop stop-opacity="1" stop-color="rgb(94.499207%, 52.540588%, 11.776733%)" offset="0.292969"/><stop stop-opacity="1" stop-color="rgb(94.499207%, 52.752686%, 11.706543%)" offset="0.296875"/><stop stop-opacity="1" stop-color="rgb(94.499207%, 52.964783%, 11.634827%)" offset="0.300781"/><stop stop-opacity="1" stop-color="rgb(94.499207%, 53.17688%, 11.564636%)" offset="0.304688"/><stop stop-opacity="1" stop-color="rgb(94.499207%, 53.388977%, 11.49292%)" offset="0.308594"/><stop stop-opacity="1" stop-color="rgb(94.499207%, 53.601074%, 11.422729%)" offset="0.3125"/><stop stop-opacity="1" stop-color="rgb(94.499207%, 53.813171%, 11.351013%)" offset="0.316406"/><stop stop-opacity="1" stop-color="rgb(94.499207%, 54.025269%, 11.280823%)" offset="0.320312"/><stop stop-opacity="1" stop-color="rgb(94.499207%, 54.237366%, 11.209106%)" offset="0.324219"/><stop stop-opacity="1" stop-color="rgb(94.499207%, 54.449463%, 11.138916%)" offset="0.328125"/><stop stop-opacity="1" stop-color="rgb(94.499207%, 54.66156%, 11.0672%)" offset="0.332031"/><stop stop-opacity="1" stop-color="rgb(94.499207%, 54.873657%, 10.997009%)" offset="0.335938"/><stop stop-opacity="1" stop-color="rgb(94.499207%, 55.085754%, 10.925293%)" offset="0.339844"/><stop stop-opacity="1" stop-color="rgb(94.499207%, 55.299377%, 10.855103%)" offset="0.34375"/><stop stop-opacity="1" stop-color="rgb(94.499207%, 55.511475%, 10.783386%)" offset="0.347656"/><stop stop-opacity="1" stop-color="rgb(94.499207%, 55.723572%, 10.713196%)" offset="0.351562"/><stop stop-opacity="1" stop-color="rgb(94.499207%, 55.935669%, 10.641479%)" offset="0.355469"/><stop stop-opacity="1" stop-color="rgb(94.499207%, 56.147766%, 10.571289%)" offset="0.359375"/><stop stop-opacity="1" stop-color="rgb(94.499207%, 56.359863%, 10.499573%)" offset="0.363281"/><stop stop-opacity="1" stop-color="rgb(94.499207%, 56.57196%, 10.429382%)" offset="0.367188"/><stop stop-opacity="1" stop-color="rgb(94.499207%, 56.784058%, 10.357666%)" offset="0.371094"/><stop stop-opacity="1" stop-color="rgb(94.499207%, 56.996155%, 10.287476%)" offset="0.375"/><stop stop-opacity="1" stop-color="rgb(94.499207%, 57.208252%, 10.215759%)" offset="0.378906"/><stop stop-opacity="1" stop-color="rgb(94.499207%, 57.420349%, 10.145569%)" offset="0.382812"/><stop stop-opacity="1" stop-color="rgb(94.499207%, 57.632446%, 10.075378%)" offset="0.386719"/><stop stop-opacity="1" stop-color="rgb(94.499207%, 57.846069%, 10.005188%)" offset="0.390625"/><stop stop-opacity="1" stop-color="rgb(94.499207%, 58.058167%, 9.933472%)" offset="0.394531"/><stop stop-opacity="1" stop-color="rgb(94.499207%, 58.270264%, 9.863281%)" offset="0.398437"/><stop stop-opacity="1" stop-color="rgb(94.499207%, 58.482361%, 9.791565%)" offset="0.402344"/><stop stop-opacity="1" stop-color="rgb(94.499207%, 58.694458%, 9.721375%)" offset="0.40625"/><stop stop-opacity="1" stop-color="rgb(94.499207%, 58.906555%, 9.649658%)" offset="0.410156"/><stop stop-opacity="1" stop-color="rgb(94.499207%, 59.118652%, 9.579468%)" offset="0.414062"/><stop stop-opacity="1" stop-color="rgb(94.499207%, 59.33075%, 9.507751%)" offset="0.417969"/><stop stop-opacity="1" stop-color="rgb(94.499207%, 59.542847%, 9.437561%)" offset="0.421875"/><stop stop-opacity="1" stop-color="rgb(94.499207%, 59.754944%, 9.365845%)" offset="0.425781"/><stop stop-opacity="1" stop-color="rgb(94.499207%, 59.967041%, 9.295654%)" offset="0.429687"/><stop stop-opacity="1" stop-color="rgb(94.499207%, 60.179138%, 9.223938%)" offset="0.433594"/><stop stop-opacity="1" stop-color="rgb(94.499207%, 60.392761%, 9.153748%)" offset="0.4375"/><stop stop-opacity="1" stop-color="rgb(94.499207%, 60.604858%, 9.082031%)" offset="0.441406"/><stop stop-opacity="1" stop-color="rgb(94.499207%, 60.816956%, 9.011841%)" offset="0.445312"/><stop stop-opacity="1" stop-color="rgb(94.499207%, 61.029053%, 8.940125%)" offset="0.449219"/><stop stop-opacity="1" stop-color="rgb(94.499207%, 61.24115%, 8.869934%)" offset="0.453125"/><stop stop-opacity="1" stop-color="rgb(94.499207%, 61.453247%, 8.798218%)" offset="0.457031"/><stop stop-opacity="1" stop-color="rgb(94.499207%, 61.665344%, 8.728027%)" offset="0.460937"/><stop stop-opacity="1" stop-color="rgb(94.499207%, 61.877441%, 8.656311%)" offset="0.464844"/><stop stop-opacity="1" stop-color="rgb(94.499207%, 62.089539%, 8.586121%)" offset="0.46875"/><stop stop-opacity="1" stop-color="rgb(94.499207%, 62.301636%, 8.51593%)" offset="0.472656"/><stop stop-opacity="1" stop-color="rgb(94.499207%, 62.513733%, 8.44574%)" offset="0.476562"/><stop stop-opacity="1" stop-color="rgb(94.499207%, 62.72583%, 8.374023%)" offset="0.480469"/><stop stop-opacity="1" stop-color="rgb(94.499207%, 62.937927%, 8.303833%)" offset="0.484375"/><stop stop-opacity="1" stop-color="rgb(94.499207%, 63.150024%, 8.232117%)" offset="0.488281"/><stop stop-opacity="1" stop-color="rgb(94.499207%, 63.363647%, 8.161926%)" offset="0.492187"/><stop stop-opacity="1" stop-color="rgb(94.499207%, 63.575745%, 8.09021%)" offset="0.496094"/><stop stop-opacity="1" stop-color="rgb(94.499207%, 63.787842%, 8.02002%)" offset="0.5"/><stop stop-opacity="1" stop-color="rgb(94.499207%, 63.999939%, 7.948303%)" offset="0.503906"/><stop stop-opacity="1" stop-color="rgb(94.499207%, 64.212036%, 7.878113%)" offset="0.507812"/><stop stop-opacity="1" stop-color="rgb(94.499207%, 64.424133%, 7.806396%)" offset="0.511719"/><stop stop-opacity="1" stop-color="rgb(94.499207%, 64.63623%, 7.736206%)" offset="0.515625"/><stop stop-opacity="1" stop-color="rgb(94.499207%, 64.848328%, 7.66449%)" offset="0.519531"/><stop stop-opacity="1" stop-color="rgb(94.499207%, 65.060425%, 7.594299%)" offset="0.523438"/><stop stop-opacity="1" stop-color="rgb(94.499207%, 65.272522%, 7.522583%)" offset="0.527344"/><stop stop-opacity="1" stop-color="rgb(94.499207%, 65.484619%, 7.452393%)" offset="0.53125"/><stop stop-opacity="1" stop-color="rgb(94.499207%, 65.696716%, 7.380676%)" offset="0.535156"/><stop stop-opacity="1" stop-color="rgb(94.499207%, 65.910339%, 7.310486%)" offset="0.539062"/><stop stop-opacity="1" stop-color="rgb(94.499207%, 66.122437%, 7.23877%)" offset="0.542969"/><stop stop-opacity="1" stop-color="rgb(94.499207%, 66.334534%, 7.168579%)" offset="0.546875"/><stop stop-opacity="1" stop-color="rgb(94.499207%, 66.546631%, 7.096863%)" offset="0.550781"/><stop stop-opacity="1" stop-color="rgb(94.499207%, 66.758728%, 7.026672%)" offset="0.554688"/><stop stop-opacity="1" stop-color="rgb(94.499207%, 66.970825%, 6.956482%)" offset="0.558594"/><stop stop-opacity="1" stop-color="rgb(94.499207%, 67.182922%, 6.886292%)" offset="0.5625"/><stop stop-opacity="1" stop-color="rgb(94.499207%, 67.39502%, 6.814575%)" offset="0.566406"/><stop stop-opacity="1" stop-color="rgb(94.499207%, 67.607117%, 6.744385%)" offset="0.570312"/><stop stop-opacity="1" stop-color="rgb(94.499207%, 67.819214%, 6.672668%)" offset="0.574219"/><stop stop-opacity="1" stop-color="rgb(94.499207%, 68.031311%, 6.602478%)" offset="0.578125"/><stop stop-opacity="1" stop-color="rgb(94.499207%, 68.243408%, 6.530762%)" offset="0.582031"/><stop stop-opacity="1" stop-color="rgb(94.499207%, 68.455505%, 6.460571%)" offset="0.585938"/><stop stop-opacity="1" stop-color="rgb(94.499207%, 68.667603%, 6.388855%)" offset="0.589844"/><stop stop-opacity="1" stop-color="rgb(94.499207%, 68.881226%, 6.318665%)" offset="0.59375"/><stop stop-opacity="1" stop-color="rgb(94.499207%, 69.093323%, 6.246948%)" offset="0.597656"/><stop stop-opacity="1" stop-color="rgb(94.499207%, 69.30542%, 6.176758%)" offset="0.601562"/><stop stop-opacity="1" stop-color="rgb(94.499207%, 69.517517%, 6.105042%)" offset="0.605469"/><stop stop-opacity="1" stop-color="rgb(94.499207%, 69.729614%, 6.034851%)" offset="0.609375"/><stop stop-opacity="1" stop-color="rgb(94.499207%, 69.941711%, 5.963135%)" offset="0.613281"/><stop stop-opacity="1" stop-color="rgb(94.499207%, 70.153809%, 5.892944%)" offset="0.617188"/><stop stop-opacity="1" stop-color="rgb(94.499207%, 70.365906%, 5.821228%)" offset="0.621094"/><stop stop-opacity="1" stop-color="rgb(94.499207%, 70.578003%, 5.751038%)" offset="0.625"/><stop stop-opacity="1" stop-color="rgb(94.499207%, 70.7901%, 5.679321%)" offset="0.628906"/><stop stop-opacity="1" stop-color="rgb(94.499207%, 71.002197%, 5.609131%)" offset="0.632812"/><stop stop-opacity="1" stop-color="rgb(94.499207%, 71.214294%, 5.537415%)" offset="0.636719"/><stop stop-opacity="1" stop-color="rgb(94.499207%, 71.427917%, 5.467224%)" offset="0.640625"/><stop stop-opacity="1" stop-color="rgb(94.499207%, 71.640015%, 5.397034%)" offset="0.644531"/><stop stop-opacity="1" stop-color="rgb(94.499207%, 71.852112%, 5.326843%)" offset="0.648438"/><stop stop-opacity="1" stop-color="rgb(94.499207%, 72.064209%, 5.255127%)" offset="0.652344"/><stop stop-opacity="1" stop-color="rgb(94.499207%, 72.276306%, 5.184937%)" offset="0.65625"/><stop stop-opacity="1" stop-color="rgb(94.499207%, 72.488403%, 5.11322%)" offset="0.660156"/><stop stop-opacity="1" stop-color="rgb(94.499207%, 72.7005%, 5.04303%)" offset="0.664062"/><stop stop-opacity="1" stop-color="rgb(94.499207%, 72.912598%, 4.971313%)" offset="0.667969"/><stop stop-opacity="1" stop-color="rgb(94.499207%, 73.124695%, 4.901123%)" offset="0.671875"/><stop stop-opacity="1" stop-color="rgb(94.499207%, 73.336792%, 4.829407%)" offset="0.675781"/><stop stop-opacity="1" stop-color="rgb(94.499207%, 73.548889%, 4.759216%)" offset="0.679688"/><stop stop-opacity="1" stop-color="rgb(94.499207%, 73.760986%, 4.6875%)" offset="0.683594"/><stop stop-opacity="1" stop-color="rgb(94.499207%, 73.973083%, 4.61731%)" offset="0.6875"/><stop stop-opacity="1" stop-color="rgb(94.499207%, 74.185181%, 4.545593%)" offset="0.691406"/><stop stop-opacity="1" stop-color="rgb(94.499207%, 74.398804%, 4.475403%)" offset="0.695312"/><stop stop-opacity="1" stop-color="rgb(94.499207%, 74.610901%, 4.403687%)" offset="0.699219"/><stop stop-opacity="1" stop-color="rgb(94.499207%, 74.822998%, 4.333496%)" offset="0.703125"/><stop stop-opacity="1" stop-color="rgb(94.499207%, 75.035095%, 4.26178%)" offset="0.707031"/><stop stop-opacity="1" stop-color="rgb(94.499207%, 75.247192%, 4.191589%)" offset="0.710938"/><stop stop-opacity="1" stop-color="rgb(94.499207%, 75.45929%, 4.119873%)" offset="0.714844"/><stop stop-opacity="1" stop-color="rgb(94.499207%, 75.671387%, 4.049683%)" offset="0.71875"/><stop stop-opacity="1" stop-color="rgb(94.499207%, 75.883484%, 3.977966%)" offset="0.722656"/><stop stop-opacity="1" stop-color="rgb(94.499207%, 76.095581%, 3.907776%)" offset="0.726562"/><stop stop-opacity="1" stop-color="rgb(94.499207%, 76.307678%, 3.837585%)" offset="0.730469"/><stop stop-opacity="1" stop-color="rgb(94.499207%, 76.519775%, 3.767395%)" offset="0.734375"/><stop stop-opacity="1" stop-color="rgb(94.499207%, 76.731873%, 3.695679%)" offset="0.738281"/><stop stop-opacity="1" stop-color="rgb(94.499207%, 76.945496%, 3.625488%)" offset="0.742188"/><stop stop-opacity="1" stop-color="rgb(94.499207%, 77.157593%, 3.553772%)" offset="0.746094"/><stop stop-opacity="1" stop-color="rgb(94.499207%, 77.36969%, 3.483582%)" offset="0.75"/><stop stop-opacity="1" stop-color="rgb(94.499207%, 77.581787%, 3.411865%)" offset="0.753906"/><stop stop-opacity="1" stop-color="rgb(94.499207%, 77.793884%, 3.341675%)" offset="0.757812"/><stop stop-opacity="1" stop-color="rgb(94.499207%, 78.005981%, 3.269958%)" offset="0.761719"/><stop stop-opacity="1" stop-color="rgb(94.499207%, 78.218079%, 3.199768%)" offset="0.765625"/><stop stop-opacity="1" stop-color="rgb(94.499207%, 78.430176%, 3.128052%)" offset="0.769531"/><stop stop-opacity="1" stop-color="rgb(94.499207%, 78.642273%, 3.057861%)" offset="0.773438"/><stop stop-opacity="1" stop-color="rgb(94.499207%, 78.85437%, 2.986145%)" offset="0.777344"/><stop stop-opacity="1" stop-color="rgb(94.499207%, 79.066467%, 2.915955%)" offset="0.78125"/><stop stop-opacity="1" stop-color="rgb(94.499207%, 79.278564%, 2.844238%)" offset="0.785156"/><stop stop-opacity="1" stop-color="rgb(94.499207%, 79.490662%, 2.774048%)" offset="0.789062"/><stop stop-opacity="1" stop-color="rgb(94.499207%, 79.702759%, 2.702332%)" offset="0.792969"/><stop stop-opacity="1" stop-color="rgb(94.499207%, 79.916382%, 2.632141%)" offset="0.796875"/><stop stop-opacity="1" stop-color="rgb(94.499207%, 80.128479%, 2.560425%)" offset="0.800781"/><stop stop-opacity="1" stop-color="rgb(94.499207%, 80.340576%, 2.490234%)" offset="0.804687"/><stop stop-opacity="1" stop-color="rgb(94.499207%, 80.552673%, 2.418518%)" offset="0.808594"/><stop stop-opacity="1" stop-color="rgb(94.499207%, 80.764771%, 2.348328%)" offset="0.8125"/><stop stop-opacity="1" stop-color="rgb(94.499207%, 80.976868%, 2.278137%)" offset="0.816406"/><stop stop-opacity="1" stop-color="rgb(94.499207%, 81.188965%, 2.207947%)" offset="0.820312"/><stop stop-opacity="1" stop-color="rgb(94.499207%, 81.401062%, 2.13623%)" offset="0.824219"/><stop stop-opacity="1" stop-color="rgb(94.499207%, 81.613159%, 2.06604%)" offset="0.828125"/><stop stop-opacity="1" stop-color="rgb(94.499207%, 81.825256%, 1.994324%)" offset="0.832031"/><stop stop-opacity="1" stop-color="rgb(94.499207%, 82.037354%, 1.924133%)" offset="0.835937"/><stop stop-opacity="1" stop-color="rgb(94.499207%, 82.249451%, 1.852417%)" offset="0.839844"/><stop stop-opacity="1" stop-color="rgb(94.499207%, 82.463074%, 1.782227%)" offset="0.84375"/><stop stop-opacity="1" stop-color="rgb(94.499207%, 82.675171%, 1.71051%)" offset="0.847656"/><stop stop-opacity="1" stop-color="rgb(94.499207%, 82.887268%, 1.64032%)" offset="0.851562"/><stop stop-opacity="1" stop-color="rgb(94.499207%, 83.099365%, 1.568604%)" offset="0.855469"/><stop stop-opacity="1" stop-color="rgb(94.499207%, 83.311462%, 1.498413%)" offset="0.859375"/><stop stop-opacity="1" stop-color="rgb(94.499207%, 83.52356%, 1.426697%)" offset="0.863281"/><stop stop-opacity="1" stop-color="rgb(94.499207%, 83.735657%, 1.356506%)" offset="0.867187"/><stop stop-opacity="1" stop-color="rgb(94.499207%, 83.947754%, 1.28479%)" offset="0.871094"/><stop stop-opacity="1" stop-color="rgb(94.499207%, 84.159851%, 1.2146%)" offset="0.875"/><stop stop-opacity="1" stop-color="rgb(94.499207%, 84.371948%, 1.142883%)" offset="0.878906"/><stop stop-opacity="1" stop-color="rgb(94.499207%, 84.584045%, 1.072693%)" offset="0.882812"/><stop stop-opacity="1" stop-color="rgb(94.499207%, 84.796143%, 1.000977%)" offset="0.886719"/><stop stop-opacity="1" stop-color="rgb(94.499207%, 85.00824%, 0.930786%)" offset="0.890625"/><stop stop-opacity="1" stop-color="rgb(94.499207%, 85.220337%, 0.85907%)" offset="0.894531"/><stop stop-opacity="1" stop-color="rgb(94.499207%, 85.43396%, 0.788879%)" offset="0.898438"/><stop stop-opacity="1" stop-color="rgb(94.499207%, 85.646057%, 0.717163%)" offset="0.902344"/><stop stop-opacity="1" stop-color="rgb(94.499207%, 85.858154%, 0.646973%)" offset="0.90625"/><stop stop-opacity="1" stop-color="rgb(94.499207%, 86.070251%, 0.576782%)" offset="0.910156"/><stop stop-opacity="1" stop-color="rgb(94.499207%, 86.282349%, 0.506592%)" offset="0.914062"/><stop stop-opacity="1" stop-color="rgb(94.499207%, 86.494446%, 0.434875%)" offset="0.917969"/><stop stop-opacity="1" stop-color="rgb(94.499207%, 86.706543%, 0.364685%)" offset="0.921875"/><stop stop-opacity="1" stop-color="rgb(94.499207%, 86.91864%, 0.292969%)" offset="0.925781"/><stop stop-opacity="1" stop-color="rgb(94.499207%, 87.130737%, 0.222778%)" offset="0.929688"/><stop stop-opacity="1" stop-color="rgb(94.499207%, 87.342834%, 0.151062%)" offset="0.933594"/><stop stop-opacity="1" stop-color="rgb(94.499207%, 87.554932%, 0.0808716%)" offset="0.9375"/><stop stop-opacity="1" stop-color="rgb(94.499207%, 87.677002%, 0.0396729%)" offset="1"/></linearGradient><clipPath id="id4"><path d="M 363 438 L 591 438 L 591 511.300781 L 363 511.300781 Z M 363 438 " clip-rule="nonzero"/></clipPath></defs><g clip-path="url(#id1)"><g clip-path="url(#id2)"><path fill="url(#id3)" d="M 340.28125 299.050781 L 340.28125 425.0625 L 465.640625 425.0625 L 465.640625 299.050781 Z M 340.28125 299.050781 " fill-rule="nonzero"/></g></g><path fill="#ffffff" d="M 403.898438 353.207031 C 407.101562 353.207031 409.527344 352.519531 411.183594 351.113281 C 412.835938 349.707031 413.664062 347.660156 413.664062 344.9375 C 413.664062 342.25 412.835938 340.207031 411.183594 338.8125 C 409.519531 337.382812 407.101562 336.667969 403.898438 336.667969 L 392.660156 336.667969 L 392.660156 353.207031 L 403.898438 353.207031 M 404.585938 387.386719 C 408.667969 387.386719 411.726562 386.53125 413.769531 384.820312 C 415.84375 383.109375 416.882812 380.527344 416.882812 377.074219 C 416.882812 373.6875 415.863281 371.160156 413.820312 369.484375 C 411.78125 367.777344 408.703125 366.921875 404.585938 366.921875 L 392.660156 366.921875 L 392.660156 387.386719 L 404.585938 387.386719 M 423.480469 359.28125 C 427.839844 360.535156 431.21875 362.859375 433.609375 366.242188 C 436.003906 369.625 437.199219 373.777344 437.199219 378.699219 C 437.199219 386.234375 434.632812 391.855469 429.496094 395.550781 C 424.359375 399.25 416.550781 401.101562 406.066406 401.101562 L 372.34375 401.101562 L 372.34375 322.972656 L 402.847656 322.972656 C 413.789062 322.972656 421.703125 324.613281 426.59375 327.894531 C 431.519531 331.171875 433.980469 336.425781 433.980469 343.648438 C 433.980469 347.453125 433.085938 350.695312 431.289062 353.382812 C 429.496094 356.035156 426.882812 357.996094 423.480469 359.296875 " fill-opacity="1" fill-rule="nonzero"/><path fill="#000000" d="M 227.128906 467.023438 L 227.128906 488.246094 L 239.679688 488.246094 C 243.882812 488.246094 247 487.378906 249.015625 485.648438 C 251.054688 483.886719 252.070312 481.207031 252.070312 477.617188 C 252.070312 474.042969 251.050781 471.332031 249.015625 469.621094 C 247 467.890625 243.890625 467.023438 239.679688 467.023438 L 227.128906 467.023438 M 227.128906 443.191406 L 227.128906 460.660156 L 238.710938 460.660156 C 242.535156 460.660156 245.375 459.941406 247.230469 458.523438 C 249.113281 457.074219 250.058594 454.875 250.058594 451.925781 C 250.058594 449 249.113281 446.816406 247.230469 445.367188 C 245.347656 443.921875 242.53125 443.195312 238.710938 443.195312 L 227.128906 443.195312 M 219.304688 436.753906 L 239.292969 436.753906 C 245.257812 436.753906 249.855469 438 253.085938 440.484375 C 256.3125 442.96875 257.921875 446.5 257.921875 451.078125 C 257.921875 454.625 257.097656 457.445312 255.445312 459.546875 C 253.789062 461.644531 251.359375 462.949219 248.164062 463.464844 C 252.007812 464.292969 254.992188 466.027344 257.109375 468.632812 C 259.25 471.246094 260.28125 474.515625 260.28125 478.449219 C 260.28125 483.625 258.527344 487.625 255.015625 490.445312 C 251.507812 493.265625 246.507812 494.675781 240.023438 494.675781 L 219.265625 494.675781 L 219.265625 436.734375 " fill-opacity="1" fill-rule="nonzero"/><path fill="#000000" d="M 289.785156 456.226562 C 288.902344 456.195312 288.03125 456.277344 287.167969 456.464844 C 286.304688 456.652344 285.480469 456.941406 284.6875 457.332031 C 283.898438 457.726562 283.167969 458.210938 282.496094 458.785156 C 281.824219 459.359375 281.234375 460.007812 280.722656 460.730469 C 278.503906 463.710938 277.390625 467.792969 277.390625 472.996094 C 277.390625 478.199219 278.492188 482.296875 280.683594 485.300781 C 282.90625 488.28125 285.9375 489.765625 289.785156 489.765625 C 290.664062 489.792969 291.535156 489.714844 292.394531 489.527344 C 293.253906 489.335938 294.078125 489.046875 294.863281 488.652344 C 295.652344 488.261719 296.378906 487.777344 297.046875 487.203125 C 297.714844 486.628906 298.300781 485.980469 298.808594 485.261719 C 301.03125 482.261719 302.140625 478.171875 302.140625 472.996094 C 302.140625 467.84375 301.03125 463.773438 298.808594 460.769531 C 296.589844 457.742188 293.582031 456.226562 289.785156 456.226562 M 289.785156 450.171875 C 295.980469 450.171875 300.890625 452.191406 304.390625 456.226562 C 307.886719 460.261719 309.695312 465.855469 309.695312 473 C 309.695312 480.148438 307.925781 485.707031 304.390625 489.773438 C 300.851562 493.8125 295.980469 495.828125 289.785156 495.828125 C 283.558594 495.828125 278.679688 493.808594 275.113281 489.773438 C 271.601562 485.710938 269.84375 480.121094 269.84375 473 C 269.84375 465.859375 271.601562 460.269531 275.113281 456.226562 C 278.648438 452.1875 283.527344 450.171875 289.785156 450.171875 " fill-opacity="1" fill-rule="nonzero"/><path fill="#000000" d="M 337.882812 456.226562 C 337 456.195312 336.128906 456.277344 335.265625 456.464844 C 334.402344 456.652344 333.574219 456.941406 332.785156 457.332031 C 331.992188 457.726562 331.261719 458.210938 330.59375 458.785156 C 329.921875 459.359375 329.332031 460.007812 328.820312 460.730469 C 326.597656 463.710938 325.488281 467.792969 325.488281 472.996094 C 325.488281 478.199219 326.585938 482.296875 328.78125 485.300781 C 331 488.28125 334.035156 489.765625 337.882812 489.765625 C 338.761719 489.792969 339.628906 489.714844 340.488281 489.527344 C 341.347656 489.335938 342.171875 489.046875 342.960938 488.652344 C 343.746094 488.261719 344.476562 487.777344 345.144531 487.203125 C 345.808594 486.628906 346.398438 485.980469 346.90625 485.261719 C 349.125 482.261719 350.238281 478.171875 350.238281 472.996094 C 350.238281 467.84375 349.125 463.773438 346.90625 460.769531 C 344.683594 457.742188 341.679688 456.226562 337.882812 456.226562 M 337.882812 450.171875 C 344.078125 450.171875 348.988281 452.191406 352.484375 456.226562 C 355.984375 460.261719 357.792969 465.855469 357.792969 473 C 357.792969 480.148438 356.023438 485.707031 352.484375 489.773438 C 348.949219 493.8125 344.078125 495.828125 337.882812 495.828125 C 331.65625 495.828125 326.777344 493.808594 323.207031 489.773438 C 319.699219 485.710938 317.941406 480.121094 317.941406 473 C 317.941406 465.859375 319.699219 460.269531 323.207031 456.226562 C 326.746094 452.1875 331.625 450.171875 337.882812 450.171875 " fill-opacity="1" fill-rule="nonzero"/><g clip-path="url(#id4)"><path fill="#000000" d="M 376.214844 438.875 L 376.214844 451.214844 L 390.886719 451.214844 L 390.886719 456.761719 L 376.214844 456.761719 L 376.214844 480.367188 C 376.214844 483.910156 376.691406 486.1875 377.640625 487.203125 C 378.621094 488.210938 380.597656 488.710938 383.566406 488.710938 L 390.886719 488.710938 L 390.886719 494.691406 L 383.5625 494.691406 C 378.0625 494.691406 374.265625 493.667969 372.179688 491.628906 C 370.089844 489.5625 369.007812 485.808594 369.007812 480.375 L 369.007812 456.761719 L 363.78125 456.761719 L 363.78125 451.214844 L 369.007812 451.214844 L 369.007812 438.882812 L 376.175781 438.882812 M 427.519531 452.503906 L 427.519531 459.257812 C 425.519531 458.230469 423.429688 457.453125 421.246094 456.929688 C 419.074219 456.414062 416.832031 456.15625 414.503906 456.15625 C 410.964844 456.15625 408.304688 456.699219 406.523438 457.746094 C 404.765625 458.832031 403.890625 460.464844 403.890625 462.632812 C 403.890625 464.292969 404.523438 465.59375 405.792969 466.554688 C 407.0625 467.484375 409.601562 468.382812 413.421875 469.230469 L 415.863281 469.777344 C 420.921875 470.863281 424.507812 472.398438 426.628906 474.394531 C 428.773438 476.363281 429.804688 479.117188 429.804688 482.664062 C 429.832031 483.597656 429.746094 484.519531 429.546875 485.433594 C 429.347656 486.34375 429.039062 487.21875 428.625 488.054688 C 428.210938 488.890625 427.699219 489.664062 427.09375 490.375 C 426.488281 491.085938 425.804688 491.710938 425.042969 492.25 C 421.871094 494.601562 417.492188 495.828125 411.957031 495.828125 C 409.632812 495.828125 407.203125 495.589844 404.675781 495.128906 C 402.167969 494.730469 399.519531 494.015625 396.734375 493.109375 L 396.734375 485.734375 C 399.367188 487.105469 401.960938 488.140625 404.519531 488.835938 C 407.007812 489.5 409.535156 489.835938 412.109375 489.84375 C 415.464844 489.84375 418.046875 489.277344 419.855469 488.136719 C 421.664062 486.972656 422.570312 485.339844 422.570312 483.246094 C 422.570312 481.308594 421.910156 479.816406 420.59375 478.785156 C 419.300781 477.75 416.449219 476.796875 412.035156 475.792969 L 409.554688 475.214844 C 405.140625 474.285156 401.953125 472.859375 399.992188 470.945312 C 398.027344 469.003906 397.046875 466.351562 397.046875 462.988281 C 397.046875 458.894531 398.496094 455.742188 401.386719 453.515625 C 404.277344 451.289062 408.382812 450.175781 413.699219 450.175781 C 416.195312 450.164062 418.675781 450.359375 421.136719 450.757812 C 423.339844 451.113281 425.484375 451.695312 427.566406 452.503906 M 447.925781 438.871094 L 447.925781 451.210938 L 462.597656 451.210938 L 462.597656 456.757812 L 447.925781 456.757812 L 447.925781 480.363281 C 447.925781 483.90625 448.398438 486.183594 449.351562 487.199219 C 450.332031 488.207031 452.304688 488.707031 455.277344 488.707031 L 462.605469 488.707031 L 462.605469 494.6875 L 455.285156 494.6875 C 449.785156 494.6875 445.988281 493.664062 443.902344 491.625 C 441.8125 489.558594 440.730469 485.804688 440.730469 480.371094 L 440.730469 456.757812 L 435.503906 456.757812 L 435.503906 451.210938 L 440.730469 451.210938 L 440.730469 438.882812 L 447.933594 438.882812 M 496.714844 457.898438 C 495.890625 457.425781 495.011719 457.085938 494.082031 456.890625 C 493.0625 456.644531 492.03125 456.527344 490.988281 456.539062 C 486.957031 456.539062 483.859375 457.859375 481.691406 460.5 C 479.550781 463.113281 478.519531 466.878906 478.519531 471.796875 L 478.519531 494.699219 L 471.351562 494.699219 L 471.351562 451.214844 L 478.519531 451.214844 L 478.519531 457.972656 C 480.015625 455.332031 481.96875 453.378906 484.367188 452.109375 C 486.765625 450.8125 489.683594 450.167969 493.121094 450.167969 C 493.664062 450.171875 494.207031 450.210938 494.746094 450.285156 L 496.722656 450.554688 L 496.761719 457.890625 M 523.628906 472.835938 C 517.867188 472.835938 513.878906 473.496094 511.65625 474.816406 C 509.4375 476.136719 508.328125 478.386719 508.328125 481.574219 C 508.328125 484.109375 509.152344 486.128906 510.804688 487.628906 C 512.484375 489.097656 514.753906 489.839844 517.625 489.839844 C 521.578125 489.839844 524.742188 488.441406 527.117188 485.648438 C 529.515625 482.867188 530.71875 479.089844 530.71875 474.429688 L 530.71875 472.839844 L 523.632812 472.839844 M 537.847656 469.890625 L 537.847656 494.695312 L 530.71875 494.695312 L 530.71875 488.097656 C 529.132812 490.734375 527.070312 492.691406 524.640625 493.957031 C 522.210938 495.199219 519.246094 495.828125 515.730469 495.828125 C 511.289062 495.828125 507.75 494.585938 505.117188 492.101562 C 502.507812 489.589844 501.207031 486.238281 501.207031 482.046875 C 501.207031 477.15625 502.792969 473.46875 506.085938 470.984375 C 509.378906 468.5 514.242188 467.261719 520.761719 467.261719 L 530.753906 467.261719 L 530.753906 466.5625 C 530.753906 463.273438 529.671875 460.738281 527.503906 458.953125 C 525.359375 457.140625 522.339844 456.234375 518.441406 456.234375 C 515.960938 456.234375 513.546875 456.53125 511.199219 457.128906 C 508.824219 457.734375 506.566406 458.625 504.421875 459.808594 L 504.421875 453.210938 C 507.03125 452.199219 509.558594 451.449219 512.011719 450.960938 C 514.371094 450.453125 516.761719 450.195312 519.175781 450.183594 C 525.453125 450.183594 530.140625 451.773438 533.238281 455.074219 C 536.335938 458.375 537.886719 463.277344 537.886719 469.898438 M 559.105469 488.167969 L 559.105469 511.222656 L 551.9375 511.222656 L 551.9375 451.21875 L 559.105469 451.21875 L 559.105469 457.816406 C 560.601562 455.234375 562.488281 453.3125 564.757812 452.074219 C 567.058594 450.800781 569.796875 450.164062 572.96875 450.164062 C 574.210938 450.136719 575.4375 450.257812 576.648438 450.523438 C 577.863281 450.789062 579.027344 451.195312 580.144531 451.742188 C 581.257812 452.289062 582.292969 452.960938 583.246094 453.757812 C 584.203125 454.554688 585.046875 455.453125 585.789062 456.453125 C 589.089844 460.648438 590.746094 466.152344 590.746094 472.988281 C 590.746094 479.824219 589.089844 485.328125 585.789062 489.523438 C 585.046875 490.523438 584.203125 491.421875 583.246094 492.21875 C 582.292969 493.015625 581.257812 493.6875 580.144531 494.234375 C 579.027344 494.78125 577.863281 495.1875 576.648438 495.453125 C 575.4375 495.71875 574.210938 495.839844 572.96875 495.8125 C 569.796875 495.8125 567.019531 495.191406 564.757812 493.941406 C 562.488281 492.671875 560.601562 490.746094 559.105469 488.160156 M 583.347656 472.984375 C 583.347656 467.730469 582.265625 463.617188 580.097656 460.644531 C 577.953125 457.640625 574.996094 456.140625 571.226562 456.140625 C 570.355469 456.109375 569.496094 456.191406 568.644531 456.378906 C 567.792969 456.566406 566.976562 456.855469 566.199219 457.25 C 565.421875 457.644531 564.703125 458.128906 564.046875 458.703125 C 563.390625 459.277344 562.8125 459.921875 562.320312 460.644531 C 560.179688 463.625 559.148438 467.734375 559.148438 472.984375 C 559.148438 478.234375 560.21875 482.363281 562.320312 485.367188 C 564.488281 488.347656 567.460938 489.828125 571.226562 489.828125 C 574.996094 489.828125 577.953125 488.34375 580.097656 485.367188 C 582.265625 482.363281 583.347656 478.234375 583.347656 472.984375 " fill-opacity="1" fill-rule="nonzero"/></g></svg>