<svg xmlns="http://www.w3.org/2000/svg" xmlns:xlink="http://www.w3.org/1999/xlink" width="1080" zoomAndPan="magnify" viewBox="0 0 810 809.999993" height="1080" preserveAspectRatio="xMidYMid meet" version="1.0"><defs><clipPath id="id1"><path d="M 321.300781 333 L 488.550781 333 L 488.550781 523.214844 L 321.300781 523.214844 Z M 321.300781 333 " clip-rule="nonzero"/></clipPath><clipPath id="id2"><path d="M 360 286.964844 L 387 286.964844 L 387 319 L 360 319 Z M 360 286.964844 " clip-rule="nonzero"/></clipPath><clipPath id="id3"><path d="M 391 286.964844 L 417 286.964844 L 417 320 L 391 320 Z M 391 286.964844 " clip-rule="nonzero"/></clipPath><clipPath id="id4"><path d="M 421 286.964844 L 447 286.964844 L 447 320 L 421 320 Z M 421 286.964844 " clip-rule="nonzero"/></clipPath></defs><g clip-path="url(#id1)"><path fill="#f16529" d="M 404.855469 523.207031 L 336.617188 504.234375 L 321.410156 333.394531 L 488.5 333.390625 L 473.285156 504.203125 L 404.859375 523.203125 Z M 404.855469 523.207031 " fill-opacity="1" fill-rule="nonzero"/></g><path fill="#e44d26" d="M 460.253906 493.328125 L 473.261719 347.359375 L 404.960938 347.359375 L 404.960938 508.679688 Z M 460.253906 493.328125 " fill-opacity="1" fill-rule="nonzero"/><path fill="#e8e295" d="M 356.273438 410.722656 L 358.148438 431.671875 L 404.960938 431.671875 L 404.960938 410.722656 Z M 356.273438 410.722656 " fill-opacity="1" fill-rule="nonzero"/><path fill="#e8e295" d="M 352.503906 368.308594 L 354.40625 389.265625 L 404.960938 389.265625 L 404.960938 368.308594 Z M 352.503906 368.308594 " fill-opacity="1" fill-rule="nonzero"/><path fill="#e8e295" d="M 404.960938 465.136719 L 404.867188 465.164062 L 381.570312 458.859375 L 380.082031 442.148438 L 359.082031 442.148438 L 362.011719 475.050781 L 404.859375 486.964844 L 404.960938 486.941406 Z M 404.960938 465.136719 " fill-opacity="1" fill-rule="nonzero"/><g clip-path="url(#id2)"><path fill="#000000" d="M 360.738281 286.964844 L 386.074219 286.964844 L 386.074219 297.574219 L 371.332031 297.574219 L 371.332031 308.1875 L 386.074219 308.1875 L 386.074219 318.800781 L 360.738281 318.800781 Z M 360.738281 286.964844 " fill-opacity="1" fill-rule="nonzero"/></g><g clip-path="url(#id3)"><path fill="#000000" d="M 391.140625 286.964844 L 416.472656 286.964844 L 416.472656 296.191406 L 401.738281 296.191406 L 401.738281 298.039062 L 416.472656 298.039062 L 416.472656 319.261719 L 391.140625 319.261719 L 391.140625 309.574219 L 405.882812 309.574219 L 405.882812 307.726562 L 391.140625 307.726562 Z M 391.140625 286.964844 " fill-opacity="1" fill-rule="nonzero"/></g><g clip-path="url(#id4)"><path fill="#000000" d="M 421.542969 286.964844 L 446.878906 286.964844 L 446.878906 296.191406 L 432.136719 296.191406 L 432.136719 298.039062 L 446.878906 298.039062 L 446.878906 319.261719 L 421.542969 319.261719 L 421.542969 309.574219 L 436.28125 309.574219 L 436.28125 307.726562 L 421.542969 307.726562 Z M 421.542969 286.964844 " fill-opacity="1" fill-rule="nonzero"/></g><path fill="#f1e000" d="M 453.515625 410.722656 L 457.285156 368.308594 L 404.886719 368.308594 L 404.886719 389.265625 L 434.363281 389.265625 L 432.460938 410.722656 L 404.886719 410.722656 L 404.886719 431.671875 L 430.648438 431.671875 L 428.21875 458.847656 L 404.886719 465.15625 L 404.886719 486.953125 L 447.769531 475.050781 L 448.085938 471.507812 L 453.003906 416.347656 Z M 453.515625 410.722656 " fill-opacity="1" fill-rule="nonzero"/></svg>