<svg xmlns="http://www.w3.org/2000/svg" xmlns:xlink="http://www.w3.org/1999/xlink" width="1080" zoomAndPan="magnify" viewBox="0 0 810 809.999993" height="1080" preserveAspectRatio="xMidYMid meet" version="1.0"><defs><clipPath id="id1"><path d="M 319.058594 319.058594 L 490.808594 319.058594 L 490.808594 490.808594 L 319.058594 490.808594 Z M 319.058594 319.058594 " clip-rule="nonzero"/></clipPath><clipPath id="id2"><path d="M 319.058594 319.058594 L 490.808594 319.058594 L 490.808594 490.808594 L 319.058594 490.808594 Z M 319.058594 319.058594 " clip-rule="nonzero"/></clipPath></defs><g clip-path="url(#id1)"><path fill="#062600" d="M 476.496094 319.058594 L 333.371094 319.058594 C 325.472656 319.058594 319.058594 325.464844 319.058594 333.371094 L 319.058594 476.496094 C 319.058594 484.40625 325.472656 490.808594 333.371094 490.808594 L 476.496094 490.808594 C 484.398438 490.808594 490.808594 484.40625 490.808594 476.496094 L 490.808594 333.371094 C 490.808594 325.464844 484.398438 319.058594 476.496094 319.058594 Z M 476.496094 319.058594 " fill-opacity="1" fill-rule="nonzero"/></g><path fill="#ff7c00" d="M 457.742188 435.234375 C 457.632812 435.828125 457.527344 436.066406 456.695312 436.066406 L 445.101562 436.066406 C 444.273438 436.066406 444.042969 435.742188 443.921875 435.042969 C 440.378906 415.328125 437.429688 401.386719 436.121094 391.703125 L 436.007812 391.703125 C 434.476562 400.476562 431.640625 415.011719 426.917969 435.199219 C 426.683594 435.914062 426.445312 436.109375 425.859375 436.109375 L 414.289062 436.109375 C 413.457031 436.109375 413.230469 435.992188 413 435.285156 L 400.355469 378.886719 C 400.238281 378.40625 400.484375 377.933594 401.191406 377.933594 L 412.761719 377.933594 C 413.234375 377.933594 413.59375 378.097656 413.707031 378.578125 C 418.195312 403.953125 420.078125 417.109375 420.792969 422.304688 L 421.265625 422.304688 C 422.09375 416.164062 424.570312 403.367188 429.882812 378.808594 C 430.117188 378.09375 430.117188 377.921875 430.824219 377.921875 L 442.992188 377.921875 C 443.578125 377.921875 443.691406 378.207031 443.816406 378.800781 C 447.949219 402.058594 450.664062 416.730469 451.371094 422.640625 L 451.730469 422.640625 C 452.875 415.082031 454.449219 404.890625 459.488281 378.671875 C 459.609375 378.199219 459.722656 377.914062 460.316406 377.914062 L 471.195312 377.914062 C 471.667969 377.914062 472.023438 378.148438 471.789062 378.742188 Z M 457.742188 435.234375 " fill-opacity="1" fill-rule="nonzero"/><path fill="#ff7c00" d="M 360.839844 357.183594 C 352.773438 357.183594 344.972656 357.417969 342.253906 357.539062 C 341.542969 357.652344 341.421875 357.890625 341.421875 358.492188 L 341.464844 358.476562 L 341.464844 435.226562 C 341.464844 435.816406 341.703125 436.171875 342.167969 436.171875 C 345.359375 436.285156 354.105469 436.402344 360.128906 436.402344 C 376.050781 436.402344 396.734375 426.847656 396.734375 395.324219 C 396.734375 372.652344 384.8125 357.183594 360.839844 357.183594 Z M 360.328125 425.074219 C 358.097656 425.074219 356.328125 424.957031 354.347656 424.828125 L 354.347656 368.789062 C 356.351562 368.660156 358.355469 368.515625 360.839844 368.515625 C 373.453125 368.515625 383.617188 376.066406 383.472656 395.675781 C 383.351562 415.742188 373.554688 425.074219 360.328125 425.074219 Z M 360.328125 425.074219 " fill-opacity="1" fill-rule="nonzero"/><g clip-path="url(#id2)"><path fill="#ff7c00" d="M 476.496094 326.214844 C 480.441406 326.214844 483.652344 329.429688 483.652344 333.371094 L 483.652344 476.496094 C 483.652344 480.441406 480.441406 483.652344 476.496094 483.652344 L 333.371094 483.652344 C 329.429688 483.652344 326.214844 480.441406 326.214844 476.496094 L 326.214844 333.371094 C 326.214844 329.429688 329.429688 326.214844 333.371094 326.214844 Z M 476.496094 319.058594 L 333.371094 319.058594 C 325.472656 319.058594 319.058594 325.464844 319.058594 333.371094 L 319.058594 476.496094 C 319.058594 484.40625 325.472656 490.808594 333.371094 490.808594 L 476.496094 490.808594 C 484.398438 490.808594 490.808594 484.40625 490.808594 476.496094 L 490.808594 333.371094 C 490.808594 325.464844 484.398438 319.058594 476.496094 319.058594 Z M 476.496094 319.058594 " fill-opacity="1" fill-rule="nonzero"/></g></svg>