<svg xmlns="http://www.w3.org/2000/svg" xmlns:xlink="http://www.w3.org/1999/xlink" width="1080" zoomAndPan="magnify" viewBox="0 0 810 809.999993" height="1080" preserveAspectRatio="xMidYMid meet" version="1.0"><defs><clipPath id="id1"><path d="M 321.300781 333 L 488.550781 333 L 488.550781 523.214844 L 321.300781 523.214844 Z M 321.300781 333 " clip-rule="nonzero"/></clipPath><clipPath id="id2"><path d="M 336 286.964844 L 368 286.964844 L 368 319 L 336 319 Z M 336 286.964844 " clip-rule="nonzero"/></clipPath><clipPath id="id3"><path d="M 372 286.964844 L 402 286.964844 L 402 319 L 372 319 Z M 372 286.964844 " clip-rule="nonzero"/></clipPath><clipPath id="id4"><path d="M 406 286.964844 L 443 286.964844 L 443 319 L 406 319 Z M 406 286.964844 " clip-rule="nonzero"/></clipPath><clipPath id="id5"><path d="M 447 286.964844 L 474 286.964844 L 474 319 L 447 319 Z M 447 286.964844 " clip-rule="nonzero"/></clipPath></defs><g clip-path="url(#id1)"><path fill="#e44d26" d="M 488.503906 333.390625 L 473.28125 504.203125 L 404.855469 523.203125 L 336.617188 504.230469 L 321.410156 333.390625 L 488.5 333.386719 L 488.507812 333.386719 Z M 488.503906 333.390625 " fill-opacity="1" fill-rule="nonzero"/></g><path fill="#f16529" d="M 404.960938 508.679688 L 460.253906 493.328125 L 473.261719 347.359375 L 404.960938 347.359375 Z M 404.960938 508.679688 " fill-opacity="1" fill-rule="nonzero"/><path fill="#f1e000" d="M 375.367188 389.265625 L 404.960938 389.265625 L 404.960938 368.308594 L 352.503906 368.308594 L 353.003906 373.933594 L 358.148438 431.671875 L 404.960938 431.671875 L 404.960938 410.722656 L 377.277344 410.722656 Z M 375.367188 389.265625 " fill-opacity="1" fill-rule="nonzero"/><path fill="#f1e000" d="M 380.082031 442.148438 L 359.082031 442.148438 L 362.011719 475.050781 L 404.859375 486.964844 L 404.960938 486.941406 L 404.960938 465.136719 L 404.867188 465.164062 L 381.570312 458.859375 Z M 380.082031 442.148438 " fill-opacity="1" fill-rule="nonzero"/><g clip-path="url(#id2)"><path fill="#000000" d="M 336.957031 286.964844 L 347.589844 286.964844 L 347.589844 297.484375 L 357.3125 297.484375 L 357.3125 286.964844 L 367.945312 286.964844 L 367.945312 318.820312 L 357.3125 318.820312 L 357.3125 308.152344 L 347.589844 308.152344 L 347.589844 318.820312 L 336.957031 318.820312 Z M 336.957031 286.964844 " fill-opacity="1" fill-rule="nonzero"/></g><g clip-path="url(#id3)"><path fill="#000000" d="M 381.921875 297.527344 L 372.566406 297.527344 L 372.566406 286.964844 L 401.921875 286.964844 L 401.921875 297.527344 L 392.554688 297.527344 L 392.554688 318.820312 L 381.925781 318.820312 L 381.925781 297.527344 Z M 381.921875 297.527344 " fill-opacity="1" fill-rule="nonzero"/></g><g clip-path="url(#id4)"><path fill="#000000" d="M 406.578125 286.964844 L 417.660156 286.964844 L 424.476562 298.15625 L 431.289062 286.964844 L 442.378906 286.964844 L 442.378906 318.820312 L 431.792969 318.820312 L 431.792969 303.03125 L 424.476562 314.359375 L 424.292969 314.359375 L 416.976562 303.03125 L 416.976562 318.820312 L 406.578125 318.820312 Z M 406.578125 286.964844 " fill-opacity="1" fill-rule="nonzero"/></g><g clip-path="url(#id5)"><path fill="#000000" d="M 447.671875 286.964844 L 458.300781 286.964844 L 458.300781 308.289062 L 473.253906 308.289062 L 473.253906 318.820312 L 447.671875 318.820312 Z M 447.671875 286.964844 " fill-opacity="1" fill-rule="nonzero"/></g><path fill="#e8e295" d="M 404.886719 431.671875 L 430.648438 431.671875 L 428.21875 458.847656 L 404.886719 465.15625 L 404.886719 486.953125 L 447.769531 475.050781 L 448.085938 471.507812 L 453.003906 416.347656 L 453.515625 410.722656 L 404.886719 410.722656 Z M 404.886719 431.671875 " fill-opacity="1" fill-rule="nonzero"/><path fill="#e8e295" d="M 404.886719 389.210938 L 404.886719 389.265625 L 455.414062 389.265625 L 455.832031 384.554688 L 456.789062 373.933594 L 457.285156 368.308594 L 404.886719 368.308594 Z M 404.886719 389.210938 " fill-opacity="1" fill-rule="nonzero"/></svg>