<svg xmlns="http://www.w3.org/2000/svg" xmlns:xlink="http://www.w3.org/1999/xlink" width="1080" zoomAndPan="magnify" viewBox="0 0 810 809.999993" height="1080" preserveAspectRatio="xMidYMid meet" version="1.0"><defs><clipPath id="id1"><path d="M 293.5 438 L 516.25 438 L 516.25 505.652344 L 293.5 505.652344 Z M 293.5 438 " clip-rule="nonzero"/></clipPath></defs><path fill="#f16529" d="M 315.679688 378.730469 C 315.679688 375.039062 314.429688 372.410156 311.921875 370.851562 C 309.410156 369.292969 305.84375 368.511719 301.101562 368.511719 L 301.101562 354.867188 C 303.453125 354.867188 305.542969 354.699219 307.367188 354.351562 C 309.226562 353.96875 310.78125 353.378906 312.039062 352.582031 C 313.285156 351.746094 314.21875 350.675781 314.828125 349.382812 C 315.472656 348.089844 315.757812 346.53125 315.683594 344.699219 L 315.683594 326.542969 C 315.683594 323.726562 316.046875 321.328125 316.796875 319.347656 C 317.535156 317.273438 318.828125 315.636719 320.667969 314.4375 C 322.570312 313.140625 325.128906 312.1875 328.363281 311.582031 C 331.597656 310.972656 335.695312 310.667969 340.667969 310.667969 L 340.667969 323.515625 C 339.148438 323.554688 337.761719 323.6875 336.507812 323.917969 C 335.292969 324.144531 334.25 324.5625 333.375 325.171875 C 332.542969 325.742188 331.894531 326.539062 331.441406 327.566406 C 330.984375 328.589844 330.757812 329.925781 330.757812 331.566406 L 330.757812 348.640625 C 330.53125 355.761719 326.085938 359.984375 317.425781 361.320312 L 317.425781 362.003906 C 321.792969 362.648438 325.132812 364.023438 327.425781 366.117188 C 329.714844 368.210938 330.839844 371.046875 330.757812 374.628906 L 330.757812 391.703125 C 330.757812 393.339844 330.984375 394.671875 331.441406 395.703125 C 331.894531 396.734375 332.539062 397.527344 333.375 398.097656 C 334.25 398.710938 335.320312 399.128906 336.507812 399.351562 C 337.886719 399.589844 339.269531 399.726562 340.667969 399.75 L 340.667969 412.660156 C 335.667969 412.660156 331.589844 412.378906 328.363281 411.746094 C 325.136719 411.109375 322.570312 410.183594 320.667969 408.890625 C 318.828125 407.691406 317.535156 406.050781 316.796875 403.976562 C 316.074219 401.960938 315.683594 399.542969 315.683594 396.722656 L 315.683594 378.734375 M 348.097656 385.984375 C 348.097656 384.195312 348.375 382.691406 348.839844 381.476562 C 349.394531 380.222656 350.089844 379.210938 351.003906 378.449219 C 351.921875 377.683594 352.949219 377.132812 354.191406 376.792969 C 355.480469 376.4375 356.789062 376.265625 358.125 376.277344 C 359.402344 376.269531 360.65625 376.441406 361.882812 376.792969 C 363.097656 377.132812 364.160156 377.683594 365.074219 378.449219 C 365.984375 379.214844 366.707031 380.21875 367.238281 381.476562 C 367.792969 382.695312 368.035156 384.199219 368.035156 385.984375 C 368.035156 387.699219 367.769531 389.167969 367.238281 390.386719 C 366.707031 391.605469 365.988281 392.613281 365.074219 393.414062 C 364.140625 394.226562 363.078125 394.796875 361.882812 395.125 C 360.707031 395.507812 359.453125 395.695312 358.125 395.695312 C 356.71875 395.695312 355.40625 395.507812 354.191406 395.125 C 353 394.796875 351.9375 394.226562 351.003906 393.414062 C 350.054688 392.566406 349.335938 391.558594 348.839844 390.386719 C 348.34375 389.167969 348.097656 387.703125 348.097656 385.984375 M 380.230469 422.277344 C 378.339844 422.273438 376.460938 422.136719 374.589844 421.875 C 372.65625 421.609375 371.039062 421.261719 369.75 420.84375 L 369.75 407.140625 C 370.828125 407.496094 371.929688 407.761719 373.050781 407.9375 C 374.078125 408.128906 375.234375 408.222656 376.523438 408.222656 C 377.441406 408.226562 378.335938 408.074219 379.199219 407.765625 C 380.105469 407.488281 380.84375 406.972656 381.421875 406.222656 C 382.066406 405.5 382.582031 404.511719 382.960938 403.253906 C 383.34375 402.039062 383.53125 400.457031 383.53125 398.515625 L 383.53125 330.304688 L 400.902344 330.304688 L 400.902344 401.035156 C 400.902344 403.96875 400.523438 406.707031 399.792969 409.257812 C 399.070312 411.847656 397.847656 414.09375 396.203125 415.996094 C 394.570312 417.9375 392.445312 419.460938 389.824219 420.5625 C 387.207031 421.667969 384.015625 422.222656 380.257812 422.222656 M 382.820312 313.773438 C 382.820312 312.136719 383.097656 310.785156 383.5625 309.71875 C 384.011719 308.679688 384.675781 307.804688 385.554688 307.09375 C 386.457031 306.390625 387.460938 305.914062 388.574219 305.664062 C 389.792969 305.390625 391.027344 305.257812 392.277344 305.261719 C 393.507812 305.257812 394.722656 305.390625 395.925781 305.664062 C 397.035156 305.929688 398.050781 306.40625 398.882812 307.09375 C 399.757812 307.738281 400.441406 308.617188 400.933594 309.71875 C 401.488281 310.785156 401.730469 312.136719 401.730469 313.773438 C 401.730469 315.371094 401.464844 316.726562 400.933594 317.828125 C 400.441406 318.933594 399.757812 319.828125 398.882812 320.511719 C 398.050781 321.15625 397.0625 321.632812 395.925781 321.941406 C 394.8125 322.207031 393.570312 322.339844 392.28125 322.339844 C 391.03125 322.347656 389.796875 322.210938 388.578125 321.941406 C 387.480469 321.65625 386.472656 321.183594 385.558594 320.511719 C 384.726562 319.828125 384.058594 318.933594 383.5625 317.828125 C 383.070312 316.722656 382.824219 315.371094 382.824219 313.773438 M 461.257812 375.191406 C 461.257812 378.542969 460.648438 381.476562 459.4375 383.988281 C 458.226562 386.511719 456.496094 388.605469 454.253906 390.269531 C 452.011719 391.941406 449.296875 393.203125 446.105469 394.035156 C 442.914062 394.871094 439.347656 395.289062 435.398438 395.289062 C 433.3125 395.289062 431.371094 395.214844 429.589844 395.0625 C 427.886719 394.960938 426.195312 394.75 424.519531 394.433594 L 419.910156 393.320312 C 418.375 392.839844 416.875 392.269531 415.410156 391.605469 L 415.410156 377.164062 C 417.003906 377.964844 418.675781 378.6875 420.421875 379.335938 L 425.71875 381.050781 L 430.789062 382.164062 C 432.460938 382.429688 433.996094 382.5625 435.398438 382.5625 C 436.953125 382.5625 438.289062 382.429688 439.386719 382.164062 C 440.359375 381.9375 441.25 381.539062 442.066406 380.964844 C 442.742188 380.496094 443.253906 379.886719 443.605469 379.136719 C 443.945312 378.414062 444.117188 377.65625 444.117188 376.855469 C 444.117188 376.054688 443.984375 375.351562 443.71875 374.738281 C 443.492188 374.09375 442.941406 373.425781 442.066406 372.738281 C 441.195312 372.015625 439.898438 371.214844 438.191406 370.34375 L 431.414062 367.003906 L 424.179688 363.289062 C 422.167969 362.039062 420.5 360.644531 419.167969 359.121094 C 417.875 357.597656 416.910156 355.863281 416.261719 353.925781 C 415.617188 351.988281 415.292969 349.605469 415.292969 346.902344 C 415.292969 343.933594 415.859375 341.34375 417 339.105469 C 418.109375 336.859375 419.777344 334.992188 421.839844 333.535156 C 423.902344 332.078125 426.433594 330.945312 429.359375 330.195312 C 432.320312 329.433594 435.609375 329.082031 439.214844 329.082031 C 443.011719 329.082031 446.617188 329.519531 450.035156 330.394531 C 453.449219 331.273438 456.964844 332.582031 460.570312 334.335938 L 455.304688 346.8125 C 452.617188 345.523438 449.863281 344.398438 447.042969 343.441406 C 444.421875 342.566406 441.800781 342.125 439.183594 342.125 C 436.828125 342.125 435.121094 342.542969 434.054688 343.378906 C 433.027344 344.214844 432.515625 345.328125 432.515625 346.804688 C 432.515625 347.566406 432.648438 348.253906 432.917969 348.859375 C 433.183594 349.429688 433.714844 350.042969 434.511719 350.6875 C 435.308594 351.300781 436.457031 351.980469 437.84375 352.742188 L 443.480469 355.425781 L 450.773438 358.964844 C 452.9375 360.078125 454.800781 361.417969 456.328125 362.902344 C 457.855469 364.386719 459.105469 366.121094 459.917969 368.101562 C 460.726562 370.078125 461.164062 372.476562 461.164062 375.296875 M 492.171875 396.722656 C 492.171875 399.539062 491.808594 401.957031 491.058594 403.976562 C 490.308594 405.996094 489.03125 407.632812 487.128906 408.886719 C 485.269531 410.183594 482.722656 411.136719 479.496094 411.742188 C 476.269531 412.347656 472.164062 412.65625 467.191406 412.65625 L 467.191406 399.71875 C 468.570312 399.695312 469.9375 399.5625 471.296875 399.320312 C 472.507812 399.089844 473.535156 398.671875 474.371094 398.066406 C 475.273438 397.46875 475.941406 396.667969 476.363281 395.667969 C 476.859375 394.636719 477.105469 393.308594 477.105469 391.667969 L 477.105469 374.59375 C 476.996094 371.015625 478.089844 368.179688 480.4375 366.082031 C 482.785156 363.988281 486.078125 362.621094 490.4375 361.972656 L 490.4375 361.285156 C 481.816406 359.949219 477.394531 355.726562 477.167969 348.605469 L 477.167969 331.53125 C 477.167969 329.894531 476.890625 328.5625 476.425781 327.53125 C 476 326.53125 475.335938 325.734375 474.429688 325.132812 C 473.597656 324.523438 472.570312 324.105469 471.355469 323.882812 C 470 323.640625 468.632812 323.507812 467.253906 323.480469 L 467.253906 310.632812 C 472.253906 310.632812 476.332031 310.910156 479.558594 311.546875 C 482.785156 312.179688 485.328125 313.105469 487.191406 314.398438 C 489.089844 315.652344 490.398438 317.296875 491.121094 319.3125 C 491.84375 321.261719 492.230469 323.6875 492.230469 326.507812 L 492.230469 344.664062 C 492.191406 346.492188 492.507812 348.054688 493.085938 349.347656 C 493.664062 350.644531 494.625 351.710938 495.878906 352.542969 C 497.128906 353.34375 498.667969 353.9375 500.488281 354.316406 C 502.351562 354.65625 504.460938 354.832031 506.808594 354.832031 L 506.808594 368.476562 C 502.089844 368.476562 498.4375 369.253906 495.929688 370.816406 C 493.429688 372.375 492.230469 375.003906 492.230469 378.695312 L 492.230469 396.683594 " fill-opacity="1" fill-rule="nonzero"/><path fill="#000000" d="M 298.625 501.140625 C 297.792969 501.140625 297.070312 501.085938 296.453125 500.96875 C 295.832031 500.871094 295.296875 500.730469 294.84375 500.550781 L 294.84375 496.628906 C 295.429688 496.78125 296.023438 496.898438 296.625 496.972656 C 297.304688 497.074219 297.988281 497.121094 298.675781 497.117188 C 299.289062 497.117188 299.890625 497.035156 300.480469 496.875 C 301.101562 496.730469 301.652344 496.453125 302.140625 496.042969 C 302.648438 495.632812 303.050781 495.066406 303.363281 494.355469 C 303.675781 493.640625 303.828125 492.722656 303.828125 491.613281 L 303.828125 455.832031 L 308.394531 455.832031 L 308.394531 491.125 C 308.394531 492.839844 308.148438 494.324219 307.660156 495.582031 C 307.234375 496.773438 306.566406 497.808594 305.65625 498.691406 C 304.777344 499.546875 303.753906 500.15625 302.582031 500.523438 C 301.394531 500.933594 299.773438 501.136719 298.324219 501.136719 M 331.078125 487.894531 L 330.886719 487.894531 C 330.394531 488.574219 329.859375 489.210938 329.273438 489.804688 C 328.75 490.320312 328.164062 490.753906 327.515625 491.105469 C 326.84375 491.460938 326.136719 491.714844 325.390625 491.863281 C 324.609375 492.03125 323.707031 492.109375 322.679688 492.109375 C 321.558594 492.109375 320.523438 491.941406 319.582031 491.617188 C 318.644531 491.332031 317.820312 490.851562 317.113281 490.171875 C 316.429688 489.503906 315.890625 488.667969 315.503906 487.675781 C 315.113281 486.664062 314.949219 485.449219 314.949219 484.101562 C 314.949219 481.429688 315.882812 479.367188 317.726562 477.933594 C 319.613281 476.5 322.445312 475.714844 326.320312 475.585938 L 330.808594 475.410156 L 330.808594 473.722656 C 330.808594 472.628906 330.6875 471.71875 330.441406 470.984375 C 330.214844 470.25 329.875 469.660156 329.414062 469.222656 C 328.949219 468.746094 328.394531 468.417969 327.753906 468.242188 C 327.019531 468.035156 326.269531 467.9375 325.507812 467.949219 C 324.214844 467.9375 322.953125 468.132812 321.726562 468.535156 C 320.574219 468.921875 319.460938 469.398438 318.382812 469.953125 L 316.820312 466.601562 C 318.027344 465.949219 319.367188 465.394531 320.847656 464.9375 C 322.367188 464.472656 323.921875 464.242188 325.511719 464.25 C 327.171875 464.25 328.601562 464.421875 329.808594 464.765625 C 331.03125 465.09375 332.027344 465.625 332.808594 466.351562 C 333.640625 467.121094 334.234375 468.042969 334.589844 469.117188 C 334.984375 470.242188 335.144531 471.609375 335.144531 473.207031 L 335.144531 491.617188 L 331.96875 491.617188 Z M 323.859375 488.496094 C 324.804688 488.503906 325.722656 488.347656 326.617188 488.03125 C 327.453125 487.730469 328.183594 487.265625 328.808594 486.636719 C 329.429688 486.003906 329.910156 485.207031 330.253906 484.265625 C 330.617188 483.300781 330.789062 482.175781 330.789062 480.886719 L 330.789062 478.464844 L 327.300781 478.636719 C 325.835938 478.699219 324.605469 478.863281 323.613281 479.125 C 322.621094 479.386719 321.820312 479.757812 321.226562 480.230469 C 320.667969 480.6875 320.214844 481.25 319.957031 481.917969 C 319.683594 482.632812 319.550781 483.378906 319.5625 484.144531 C 319.5625 485.648438 319.953125 486.75 320.734375 487.449219 C 321.535156 488.152344 322.574219 488.503906 323.859375 488.503906 M 338.914062 464.742188 L 343.503906 464.742188 L 348.363281 479.699219 L 349.003906 481.777344 L 349.734375 484.375 L 350.394531 486.867188 L 350.808594 488.65625 L 350.980469 488.65625 L 351.398438 486.867188 L 352.058594 484.375 L 352.789062 481.777344 L 353.429688 479.699219 L 358.289062 464.742188 L 362.878906 464.742188 L 353.703125 491.617188 L 348.0625 491.617188 Z M 381.011719 487.894531 L 380.816406 487.894531 C 380.328125 488.574219 379.792969 489.210938 379.207031 489.804688 C 378.109375 490.867188 376.816406 491.554688 375.324219 491.863281 C 374.539062 492.03125 373.640625 492.109375 372.613281 492.109375 C 371.492188 492.109375 370.457031 491.941406 369.511719 491.617188 C 368.574219 491.332031 367.753906 490.851562 367.046875 490.171875 C 366.363281 489.503906 365.824219 488.667969 365.4375 487.675781 C 365.046875 486.664062 364.878906 485.449219 364.878906 484.101562 C 364.878906 481.429688 365.816406 479.367188 367.65625 477.933594 C 369.546875 476.5 372.378906 475.714844 376.25 475.585938 L 380.742188 475.410156 L 380.742188 473.722656 C 380.742188 472.628906 380.621094 471.71875 380.375 470.984375 C 380.148438 470.25 379.804688 469.660156 379.347656 469.222656 C 378.882812 468.746094 378.328125 468.417969 377.6875 468.242188 C 376.953125 468.035156 376.203125 467.9375 375.441406 467.949219 C 374.148438 467.9375 372.886719 468.132812 371.65625 468.535156 C 370.507812 468.921875 369.394531 469.398438 368.3125 469.953125 L 366.753906 466.601562 C 367.957031 465.949219 369.300781 465.394531 370.78125 464.9375 C 372.300781 464.472656 373.855469 464.242188 375.445312 464.25 C 377.105469 464.25 378.539062 464.421875 379.742188 464.765625 C 380.964844 465.09375 381.964844 465.625 382.742188 466.351562 C 383.574219 467.121094 384.167969 468.042969 384.527344 469.117188 C 384.917969 470.242188 385.082031 471.609375 385.082031 473.207031 L 385.082031 491.617188 L 381.886719 491.617188 Z M 373.789062 488.507812 C 374.738281 488.515625 375.65625 488.363281 376.546875 488.042969 C 377.382812 487.746094 378.117188 487.28125 378.742188 486.652344 C 379.363281 486.011719 379.84375 485.222656 380.1875 484.277344 C 380.546875 483.316406 380.722656 482.191406 380.722656 480.902344 L 380.722656 478.476562 L 377.230469 478.652344 C 375.769531 478.714844 374.539062 478.878906 373.546875 479.140625 C 372.554688 479.402344 371.753906 479.769531 371.15625 480.242188 C 370.601562 480.699219 370.148438 481.261719 369.886719 481.929688 C 369.613281 482.648438 369.484375 483.390625 369.496094 484.160156 C 369.496094 485.664062 369.886719 486.761719 370.667969 487.464844 C 371.464844 488.167969 372.507812 488.515625 373.792969 488.515625 M 412.492188 482.046875 C 412.492188 483.628906 412.207031 485.050781 411.636719 486.308594 C 411.085938 487.550781 410.289062 488.601562 409.246094 489.464844 C 408.203125 490.300781 406.933594 490.992188 405.441406 491.449219 C 403.941406 491.890625 402.257812 492.109375 400.382812 492.109375 C 398.679688 492.117188 396.988281 491.972656 395.308594 491.667969 C 393.742188 491.390625 392.4375 490.972656 391.378906 490.421875 L 391.378906 486.066406 L 393.257812 486.847656 L 395.480469 487.507812 L 397.894531 487.996094 C 398.714844 488.109375 399.535156 488.167969 400.363281 488.167969 C 402.964844 488.167969 404.890625 487.679688 406.121094 486.703125 C 407.371094 485.722656 408.003906 484.320312 408.003906 482.492188 C 408.019531 481.703125 407.898438 480.933594 407.636719 480.191406 C 407.410156 479.539062 406.996094 478.941406 406.390625 478.402344 C 405.835938 477.847656 405.015625 477.289062 404.023438 476.816406 C 402.804688 476.175781 401.550781 475.613281 400.261719 475.128906 C 398.945312 474.621094 397.683594 474.003906 396.480469 473.269531 C 395.425781 472.582031 394.542969 471.8125 393.839844 470.96875 C 393.15625 470.117188 392.648438 469.15625 392.300781 468.078125 C 391.976562 467.003906 391.8125 465.78125 391.8125 464.410156 C 391.8125 462.972656 392.074219 461.695312 392.589844 460.566406 C 393.101562 459.449219 393.832031 458.5 394.789062 457.726562 C 395.792969 456.90625 396.917969 456.3125 398.15625 455.9375 C 399.476562 455.53125 400.921875 455.324219 402.5 455.324219 C 404.4375 455.324219 406.179688 455.511719 407.722656 455.886719 C 409.269531 456.25 410.644531 456.710938 411.847656 457.28125 L 410.179688 461.097656 C 409.125 460.621094 407.917969 460.214844 406.570312 459.871094 C 405.210938 459.507812 403.828125 459.328125 402.421875 459.332031 C 400.433594 459.332031 398.894531 459.796875 397.808594 460.726562 C 397.261719 461.183594 396.839844 461.738281 396.546875 462.394531 C 396.253906 463.046875 396.121094 463.730469 396.144531 464.445312 C 396.144531 465.375 396.265625 466.183594 396.511719 466.867188 C 396.777344 467.574219 397.183594 468.1875 397.730469 468.703125 C 398.296875 469.242188 399.046875 469.757812 399.953125 470.246094 C 400.894531 470.71875 402.050781 471.226562 403.417969 471.765625 C 404.75 472.28125 406.042969 472.882812 407.296875 473.574219 C 408.339844 474.132812 409.277344 474.835938 410.105469 475.679688 C 410.859375 476.464844 411.421875 477.371094 411.789062 478.398438 C 412.175781 479.425781 412.386719 480.6875 412.386719 482.089844 M 428.921875 492.105469 C 427.277344 492.105469 425.738281 491.828125 424.308594 491.347656 C 422.871094 490.828125 421.625 490.011719 420.574219 488.894531 C 419.519531 487.769531 418.683594 486.34375 418.085938 484.613281 C 417.484375 482.867188 417.183594 480.769531 417.183594 478.320312 C 417.183594 475.757812 417.460938 473.585938 418.109375 471.808594 C 418.730469 470.011719 419.574219 468.5625 420.648438 467.453125 C 421.722656 466.335938 422.992188 465.515625 424.453125 465.003906 C 425.898438 464.492188 427.453125 464.242188 429.121094 464.242188 C 430.371094 464.238281 431.609375 464.378906 432.832031 464.65625 C 433.886719 464.878906 434.90625 465.222656 435.882812 465.683594 L 434.5625 469.457031 C 434.1875 469.289062 433.773438 469.136719 433.320312 468.992188 C 432.863281 468.828125 432.402344 468.6875 431.929688 468.574219 C 431.441406 468.441406 430.957031 468.34375 430.488281 468.28125 C 430.042969 468.203125 429.59375 468.160156 429.144531 468.15625 C 426.589844 468.15625 424.699219 468.980469 423.554688 470.628906 C 422.382812 472.261719 421.796875 474.808594 421.796875 478.265625 C 421.796875 481.707031 422.351562 484.230469 423.554688 485.828125 C 424.742188 487.410156 426.539062 488.203125 428.949219 488.203125 C 430.15625 488.214844 431.34375 488.070312 432.511719 487.761719 C 433.515625 487.476562 434.492188 487.117188 435.441406 486.683594 L 435.441406 490.648438 C 434.542969 491.132812 433.597656 491.492188 432.609375 491.726562 C 431.617188 491.972656 430.332031 492.09375 428.882812 492.09375 M 453.238281 464.253906 L 454.820312 464.324219 C 455.332031 464.347656 455.835938 464.40625 456.335938 464.5 L 455.78125 468.613281 L 454.390625 468.417969 C 453.917969 468.351562 453.476562 468.320312 453.050781 468.320312 C 452.023438 468.320312 451.089844 468.53125 450.273438 468.953125 C 449.402344 469.378906 448.667969 469.976562 448.074219 470.742188 C 447.429688 471.582031 446.96875 472.511719 446.6875 473.53125 C 446.347656 474.707031 446.183594 475.90625 446.199219 477.128906 L 446.199219 491.617188 L 441.753906 491.617188 L 441.753906 464.742188 L 445.363281 464.742188 L 445.902344 469.664062 L 446.09375 469.664062 L 447.390625 467.632812 C 447.84375 466.996094 448.363281 466.425781 448.953125 465.917969 C 449.539062 465.410156 450.191406 465.011719 450.90625 464.71875 C 451.714844 464.394531 452.554688 464.242188 453.421875 464.253906 M 465.703125 491.617188 L 461.257812 491.617188 L 461.257812 464.742188 L 465.703125 464.742188 L 465.703125 491.617188 M 461.644531 455.34375 C 462.179688 454.886719 462.796875 454.664062 463.5 454.683594 C 463.84375 454.679688 464.179688 454.738281 464.5 454.859375 C 464.820312 454.949219 465.097656 455.113281 465.332031 455.347656 C 465.589844 455.597656 465.777344 455.890625 465.894531 456.226562 C 466.039062 456.570312 466.117188 456.988281 466.117188 457.476562 C 466.117188 458.421875 465.855469 459.132812 465.335938 459.605469 C 464.832031 460.0625 464.226562 460.292969 463.503906 460.292969 C 462.78125 460.292969 462.136719 459.949219 461.628906 459.488281 C 461.140625 459.03125 460.90625 458.320312 460.914062 457.417969 C 460.914062 456.5 461.191406 455.785156 461.648438 455.34375 Z M 486.101562 492.105469 C 485.21875 492.113281 484.347656 492.007812 483.492188 491.785156 C 482.714844 491.574219 482.003906 491.296875 481.367188 490.949219 C 480.761719 490.601562 480.207031 490.1875 479.707031 489.703125 C 479.242188 489.238281 478.820312 488.742188 478.4375 488.210938 L 478.144531 488.210938 L 478.292969 489.796875 L 478.390625 491.121094 L 478.4375 492.171875 L 478.4375 503.652344 L 473.996094 503.652344 L 473.996094 464.742188 L 477.605469 464.742188 L 478.246094 468.363281 L 478.4375 468.363281 C 478.8125 467.792969 479.234375 467.265625 479.707031 466.773438 C 480.1875 466.261719 480.734375 465.828125 481.34375 465.476562 C 482.011719 465.085938 482.722656 464.792969 483.46875 464.597656 C 484.332031 464.355469 485.210938 464.242188 486.105469 464.253906 C 487.632812 464.253906 489.027344 464.546875 490.277344 465.132812 C 491.53125 465.722656 492.597656 466.601562 493.472656 467.777344 C 494.367188 468.9375 495.054688 470.382812 495.546875 472.113281 C 496.039062 473.839844 496.28125 475.847656 496.28125 478.132812 C 496.28125 480.433594 496.035156 482.457031 495.546875 484.203125 C 495.058594 485.929688 494.367188 487.386719 493.472656 488.558594 C 492.59375 489.734375 491.527344 490.621094 490.277344 491.226562 C 489.027344 491.785156 487.328125 492.105469 485.796875 492.105469 M 485.25 467.949219 C 484.011719 467.949219 482.964844 468.136719 482.097656 468.511719 C 481.253906 468.886719 480.5625 469.457031 480.023438 470.222656 C 479.488281 470.988281 479.113281 471.945312 478.851562 473.085938 C 478.589844 474.417969 478.449219 475.765625 478.4375 477.125 L 478.4375 478.128906 C 478.425781 479.605469 478.53125 481.074219 478.753906 482.53125 C 478.984375 483.804688 479.359375 484.882812 479.878906 485.761719 C 480.402344 486.621094 481.109375 487.285156 482.003906 487.746094 C 482.878906 488.1875 483.980469 488.40625 485.300781 488.40625 C 487.519531 488.40625 489.105469 487.515625 490.132812 485.738281 C 491.160156 483.960938 491.691406 481.40625 491.695312 478.078125 C 491.695312 474.683594 491.171875 472.148438 490.132812 470.46875 C 489.097656 468.789062 487.480469 467.949219 485.25 467.949219 M 511.082031 488.457031 C 511.375 488.457031 511.703125 488.429688 512.058594 488.410156 L 513.132812 488.285156 L 514.0625 488.113281 L 514.71875 487.941406 L 514.71875 491.320312 C 514.507812 491.414062 514.238281 491.511719 513.886719 491.609375 C 513.535156 491.714844 513.175781 491.796875 512.8125 491.855469 C 512.421875 491.9375 512.015625 491.996094 511.589844 492.027344 C 511.175781 492.078125 510.761719 492.101562 510.347656 492.101562 C 509.335938 492.101562 508.402344 491.96875 507.570312 491.710938 C 506.707031 491.453125 505.957031 491.003906 505.320312 490.367188 C 504.699219 489.726562 504.214844 488.875 503.855469 487.796875 C 503.492188 486.703125 503.320312 485.332031 503.320312 483.683594 L 503.320312 468.089844 L 499.535156 468.089844 L 499.535156 466.105469 L 503.320312 464.195312 L 505.222656 458.566406 L 507.789062 458.566406 L 507.789062 464.734375 L 514.585938 464.734375 L 514.585938 468.085938 L 507.847656 468.085938 L 507.847656 483.679688 C 507.847656 485.261719 508.125 486.453125 508.601562 487.253906 C 509.078125 488.050781 509.96875 488.449219 511.140625 488.449219 " fill-opacity="1" fill-rule="nonzero"/><g clip-path="url(#id1)"><path stroke-linecap="butt" transform="matrix(2.777431, 0, 0, 2.784721, 279.891258, 268.83862)" fill="none" stroke-linejoin="miter" d="M 6.744988 83.420203 C 6.445419 83.420203 6.185231 83.400565 5.963015 83.358483 C 5.739394 83.323414 5.546714 83.272915 5.383568 83.208389 L 5.383568 81.800034 C 5.594532 81.854741 5.808309 81.896824 6.024898 81.923476 C 6.269616 81.959947 6.515741 81.97678 6.763271 81.975377 C 6.98408 81.975377 7.20067 81.94592 7.41304 81.888407 C 7.636662 81.836506 7.834968 81.736911 8.010771 81.589623 C 8.193606 81.442335 8.338468 81.238937 8.450982 80.983638 C 8.563496 80.726935 8.618346 80.397291 8.618346 79.998911 L 8.618346 67.149779 L 10.262458 67.149779 L 10.262458 79.823568 C 10.262458 80.439373 10.173853 80.972416 9.99805 81.424099 C 9.844749 81.851936 9.604251 82.223663 9.276553 82.540683 C 8.960108 82.847884 8.591624 83.066712 8.169697 83.19857 C 7.742143 83.345858 7.158477 83.418801 6.636693 83.418801 M 18.42957 78.663499 L 18.360655 78.663499 C 18.183445 78.907577 17.990765 79.136224 17.779801 79.349441 C 17.59134 79.534603 17.380376 79.690308 17.14691 79.816555 C 16.905004 79.944204 16.650441 80.035383 16.381814 80.088687 C 16.100529 80.149005 15.775645 80.17706 15.405755 80.17706 C 15.002111 80.17706 14.629408 80.116742 14.29046 80.000314 C 13.952918 79.897914 13.656162 79.725376 13.401599 79.481299 C 13.155475 79.24143 12.961388 78.941243 12.822152 78.584946 C 12.681509 78.221635 12.622439 77.785382 12.622439 77.301435 C 12.622439 76.341959 12.958575 75.60131 13.622408 75.086503 C 14.301711 74.571696 15.32137 74.289745 16.716543 74.243454 L 18.332526 74.180331 L 18.332526 73.574345 C 18.332526 73.181577 18.288927 72.854738 18.200322 72.591022 C 18.11875 72.327306 17.996391 72.115492 17.830432 71.958385 C 17.663068 71.78725 17.463355 71.669419 17.232702 71.606296 C 16.968294 71.531951 16.69826 71.496882 16.424007 71.50109 C 15.95848 71.496882 15.504205 71.567019 15.062587 71.711502 C 14.647692 71.850373 14.246861 72.021508 13.858687 72.220698 L 13.296117 71.017144 C 13.730702 70.782885 14.213106 70.583696 14.746142 70.419575 C 15.293241 70.252648 15.852998 70.169886 16.425413 70.172692 C 17.023144 70.172692 17.537896 70.234413 17.972481 70.357854 C 18.412692 70.475685 18.771331 70.666458 19.052616 70.927368 C 19.352185 71.203709 19.565961 71.534756 19.693946 71.920511 C 19.835995 72.324501 19.893658 72.815461 19.893658 73.389183 L 19.893658 80.000314 L 18.750234 80.000314 Z M 15.830496 78.879522 C 16.17085 78.882327 16.50136 78.826218 16.823432 78.712595 C 17.124407 78.604584 17.387408 78.437658 17.612436 78.211816 C 17.836058 77.984572 18.009048 77.698412 18.132814 77.360351 C 18.263611 77.013873 18.325494 76.609883 18.325494 76.146977 L 18.325494 75.277276 L 17.069556 75.338997 C 16.542147 75.361441 16.099123 75.420356 15.741891 75.51434 C 15.384659 75.608324 15.096341 75.741584 14.882565 75.911316 C 14.681446 76.075437 14.518301 76.277432 14.425477 76.517302 C 14.327027 76.774004 14.279208 77.041928 14.283428 77.316866 C 14.283428 77.856922 14.42407 78.252496 14.705355 78.503587 C 14.993672 78.756081 15.367782 78.882327 15.830496 78.882327 M 21.250859 70.349438 L 22.903408 70.349438 L 24.653002 75.720543 L 24.883655 76.466803 L 25.146657 77.399627 L 25.384343 78.294578 L 25.533424 78.937034 L 25.595307 78.937034 L 25.745794 78.294578 L 25.98348 77.399627 L 26.246482 76.466803 L 26.477135 75.720543 L 28.226728 70.349438 L 29.879278 70.349438 L 26.575585 80.000314 L 24.544707 80.000314 Z M 36.407905 78.663499 L 36.337583 78.663499 C 36.16178 78.907577 35.9691 79.136224 35.758136 79.349441 C 35.36293 79.730987 34.897404 79.97787 34.360149 80.088687 C 34.077458 80.149005 33.75398 80.17706 33.38409 80.17706 C 32.980446 80.17706 32.607743 80.116742 32.267388 80.000314 C 31.929846 79.897914 31.634497 79.725376 31.379934 79.481299 C 31.13381 79.24143 30.939723 78.941243 30.800487 78.584946 C 30.659844 78.221635 30.599368 77.785382 30.599368 77.301435 C 30.599368 76.341959 30.93691 75.60131 31.599336 75.086503 C 32.280046 74.571696 33.299705 74.289745 34.693472 74.243454 L 36.310861 74.180331 L 36.310861 73.574345 C 36.310861 73.181577 36.267262 72.854738 36.178657 72.591022 C 36.097085 72.327306 35.973319 72.115492 35.808767 71.958385 C 35.641403 71.78725 35.44169 71.669419 35.211037 71.606296 C 34.946629 71.531951 34.676595 71.496882 34.402342 71.50109 C 33.936815 71.496882 33.48254 71.567019 33.039516 71.711502 C 32.626027 71.850373 32.225196 72.021508 31.835616 72.220698 L 31.274452 71.017144 C 31.707631 70.782885 32.191441 70.583696 32.724477 70.419575 C 33.271576 70.252648 33.831333 70.169886 34.403748 70.172692 C 35.001479 70.172692 35.517637 70.234413 35.950816 70.357854 C 36.391027 70.475685 36.751072 70.666458 37.030951 70.927368 C 37.33052 71.203709 37.544296 71.534756 37.673687 71.920511 C 37.81433 72.324501 37.8734 72.815461 37.8734 73.389183 L 37.8734 80.000314 L 36.722944 80.000314 Z M 33.807424 78.88373 C 34.149185 78.886536 34.479695 78.831829 34.80036 78.716804 C 35.101335 78.610195 35.365743 78.443269 35.590771 78.217427 C 35.814393 77.987377 35.987383 77.704023 36.111149 77.364559 C 36.24054 77.019484 36.303829 76.615494 36.303829 76.152588 L 36.303829 75.281484 L 35.046485 75.344608 C 34.520482 75.367052 34.077458 75.425967 33.720226 75.519951 C 33.362994 75.613935 33.074676 75.745793 32.859493 75.915525 C 32.659781 76.079646 32.496636 76.281641 32.402405 76.52151 C 32.303955 76.779615 32.257543 77.046136 32.261763 77.322477 C 32.261763 77.862533 32.402405 78.256704 32.68369 78.509198 C 32.970601 78.761692 33.346117 78.886536 33.80883 78.886536 M 47.742286 76.563592 C 47.742286 77.131703 47.639617 77.642302 47.434279 78.093986 C 47.235973 78.540058 46.949062 78.917396 46.573547 79.227402 C 46.198031 79.52759 45.740943 79.775875 45.203689 79.939996 C 44.663621 80.098506 44.057452 80.17706 43.382368 80.17706 C 42.769166 80.179865 42.160184 80.127964 41.555421 80.01855 C 40.991445 79.918955 40.521699 79.768861 40.140557 79.571075 L 40.140557 78.007015 L 40.817048 78.287564 L 41.617304 78.524628 L 42.486475 78.699971 C 42.781824 78.74065 43.077173 78.761692 43.375336 78.761692 C 44.312015 78.761692 45.005383 78.586349 45.448407 78.235663 C 45.898463 77.883574 46.126304 77.379989 46.126304 76.723505 C 46.131929 76.440151 46.08833 76.16381 45.9941 75.897289 C 45.912527 75.663031 45.763446 75.448411 45.54545 75.254832 C 45.345737 75.055643 45.050388 74.85505 44.693156 74.685318 C 44.254351 74.455268 43.802889 74.253273 43.338769 74.079333 C 42.864803 73.896976 42.410528 73.675343 41.977349 73.411627 C 41.597614 73.164744 41.279762 72.888404 41.026605 72.585411 C 40.780481 72.279613 40.597646 71.934538 40.472474 71.547381 C 40.35574 71.161626 40.296671 70.722568 40.296671 70.230204 C 40.296671 69.713995 40.390901 69.255298 40.576549 68.849905 C 40.760791 68.44872 41.023792 68.107853 41.368367 67.83011 C 41.729818 67.535534 42.134868 67.322317 42.580705 67.187653 C 43.056077 67.041768 43.576454 66.967423 44.14465 66.967423 C 44.842237 66.967423 45.469503 67.034754 46.025041 67.169418 C 46.581985 67.299873 47.077047 67.465397 47.510226 67.670197 L 46.909682 69.040678 C 46.529948 68.869543 46.095362 68.723658 45.610145 68.600216 C 45.120709 68.469761 44.622835 68.405235 44.116522 68.406638 C 43.400651 68.406638 42.84652 68.573564 42.455533 68.907417 C 42.258634 69.071538 42.10674 69.270728 42.001258 69.506389 C 41.895776 69.740647 41.847958 69.986127 41.856396 70.242829 C 41.856396 70.576682 41.899995 70.86705 41.9886 71.11253 C 42.084237 71.366427 42.230505 71.586658 42.427405 71.77182 C 42.631337 71.965398 42.90137 72.150561 43.227661 72.325904 C 43.566609 72.495636 43.982911 72.677992 44.47516 72.871571 C 44.954751 73.056733 45.420278 73.272756 45.871741 73.521041 C 46.247256 73.721633 46.584798 73.974127 46.88296 74.27712 C 47.1544 74.559071 47.356926 74.884508 47.48913 75.25343 C 47.628366 75.622351 47.704313 76.075437 47.704313 76.579022 M 53.657711 80.175657 C 53.065606 80.175657 52.511475 80.076062 51.996723 79.903525 C 51.479158 79.71696 51.030509 79.423787 50.65218 79.022602 C 50.272445 78.618612 49.97147 78.10661 49.756287 77.485195 C 49.539698 76.858168 49.431403 76.104895 49.431403 75.225375 C 49.431403 74.305175 49.531259 73.525249 49.764726 72.887001 C 49.988347 72.241739 50.292135 71.721321 50.678902 71.322942 C 51.065669 70.921757 51.522758 70.627181 52.048761 70.443422 C 52.569138 70.259662 53.128895 70.169886 53.729439 70.169886 C 54.179495 70.168484 54.625332 70.218983 55.065543 70.318577 C 55.445278 70.398534 55.812355 70.521975 56.163961 70.687499 L 55.688589 72.042549 C 55.553573 71.982231 55.404491 71.927524 55.241346 71.875623 C 55.076794 71.816708 54.910836 71.766209 54.740659 71.725529 C 54.564855 71.677836 54.390459 71.642767 54.221688 71.620323 C 54.061355 71.592269 53.899616 71.576838 53.737877 71.575436 C 52.818075 71.575436 52.137365 71.871415 51.725283 72.463372 C 51.303355 73.049719 51.092391 73.964308 51.092391 75.205736 C 51.092391 76.441553 51.292104 77.347726 51.725283 77.921448 C 52.152836 78.489559 52.799792 78.774316 53.667556 78.774316 C 54.102142 78.778524 54.529695 78.726623 54.950216 78.615806 C 55.311667 78.513406 55.663274 78.384353 56.005035 78.228649 L 56.005035 79.652434 C 55.681557 79.826374 55.341202 79.955426 54.985377 80.039591 C 54.628145 80.127964 54.165431 80.171449 53.643647 80.171449 M 62.412709 70.174095 L 62.982311 70.199344 C 63.166553 70.207761 63.347982 70.228802 63.528004 70.262468 L 63.328292 71.739557 L 62.827604 71.669419 C 62.657427 71.645573 62.498501 71.634351 62.3452 71.634351 C 61.975311 71.634351 61.639175 71.710099 61.345232 71.861595 C 61.031599 72.014494 60.767191 72.229114 60.553415 72.504052 C 60.321354 72.805642 60.155396 73.139495 60.054134 73.505611 C 59.931775 73.927837 59.872705 74.358479 59.87833 74.797538 L 59.87833 80.000314 L 58.277818 80.000314 L 58.277818 70.349438 L 59.577355 70.349438 L 59.771442 72.116895 L 59.840357 72.116895 L 60.30729 71.387468 C 60.470435 71.158821 60.65749 70.95402 60.86986 70.771664 C 61.080824 70.589307 61.315697 70.446227 61.573073 70.341021 C 61.864203 70.224593 62.166584 70.169886 62.478811 70.174095 M 66.900612 80.000314 L 65.3001 80.000314 L 65.3001 70.349438 L 66.900612 70.349438 L 66.900612 80.000314 M 65.439336 66.974436 C 65.632016 66.810315 65.854232 66.730359 66.107388 66.737373 C 66.231154 66.73597 66.352106 66.757011 66.467433 66.800496 C 66.58276 66.832759 66.682616 66.891675 66.767002 66.975839 C 66.859826 67.065615 66.927334 67.170821 66.969527 67.291456 C 67.021565 67.414898 67.049693 67.564991 67.049693 67.740334 C 67.049693 68.079798 66.955463 68.335098 66.768408 68.50483 C 66.586979 68.668951 66.368983 68.751713 66.108795 68.751713 C 65.848606 68.751713 65.616546 68.628271 65.43371 68.462747 C 65.257907 68.298626 65.173522 68.043327 65.176335 67.719293 C 65.176335 67.389649 65.276191 67.132946 65.440743 66.974436 Z M 74.244965 80.175657 C 73.927113 80.178463 73.61348 80.140589 73.305473 80.060632 C 73.025594 79.984884 72.769625 79.885289 72.540378 79.760445 C 72.322382 79.635601 72.122669 79.48691 71.942647 79.31297 C 71.775282 79.146043 71.623388 78.967895 71.485559 78.777122 L 71.380077 78.777122 L 71.433521 79.346636 L 71.468682 79.822166 L 71.485559 80.199504 L 71.485559 84.322167 L 69.886453 84.322167 L 69.886453 70.349438 L 71.18599 70.349438 L 71.416644 71.649781 L 71.485559 71.649781 C 71.620575 71.44498 71.772469 71.25561 71.942647 71.078864 C 72.115637 70.895105 72.312537 70.7394 72.531939 70.613153 C 72.772438 70.472879 73.028407 70.367673 73.297034 70.297536 C 73.607854 70.210566 73.9243 70.169886 74.246372 70.174095 C 74.796284 70.174095 75.298378 70.279301 75.748434 70.489712 C 76.199896 70.701526 76.58385 71.017144 76.89889 71.43937 C 77.220961 71.855984 77.468492 72.375 77.645702 72.996415 C 77.822911 73.616428 77.91011 74.337438 77.91011 75.158043 C 77.91011 75.984259 77.821505 76.71088 77.645702 77.337907 C 77.469898 77.957919 77.220961 78.481143 76.89889 78.901966 C 76.582444 79.324192 76.19849 79.642615 75.748434 79.86004 C 75.298378 80.060632 74.686583 80.175657 74.135264 80.175657 M 73.938364 71.50109 C 73.492528 71.50109 73.115606 71.568422 72.803379 71.703085 C 72.499591 71.837749 72.250654 72.042549 72.056567 72.317487 C 71.863887 72.592425 71.72887 72.936097 71.63464 73.345698 C 71.540409 73.824034 71.489778 74.30798 71.485559 74.796135 L 71.485559 75.15664 C 71.481339 75.686877 71.519313 76.214309 71.599479 76.737532 C 71.682458 77.194827 71.817475 77.581984 72.00453 77.897601 C 72.192991 78.206205 72.447554 78.444671 72.769625 78.610195 C 73.084664 78.768705 73.481276 78.847259 73.956648 78.847259 C 74.755498 78.847259 75.326506 78.527433 75.696396 77.889185 C 76.066286 77.250937 76.25756 76.333542 76.258966 75.138405 C 76.258966 73.91942 76.070505 73.00904 75.696396 72.40586 C 75.323693 71.80268 74.741433 71.50109 73.938364 71.50109 M 83.239055 78.865495 C 83.344537 78.865495 83.462677 78.855675 83.590661 78.848662 L 83.977428 78.803774 L 84.312158 78.742053 L 84.548437 78.680332 L 84.548437 79.893706 C 84.47249 79.927372 84.375447 79.96244 84.248868 79.997509 C 84.12229 80.035383 83.992899 80.06484 83.862102 80.085882 C 83.721459 80.115339 83.575191 80.13638 83.42189 80.147602 C 83.272809 80.165838 83.123728 80.174254 82.974647 80.174254 C 82.610383 80.174254 82.274247 80.126561 81.974679 80.03398 C 81.663859 79.941399 81.393825 79.780083 81.164578 79.551436 C 80.940956 79.321386 80.766559 79.015588 80.637168 78.628431 C 80.506371 78.235663 80.444488 77.7433 80.444488 77.151342 L 80.444488 71.551589 L 79.081662 71.551589 L 79.081662 70.838995 L 80.444488 70.153054 L 81.129417 68.1317 L 82.053439 68.1317 L 82.053439 70.346632 L 84.500619 70.346632 L 84.500619 71.550186 L 82.074535 71.550186 L 82.074535 77.149939 C 82.074535 77.71805 82.174391 78.145887 82.345975 78.43345 C 82.517559 78.719609 82.838224 78.862689 83.260151 78.862689 " stroke="#000000" stroke-width="1" stroke-opacity="1" stroke-miterlimit="4"/></g></svg>