<svg xmlns="http://www.w3.org/2000/svg" xmlns:xlink="http://www.w3.org/1999/xlink" width="1080" zoomAndPan="magnify" viewBox="0 0 810 809.999993" height="1080" preserveAspectRatio="xMidYMid meet" version="1.0"><defs><clipPath id="id1"><path d="M 224 366.46875 L 262 366.46875 L 262 404 L 224 404 Z M 224 366.46875 " clip-rule="nonzero"/></clipPath><clipPath id="id2"><path d="M 265 366.46875 L 302 366.46875 L 302 404 L 265 404 Z M 265 366.46875 " clip-rule="nonzero"/></clipPath><clipPath id="id3"><path d="M 224 407 L 262 407 L 262 443.71875 L 224 443.71875 Z M 224 407 " clip-rule="nonzero"/></clipPath><clipPath id="id4"><path d="M 265 407 L 302 407 L 302 443.71875 L 265 443.71875 Z M 265 407 " clip-rule="nonzero"/></clipPath></defs><path fill="#f1511b" d="M 585.777344 401.40625 L 585.777344 395.042969 L 577.894531 395.042969 L 577.894531 385.152344 L 577.625 385.234375 L 570.214844 387.503906 L 570.066406 387.550781 L 570.066406 395.042969 L 558.375 395.042969 L 558.375 390.871094 C 558.375 388.925781 558.804688 387.4375 559.664062 386.445312 C 560.511719 385.464844 561.726562 384.96875 563.277344 384.96875 C 564.394531 384.96875 565.542969 385.230469 566.707031 385.75 L 566.996094 385.878906 L 566.996094 379.179688 L 566.855469 379.128906 C 565.777344 378.738281 564.300781 378.542969 562.480469 378.542969 C 560.179688 378.542969 558.085938 379.042969 556.261719 380.035156 C 554.4375 381.03125 553.003906 382.453125 552 384.261719 C 551 386.0625 550.484375 388.148438 550.484375 390.453125 L 550.484375 395.042969 L 544.992188 395.042969 L 544.992188 401.40625 L 550.484375 401.40625 L 550.484375 428.210938 L 558.375 428.210938 L 558.375 401.40625 L 570.066406 401.40625 L 570.066406 418.441406 C 570.066406 425.457031 573.371094 429.011719 579.890625 429.011719 C 580.957031 429.011719 582.085938 428.882812 583.234375 428.636719 C 584.40625 428.386719 585.203125 428.132812 585.675781 427.863281 L 585.777344 427.804688 L 585.777344 421.382812 L 585.457031 421.59375 C 585.027344 421.878906 584.5 422.113281 583.871094 422.285156 C 583.242188 422.464844 582.71875 422.550781 582.320312 422.550781 C 580.785156 422.550781 579.65625 422.140625 578.960938 421.328125 C 578.246094 420.507812 577.894531 419.074219 577.894531 417.066406 L 577.894531 401.40625 Z M 527.386719 422.550781 C 524.519531 422.550781 522.261719 421.601562 520.675781 419.730469 C 519.070312 417.847656 518.261719 415.164062 518.261719 411.757812 C 518.261719 408.238281 519.070312 405.488281 520.675781 403.570312 C 522.269531 401.667969 524.5 400.703125 527.320312 400.703125 C 530.054688 400.703125 532.226562 401.625 533.785156 403.445312 C 535.351562 405.277344 536.152344 408.007812 536.152344 411.566406 C 536.152344 415.164062 535.402344 417.933594 533.925781 419.78125 C 532.464844 421.621094 530.265625 422.550781 527.386719 422.550781 Z M 527.730469 394.246094 C 522.277344 394.246094 517.9375 395.847656 514.84375 399.007812 C 511.753906 402.171875 510.1875 406.542969 510.1875 412.011719 C 510.1875 417.203125 511.71875 421.378906 514.730469 424.421875 C 517.753906 427.46875 521.851562 429.011719 526.933594 429.011719 C 532.226562 429.011719 536.480469 427.386719 539.574219 424.179688 C 542.664062 420.980469 544.230469 416.648438 544.230469 411.308594 C 544.230469 406.035156 542.757812 401.824219 539.855469 398.800781 C 536.953125 395.777344 532.875 394.246094 527.730469 394.246094 Z M 497.46875 394.246094 C 493.757812 394.246094 490.679688 395.195312 488.339844 397.074219 C 485.972656 398.960938 484.773438 401.4375 484.773438 404.429688 C 484.773438 405.988281 485.035156 407.371094 485.542969 408.542969 C 486.058594 409.722656 486.847656 410.757812 487.902344 411.628906 C 488.945312 412.488281 490.5625 413.394531 492.691406 414.3125 C 494.492188 415.054688 495.832031 415.679688 496.679688 416.171875 C 497.511719 416.65625 498.105469 417.140625 498.4375 417.617188 C 498.761719 418.078125 498.925781 418.710938 498.925781 419.496094 C 498.925781 421.722656 497.257812 422.808594 493.828125 422.808594 C 492.558594 422.808594 491.113281 422.542969 489.515625 422.019531 C 487.929688 421.496094 486.445312 420.742188 485.105469 419.777344 L 484.773438 419.542969 L 484.773438 427.144531 L 484.894531 427.199219 C 486.015625 427.714844 487.421875 428.152344 489.078125 428.492188 C 490.730469 428.835938 492.234375 429.011719 493.546875 429.011719 C 497.574219 429.011719 500.824219 428.054688 503.1875 426.167969 C 505.570312 424.265625 506.777344 421.734375 506.777344 418.632812 C 506.777344 416.398438 506.128906 414.480469 504.84375 412.933594 C 503.574219 411.402344 501.367188 409.992188 498.28125 408.75 C 495.824219 407.761719 494.253906 406.941406 493.609375 406.3125 C 492.980469 405.707031 492.664062 404.847656 492.664062 403.757812 C 492.664062 402.792969 493.050781 402.023438 493.855469 401.394531 C 494.667969 400.765625 495.796875 400.445312 497.214844 400.445312 C 498.527344 400.445312 499.875 400.65625 501.210938 401.0625 C 502.542969 401.46875 503.722656 402.015625 504.703125 402.683594 L 505.019531 402.902344 L 505.019531 395.691406 L 504.902344 395.636719 C 504 395.25 502.804688 394.917969 501.359375 394.648438 C 499.910156 394.378906 498.605469 394.246094 497.46875 394.246094 Z M 464.21875 422.550781 C 461.359375 422.550781 459.101562 421.601562 457.511719 419.730469 C 455.910156 417.847656 455.097656 415.164062 455.097656 411.757812 C 455.097656 408.238281 455.910156 405.488281 457.511719 403.570312 C 459.101562 401.667969 461.335938 400.703125 464.152344 400.703125 C 466.890625 400.703125 469.066406 401.625 470.625 403.445312 C 472.191406 405.277344 472.988281 408.007812 472.988281 411.566406 C 472.988281 415.164062 472.242188 417.933594 470.765625 419.78125 C 469.296875 421.621094 467.097656 422.550781 464.21875 422.550781 Z M 464.570312 394.246094 C 459.109375 394.246094 454.773438 395.847656 451.683594 399.007812 C 448.59375 402.171875 447.019531 406.542969 447.019531 412.011719 C 447.019531 417.207031 448.550781 421.378906 451.570312 424.421875 C 454.582031 427.46875 458.691406 429.011719 463.773438 429.011719 C 469.066406 429.011719 473.3125 427.386719 476.40625 424.179688 C 479.496094 420.980469 481.0625 416.648438 481.0625 411.308594 C 481.0625 406.035156 479.59375 401.824219 476.695312 398.800781 C 473.792969 395.777344 469.714844 394.246094 464.570312 394.246094 Z M 435.050781 400.789062 L 435.050781 395.042969 L 427.257812 395.042969 L 427.257812 428.210938 L 435.050781 428.210938 L 435.050781 411.246094 C 435.050781 408.359375 435.707031 405.988281 436.992188 404.199219 C 438.269531 402.429688 439.960938 401.535156 442.027344 401.535156 C 442.734375 401.535156 443.519531 401.652344 444.371094 401.878906 C 445.21875 402.109375 445.824219 402.355469 446.1875 402.617188 L 446.519531 402.851562 L 446.519531 394.988281 L 446.390625 394.933594 C 445.664062 394.625 444.640625 394.46875 443.34375 394.46875 C 441.378906 394.46875 439.628906 395.097656 438.132812 396.339844 C 436.8125 397.429688 435.859375 398.925781 435.132812 400.789062 Z M 413.3125 394.246094 C 409.734375 394.246094 406.546875 395.011719 403.835938 396.527344 C 401.117188 398.042969 399.023438 400.207031 397.589844 402.960938 C 396.164062 405.707031 395.445312 408.914062 395.445312 412.492188 C 395.445312 415.625 396.144531 418.5 397.527344 421.035156 C 398.917969 423.574219 400.878906 425.558594 403.355469 426.9375 C 405.839844 428.3125 408.707031 429.011719 411.875 429.011719 C 415.578125 429.011719 418.742188 428.269531 421.273438 426.808594 L 421.371094 426.75 L 421.371094 419.601562 L 421.046875 419.839844 C 419.898438 420.679688 418.613281 421.347656 417.238281 421.828125 C 415.859375 422.308594 414.605469 422.550781 413.503906 422.550781 C 410.449219 422.550781 407.992188 421.59375 406.214844 419.707031 C 404.429688 417.816406 403.519531 415.160156 403.519531 411.820312 C 403.519531 408.457031 404.464844 405.734375 406.328125 403.722656 C 408.183594 401.71875 410.640625 400.703125 413.632812 400.703125 C 416.191406 400.703125 418.683594 401.570312 421.046875 403.289062 L 421.371094 403.523438 L 421.371094 395.996094 L 421.265625 395.933594 C 420.378906 395.4375 419.171875 395.023438 417.667969 394.714844 C 416.164062 394.402344 414.703125 394.246094 413.3125 394.246094 Z M 390.082031 395.046875 L 382.289062 395.046875 L 382.289062 428.210938 L 390.082031 428.210938 Z M 386.261719 380.917969 C 384.980469 380.917969 383.863281 381.351562 382.945312 382.21875 C 382.023438 383.089844 381.554688 384.183594 381.554688 385.472656 C 381.554688 386.742188 382.015625 387.816406 382.933594 388.660156 C 383.835938 389.503906 384.957031 389.933594 386.261719 389.933594 C 387.570312 389.933594 388.691406 389.503906 389.617188 388.664062 C 390.539062 387.816406 391.007812 386.742188 391.007812 385.472656 C 391.007812 384.226562 390.546875 383.144531 389.652344 382.253906 C 388.753906 381.367188 387.613281 380.917969 386.261719 380.917969 Z M 366.828125 392.597656 L 366.828125 428.210938 L 374.773438 428.210938 L 374.773438 381.933594 L 363.773438 381.933594 L 349.792969 416.304688 L 336.214844 381.933594 L 324.765625 381.933594 L 324.765625 428.210938 L 332.234375 428.210938 L 332.234375 392.59375 L 332.496094 392.59375 L 346.828125 428.210938 L 352.460938 428.210938 L 366.574219 392.597656 Z M 366.828125 392.597656 " fill-opacity="1" fill-rule="nonzero"/><g clip-path="url(#id1)"><path fill="#f1511b" d="M 224.542969 366.46875 L 261.1875 366.46875 L 261.1875 403.167969 L 224.542969 403.167969 Z M 224.542969 366.46875 " fill-opacity="1" fill-rule="nonzero"/></g><g clip-path="url(#id2)"><path fill="#80cc28" d="M 265.003906 366.46875 L 301.648438 366.46875 L 301.648438 403.167969 L 265.003906 403.167969 Z M 265.003906 366.46875 " fill-opacity="1" fill-rule="nonzero"/></g><g clip-path="url(#id3)"><path fill="#00adef" d="M 224.542969 407.003906 L 261.1875 407.003906 L 261.1875 443.703125 L 224.542969 443.703125 Z M 224.542969 407.003906 " fill-opacity="1" fill-rule="nonzero"/></g><g clip-path="url(#id4)"><path fill="#fbbc09" d="M 265.003906 407.003906 L 301.648438 407.003906 L 301.648438 443.703125 L 265.003906 443.703125 Z M 265.003906 407.003906 " fill-opacity="1" fill-rule="nonzero"/></g></svg>