<svg xmlns="http://www.w3.org/2000/svg" xmlns:xlink="http://www.w3.org/1999/xlink" width="1080" zoomAndPan="magnify" viewBox="0 0 810 809.999993" height="1080" preserveAspectRatio="xMidYMid meet" version="1.0"><defs><clipPath id="48a767e3bd"><path d="M 574 384 L 654.171875 384 L 654.171875 475 L 574 475 Z M 574 384 " clip-rule="nonzero"/></clipPath><clipPath id="0d81d99dae"><path d="M 156.171875 334 L 549 334 L 549 476 L 156.171875 476 Z M 156.171875 334 " clip-rule="nonzero"/></clipPath></defs><rect x="-81" width="972" fill="#ffffff" y="-80.999999" height="971.999992" fill-opacity="1"/><rect x="-81" width="972" fill="#ffffff" y="-80.999999" height="971.999992" fill-opacity="1"/><rect x="-81" width="972" fill="#ffffff" y="-80.999999" height="971.999992" fill-opacity="1"/><g clip-path="url(#48a767e3bd)"><path fill="#fbbc09" d="M 614.320312 384.472656 C 613.109375 384.472656 611.929688 384.722656 610.886719 385.3125 L 577.867188 404.40625 C 575.730469 405.640625 574.433594 407.96875 574.433594 410.445312 L 574.433594 448.5625 C 574.433594 451.039062 575.730469 453.363281 577.867188 454.597656 L 586.492188 459.574219 C 590.679688 461.640625 592.226562 461.609375 594.132812 461.609375 C 600.335938 461.609375 603.875 457.839844 603.875 451.289062 L 603.875 413.679688 C 603.875 413.148438 603.414062 412.769531 602.894531 412.769531 L 598.757812 412.769531 C 598.230469 412.769531 597.777344 413.160156 597.777344 413.679688 L 597.777344 451.308594 C 597.777344 454.210938 594.757812 457.132812 589.855469 454.675781 L 580.894531 449.410156 C 580.574219 449.238281 580.332031 448.925781 580.332031 448.570312 L 580.332031 410.453125 C 580.332031 410.089844 580.574219 409.722656 580.894531 409.539062 L 613.839844 390.515625 C 614.148438 390.335938 614.515625 390.335938 614.824219 390.515625 L 647.769531 409.539062 C 648.085938 409.726562 648.332031 410.078125 648.332031 410.453125 L 648.332031 448.570312 C 648.332031 448.933594 648.148438 449.304688 647.839844 449.480469 L 614.824219 468.507812 C 614.53125 468.675781 614.140625 468.675781 613.84375 468.507812 L 605.359375 463.453125 C 605.105469 463.304688 604.761719 463.316406 604.519531 463.453125 C 602.175781 464.78125 601.738281 464.9375 599.542969 465.699219 C 599 465.886719 598.179688 466.179688 599.824219 467.105469 L 610.898438 473.640625 C 611.953125 474.25 613.128906 474.554688 614.335938 474.554688 C 615.558594 474.554688 616.714844 474.261719 617.769531 473.640625 L 650.789062 454.617188 C 652.925781 453.371094 654.222656 451.054688 654.222656 448.578125 L 654.222656 410.460938 C 654.222656 407.984375 652.925781 405.660156 650.789062 404.425781 L 617.769531 385.332031 C 616.734375 384.742188 615.546875 384.488281 614.335938 384.488281 Z M 623.15625 411.710938 C 613.753906 411.710938 608.152344 415.714844 608.152344 422.378906 C 608.152344 429.597656 613.710938 431.59375 622.734375 432.488281 C 633.53125 433.546875 634.371094 435.132812 634.371094 437.261719 C 634.371094 440.953125 631.433594 442.523438 624.488281 442.523438 C 615.761719 442.523438 613.84375 440.34375 613.199219 435.988281 C 613.125 435.523438 612.765625 435.144531 612.289062 435.144531 L 608.003906 435.144531 C 607.734375 435.152344 607.503906 435.25 607.316406 435.441406 C 607.125 435.628906 607.027344 435.859375 607.023438 436.128906 C 607.023438 441.691406 610.042969 448.273438 624.476562 448.273438 C 634.925781 448.273438 640.953125 444.175781 640.953125 436.972656 C 640.953125 429.847656 636.085938 427.921875 625.949219 426.582031 C 615.71875 425.214844 614.734375 424.5625 614.734375 422.15625 C 614.734375 420.175781 615.5625 417.523438 623.144531 417.523438 C 629.921875 417.523438 632.425781 418.988281 633.453125 423.5625 C 633.542969 423.988281 633.917969 424.339844 634.363281 424.339844 L 638.648438 424.339844 C 638.914062 424.339844 639.167969 424.179688 639.351562 423.988281 C 639.53125 423.789062 639.65625 423.5625 639.632812 423.289062 C 638.96875 415.410156 633.722656 411.703125 623.15625 411.703125 Z M 623.15625 411.710938 " fill-opacity="1" fill-rule="nonzero"/></g><g clip-path="url(#0d81d99dae)"><path fill="#ff7c00" d="M 420.207031 334.503906 C 419.832031 334.503906 419.480469 334.597656 419.15625 334.785156 C 418.832031 334.972656 418.578125 335.230469 418.390625 335.558594 C 418.203125 335.882812 418.105469 336.234375 418.105469 336.609375 L 418.105469 390.308594 C 418.105469 390.835938 417.859375 391.308594 417.402344 391.574219 C 417.175781 391.707031 416.929688 391.773438 416.667969 391.773438 C 416.40625 391.773438 416.160156 391.707031 415.933594 391.574219 L 407.167969 386.519531 C 406.519531 386.144531 405.816406 385.953125 405.066406 385.953125 C 404.3125 385.953125 403.613281 386.144531 402.960938 386.519531 L 367.984375 406.734375 C 366.675781 407.492188 365.878906 408.945312 365.878906 410.457031 L 365.878906 450.890625 C 365.878906 451.640625 366.066406 452.34375 366.441406 452.996094 C 366.816406 453.648438 367.332031 454.164062 367.984375 454.539062 L 402.964844 474.753906 C 403.613281 475.132812 404.316406 475.324219 405.066406 475.324219 C 405.820312 475.324219 406.519531 475.132812 407.171875 474.753906 L 442.152344 454.539062 C 442.804688 454.164062 443.316406 453.648438 443.691406 452.996094 C 444.070312 452.34375 444.257812 451.640625 444.253906 450.890625 L 444.253906 350.085938 C 444.253906 348.554688 443.417969 347.113281 442.082031 346.367188 L 421.261719 334.710938 C 420.933594 334.527344 420.570312 334.496094 420.210938 334.5 Z M 195.179688 384.976562 C 194.511719 385.003906 193.886719 385.117188 193.285156 385.464844 L 158.304688 405.683594 C 157.652344 406.058594 157.140625 406.570312 156.765625 407.222656 C 156.386719 407.875 156.203125 408.578125 156.203125 409.332031 L 156.273438 463.59375 C 156.273438 464.351562 156.664062 465.050781 157.328125 465.421875 C 157.976562 465.808594 158.78125 465.808594 159.429688 465.421875 L 180.179688 453.484375 C 181.496094 452.707031 182.351562 451.34375 182.351562 449.835938 L 182.351562 424.492188 C 182.351562 422.980469 183.148438 421.597656 184.457031 420.84375 L 193.289062 415.71875 C 193.941406 415.34375 194.640625 415.15625 195.394531 415.160156 C 196.144531 415.152344 196.847656 415.339844 197.496094 415.71875 L 206.324219 420.839844 C 207.632812 421.59375 208.429688 422.980469 208.429688 424.492188 L 208.429688 449.832031 C 208.429688 451.339844 209.304688 452.710938 210.601562 453.480469 L 231.351562 465.414062 C 232.003906 465.804688 232.808594 465.804688 233.453125 465.414062 C 234.097656 465.042969 234.503906 464.34375 234.503906 463.589844 L 234.574219 409.328125 C 234.582031 408.574219 234.394531 407.871094 234.019531 407.21875 C 233.640625 406.566406 233.128906 406.050781 232.472656 405.679688 L 197.492188 385.46875 C 196.902344 385.121094 196.273438 385.003906 195.601562 384.976562 Z M 509.515625 385.464844 C 508.761719 385.464844 508.0625 385.652344 507.410156 386.027344 L 472.429688 406.246094 C 471.125 407 470.324219 408.382812 470.324219 409.894531 L 470.324219 450.328125 C 470.324219 451.847656 471.179688 453.226562 472.496094 453.976562 L 507.199219 473.78125 C 508.480469 474.511719 510.042969 474.570312 511.335938 473.847656 L 532.363281 462.125 C 533.03125 461.753906 533.484375 461.0625 533.484375 460.300781 C 533.488281 459.539062 533.09375 458.855469 532.433594 458.476562 L 497.242188 438.261719 C 496.582031 437.882812 496.121094 437.121094 496.121094 436.363281 L 496.121094 423.722656 C 496.121094 422.964844 496.585938 422.273438 497.242188 421.894531 L 508.175781 415.578125 C 508.828125 415.203125 509.625 415.203125 510.28125 415.578125 L 521.242188 421.894531 C 521.566406 422.082031 521.824219 422.339844 522.011719 422.667969 C 522.199219 422.992188 522.292969 423.34375 522.292969 423.722656 L 522.292969 433.6875 C 522.292969 434.066406 522.386719 434.417969 522.574219 434.742188 C 522.761719 435.070312 523.019531 435.324219 523.34375 435.511719 C 524 435.890625 524.792969 435.894531 525.449219 435.511719 L 546.40625 423.296875 C 547.707031 422.542969 548.511719 421.15625 548.511719 419.648438 L 548.511719 409.894531 C 548.511719 409.140625 548.324219 408.4375 547.949219 407.785156 C 547.570312 407.132812 547.058594 406.621094 546.40625 406.242188 L 511.636719 386.027344 C 510.988281 385.648438 510.285156 385.460938 509.535156 385.464844 Z M 404.921875 415.652344 C 405.121094 415.652344 405.308594 415.699219 405.480469 415.792969 L 417.46875 422.742188 C 417.792969 422.929688 418.03125 423.277344 418.03125 423.652344 L 418.03125 437.550781 C 418.03125 437.929688 417.796875 438.277344 417.46875 438.464844 L 405.480469 445.414062 C 405.15625 445.597656 404.757812 445.597656 404.429688 445.414062 L 392.441406 438.464844 C 392.117188 438.277344 391.882812 437.929688 391.882812 437.550781 L 391.882812 423.65625 C 391.882812 423.28125 392.117188 422.933594 392.441406 422.746094 L 404.429688 415.796875 C 404.59375 415.703125 404.738281 415.65625 404.921875 415.65625 Z M 404.921875 415.652344 " fill-opacity="1" fill-rule="nonzero"/></g><path fill="#fbbc09" d="M 300.257812 385.253906 C 299.507812 385.253906 298.804688 385.441406 298.15625 385.816406 L 263.175781 405.964844 C 261.867188 406.71875 261.070312 408.171875 261.070312 409.683594 L 261.070312 450.117188 C 261.070312 450.871094 261.257812 451.570312 261.632812 452.222656 C 262.007812 452.875 262.523438 453.390625 263.175781 453.765625 L 298.15625 473.980469 C 298.804688 474.359375 299.507812 474.550781 300.257812 474.550781 C 301.011719 474.550781 301.710938 474.359375 302.359375 473.980469 L 337.34375 453.765625 C 337.992188 453.390625 338.507812 452.875 338.882812 452.222656 C 339.257812 451.570312 339.445312 450.867188 339.445312 450.117188 L 339.445312 409.683594 C 339.445312 408.171875 338.652344 406.71875 337.339844 405.964844 L 302.359375 385.820312 C 301.710938 385.441406 301.007812 385.253906 300.253906 385.257812 Z M 509.445312 421.335938 C 509.304688 421.335938 509.152344 421.335938 509.023438 421.40625 L 502.296875 425.335938 C 502.019531 425.488281 501.878906 425.722656 501.875 426.039062 L 501.875 433.761719 C 501.875 434.050781 502.042969 434.316406 502.296875 434.460938 L 509.023438 438.324219 C 509.28125 438.480469 509.539062 438.480469 509.792969 438.324219 L 516.523438 434.460938 C 516.773438 434.320312 516.945312 434.050781 516.945312 433.761719 L 516.945312 426.039062 C 516.945312 425.746094 516.773438 425.480469 516.523438 425.335938 L 509.792969 421.402344 C 509.671875 421.328125 509.585938 421.335938 509.445312 421.335938 Z M 509.445312 421.335938 " fill-opacity="1" fill-rule="nonzero"/></svg>