<svg xmlns="http://www.w3.org/2000/svg" xmlns:xlink="http://www.w3.org/1999/xlink" width="1080" zoomAndPan="magnify" viewBox="0 0 810 809.999993" height="1080" preserveAspectRatio="xMidYMid meet" version="1.0"><defs><clipPath id="id1"><path d="M 316.371094 316.371094 L 493.371094 316.371094 L 493.371094 493.371094 L 316.371094 493.371094 Z M 316.371094 316.371094 " clip-rule="nonzero"/></clipPath></defs><g clip-path="url(#id1)"><path fill="#261200" d="M 316.371094 331.121094 L 316.371094 478.621094 C 316.371094 486.769531 322.96875 493.371094 331.121094 493.371094 L 478.621094 493.371094 C 486.769531 493.371094 493.371094 486.769531 493.371094 478.621094 L 493.371094 331.121094 C 493.371094 322.96875 486.769531 316.371094 478.621094 316.371094 L 331.121094 316.371094 C 322.96875 316.371094 316.371094 322.96875 316.371094 331.121094 Z M 316.371094 331.121094 " fill-opacity="1" fill-rule="nonzero"/><path fill="#ff7c00" d="M 478.621094 323.746094 C 482.683594 323.746094 485.996094 327.054688 485.996094 331.121094 L 485.996094 478.621094 C 485.996094 482.683594 482.683594 485.996094 478.621094 485.996094 L 331.121094 485.996094 C 327.054688 485.996094 323.746094 482.683594 323.746094 478.621094 L 323.746094 331.121094 C 323.746094 327.054688 327.054688 323.746094 331.121094 323.746094 Z M 478.621094 316.371094 L 331.121094 316.371094 C 322.976562 316.371094 316.371094 322.96875 316.371094 331.121094 L 316.371094 478.621094 C 316.371094 486.769531 322.976562 493.371094 331.121094 493.371094 L 478.621094 493.371094 C 486.761719 493.371094 493.371094 486.769531 493.371094 478.621094 L 493.371094 331.121094 C 493.371094 322.96875 486.761719 316.371094 478.621094 316.371094 Z M 478.621094 316.371094 " fill-opacity="1" fill-rule="nonzero"/></g><path fill="#ff7c00" d="M 382.523438 355.546875 C 375.222656 355.546875 368.289062 355.671875 363.546875 355.914062 C 362.933594 355.914062 362.808594 356.28125 362.808594 356.769531 L 362.808594 436.09375 C 362.808594 436.707031 363.054688 436.949219 363.664062 436.949219 L 375.050781 436.949219 C 375.65625 436.949219 375.902344 436.707031 375.902344 436.09375 L 375.902344 407.753906 C 377.847656 407.753906 378.820312 407.878906 381.625 407.878906 C 398.289062 407.878906 411.855469 399.839844 411.855469 381.109375 C 411.855469 366.75 402.964844 355.546875 382.523438 355.546875 Z M 381.867188 396.070312 C 378.945312 396.070312 377.605469 396.070312 375.902344 395.953125 L 375.902344 367.476562 C 377.242188 367.351562 380.039062 367.234375 382.957031 367.234375 C 392.820312 367.234375 398.585938 371.984375 398.585938 381.351562 C 398.585938 393.03125 390.503906 396.070312 381.867188 396.070312 Z M 381.867188 396.070312 " fill-opacity="1" fill-rule="nonzero"/><path fill="#ff7c00" d="M 451.125 387.433594 C 451.125 388.039062 450.933594 388.164062 450.320312 388.164062 C 449.53125 388.113281 448.617188 388.085938 447.6875 388.085938 C 443.765625 388.085938 439.972656 388.636719 436.375 389.640625 L 436.375 436.09375 C 436.375 436.707031 436.125 436.949219 435.519531 436.949219 L 423.941406 436.949219 C 423.335938 436.949219 423.09375 436.707031 423.09375 436.09375 L 423.101562 389.257812 C 423.101562 388.410156 423.101562 386.21875 422.738281 382.082031 C 422.738281 381.46875 422.820312 381.34375 423.308594 381.109375 C 431.300781 377.945312 440.558594 376.070312 450.246094 375.996094 L 450.277344 375.996094 C 450.882812 375.996094 451.125 376.113281 451.125 376.726562 Z M 451.125 387.433594 " fill-opacity="1" fill-rule="nonzero"/></svg>