<svg xmlns="http://www.w3.org/2000/svg" xmlns:xlink="http://www.w3.org/1999/xlink" width="1080" zoomAndPan="magnify" viewBox="0 0 810 809.999993" height="1080" preserveAspectRatio="xMidYMid meet" version="1.0"><defs><clipPath id="id1"><path d="M 314.738281 314.738281 L 495.488281 314.738281 L 495.488281 495.488281 L 314.738281 495.488281 Z M 314.738281 314.738281 " clip-rule="nonzero"/></clipPath></defs><g clip-path="url(#id1)"><path fill="#001d25" d="M 314.738281 329.800781 L 314.738281 480.425781 C 314.738281 488.75 321.480469 495.488281 329.800781 495.488281 L 480.425781 495.488281 C 488.75 495.488281 495.488281 488.75 495.488281 480.425781 L 495.488281 329.800781 C 495.488281 321.480469 488.75 314.738281 480.425781 314.738281 L 329.800781 314.738281 C 321.480469 314.738281 314.738281 321.480469 314.738281 329.800781 Z M 314.738281 329.800781 " fill-opacity="1" fill-rule="nonzero"/><path fill="#e44d26" d="M 480.425781 322.269531 C 484.574219 322.269531 487.957031 325.652344 487.957031 329.800781 L 487.957031 480.425781 C 487.957031 484.574219 484.574219 487.957031 480.425781 487.957031 L 329.800781 487.957031 C 325.652344 487.957031 322.269531 484.574219 322.269531 480.425781 L 322.269531 329.800781 C 322.269531 325.652344 325.652344 322.269531 329.800781 322.269531 Z M 480.425781 314.738281 L 329.800781 314.738281 C 321.488281 314.738281 314.738281 321.480469 314.738281 329.800781 L 314.738281 480.425781 C 314.738281 488.75 321.488281 495.488281 329.800781 495.488281 L 480.425781 495.488281 C 488.742188 495.488281 495.488281 488.75 495.488281 480.425781 L 495.488281 329.800781 C 495.488281 321.480469 488.742188 314.738281 480.425781 314.738281 Z M 480.425781 314.738281 " fill-opacity="1" fill-rule="nonzero"/></g><path fill="#e44d26" d="M 431.886719 439.019531 C 425.289062 439.019531 419.6875 437.640625 416.449219 435.78125 C 415.957031 435.53125 415.847656 435.164062 415.847656 434.539062 L 415.847656 423.488281 C 415.847656 422.738281 416.207031 422.488281 416.703125 422.859375 C 421.402344 425.96875 426.886719 427.332031 431.855469 427.332031 C 437.820312 427.332031 440.308594 424.847656 440.308594 421.488281 C 440.308594 418.753906 438.574219 416.386719 430.992188 412.410156 C 420.296875 407.289062 415.824219 402.09375 415.824219 393.378906 C 415.824219 383.6875 423.398438 375.605469 436.570312 375.605469 C 443.046875 375.605469 447.597656 376.601562 450.082031 377.714844 C 450.699219 378.089844 450.835938 378.710938 450.835938 379.207031 L 450.835938 389.523438 C 450.835938 390.148438 450.460938 390.527344 449.707031 390.277344 C 446.363281 388.289062 441.421875 387.039062 436.578125 387.039062 L 436.609375 387.070312 C 430.644531 387.070312 428.65625 390.050781 428.65625 392.535156 C 428.65625 395.269531 430.011719 397.128906 437.972656 401.234375 C 449.78125 406.960938 453.503906 412.417969 453.503906 420.492188 C 453.503906 432.542969 444.3125 439.019531 431.886719 439.019531 Z M 431.886719 439.019531 " fill-opacity="1" fill-rule="nonzero"/><path fill="#e44d26" d="M 379.523438 354.761719 C 372.066406 354.761719 364.957031 354.886719 360.105469 355.136719 C 359.472656 355.136719 358.421875 355.503906 358.421875 356.011719 L 358.425781 356.011719 L 358.425781 437.03125 C 358.425781 437.65625 358.667969 437.882812 359.292969 437.882812 L 370.921875 437.882812 C 371.539062 437.882812 371.789062 437.632812 371.789062 437.007812 L 371.789062 408.074219 C 373.785156 408.074219 374.761719 408.203125 377.625 408.203125 C 394.644531 408.203125 408.519531 399.992188 408.519531 380.863281 C 408.519531 366.207031 400.398438 354.761719 379.523438 354.761719 Z M 377.886719 396.136719 C 374.898438 396.136719 373.527344 396.136719 371.796875 396.015625 L 371.796875 366.9375 C 373.167969 366.808594 376.019531 366.691406 379.003906 366.691406 C 389.066406 366.691406 394.984375 371.539062 394.984375 381.105469 C 394.984375 393.035156 386.699219 396.136719 377.886719 396.136719 Z M 377.886719 396.136719 " fill-opacity="1" fill-rule="nonzero"/></svg>