<svg xmlns="http://www.w3.org/2000/svg" xmlns:xlink="http://www.w3.org/1999/xlink" width="1080" zoomAndPan="magnify" viewBox="0 0 810 809.999993" height="1080" preserveAspectRatio="xMidYMid meet" version="1.0"><rect x="-81" width="972" fill="#ffffff" y="-80.999999" height="971.999992" fill-opacity="1"/><rect x="-81" width="972" fill="#ffffff" y="-80.999999" height="971.999992" fill-opacity="1"/><path fill="#fca43c" d="M 509.277344 354.246094 C 505.832031 353.066406 502.355469 351.96875 498.851562 350.964844 C 499.441406 348.5625 499.984375 346.1875 500.464844 343.859375 C 508.355469 305.578125 503.195312 274.738281 485.574219 264.585938 C 468.679688 254.851562 441.050781 265 413.144531 289.269531 C 410.394531 291.664062 407.703125 294.128906 405.078125 296.664062 C 403.320312 294.980469 401.53125 293.328125 399.714844 291.710938 C 370.46875 265.761719 341.152344 254.828125 323.550781 265.007812 C 306.671875 274.773438 301.671875 303.765625 308.777344 340.042969 C 309.484375 343.636719 310.28125 347.210938 311.171875 350.761719 C 307.023438 351.941406 303.019531 353.195312 299.1875 354.53125 C 264.898438 366.476562 243 385.195312 243 404.613281 C 243 424.671875 266.507812 444.785156 302.21875 456.984375 C 305.117188 457.96875 308.035156 458.882812 310.976562 459.722656 C 310.019531 463.546875 309.171875 467.398438 308.433594 471.273438 C 301.660156 506.921875 306.949219 535.226562 323.785156 544.929688 C 341.171875 554.949219 370.355469 544.652344 398.769531 519.832031 C 401.074219 517.8125 403.328125 515.738281 405.527344 513.605469 C 408.371094 516.347656 411.289062 519.007812 414.28125 521.589844 C 441.808594 545.253906 468.992188 554.8125 485.808594 545.082031 C 503.179688 535.035156 508.824219 504.628906 501.496094 467.632812 C 500.917969 464.734375 500.269531 461.851562 499.554688 458.984375 C 501.601562 458.375 503.613281 457.753906 505.574219 457.101562 C 542.703125 444.8125 566.859375 424.9375 566.859375 404.613281 C 566.859375 385.125 544.253906 366.277344 509.277344 354.246094 Z M 501.226562 443.980469 C 499.453125 444.566406 497.636719 445.128906 495.785156 445.679688 C 491.6875 432.714844 486.15625 418.925781 479.386719 404.683594 C 485.84375 390.777344 491.164062 377.164062 495.148438 364.285156 C 498.460938 365.242188 501.675781 366.253906 504.773438 367.316406 C 534.742188 377.628906 553.023438 392.871094 553.023438 404.613281 C 553.023438 417.125 533.28125 433.367188 501.226562 443.980469 Z M 487.925781 470.316406 C 491.164062 486.675781 491.625 501.464844 489.480469 513.027344 C 487.550781 523.417969 483.671875 530.34375 478.875 533.121094 C 468.671875 539.023438 446.84375 531.351562 423.304688 511.109375 C 420.523438 508.710938 417.808594 506.238281 415.160156 503.6875 C 424.289062 493.714844 433.40625 482.121094 442.308594 469.246094 C 457.964844 467.855469 472.757812 465.585938 486.171875 462.488281 C 486.816406 465.082031 487.402344 467.695312 487.925781 470.316406 Z M 353.410156 532.101562 C 343.4375 535.617188 335.496094 535.71875 330.695312 532.953125 C 320.480469 527.066406 316.234375 504.339844 322.027344 473.851562 C 322.714844 470.25 323.503906 466.667969 324.390625 463.109375 C 337.65625 466.039062 352.339844 468.148438 368.035156 469.421875 C 376.996094 482.019531 386.378906 493.601562 395.835938 503.742188 C 393.824219 505.6875 391.769531 507.578125 389.664062 509.421875 C 377.097656 520.398438 364.507812 528.183594 353.410156 532.101562 Z M 306.695312 443.902344 C 290.90625 438.507812 277.863281 431.5 268.925781 423.851562 C 260.890625 416.976562 256.835938 410.152344 256.835938 404.613281 C 256.835938 392.832031 274.417969 377.800781 303.738281 367.585938 C 307.296875 366.34375 311.023438 365.175781 314.886719 364.078125 C 318.941406 377.25 324.257812 391.023438 330.671875 404.949219 C 324.171875 419.085938 318.78125 433.078125 314.6875 446.40625 C 312.003906 445.636719 309.339844 444.800781 306.695312 443.902344 Z M 322.355469 337.386719 C 316.269531 306.304688 320.3125 282.859375 330.484375 276.972656 C 341.316406 270.707031 365.277344 279.644531 390.527344 302.050781 C 392.175781 303.511719 393.792969 305.007812 395.386719 306.53125 C 385.976562 316.625 376.679688 328.121094 367.796875 340.648438 C 352.566406 342.058594 337.988281 344.324219 324.582031 347.359375 C 323.757812 344.054688 323.015625 340.730469 322.355469 337.386719 Z M 462.054688 371.855469 C 458.886719 366.390625 455.605469 360.996094 452.207031 355.671875 C 462.539062 356.976562 472.4375 358.710938 481.734375 360.832031 C 478.945312 369.769531 475.464844 379.117188 471.371094 388.699219 C 468.378906 383.023438 465.273438 377.410156 462.054688 371.855469 Z M 405.085938 316.410156 C 411.464844 323.320312 417.859375 331.03125 424.144531 339.402344 C 411.390625 338.796875 398.617188 338.796875 385.867188 339.394531 C 392.160156 331.101562 398.605469 323.398438 405.085938 316.410156 Z M 347.75 371.953125 C 344.574219 377.457031 341.523438 383.039062 338.609375 388.6875 C 334.578125 379.136719 331.132812 369.75 328.316406 360.683594 C 337.558594 358.617188 347.410156 356.929688 357.679688 355.648438 C 354.242188 361.003906 350.933594 366.4375 347.75 371.949219 Z M 357.972656 454.566406 C 347.367188 453.382812 337.363281 451.78125 328.125 449.769531 C 330.984375 440.542969 334.507812 430.953125 338.625 421.203125 C 341.554688 426.855469 344.613281 432.4375 347.804688 437.945312 C 351.085938 443.609375 354.484375 449.15625 357.972656 454.566406 Z M 405.46875 493.792969 C 398.910156 486.722656 392.367188 478.902344 385.980469 470.492188 C 392.183594 470.734375 398.503906 470.855469 404.929688 470.855469 C 411.53125 470.855469 418.054688 470.710938 424.480469 470.421875 C 418.171875 478.988281 411.804688 486.820312 405.46875 493.792969 Z M 471.5 420.703125 C 475.832031 430.5625 479.480469 440.101562 482.375 449.171875 C 472.988281 451.3125 462.847656 453.039062 452.167969 454.320312 C 455.589844 448.894531 458.902344 443.40625 462.109375 437.851562 C 465.367188 432.207031 468.5 426.488281 471.5 420.703125 Z M 450.125 430.945312 C 445.21875 439.460938 440.039062 447.8125 434.589844 455.992188 C 424.71875 456.691406 414.824219 457.039062 404.929688 457.035156 C 394.851562 457.035156 385.046875 456.71875 375.609375 456.109375 C 370.015625 447.949219 364.734375 439.578125 359.777344 431.019531 C 354.84375 422.507812 350.234375 413.808594 345.960938 404.945312 C 350.222656 396.078125 354.820312 387.378906 359.738281 378.855469 L 359.734375 378.859375 C 364.652344 370.335938 369.890625 362.003906 375.441406 353.878906 C 385.070312 353.148438 394.945312 352.769531 404.929688 352.769531 C 414.957031 352.769531 424.84375 353.152344 434.472656 353.886719 C 439.96875 362 445.171875 370.304688 450.078125 378.785156 C 455.011719 387.285156 459.667969 395.945312 464.039062 404.75 C 459.714844 413.644531 455.074219 422.378906 450.125 430.945312 Z M 478.664062 276.5625 C 489.507812 282.8125 493.726562 308.015625 486.914062 341.066406 C 486.476562 343.175781 485.988281 345.324219 485.457031 347.5 C 472.019531 344.402344 457.429688 342.097656 442.15625 340.664062 C 433.257812 328 424.035156 316.488281 414.777344 306.523438 C 417.203125 304.1875 419.6875 301.910156 422.226562 299.695312 C 446.136719 278.90625 468.484375 270.695312 478.664062 276.5625 Z M 404.929688 375.714844 C 420.902344 375.714844 433.847656 388.65625 433.847656 404.613281 C 433.847656 420.574219 420.902344 433.511719 404.929688 433.511719 C 388.957031 433.511719 376.011719 420.574219 376.011719 404.613281 C 376.011719 388.65625 388.957031 375.714844 404.929688 375.714844 Z M 404.929688 375.714844 " fill-opacity="1" fill-rule="nonzero"/></svg>