<svg xmlns="http://www.w3.org/2000/svg" xmlns:xlink="http://www.w3.org/1999/xlink" width="1080" zoomAndPan="magnify" viewBox="0 0 810 809.999993" height="1080" preserveAspectRatio="xMidYMid meet" version="1.0"><path fill="#ff7c00" d="M 489.996094 419.335938 C 481.792969 419.378906 474.6875 421.339844 468.738281 424.273438 C 466.5625 419.9375 464.355469 416.117188 463.984375 413.28125 C 463.554688 409.96875 463.050781 407.988281 463.574219 404.042969 C 464.097656 400.097656 466.386719 394.507812 466.351562 394.089844 C 466.320312 393.667969 465.839844 391.660156 461.109375 391.625 C 456.378906 391.589844 452.332031 392.535156 451.859375 393.78125 C 451.382812 395.023438 450.472656 397.832031 449.90625 400.757812 C 449.078125 405.039062 440.460938 420.3125 435.570312 428.300781 C 433.972656 425.179688 432.613281 422.433594 432.328125 420.261719 C 431.898438 416.949219 431.394531 414.96875 431.917969 411.023438 C 432.441406 407.078125 434.730469 401.488281 434.695312 401.066406 C 434.664062 400.648438 434.183594 398.640625 429.453125 398.601562 C 424.722656 398.570312 420.675781 399.511719 420.203125 400.757812 C 419.726562 402.003906 419.214844 404.917969 418.25 407.738281 C 417.28125 410.554688 405.828125 436.03125 402.828125 442.636719 C 401.296875 446.003906 399.96875 448.707031 399.03125 450.546875 C 399.023438 450.542969 399.023438 450.539062 399.023438 450.539062 C 399.023438 450.539062 398.964844 450.660156 398.871094 450.867188 C 398.066406 452.4375 397.589844 453.304688 397.589844 453.304688 C 397.589844 453.304688 397.59375 453.316406 397.605469 453.339844 C 396.964844 454.492188 396.285156 455.5625 395.949219 455.5625 C 395.714844 455.5625 395.238281 452.492188 396.050781 448.273438 C 397.753906 439.4375 401.847656 425.660156 401.808594 425.179688 C 401.789062 424.933594 402.570312 422.535156 399.136719 421.277344 C 395.796875 420.058594 394.609375 422.09375 394.304688 422.097656 C 394.011719 422.101562 393.792969 422.816406 393.792969 422.816406 C 393.792969 422.816406 397.511719 407.316406 386.699219 407.316406 C 379.9375 407.316406 370.574219 414.703125 365.960938 421.394531 C 363.046875 422.980469 356.816406 426.378906 350.207031 430.003906 C 347.667969 431.398438 345.078125 432.820312 342.617188 434.171875 C 342.453125 433.984375 342.28125 433.804688 342.113281 433.617188 C 328.996094 419.652344 304.765625 409.777344 305.789062 391 C 306.164062 384.175781 308.539062 366.203125 352.363281 344.40625 C 388.257812 326.546875 416.996094 331.460938 421.960938 342.351562 C 429.054688 357.914062 406.601562 386.828125 369.324219 391 C 355.125 392.59375 347.640625 387.09375 345.78125 385.046875 C 343.824219 382.890625 343.53125 382.796875 342.800781 383.199219 C 341.609375 383.859375 342.363281 385.761719 342.800781 386.894531 C 343.914062 389.785156 348.480469 394.914062 356.265625 397.46875 C 363.117188 399.714844 379.792969 400.945312 399.957031 393.15625 C 422.546875 384.4375 440.183594 360.167969 435 339.890625 C 429.730469 319.265625 395.472656 312.484375 363.046875 323.984375 C 343.726562 330.828125 322.839844 341.574219 307.816406 355.597656 C 289.957031 372.269531 287.109375 386.789062 288.28125 392.851562 C 292.449219 414.40625 322.203125 428.4375 334.117188 438.835938 C 333.53125 439.160156 332.976562 439.464844 332.476562 439.742188 C 326.503906 442.691406 303.820312 454.542969 298.148438 467.058594 C 291.710938 481.257812 299.171875 491.445312 304.109375 492.820312 C 319.410156 497.070312 335.109375 489.425781 343.550781 476.859375 C 351.988281 464.300781 350.957031 447.941406 347.085938 440.476562 C 347.039062 440.386719 346.984375 440.292969 346.9375 440.199219 C 348.480469 439.289062 350.050781 438.363281 351.609375 437.445312 C 354.648438 435.664062 357.636719 434 360.222656 432.597656 C 358.773438 436.558594 357.710938 441.3125 357.160156 448.175781 C 356.511719 456.234375 359.824219 466.652344 364.152344 470.753906 C 366.0625 472.558594 368.355469 472.601562 369.804688 472.601562 C 374.84375 472.601562 377.144531 468.414062 379.675781 463.464844 C 382.78125 457.394531 385.539062 450.324219 385.539062 450.324219 C 385.539062 450.324219 382.082031 469.417969 391.5 469.417969 C 394.933594 469.417969 398.386719 464.972656 399.925781 462.707031 C 399.929688 462.734375 399.929688 462.746094 399.929688 462.746094 C 399.929688 462.746094 400.023438 462.597656 400.199219 462.304688 C 400.554688 461.761719 400.757812 461.414062 400.757812 461.414062 C 400.757812 461.414062 400.761719 461.378906 400.773438 461.3125 C 402.15625 458.921875 405.214844 453.472656 409.804688 444.480469 C 415.734375 432.863281 421.417969 418.308594 421.417969 418.308594 C 421.417969 418.308594 421.945312 421.863281 423.679688 427.75 C 424.699219 431.210938 426.863281 435.039062 428.574219 438.714844 C 427.199219 440.621094 426.355469 441.710938 426.355469 441.710938 C 426.355469 441.710938 426.363281 441.730469 426.378906 441.769531 C 425.277344 443.226562 424.046875 444.796875 422.757812 446.332031 C 418.074219 451.894531 412.5 458.253906 411.753906 460.082031 C 410.875 462.246094 411.082031 463.832031 412.785156 465.113281 C 414.027344 466.046875 416.234375 466.195312 418.542969 466.042969 C 422.75 465.757812 425.707031 464.714844 427.167969 464.082031 C 429.445312 463.277344 432.09375 462.015625 434.578125 460.191406 C 439.171875 456.820312 441.9375 452.003906 441.671875 445.613281 C 441.523438 442.09375 440.402344 438.605469 438.980469 435.316406 C 439.394531 434.71875 439.8125 434.113281 440.234375 433.507812 C 447.46875 422.945312 453.085938 411.335938 453.085938 411.335938 C 453.085938 411.335938 453.613281 414.894531 455.347656 420.78125 C 456.222656 423.757812 457.953125 427.011719 459.511719 430.195312 C 452.707031 435.714844 448.488281 442.132812 447.023438 446.335938 C 444.3125 454.121094 446.433594 457.644531 450.414062 458.449219 C 452.214844 458.8125 454.765625 457.984375 456.679688 457.175781 C 459.0625 456.390625 461.925781 455.074219 464.605469 453.109375 C 469.195312 449.738281 473.613281 445.023438 473.34375 438.640625 C 473.222656 435.730469 472.433594 432.847656 471.359375 430.078125 C 477.132812 427.675781 484.597656 426.347656 494.113281 427.453125 C 514.519531 429.832031 518.519531 442.550781 517.757812 447.875 C 516.988281 453.199219 512.710938 456.128906 511.277344 457.011719 C 509.847656 457.894531 509.410156 458.203125 509.527344 458.859375 C 509.707031 459.8125 510.367188 459.78125 511.585938 459.574219 C 513.265625 459.289062 522.300781 455.246094 522.691406 445.417969 C 523.175781 432.925781 511.203125 419.222656 489.996094 419.335938 Z M 332.6875 472.277344 C 325.925781 479.636719 316.488281 482.417969 312.433594 480.074219 C 308.0625 477.546875 309.792969 466.707031 318.085938 458.890625 C 323.140625 454.132812 329.667969 449.746094 334 447.046875 C 334.988281 446.453125 336.433594 445.585938 338.191406 444.53125 C 338.484375 444.367188 338.652344 444.277344 338.652344 444.277344 L 338.644531 444.265625 C 338.988281 444.0625 339.332031 443.855469 339.691406 443.636719 C 342.714844 454.761719 339.785156 464.550781 332.6875 472.277344 Z M 381.9375 438.855469 C 379.585938 444.585938 374.660156 459.246094 371.65625 458.460938 C 369.082031 457.785156 367.511719 446.640625 371.144531 435.671875 C 372.96875 430.152344 376.871094 423.554688 379.164062 420.996094 C 382.855469 416.875 386.917969 415.527344 387.90625 417.199219 C 389.160156 419.328125 383.414062 435.261719 381.9375 438.855469 Z M 422.625 458.238281 C 421.625 458.757812 420.707031 459.082031 420.289062 458.832031 C 419.972656 458.644531 420.699219 457.960938 420.699219 457.960938 C 420.699219 457.960938 425.785156 452.492188 427.789062 450.003906 C 428.957031 448.558594 430.308594 446.835938 431.78125 444.921875 C 431.789062 445.113281 431.796875 445.304688 431.796875 445.492188 C 431.785156 452.039062 425.449219 456.457031 422.625 458.238281 Z M 453.964844 451.101562 C 453.21875 450.574219 453.347656 448.867188 455.792969 443.535156 C 456.753906 441.445312 458.953125 437.925781 462.757812 434.5625 C 463.203125 435.945312 463.46875 437.269531 463.464844 438.507812 C 463.414062 446.746094 457.527344 449.824219 453.964844 451.101562 Z M 453.964844 451.101562 " fill-opacity="1" fill-rule="nonzero"/></svg>