<svg xmlns="http://www.w3.org/2000/svg" xmlns:xlink="http://www.w3.org/1999/xlink" width="1080" zoomAndPan="magnify" viewBox="0 0 810 809.999993" height="1080" preserveAspectRatio="xMidYMid meet" version="1.0"><defs><clipPath id="id1"><path d="M 385 359 L 541.160156 359 L 541.160156 472.671875 L 385 472.671875 Z M 385 359 " clip-rule="nonzero"/></clipPath><clipPath id="id2"><path d="M 386 337.671875 L 498 337.671875 L 498 431 L 386 431 Z M 386 337.671875 " clip-rule="nonzero"/></clipPath></defs><g clip-path="url(#id1)"><path fill="#ff7c00" d="M 390.441406 384.109375 C 389.128906 386.632812 387.894531 389.65625 387.148438 392.167969 C 386.828125 393.238281 386.460938 394.621094 386.316406 395.289062 C 385.441406 399.253906 385.109375 402.488281 385.152344 406.472656 C 385.167969 407.976562 385.363281 410.46875 385.589844 412.09375 C 386.015625 415.179688 386.890625 418.730469 387.910156 421.53125 C 389.59375 426.140625 391.828125 430.257812 394.683594 434.015625 C 397.90625 438.246094 401.617188 441.703125 406.242188 444.769531 C 407.078125 445.320312 409.839844 446.910156 410.707031 447.335938 C 414.683594 449.292969 418.21875 450.511719 422.296875 451.335938 C 427.632812 452.421875 433.070312 452.546875 438.527344 451.710938 C 442.074219 451.171875 445.972656 450.082031 449.238281 448.722656 C 452.339844 447.433594 454.875 446.070312 457.613281 444.214844 C 460.597656 442.191406 463.246094 439.917969 465.679688 437.269531 C 467.25 435.570312 468.804688 433.59375 470.039062 431.734375 L 470.257812 431.40625 L 473.105469 433.042969 L 475.957031 434.683594 L 475.457031 435.550781 C 475.078125 436.214844 474.945312 436.472656 474.898438 436.644531 C 474.675781 437.4375 474.878906 438.3125 475.421875 438.925781 C 475.636719 439.167969 475.644531 439.175781 476.722656 439.808594 C 477.320312 440.160156 490.277344 447.640625 505.515625 456.4375 C 529.769531 470.429688 533.257812 472.4375 533.488281 472.511719 C 533.8125 472.617188 534.359375 472.65625 534.683594 472.589844 C 534.988281 472.527344 535.34375 472.375 535.625 472.179688 C 536.085938 471.855469 535.988281 472.007812 538.636719 467.363281 L 541.050781 463.128906 L 541.089844 462.851562 C 541.152344 462.441406 541.132812 462.105469 541.023438 461.730469 C 540.914062 461.355469 540.789062 461.113281 540.535156 460.800781 L 540.359375 460.589844 L 534.96875 457.453125 C 532 455.734375 518.976562 448.214844 506.019531 440.75 L 482.464844 427.175781 L 482.199219 427.125 C 481.441406 426.980469 480.703125 427.183594 480.105469 427.683594 C 479.882812 427.875 479.859375 427.902344 479.328125 428.8125 L 478.777344 429.742188 L 478.488281 429.546875 C 478.324219 429.4375 477.046875 428.691406 475.652344 427.886719 L 473.113281 426.425781 L 473.417969 425.804688 C 473.769531 425.089844 474.160156 424.191406 474.617188 423.0625 C 474.929688 422.289062 475.011719 422.070312 475.398438 420.964844 C 476.488281 417.863281 477.289062 414.28125 477.660156 410.859375 C 477.753906 410.035156 477.898438 407.945312 477.914062 407.246094 C 477.933594 406.425781 477.933594 406.15625 477.933594 405.644531 C 477.894531 398.234375 476.101562 390.90625 472.722656 384.339844 C 471.390625 381.757812 469.785156 379.25 467.996094 376.964844 C 465.136719 373.308594 461.699219 370.074219 457.910156 367.460938 C 455.8125 366.015625 453.492188 364.679688 451.226562 363.621094 C 442.933594 359.71875 433.636719 358.386719 424.542969 359.796875 C 419.023438 360.648438 413.679688 362.492188 408.867188 365.1875 C 404.910156 367.40625 401.578125 369.957031 398.304688 373.269531 C 397.582031 374.003906 396.453125 375.273438 395.675781 376.226562 C 395.160156 376.855469 394.917969 377.164062 394.15625 378.171875 C 393.136719 379.511719 391.335938 382.390625 390.441406 384.109375 Z M 403.105469 386.339844 C 405.191406 383.292969 407.492188 380.820312 410.324219 378.582031 C 413.679688 375.9375 417.46875 373.960938 421.582031 372.707031 C 422.359375 372.472656 422.402344 372.460938 423.265625 372.25 C 425.351562 371.734375 427.144531 371.457031 429.28125 371.3125 C 434.964844 370.9375 440.621094 371.988281 445.859375 374.398438 C 447.335938 375.074219 449.546875 376.316406 450.742188 377.132812 C 454.210938 379.511719 456.894531 382.082031 459.273438 385.296875 C 463.300781 390.746094 465.664062 397.464844 465.945312 404.25 C 466.191406 410.101562 464.960938 415.859375 462.339844 421.121094 C 461.976562 421.847656 460.753906 423.992188 460.359375 424.589844 C 459.726562 425.539062 459.074219 426.464844 458.621094 427.035156 C 458.496094 427.195312 458.277344 427.460938 458.144531 427.632812 C 456.414062 429.808594 453.871094 432.191406 451.449219 433.910156 C 450.03125 434.921875 448.699219 435.726562 447.089844 436.542969 C 438.425781 440.976562 428.179688 441.472656 419.082031 437.898438 C 417.316406 437.207031 416.375 436.746094 414.410156 435.613281 C 412.480469 434.503906 411.742188 434.011719 410.238281 432.832031 C 403.402344 427.476562 398.847656 419.667969 397.511719 411.035156 C 396.964844 407.488281 396.976562 403.867188 397.546875 400.296875 C 398.082031 396.964844 399.167969 393.574219 400.644531 390.605469 C 400.828125 390.242188 401.019531 389.859375 401.070312 389.753906 C 401.316406 389.257812 402.707031 386.929688 403.105469 386.339844 Z M 403.105469 386.339844 " fill-opacity="1" fill-rule="nonzero"/></g><path fill="#000000" d="M 294.671875 367.050781 C 292.0625 367.113281 291.179688 367.1875 290.648438 367.402344 C 290.285156 367.539062 289.496094 367.722656 288.90625 367.8125 C 288.328125 367.890625 287.464844 368.070312 287.007812 368.191406 C 285.066406 368.753906 282.667969 369.546875 282.378906 369.714844 C 282.214844 369.820312 281.636719 370.078125 281.105469 370.308594 C 280.574219 370.519531 279.96875 370.824219 279.742188 370.976562 C 279.527344 371.128906 278.753906 371.644531 278.039062 372.117188 C 274.945312 374.125 271.972656 377.742188 270.773438 380.953125 C 270.589844 381.453125 270.347656 382.078125 270.226562 382.335938 C 270.121094 382.609375 269.984375 383.082031 269.921875 383.402344 C 269.878906 383.734375 269.695312 384.464844 269.542969 385.058594 C 269.164062 386.550781 268.90625 391.019531 269.105469 393.074219 C 269.363281 395.71875 269.527344 396.9375 269.773438 397.542969 C 269.894531 397.878906 270.167969 398.730469 270.378906 399.445312 C 270.957031 401.378906 273.078125 404.753906 274.476562 405.957031 C 274.628906 406.09375 275.144531 406.53125 275.613281 406.929688 C 277.222656 408.328125 280.300781 410.167969 282.152344 410.835938 C 282.699219 411.035156 283.277344 411.277344 283.441406 411.382812 C 283.609375 411.492188 284.019531 411.644531 284.351562 411.734375 C 284.6875 411.808594 285.445312 412.039062 286.023438 412.222656 C 288.328125 412.9375 295.050781 414.503906 297.402344 414.882812 C 297.734375 414.929688 298.449219 415.09375 298.996094 415.246094 C 299.539062 415.414062 300.738281 415.671875 301.648438 415.855469 C 302.574219 416.039062 303.59375 416.3125 303.925781 416.464844 C 304.257812 416.632812 304.882812 416.828125 305.292969 416.921875 C 306.324219 417.148438 308.644531 418.289062 309.417969 418.957031 C 310.296875 419.734375 311.027344 420.769531 311.527344 422.015625 C 311.921875 422.988281 311.96875 423.246094 311.96875 424.90625 C 311.96875 426.5625 311.921875 426.820312 311.527344 427.824219 C 310.417969 430.578125 307.945312 432.464844 304.304688 433.34375 C 304.015625 433.40625 303.089844 433.589844 302.257812 433.757812 C 299.539062 434.257812 292.714844 434.074219 289.511719 433.421875 C 288.933594 433.316406 288.144531 433.164062 287.765625 433.117188 C 287.386719 433.054688 286.644531 432.890625 286.097656 432.738281 C 285.550781 432.570312 284.503906 432.296875 283.746094 432.113281 C 283.003906 431.929688 282.0625 431.613281 281.667969 431.414062 C 281.273438 431.230469 280.847656 431.0625 280.742188 431.0625 C 280.40625 431.0625 278.207031 430.335938 277.980469 430.152344 C 277.875 430.074219 277.359375 429.863281 276.828125 429.679688 C 275.824219 429.359375 275.613281 429.269531 272.488281 427.792969 C 271.320312 427.230469 270.546875 426.957031 270.378906 427.019531 C 270.136719 427.109375 270.121094 427.367188 270.210938 430.652344 C 270.273438 432.601562 270.316406 436.039062 270.316406 438.320312 C 270.316406 443.078125 270.257812 442.882812 271.835938 443.320312 C 272.289062 443.445312 272.914062 443.65625 273.199219 443.761719 C 273.488281 443.882812 274.003906 444.050781 274.339844 444.144531 C 274.671875 444.21875 275.460938 444.433594 276.082031 444.613281 C 276.707031 444.78125 277.632812 445.027344 278.132812 445.148438 C 278.632812 445.269531 279.480469 445.496094 280.027344 445.664062 C 280.574219 445.832031 281.453125 446.042969 282 446.121094 C 282.546875 446.210938 283.261719 446.347656 283.59375 446.425781 C 283.929688 446.5 284.445312 446.578125 284.730469 446.578125 C 285.019531 446.578125 285.75 446.757812 286.324219 446.957031 C 287.097656 447.230469 287.707031 447.335938 288.554688 447.335938 C 289.191406 447.335938 290.558594 447.445312 291.589844 447.582031 C 293.167969 447.792969 294.519531 447.824219 300.207031 447.746094 C 306.230469 447.671875 307.097656 447.625 308.175781 447.367188 C 308.839844 447.199219 309.796875 447.019531 310.296875 446.972656 C 310.800781 446.910156 311.585938 446.757812 312.042969 446.621094 C 312.5 446.484375 313.257812 446.289062 313.710938 446.179688 C 316.09375 445.617188 319.582031 444.066406 321.828125 442.546875 C 323.316406 441.558594 325.699219 439.171875 326.730469 437.617188 C 328.109375 435.566406 329.644531 432.113281 329.644531 431.050781 C 329.644531 430.851562 329.808594 430.378906 329.992188 430 C 330.191406 429.621094 330.449219 428.996094 330.554688 428.585938 C 330.78125 427.71875 330.964844 427.566406 331.144531 428.066406 C 331.222656 428.28125 331.34375 432.296875 331.402344 436.996094 C 331.496094 443.839844 331.554688 445.574219 331.722656 445.742188 C 331.875 445.90625 332.828125 445.9375 336.667969 445.878906 C 339.261719 445.847656 346.316406 445.742188 352.328125 445.664062 C 358.335938 445.574219 365.191406 445.480469 367.574219 445.4375 C 369.957031 445.390625 375.144531 445.3125 379.121094 445.269531 C 383.097656 445.207031 386.433594 445.117188 386.539062 445.054688 C 386.691406 444.964844 386.691406 443.488281 386.570312 438 C 386.480469 434.183594 386.359375 430.988281 386.296875 430.898438 C 386.207031 430.746094 382.535156 430.761719 370.835938 430.988281 C 368.757812 431.035156 363.570312 431.109375 359.304688 431.15625 C 351.582031 431.246094 351.566406 431.246094 351.160156 430.925781 C 350.898438 430.714844 350.734375 430.410156 350.671875 430.03125 C 350.628906 429.726562 350.582031 425.726562 350.550781 421.148438 L 350.503906 412.828125 L 350.855469 412.480469 L 351.203125 412.128906 L 362.082031 412.007812 C 368.0625 411.949219 375.175781 411.839844 377.890625 411.78125 L 382.824219 411.671875 L 382.867188 404.691406 C 382.898438 399.386719 382.855469 397.667969 382.71875 397.5 C 382.566406 397.300781 382.125 397.285156 380.015625 397.363281 C 378.636719 397.40625 373.492188 397.484375 368.5625 397.53125 C 363.644531 397.574219 357.773438 397.652344 355.511719 397.695312 C 351.265625 397.789062 350.75 397.742188 350.445312 397.179688 C 350.234375 396.785156 350.140625 394.289062 350.109375 388.039062 L 350.082031 382.808594 L 350.492188 382.441406 C 350.871094 382.125 351.035156 382.09375 352.75 382.09375 C 353.769531 382.09375 356 382.046875 357.710938 382.015625 C 359.425781 381.972656 366.074219 381.867188 372.507812 381.789062 C 381.945312 381.667969 384.21875 381.589844 384.386719 381.425781 C 384.554688 381.257812 384.570312 380.011719 384.476562 374.277344 C 384.386719 368.117188 384.339844 367.3125 384.128906 367.21875 C 383.992188 367.160156 381.730469 367.144531 379.105469 367.203125 C 376.480469 367.25 367.9375 367.386719 360.140625 367.476562 C 331.644531 367.828125 330.886719 367.859375 330.644531 368.101562 C 330.460938 368.300781 330.449219 369.484375 330.554688 376.769531 C 330.691406 385.804688 331.039062 411.535156 331.054688 414.183594 C 331.085938 416.675781 330.765625 417.664062 330.386719 416.265625 C 330.296875 415.917969 330.097656 415.492188 329.945312 415.324219 C 329.78125 415.15625 329.460938 414.394531 329.203125 413.652344 C 327.851562 409.5 324.863281 406.289062 320.007812 403.796875 C 319.097656 403.324219 317.871094 402.761719 317.277344 402.535156 C 316.699219 402.320312 316.125 402.078125 316.019531 401.984375 C 315.910156 401.894531 315.457031 401.726562 315 401.605469 C 314.546875 401.5 313.804688 401.316406 313.363281 401.195312 C 312.921875 401.089844 312.363281 400.890625 312.117188 400.769531 C 311.859375 400.632812 311.222656 400.449219 310.675781 400.359375 C 308.644531 400.023438 307.140625 399.734375 306.382812 399.523438 C 305.945312 399.402344 305.183594 399.25 304.683594 399.203125 C 304.183594 399.140625 303.394531 399.003906 302.9375 398.898438 C 302.484375 398.792969 301.800781 398.65625 301.421875 398.609375 C 300.207031 398.441406 295.640625 397.453125 293.910156 396.980469 C 292.910156 396.707031 292 396.34375 290.269531 395.550781 C 289.253906 395.082031 287.84375 393.773438 287.386719 392.890625 C 287.191406 392.496094 286.933594 391.597656 286.8125 390.898438 C 286.628906 389.820312 286.628906 389.410156 286.78125 388.253906 C 287.007812 386.640625 287.28125 385.941406 288.070312 384.890625 C 289.480469 383.007812 292.363281 381.667969 295.960938 381.226562 C 300.84375 380.632812 302.210938 380.585938 304.378906 380.953125 C 305.140625 381.074219 306.230469 381.179688 306.808594 381.179688 C 307.398438 381.179688 308.28125 381.257812 308.78125 381.347656 C 309.28125 381.425781 310.28125 381.589844 310.996094 381.714844 C 311.722656 381.820312 312.453125 381.988281 312.632812 382.078125 C 312.800781 382.183594 313.4375 382.351562 314.046875 382.457031 C 315.5625 382.746094 318.75 383.660156 320.464844 384.3125 C 321.054688 384.527344 321.875 384.832031 322.285156 384.984375 C 322.710938 385.136719 323.4375 385.425781 323.90625 385.636719 C 324.742188 386.003906 324.789062 386.015625 324.925781 385.757812 C 325.015625 385.589844 325.046875 382.703125 324.984375 378.078125 C 324.910156 371.613281 324.863281 370.625 324.652344 370.367188 C 324.484375 370.15625 324.089844 370.035156 323.316406 369.941406 C 322.726562 369.867188 322.148438 369.757812 322.058594 369.699219 C 321.964844 369.636719 321.40625 369.53125 320.828125 369.457031 C 320.25 369.378906 319.597656 369.226562 319.371094 369.105469 C 319.128906 368.984375 318.535156 368.847656 318.035156 368.800781 C 317.535156 368.742188 316.550781 368.605469 315.835938 368.480469 C 307.992188 367.160156 303.105469 366.824219 294.671875 367.050781 Z M 294.671875 367.050781 " fill-opacity="1" fill-rule="nonzero"/><g clip-path="url(#id2)"><path fill="#000000" d="M 495.792969 337.699219 C 494.617188 337.699219 489.722656 339.730469 473.40625 346.761719 C 461.101562 352.082031 451.25 356.550781 451.5625 356.683594 C 451.871094 356.816406 456.507812 357.53125 461.902344 358.203125 C 467.296875 358.875 471.753906 359.5 471.84375 359.542969 C 471.917969 359.617188 469.234375 365.003906 464.9375 373.441406 C 463.207031 376.84375 461.214844 380.738281 459.035156 384.980469 C 459.035156 384.980469 459.035156 384.984375 459.035156 384.984375 C 456.800781 389.328125 454.371094 394.039062 451.828125 398.957031 L 447.859375 406.597656 L 430.160156 394.441406 L 412.507812 382.289062 L 408.183594 387.425781 C 404.585938 391.773438 400.867188 396.300781 397.53125 400.394531 C 391.363281 407.957031 386.492188 414.027344 386.035156 414.722656 C 386.007812 414.769531 385.996094 414.789062 386.003906 414.789062 C 386.007812 414.789062 386.015625 414.785156 386.027344 414.773438 C 386.03125 414.769531 386.039062 414.765625 386.042969 414.761719 C 386.226562 414.625 386.359375 414.539062 386.464844 414.539062 C 386.761719 414.539062 386.785156 415.253906 386.785156 417.589844 L 386.785156 417.929688 C 387.128906 419.195312 387.507812 420.421875 387.910156 421.53125 C 388.101562 422.046875 388.292969 422.554688 388.496094 423.058594 L 397.261719 412.808594 C 397.417969 412.628906 397.570312 412.449219 397.722656 412.269531 C 397.722656 412.269531 397.722656 412.265625 397.722656 412.265625 L 397.726562 412.265625 C 405.632812 403.039062 412.15625 395.558594 412.375 395.558594 C 412.375 395.558594 412.378906 395.558594 412.382812 395.558594 C 412.648438 395.558594 415.03125 397.6875 417.722656 400.339844 C 440.039062 422.050781 448.964844 430.515625 449.613281 430.515625 C 449.628906 430.515625 449.636719 430.511719 449.644531 430.503906 C 449.917969 430.226562 455.730469 420 465.785156 402.089844 C 465.785156 402.085938 465.785156 402.085938 465.785156 402.085938 C 468.296875 397.609375 471.074219 392.65625 474.09375 387.253906 L 474.097656 387.253906 C 474.628906 386.296875 475.171875 385.328125 475.722656 384.34375 C 480.316406 376.121094 484.328125 369.105469 484.59375 368.792969 C 484.632812 368.757812 484.679688 368.738281 484.734375 368.738281 C 485.296875 368.738281 486.914062 370.636719 491.328125 376.480469 C 494.71875 380.9375 497.542969 384.570312 497.699219 384.570312 C 497.699219 384.570312 497.699219 384.570312 497.703125 384.566406 C 497.925781 384.390625 496.363281 338.496094 496.097656 337.828125 C 496.0625 337.746094 495.96875 337.699219 495.792969 337.699219 Z M 495.792969 337.699219 " fill-opacity="1" fill-rule="nonzero"/></g></svg>