<svg xmlns="http://www.w3.org/2000/svg" xmlns:xlink="http://www.w3.org/1999/xlink" width="1080" zoomAndPan="magnify" viewBox="0 0 810 809.999993" height="1080" preserveAspectRatio="xMidYMid meet" version="1.0"><defs><clipPath id="6469324646"><path d="M 504 329 L 553.363281 329 L 553.363281 485 L 504 485 Z M 504 329 " clip-rule="nonzero"/></clipPath><clipPath id="bdf6013cfe"><path d="M 256.363281 329 L 306 329 L 306 485 L 256.363281 485 Z M 256.363281 329 " clip-rule="nonzero"/></clipPath></defs><rect x="-81" width="972" fill="#ffffff" y="-80.999999" height="971.999992" fill-opacity="1"/><rect x="-81" width="972" fill="#ffffff" y="-80.999999" height="971.999992" fill-opacity="1"/><path fill="#f1511b" d="M 274.992188 324.082031 L 275.003906 324.066406 L 274.992188 324.066406 Z M 274.992188 324.082031 " fill-opacity="1" fill-rule="nonzero"/><path fill="#fbbc09" d="M 410.71875 495.988281 L 492.710938 451.601562 L 492.710938 363.675781 L 410.71875 410.277344 Z M 410.71875 495.988281 " fill-opacity="1" fill-rule="nonzero"/><g clip-path="url(#6469324646)"><path fill="#ff7c00" d="M 553.230469 329.265625 L 504.417969 356.992188 L 504.417969 456.828125 L 553.230469 484.597656 Z M 553.230469 329.265625 " fill-opacity="1" fill-rule="nonzero"/></g><path fill="#fbbc09" d="M 487.207031 353.496094 L 404.890625 308.921875 L 322.574219 353.496094 L 404.890625 400.273438 Z M 487.207031 353.496094 " fill-opacity="1" fill-rule="nonzero"/><path fill="#ff7c00" d="M 493.84375 464.128906 L 410.71875 509.140625 L 410.71875 567 L 544.113281 492.722656 Z M 493.84375 464.128906 " fill-opacity="1" fill-rule="nonzero"/><path fill="#ff7c00" d="M 399.023438 509.140625 L 315.914062 464.128906 L 265.628906 492.722656 L 399.023438 567 Z M 399.023438 509.140625 " fill-opacity="1" fill-rule="nonzero"/><g clip-path="url(#bdf6013cfe)"><path fill="#ff7c00" d="M 256.5 484.597656 L 305.3125 456.828125 L 305.3125 356.992188 L 256.5 329.265625 Z M 256.5 484.597656 " fill-opacity="1" fill-rule="nonzero"/></g><path fill="#ff7c00" d="M 310.707031 346.761719 L 399.011719 298.945312 L 399.011719 243 L 262.21875 319.195312 Z M 310.707031 346.761719 " fill-opacity="1" fill-rule="nonzero"/><path fill="#fbbc09" d="M 399.023438 410.277344 L 317.03125 363.675781 L 317.03125 451.601562 L 399.023438 495.988281 Z M 399.023438 410.277344 " fill-opacity="1" fill-rule="nonzero"/><path fill="#ff7c00" d="M 410.71875 298.945312 L 499.023438 346.773438 L 547.523438 319.195312 L 410.71875 243 Z M 410.71875 298.945312 " fill-opacity="1" fill-rule="nonzero"/></svg>