<svg xmlns="http://www.w3.org/2000/svg" xmlns:xlink="http://www.w3.org/1999/xlink" width="1080" zoomAndPan="magnify" viewBox="0 0 810 809.999993" height="1080" preserveAspectRatio="xMidYMid meet" version="1.0"><defs><clipPath id="id1"><path d="M 282.480469 330.570312 L 527.730469 330.570312 L 527.730469 479.070312 L 282.480469 479.070312 Z M 282.480469 330.570312 " clip-rule="nonzero"/></clipPath></defs><g clip-path="url(#id1)"><path fill="#ff7c00" d="M 506.203125 330.570312 L 304.007812 330.570312 C 292.253906 330.570312 282.722656 340.070312 282.722656 351.785156 L 282.722656 436.640625 C 282.722656 448.355469 292.253906 457.855469 304.007812 457.855469 L 405.105469 457.855469 L 447.671875 479.070312 L 437.03125 457.855469 L 506.203125 457.855469 C 517.957031 457.855469 527.488281 448.355469 527.488281 436.640625 L 527.488281 351.785156 C 527.488281 340.070312 517.957031 330.570312 506.203125 330.570312 Z M 506.203125 330.570312 " fill-opacity="1" fill-rule="nonzero"/></g><path fill="#ffffff" d="M 492.597656 373 C 492.816406 373 493.300781 373.023438 494.074219 373.199219 C 495.890625 373.609375 497.046875 374.25 498.433594 376.839844 C 500.085938 379.804688 500.882812 383.644531 500.882812 388.585938 C 500.882812 396 499.195312 402.582031 495.707031 408.75 C 491.949219 415.425781 489.203125 415.425781 487.882812 415.425781 C 487.664062 415.425781 487.183594 415.402344 486.410156 415.226562 C 484.589844 414.816406 483.4375 414.175781 482.105469 411.695312 C 480.441406 408.648438 479.597656 404.625 479.597656 399.746094 C 479.597656 392.324219 481.269531 385.796875 484.722656 379.777344 C 488.597656 373 491.402344 373 492.597656 373 M 492.597656 357.085938 C 483.710938 357.085938 476.496094 362.027344 470.851562 371.902344 C 466.042969 380.289062 463.636719 389.570312 463.636719 399.746094 C 463.636719 407.351562 465.117188 413.863281 468.078125 419.292969 C 471.410156 425.515625 476.316406 429.265625 482.886719 430.75 C 484.644531 431.140625 486.308594 431.335938 487.882812 431.335938 C 496.859375 431.335938 504.074219 426.398438 509.628906 416.523438 C 514.441406 408.035156 516.847656 398.753906 516.847656 388.585938 C 516.847656 380.886719 515.367188 374.46875 512.402344 369.132812 C 509.070312 362.910156 504.167969 359.160156 497.59375 357.675781 C 495.839844 357.285156 494.171875 357.085938 492.597656 357.085938 Z M 428.746094 373 C 428.964844 373 429.449219 373.023438 430.171875 373.191406 C 431.945312 373.59375 433.210938 374.289062 434.585938 376.84375 C 436.234375 379.804688 437.03125 383.644531 437.03125 388.585938 C 437.03125 396 435.34375 402.582031 431.855469 408.75 C 428.097656 415.425781 425.351562 415.425781 424.03125 415.425781 C 423.8125 415.425781 423.332031 415.402344 422.558594 415.226562 C 420.738281 414.816406 419.585938 414.175781 418.253906 411.695312 C 416.589844 408.648438 415.746094 404.625 415.746094 399.746094 C 415.746094 392.324219 417.417969 385.796875 420.871094 379.777344 C 424.746094 373 427.550781 373 428.746094 373 M 428.746094 357.085938 C 419.859375 357.085938 412.644531 362.027344 407 371.902344 C 402.191406 380.289062 399.785156 389.570312 399.785156 399.746094 C 399.785156 407.351562 401.265625 413.863281 404.226562 419.292969 C 407.558594 425.515625 412.464844 429.265625 419.035156 430.75 C 420.792969 431.140625 422.457031 431.335938 424.03125 431.335938 C 433.007812 431.335938 440.222656 426.398438 445.777344 416.523438 C 450.589844 408.035156 452.996094 398.753906 452.996094 388.585938 C 452.996094 380.886719 451.515625 374.46875 448.550781 369.132812 C 445.21875 362.910156 440.222656 359.160156 433.742188 357.675781 C 431.988281 357.285156 430.320312 357.085938 428.746094 357.085938 Z M 375.839844 441.945312 C 373.601562 441.945312 371.414062 441 369.863281 439.265625 C 358.179688 426.121094 351.003906 408.851562 346.773438 395.019531 C 340.683594 407.855469 332.46875 424.269531 324.152344 438.078125 C 322.507812 440.808594 319.394531 442.277344 316.21875 441.871094 C 313.046875 441.429688 310.445312 439.148438 309.609375 436.074219 C 297.839844 392.972656 293.609375 362.089844 293.441406 360.796875 C 292.855469 356.445312 295.917969 352.441406 300.28125 351.851562 C 304.703125 351.28125 308.667969 354.320312 309.257812 358.671875 C 309.296875 358.933594 312.296875 380.828125 320.078125 412.765625 C 331.878906 390.449219 341.777344 367.5 341.902344 367.207031 C 343.324219 363.917969 346.792969 361.960938 350.3125 362.460938 C 353.863281 362.9375 356.664062 365.722656 357.148438 369.265625 C 357.183594 369.539062 360.03125 389.550781 369.09375 408.78125 C 372.917969 370.777344 384.378906 351.296875 384.960938 350.332031 C 387.234375 346.558594 392.144531 345.339844 395.910156 347.601562 C 399.695312 349.859375 400.917969 354.75 398.652344 358.515625 C 398.519531 358.746094 383.820312 384.214844 383.820312 433.988281 C 383.820312 437.292969 381.769531 440.257812 378.671875 441.425781 C 377.746094 441.773438 376.792969 441.945312 375.839844 441.945312 Z M 375.839844 441.945312 " fill-opacity="1" fill-rule="nonzero"/></svg>