<svg xmlns="http://www.w3.org/2000/svg" xmlns:xlink="http://www.w3.org/1999/xlink" width="1080" zoomAndPan="magnify" viewBox="0 0 810 809.999993" height="1080" preserveAspectRatio="xMidYMid meet" version="1.0"><defs><clipPath id="id1"><path d="M 213.734375 453 L 528 453 L 528 503.03125 L 213.734375 503.03125 Z M 213.734375 453 " clip-rule="nonzero"/></clipPath><clipPath id="id2"><path d="M 339 307.28125 L 471 307.28125 L 471 439 L 339 439 Z M 339 307.28125 " clip-rule="nonzero"/></clipPath></defs><g clip-path="url(#id1)"><path fill="#e44d26" d="M 385.570312 464.566406 L 365.859375 464.566406 L 365.859375 466.617188 C 372.019531 466.617188 373.042969 467.898438 373.042969 475.667969 L 373.042969 489.65625 C 373.042969 497.480469 372.019531 498.914062 365.859375 498.914062 C 361.136719 498.300781 357.851562 495.625 353.535156 490.894531 L 348.402344 485.335938 C 355.179688 484.054688 358.878906 479.78125 358.878906 475.054688 C 358.878906 469.085938 353.746094 464.355469 344.09375 464.355469 L 324.789062 464.355469 L 324.789062 466.40625 C 330.953125 466.40625 331.976562 467.691406 331.976562 475.460938 L 331.976562 489.449219 C 331.976562 497.269531 330.953125 498.707031 324.789062 498.707031 L 324.789062 500.757812 L 346.558594 500.757812 L 346.558594 498.707031 C 340.398438 498.707031 339.375 497.265625 339.375 489.449219 L 339.375 485.542969 L 341.222656 485.542969 L 353.339844 500.757812 L 385.375 500.757812 C 401.1875 500.757812 407.964844 492.324219 407.964844 482.453125 C 408.167969 472.785156 401.394531 464.558594 385.582031 464.558594 Z M 339.574219 482.460938 L 339.574219 467.898438 L 344.097656 467.898438 C 349.027344 467.898438 351.285156 471.394531 351.285156 475.304688 C 351.285156 479.214844 349.023438 482.503906 344.097656 482.503906 Z M 385.984375 497.675781 L 385.164062 497.675781 C 381.261719 497.675781 380.640625 496.652344 380.640625 491.710938 L 380.640625 467.859375 L 385.972656 467.859375 C 397.472656 467.859375 399.523438 476.292969 399.523438 482.671875 C 399.523438 489.457031 397.261719 497.683594 385.972656 497.683594 Z M 263.589844 486.621094 L 271.1875 464.199219 C 273.449219 457.617188 272.464844 455.765625 265.433594 455.765625 L 265.433594 453.5 L 286.171875 453.5 L 286.171875 455.765625 C 279.191406 455.765625 277.550781 457.410156 274.875 465.433594 L 262.34375 503.03125 L 260.703125 503.03125 L 249.40625 468.679688 L 238.109375 503.03125 L 236.671875 503.03125 L 224.554688 465.390625 C 221.882812 457.367188 220.285156 455.722656 213.875 455.722656 L 213.875 453.457031 L 238.109375 453.457031 L 238.109375 455.722656 C 231.539062 455.722656 229.894531 457.164062 232.152344 464.15625 L 239.546875 486.578125 L 250.640625 453.453125 L 252.6875 453.453125 Z M 300.960938 502.667969 C 288.84375 502.667969 278.984375 493.820312 278.984375 482.921875 C 278.984375 472.222656 288.800781 463.175781 300.960938 463.175781 C 313.121094 463.175781 322.933594 472.023438 322.933594 482.921875 C 322.933594 493.820312 313.121094 502.667969 300.960938 502.667969 Z M 300.960938 466.46875 C 290.898438 466.46875 287.410156 475.519531 287.410156 482.71875 C 287.410156 489.914062 290.898438 498.96875 300.960938 498.96875 C 311.226562 498.96875 314.722656 489.914062 314.722656 482.71875 C 314.722656 475.726562 311.230469 466.46875 300.960938 466.46875 Z M 435.269531 498.960938 L 435.269531 501.226562 L 410.007812 501.226562 L 410.007812 498.960938 C 417.402344 498.960938 418.628906 497.113281 418.628906 486.003906 L 418.628906 468.308594 C 418.628906 457.195312 417.347656 455.554688 410.007812 455.554688 L 410.007812 453.289062 L 432.800781 453.289062 C 444.097656 453.289062 450.464844 459.050781 450.464844 466.863281 C 450.464844 474.472656 444.101562 480.4375 432.800781 480.4375 L 426.640625 480.4375 L 426.640625 486.199219 C 426.640625 497.097656 427.921875 498.953125 435.257812 498.953125 Z M 432.800781 457.410156 L 426.640625 457.410156 L 426.640625 476.542969 L 432.800781 476.542969 C 438.960938 476.542969 441.839844 472.265625 441.839844 467.078125 C 441.839844 461.890625 438.960938 457.410156 432.800781 457.410156 Z M 525.832031 490.9375 L 525.21875 492.988281 C 524.191406 496.6875 522.957031 497.925781 515.15625 497.925781 L 513.71875 497.925781 C 507.964844 497.925781 506.941406 496.640625 506.941406 488.871094 L 506.941406 483.730469 C 515.5625 483.730469 516.183594 484.554688 516.183594 490.3125 L 518.230469 490.3125 L 518.230469 473.855469 L 516.183594 473.855469 C 516.183594 479.617188 515.570312 480.4375 506.941406 480.4375 L 506.941406 468.113281 L 512.898438 468.113281 C 520.707031 468.113281 521.9375 469.394531 522.960938 473.050781 L 523.574219 475.101562 L 525.421875 475.101562 L 524.597656 464.816406 L 492.359375 464.816406 L 492.359375 466.871094 C 498.519531 466.871094 499.542969 468.152344 499.542969 475.921875 L 499.542969 489.910156 C 499.542969 497.109375 498.71875 498.960938 493.792969 499.167969 C 489.269531 498.550781 485.984375 495.875 481.675781 491.144531 L 476.539062 485.589844 C 483.316406 484.308594 487.015625 480.03125 487.015625 475.304688 C 487.015625 469.339844 481.882812 464.609375 472.230469 464.609375 L 452.929688 464.609375 L 452.929688 466.660156 C 459.089844 466.660156 460.113281 467.941406 460.113281 475.710938 L 460.113281 489.699219 C 460.113281 497.523438 459.089844 498.957031 452.929688 498.957031 L 452.929688 501.011719 L 474.699219 501.011719 L 474.699219 498.957031 C 468.535156 498.957031 467.511719 497.519531 467.511719 489.699219 L 467.511719 485.792969 L 469.359375 485.792969 L 481.476562 501.011719 L 526.65625 501.011719 L 527.269531 490.726562 L 525.832031 490.726562 Z M 467.71875 482.503906 L 467.71875 467.898438 L 472.238281 467.898438 C 477.167969 467.898438 479.425781 471.394531 479.425781 475.304688 C 479.425781 479.21875 477.164062 482.503906 472.238281 482.503906 Z M 467.71875 482.503906 " fill-opacity="1" fill-rule="nonzero"/></g><path fill="#e44d26" d="M 548.214844 502.667969 C 543.90625 502.667969 540 500.402344 538.402344 498.96875 C 537.789062 499.582031 536.964844 501.230469 536.554688 502.667969 L 534.507812 502.667969 L 534.507812 487.453125 L 536.765625 487.453125 C 537.589844 494.648438 542.722656 498.972656 549.089844 498.972656 C 552.582031 498.972656 555.457031 496.917969 555.457031 493.628906 C 555.457031 490.746094 552.988281 488.488281 548.476562 486.429688 L 542.3125 483.550781 C 538.003906 481.5 534.71875 477.789062 534.71875 473.058594 C 534.71875 467.714844 539.648438 463.226562 546.421875 463.226562 C 550.117188 463.226562 553.199219 464.46875 555.042969 466.109375 C 555.65625 465.699219 556.066406 464.460938 556.480469 463.226562 L 558.527344 463.226562 L 558.527344 476.1875 L 556.265625 476.1875 C 555.445312 471.042969 552.570312 466.722656 546.820312 466.722656 C 543.738281 466.722656 540.863281 468.574219 540.863281 471.253906 C 540.863281 474.136719 543.125 475.570312 548.457031 478.042969 L 554.414062 480.921875 C 559.75 483.390625 561.808594 487.503906 561.808594 490.753906 C 561.605469 497.746094 555.648438 502.675781 548.257812 502.675781 Z M 548.214844 502.667969 " fill-opacity="1" fill-rule="nonzero"/><path fill="#e44d26" d="M 582.101562 502.667969 C 577.792969 502.667969 573.890625 500.402344 572.289062 498.96875 C 571.675781 499.582031 570.851562 501.230469 570.441406 502.667969 L 568.394531 502.667969 L 568.394531 487.453125 L 570.65625 487.453125 C 571.476562 494.648438 576.609375 498.972656 582.976562 498.972656 C 586.46875 498.972656 589.34375 496.917969 589.34375 493.628906 C 589.34375 490.746094 586.878906 488.488281 582.363281 486.429688 L 576.203125 483.550781 C 571.890625 481.5 568.605469 477.789062 568.605469 473.058594 C 568.605469 467.714844 573.535156 463.226562 580.3125 463.226562 C 584.003906 463.226562 587.085938 464.46875 588.929688 466.109375 C 589.542969 465.699219 589.953125 464.460938 590.367188 463.226562 L 592.414062 463.226562 L 592.414062 476.1875 L 590.152344 476.1875 C 589.332031 471.042969 586.460938 466.722656 580.707031 466.722656 C 577.625 466.722656 574.75 468.574219 574.75 471.253906 C 574.75 474.136719 577.011719 475.570312 582.347656 478.042969 L 588.300781 480.921875 C 593.636719 483.390625 595.695312 487.503906 595.695312 490.753906 C 595.492188 497.746094 589.535156 502.675781 582.144531 502.675781 Z M 582.101562 502.667969 " fill-opacity="1" fill-rule="nonzero"/><g clip-path="url(#id2)"><path fill="#e44d26" d="M 348.464844 373.039062 C 348.464844 395.40625 361.292969 414.683594 380.0625 423.726562 L 353.457031 350.191406 C 350.367188 357.332031 348.464844 364.945312 348.464844 373.042969 Z M 442.789062 370.171875 C 442.789062 363.269531 440.175781 358.273438 438.035156 354.703125 C 435.1875 349.941406 432.574219 346.132812 432.574219 341.375 C 432.574219 336.140625 436.617188 331.375 442.078125 331.375 L 442.789062 331.375 C 432.804688 322.109375 419.5 316.628906 404.816406 316.628906 C 385.09375 316.867188 367.992188 326.859375 357.773438 342.09375 L 361.335938 342.09375 C 367.277344 342.09375 376.304688 341.378906 376.304688 341.378906 C 379.394531 341.140625 379.632812 345.664062 376.730469 346.140625 C 376.730469 346.140625 373.640625 346.566406 370.316406 346.566406 L 390.796875 407.496094 L 403.152344 370.609375 L 394.363281 346.574219 L 388.421875 346.144531 C 385.332031 345.90625 385.804688 341.382812 388.660156 341.382812 C 388.660156 341.382812 397.929688 342.097656 403.390625 342.097656 C 409.328125 342.097656 418.359375 341.382812 418.359375 341.382812 C 421.449219 341.144531 421.6875 345.667969 418.785156 346.144531 C 418.785156 346.144531 415.695312 346.574219 412.371094 346.574219 L 432.851562 407.265625 L 438.554688 388.457031 C 440.929688 380.601562 442.828125 375.132812 442.828125 370.132812 Z M 405.722656 378.039062 L 388.855469 427.0625 C 393.847656 428.488281 399.3125 429.441406 404.773438 429.441406 C 411.429688 429.441406 417.601562 428.253906 423.546875 426.347656 C 423.308594 426.109375 423.308594 425.917969 423.121094 425.632812 Z M 454.195312 346.152344 L 454.621094 351.863281 C 454.621094 357.574219 453.671875 364.003906 450.347656 372.09375 L 433.28125 421.828125 C 449.910156 412.070312 461.3125 393.984375 461.3125 373.042969 C 461.074219 363.285156 458.460938 354.234375 454.1875 346.148438 Z M 404.773438 307.351562 C 368.65625 307.351562 339.199219 336.863281 339.199219 373.03125 C 339.199219 409.203125 368.65625 438.71875 404.773438 438.71875 C 440.886719 438.71875 470.34375 409.207031 470.34375 373.039062 C 470.34375 336.867188 440.886719 307.351562 404.773438 307.351562 Z M 404.773438 435.859375 C 370.320312 435.859375 342.289062 407.78125 342.289062 373.03125 C 342.289062 338.480469 370.320312 310.445312 404.773438 310.445312 C 439.222656 310.445312 467.257812 338.523438 467.257812 373.03125 C 467.257812 407.78125 439.222656 435.859375 404.773438 435.859375 Z M 404.773438 435.859375 " fill-opacity="1" fill-rule="nonzero"/></g></svg>